solid OpenSCAD_Model
  facet normal 1 -0 0
    outer loop
      vertex -22.35 0 23.3
      vertex -22.35 1 -23.3
      vertex -22.35 1 23.3
    endloop
  endfacet
  facet normal 1 0 0
    outer loop
      vertex -22.35 1 -23.3
      vertex -22.35 0 23.3
      vertex -22.35 0 -23.3
    endloop
  endfacet
  facet normal 0 0 -1
    outer loop
      vertex -22.35 0 23.3
      vertex -17.65 1 23.3
      vertex -17.65 0 23.3
    endloop
  endfacet
  facet normal -0 0 -1
    outer loop
      vertex -17.65 1 23.3
      vertex -22.35 0 23.3
      vertex -22.35 1 23.3
    endloop
  endfacet
  facet normal -1 0 0
    outer loop
      vertex -17.65 0 -23.3
      vertex -17.65 1 23.3
      vertex -17.65 1 -23.3
    endloop
  endfacet
  facet normal -1 -0 0
    outer loop
      vertex -17.65 1 23.3
      vertex -17.65 0 -23.3
      vertex -17.65 0 23.3
    endloop
  endfacet
  facet normal -0 0 1
    outer loop
      vertex -22.35 1 -23.3
      vertex -17.65 0 -23.3
      vertex -17.65 1 -23.3
    endloop
  endfacet
  facet normal 0 0 1
    outer loop
      vertex -17.65 0 -23.3
      vertex -22.35 1 -23.3
      vertex -22.35 0 -23.3
    endloop
  endfacet
  facet normal 0 1 -0
    outer loop
      vertex -17.65 0 -23.3
      vertex -22.35 0 23.3
      vertex -17.65 0 23.3
    endloop
  endfacet
  facet normal 0 1 0
    outer loop
      vertex -22.35 0 23.3
      vertex -17.65 0 -23.3
      vertex -22.35 0 -23.3
    endloop
  endfacet
  facet normal 1 -0 0
    outer loop
      vertex 17.65 0 23.3
      vertex 17.65 1 -23.3
      vertex 17.65 1 23.3
    endloop
  endfacet
  facet normal 1 0 0
    outer loop
      vertex 17.65 1 -23.3
      vertex 17.65 0 23.3
      vertex 17.65 0 -23.3
    endloop
  endfacet
  facet normal 0 0 -1
    outer loop
      vertex 17.65 0 23.3
      vertex 22.35 1 23.3
      vertex 22.35 0 23.3
    endloop
  endfacet
  facet normal -0 0 -1
    outer loop
      vertex 22.35 1 23.3
      vertex 17.65 0 23.3
      vertex 17.65 1 23.3
    endloop
  endfacet
  facet normal -1 0 0
    outer loop
      vertex 22.35 0 -23.3
      vertex 22.35 1 23.3
      vertex 22.35 1 -23.3
    endloop
  endfacet
  facet normal -1 -0 0
    outer loop
      vertex 22.35 1 23.3
      vertex 22.35 0 -23.3
      vertex 22.35 0 23.3
    endloop
  endfacet
  facet normal -0 0 1
    outer loop
      vertex 17.65 1 -23.3
      vertex 22.35 0 -23.3
      vertex 22.35 1 -23.3
    endloop
  endfacet
  facet normal 0 0 1
    outer loop
      vertex 22.35 0 -23.3
      vertex 17.65 1 -23.3
      vertex 17.65 0 -23.3
    endloop
  endfacet
  facet normal 0 1 -0
    outer loop
      vertex 22.35 0 -23.3
      vertex 17.65 0 23.3
      vertex 22.35 0 23.3
    endloop
  endfacet
  facet normal 0 1 0
    outer loop
      vertex 17.65 0 23.3
      vertex 22.35 0 -23.3
      vertex 17.65 0 -23.3
    endloop
  endfacet
  facet normal -1 0 0
    outer loop
      vertex -25 -1 -25
      vertex -25 1 25
      vertex -25 1 -25
    endloop
  endfacet
  facet normal -1 -0 0
    outer loop
      vertex -25 1 25
      vertex -25 -1 -25
      vertex -25 -1 25
    endloop
  endfacet
  facet normal -0 0 1
    outer loop
      vertex -25 1 25
      vertex 25 -1 25
      vertex 25 1 25
    endloop
  endfacet
  facet normal 0 0 1
    outer loop
      vertex 25 -1 25
      vertex -25 1 25
      vertex -25 -1 25
    endloop
  endfacet
  facet normal 1 -0 0
    outer loop
      vertex 25 -1 25
      vertex 25 1 -25
      vertex 25 1 25
    endloop
  endfacet
  facet normal 1 0 0
    outer loop
      vertex 25 1 -25
      vertex 25 -1 25
      vertex 25 -1 -25
    endloop
  endfacet
  facet normal 0 1 -0
    outer loop
      vertex 17.65 1 -23.3
      vertex -17.65 1 23.3
      vertex 17.65 1 23.3
    endloop
  endfacet
  facet normal 0 1 0
    outer loop
      vertex -17.65 1 23.3
      vertex 17.65 1 -23.3
      vertex -17.65 1 -23.3
    endloop
  endfacet
  facet normal 0 1 0
    outer loop
      vertex 17.65 1 23.3
      vertex 25 1 25
      vertex 22.35 1 23.3
    endloop
  endfacet
  facet normal 0 1 0
    outer loop
      vertex 25 1 25
      vertex 22.35 1 -23.3
      vertex 22.35 1 23.3
    endloop
  endfacet
  facet normal 0 1 0
    outer loop
      vertex 25 1 -25
      vertex 17.65 1 -23.3
      vertex 22.35 1 -23.3
    endloop
  endfacet
  facet normal 0 1 0
    outer loop
      vertex 17.65 1 -23.3
      vertex 25 1 -25
      vertex -17.65 1 -23.3
    endloop
  endfacet
  facet normal 0 1 0
    outer loop
      vertex -25 1 -25
      vertex -17.65 1 -23.3
      vertex 25 1 -25
    endloop
  endfacet
  facet normal 0 1 -0
    outer loop
      vertex 25 1 -25
      vertex 22.35 1 -23.3
      vertex 25 1 25
    endloop
  endfacet
  facet normal 0 1 0
    outer loop
      vertex 25 1 25
      vertex 17.65 1 23.3
      vertex -25 1 25
    endloop
  endfacet
  facet normal 0 1 -0
    outer loop
      vertex -17.65 1 23.3
      vertex -25 1 25
      vertex 17.65 1 23.3
    endloop
  endfacet
  facet normal 0 1 -0
    outer loop
      vertex -22.35 1 23.3
      vertex -25 1 25
      vertex -17.65 1 23.3
    endloop
  endfacet
  facet normal 0 1 -0
    outer loop
      vertex -22.35 1 -23.3
      vertex -25 1 25
      vertex -22.35 1 23.3
    endloop
  endfacet
  facet normal 0 1 0
    outer loop
      vertex -22.35 1 -23.3
      vertex -25 1 -25
      vertex -25 1 25
    endloop
  endfacet
  facet normal 0 1 0
    outer loop
      vertex -17.65 1 -23.3
      vertex -25 1 -25
      vertex -22.35 1 -23.3
    endloop
  endfacet
  facet normal 0 0 -1
    outer loop
      vertex -25 -1 -25
      vertex 25 1 -25
      vertex 25 -1 -25
    endloop
  endfacet
  facet normal -0 0 -1
    outer loop
      vertex 25 1 -25
      vertex -25 -1 -25
      vertex -25 1 -25
    endloop
  endfacet
  facet normal 0 -1 0
    outer loop
      vertex -25 -1 -25
      vertex 25 -1 25
      vertex -25 -1 25
    endloop
  endfacet
  facet normal 0 -1 -0
    outer loop
      vertex 25 -1 25
      vertex -25 -1 -25
      vertex 25 -1 -25
    endloop
  endfacet
endsolid OpenSCAD_Model
