solid OpenSCAD_Model
  facet normal -0 0 1
    outer loop
      vertex 78.9677 28.4337 70
      vertex 81 28 70
      vertex 80.8907 29.0396 70
    endloop
  endfacet
  facet normal 0 0 1
    outer loop
      vertex 81 28 70
      vertex 79.4 26.4 70
      vertex 81 5 70
    endloop
  endfacet
  facet normal 0 0 1
    outer loop
      vertex 78.9677 28.4337 70
      vertex 80.8907 29.0396 70
      vertex 80.5677 30.0337 70
    endloop
  endfacet
  facet normal -0 0 1
    outer loop
      vertex 79.4 6.6 70
      vertex 81 5 70
      vertex 79.4 26.4 70
    endloop
  endfacet
  facet normal 0 0 1
    outer loop
      vertex 78.4451 29.3389 70
      vertex 80.5677 30.0337 70
      vertex 80.0451 30.9389 70
    endloop
  endfacet
  facet normal -0 0 1
    outer loop
      vertex 79.2907 5.56044 70
      vertex 81 5 70
      vertex 79.4 6.6 70
    endloop
  endfacet
  facet normal 0 0 1
    outer loop
      vertex 78.9677 4.56632 70
      vertex 81 5 70
      vertex 79.2907 5.56044 70
    endloop
  endfacet
  facet normal 0 0 1
    outer loop
      vertex 77.7457 30.1157 70
      vertex 80.0451 30.9389 70
      vertex 79.3456 31.7157 70
    endloop
  endfacet
  facet normal 0 0 1
    outer loop
      vertex 81 28 70
      vertex 79.2907 27.4396 70
      vertex 79.4 26.4 70
    endloop
  endfacet
  facet normal 0 0 1
    outer loop
      vertex 81 28 70
      vertex 78.9677 28.4337 70
      vertex 79.2907 27.4396 70
    endloop
  endfacet
  facet normal 0 0 1
    outer loop
      vertex 77.7457 30.1157 70
      vertex 79.3456 31.7157 70
      vertex 78.5 32.3301 70
    endloop
  endfacet
  facet normal 0 0 1
    outer loop
      vertex 80.5677 30.0337 70
      vertex 78.4451 29.3389 70
      vertex 78.9677 28.4337 70
    endloop
  endfacet
  facet normal 0 0 1
    outer loop
      vertex 80.0451 30.9389 70
      vertex 77.7457 30.1157 70
      vertex 78.4451 29.3389 70
    endloop
  endfacet
  facet normal 0 0 1
    outer loop
      vertex 76.9 30.7301 70
      vertex 78.5 32.3301 70
      vertex 77.5451 32.7553 70
    endloop
  endfacet
  facet normal 0 0 1
    outer loop
      vertex 78.5 32.3301 70
      vertex 76.9 30.7301 70
      vertex 77.7457 30.1157 70
    endloop
  endfacet
  facet normal 0 0 1
    outer loop
      vertex 75.9451 31.1553 70
      vertex 77.5451 32.7553 70
      vertex 76.5226 32.9726 70
    endloop
  endfacet
  facet normal 0 0 1
    outer loop
      vertex 77.5451 32.7553 70
      vertex 75.9451 31.1553 70
      vertex 76.9 30.7301 70
    endloop
  endfacet
  facet normal 0 0 1
    outer loop
      vertex 76.5226 32.9726 70
      vertex 74.9226 31.3726 70
      vertex 75.9451 31.1553 70
    endloop
  endfacet
  facet normal 0 0 1
    outer loop
      vertex 76.5226 32.9726 70
      vertex 6.07736 31.3726 70
      vertex 74.9226 31.3726 70
    endloop
  endfacet
  facet normal -0 0 1
    outer loop
      vertex 4.47736 32.9726 70
      vertex 6.07736 31.3726 70
      vertex 76.5226 32.9726 70
    endloop
  endfacet
  facet normal 0 0 1
    outer loop
      vertex 4.47736 32.9726 70
      vertex 5.05491 31.1553 70
      vertex 6.07736 31.3726 70
    endloop
  endfacet
  facet normal -0 0 1
    outer loop
      vertex 3.45491 32.7553 70
      vertex 5.05491 31.1553 70
      vertex 4.47736 32.9726 70
    endloop
  endfacet
  facet normal 0 0 1
    outer loop
      vertex 5.05491 31.1553 70
      vertex 3.45491 32.7553 70
      vertex 4.1 30.7301 70
    endloop
  endfacet
  facet normal -0 0 1
    outer loop
      vertex 2.5 32.3301 70
      vertex 4.1 30.7301 70
      vertex 3.45491 32.7553 70
    endloop
  endfacet
  facet normal 0 0 1
    outer loop
      vertex 4.1 30.7301 70
      vertex 2.5 32.3301 70
      vertex 3.25435 30.1157 70
    endloop
  endfacet
  facet normal -0 0 1
    outer loop
      vertex 1.65435 31.7157 70
      vertex 3.25435 30.1157 70
      vertex 2.5 32.3301 70
    endloop
  endfacet
  facet normal -0 0 1
    outer loop
      vertex 0.954914 30.9389 70
      vertex 3.25435 30.1157 70
      vertex 1.65435 31.7157 70
    endloop
  endfacet
  facet normal 0 0 1
    outer loop
      vertex 3.25435 30.1157 70
      vertex 0.954914 30.9389 70
      vertex 2.55491 29.3389 70
    endloop
  endfacet
  facet normal -0 0 1
    outer loop
      vertex 0.432272 30.0337 70
      vertex 2.55491 29.3389 70
      vertex 0.954914 30.9389 70
    endloop
  endfacet
  facet normal 0 0 1
    outer loop
      vertex 2.55491 29.3389 70
      vertex 0.432272 30.0337 70
      vertex 2.03227 28.4337 70
    endloop
  endfacet
  facet normal 0 0 1
    outer loop
      vertex 0 28 70
      vertex 2.03227 28.4337 70
      vertex 0.109262 29.0396 70
    endloop
  endfacet
  facet normal -0 0 1
    outer loop
      vertex 0.109262 29.0396 70
      vertex 2.03227 28.4337 70
      vertex 0.432272 30.0337 70
    endloop
  endfacet
  facet normal 0 0 1
    outer loop
      vertex 81 5 70
      vertex 78.9677 4.56632 70
      vertex 80.8907 3.96044 70
    endloop
  endfacet
  facet normal 0 0 1
    outer loop
      vertex 80.8907 3.96044 70
      vertex 78.9677 4.56632 70
      vertex 80.5677 2.96632 70
    endloop
  endfacet
  facet normal -0 0 1
    outer loop
      vertex 78.4451 3.66107 70
      vertex 80.5677 2.96632 70
      vertex 78.9677 4.56632 70
    endloop
  endfacet
  facet normal 0 0 1
    outer loop
      vertex 80.5677 2.96632 70
      vertex 78.4451 3.66107 70
      vertex 80.0451 2.06107 70
    endloop
  endfacet
  facet normal -0 0 1
    outer loop
      vertex 77.7457 2.88428 70
      vertex 80.0451 2.06107 70
      vertex 78.4451 3.66107 70
    endloop
  endfacet
  facet normal 0 0 1
    outer loop
      vertex 80.0451 2.06107 70
      vertex 77.7457 2.88428 70
      vertex 79.3456 1.28428 70
    endloop
  endfacet
  facet normal 0 0 1
    outer loop
      vertex 79.3456 1.28428 70
      vertex 77.7457 2.88428 70
      vertex 78.5 0.669872 70
    endloop
  endfacet
  facet normal -0 0 1
    outer loop
      vertex 76.9 2.26987 70
      vertex 78.5 0.669872 70
      vertex 77.7457 2.88428 70
    endloop
  endfacet
  facet normal 0 0 1
    outer loop
      vertex 78.5 0.669872 70
      vertex 76.9 2.26987 70
      vertex 77.5451 0.244717 70
    endloop
  endfacet
  facet normal -0 0 1
    outer loop
      vertex 75.9451 1.84472 70
      vertex 77.5451 0.244717 70
      vertex 76.9 2.26987 70
    endloop
  endfacet
  facet normal 0 0 1
    outer loop
      vertex 77.5451 0.244717 70
      vertex 75.9451 1.84472 70
      vertex 76.5226 0.0273905 70
    endloop
  endfacet
  facet normal -0 0 1
    outer loop
      vertex 74.9226 1.62739 70
      vertex 76.5226 0.0273905 70
      vertex 75.9451 1.84472 70
    endloop
  endfacet
  facet normal -0 0 1
    outer loop
      vertex 6.07736 1.62739 70
      vertex 76.5226 0.0273905 70
      vertex 74.9226 1.62739 70
    endloop
  endfacet
  facet normal 0 0 1
    outer loop
      vertex 6.07736 1.62739 70
      vertex 4.47736 0.0273905 70
      vertex 76.5226 0.0273905 70
    endloop
  endfacet
  facet normal 0 0 1
    outer loop
      vertex 5.05491 1.84472 70
      vertex 4.47736 0.0273905 70
      vertex 6.07736 1.62739 70
    endloop
  endfacet
  facet normal 0 0 1
    outer loop
      vertex 3.45491 0.244717 70
      vertex 5.05491 1.84472 70
      vertex 4.1 2.26987 70
    endloop
  endfacet
  facet normal 0 0 1
    outer loop
      vertex 5.05491 1.84472 70
      vertex 3.45491 0.244717 70
      vertex 4.47736 0.0273905 70
    endloop
  endfacet
  facet normal 0 0 1
    outer loop
      vertex 2.5 0.669872 70
      vertex 4.1 2.26987 70
      vertex 3.25435 2.88428 70
    endloop
  endfacet
  facet normal 0 0 1
    outer loop
      vertex 0.954914 2.06107 70
      vertex 3.25435 2.88428 70
      vertex 2.55491 3.66107 70
    endloop
  endfacet
  facet normal 0 0 1
    outer loop
      vertex 4.1 2.26987 70
      vertex 2.5 0.669872 70
      vertex 3.45491 0.244717 70
    endloop
  endfacet
  facet normal 0 0 1
    outer loop
      vertex 0.432272 2.96632 70
      vertex 2.55491 3.66107 70
      vertex 2.03227 4.56632 70
    endloop
  endfacet
  facet normal -0 0 1
    outer loop
      vertex 0 5 70
      vertex 2.03227 4.56632 70
      vertex 1.70926 5.56044 70
    endloop
  endfacet
  facet normal 0 0 1
    outer loop
      vertex 3.25435 2.88428 70
      vertex 1.65435 1.28428 70
      vertex 2.5 0.669872 70
    endloop
  endfacet
  facet normal 0 0 1
    outer loop
      vertex 0 5 70
      vertex 1.70926 5.56044 70
      vertex 1.6 6.6 70
    endloop
  endfacet
  facet normal 0 0 1
    outer loop
      vertex 1.6 26.4 70
      vertex 0 28 70
      vertex 1.6 6.6 70
    endloop
  endfacet
  facet normal 0 0 1
    outer loop
      vertex 0 5 70
      vertex 1.6 6.6 70
      vertex 0 28 70
    endloop
  endfacet
  facet normal 0 0 1
    outer loop
      vertex 2.03227 28.4337 70
      vertex 0 28 70
      vertex 1.70926 27.4396 70
    endloop
  endfacet
  facet normal 0 0 1
    outer loop
      vertex 2.03227 4.56632 70
      vertex 0 5 70
      vertex 0.109262 3.96044 70
    endloop
  endfacet
  facet normal 0 0 1
    outer loop
      vertex 1.70926 27.4396 70
      vertex 0 28 70
      vertex 1.6 26.4 70
    endloop
  endfacet
  facet normal 0 0 1
    outer loop
      vertex 3.25435 2.88428 70
      vertex 0.954914 2.06107 70
      vertex 1.65435 1.28428 70
    endloop
  endfacet
  facet normal 0 0 1
    outer loop
      vertex 2.55491 3.66107 70
      vertex 0.432272 2.96632 70
      vertex 0.954914 2.06107 70
    endloop
  endfacet
  facet normal 0 0 1
    outer loop
      vertex 2.03227 4.56632 70
      vertex 0.109262 3.96044 70
      vertex 0.432272 2.96632 70
    endloop
  endfacet
  facet normal -0.994522 -0.104528 0
    outer loop
      vertex 0.109262 3.96044 0
      vertex 0 5 70
      vertex 0 5 0
    endloop
  endfacet
  facet normal -0.994522 -0.104528 0
    outer loop
      vertex 0 5 70
      vertex 0.109262 3.96044 0
      vertex 0.109262 3.96044 70
    endloop
  endfacet
  facet normal 0.994518 -0.104564 0
    outer loop
      vertex 80.8907 3.96044 70
      vertex 81 5 0
      vertex 81 5 70
    endloop
  endfacet
  facet normal 0.994518 -0.104564 0
    outer loop
      vertex 81 5 0
      vertex 80.8907 3.96044 70
      vertex 80.8907 3.96044 0
    endloop
  endfacet
  facet normal 0 0 -1
    outer loop
      vertex 76.5226 0.0273905 0
      vertex 81 5 0
      vertex 80.8907 3.96044 0
    endloop
  endfacet
  facet normal 0 0 -1
    outer loop
      vertex 81 5 0
      vertex 48 11.5 0
      vertex 81 28 0
    endloop
  endfacet
  facet normal 0 0 -1
    outer loop
      vertex 76.5226 0.0273905 0
      vertex 80.8907 3.96044 0
      vertex 80.5677 2.96632 0
    endloop
  endfacet
  facet normal -0 0 -1
    outer loop
      vertex 81 5 0
      vertex 76.5226 0.0273905 0
      vertex 48 11.5 0
    endloop
  endfacet
  facet normal 0 0 -1
    outer loop
      vertex 76.5226 0.0273905 0
      vertex 80.5677 2.96632 0
      vertex 80.0451 2.06107 0
    endloop
  endfacet
  facet normal 0 0 -1
    outer loop
      vertex 48 21.5 0
      vertex 81 28 0
      vertex 48 11.5 0
    endloop
  endfacet
  facet normal 0 0 -1
    outer loop
      vertex 76.5226 0.0273905 0
      vertex 80.0451 2.06107 0
      vertex 79.3456 1.28428 0
    endloop
  endfacet
  facet normal 0 0 -1
    outer loop
      vertex 80.8907 29.0396 0
      vertex 76.5226 32.9726 0
      vertex 80.5677 30.0337 0
    endloop
  endfacet
  facet normal 0 0 -1
    outer loop
      vertex 76.5226 0.0273905 0
      vertex 79.3456 1.28428 0
      vertex 78.5 0.669872 0
    endloop
  endfacet
  facet normal 0 0 -1
    outer loop
      vertex 80.5677 30.0337 0
      vertex 76.5226 32.9726 0
      vertex 80.0451 30.9389 0
    endloop
  endfacet
  facet normal 0 0 -1
    outer loop
      vertex 76.5226 0.0273905 0
      vertex 78.5 0.669872 0
      vertex 77.5451 0.244717 0
    endloop
  endfacet
  facet normal 0 0 -1
    outer loop
      vertex 80.0451 30.9389 0
      vertex 76.5226 32.9726 0
      vertex 79.3456 31.7157 0
    endloop
  endfacet
  facet normal 0 0 -1
    outer loop
      vertex 79.3456 31.7157 0
      vertex 76.5226 32.9726 0
      vertex 78.5 32.3301 0
    endloop
  endfacet
  facet normal 0 0 -1
    outer loop
      vertex 78.5 32.3301 0
      vertex 76.5226 32.9726 0
      vertex 77.5451 32.7553 0
    endloop
  endfacet
  facet normal 0 -0 -1
    outer loop
      vertex 76.5226 32.9726 0
      vertex 81 28 0
      vertex 48 21.5 0
    endloop
  endfacet
  facet normal 0 0 -1
    outer loop
      vertex 76.5226 0.0273905 0
      vertex 47.8907 10.4604 0
      vertex 48 11.5 0
    endloop
  endfacet
  facet normal 0 0 -1
    outer loop
      vertex 76.5226 0.0273905 0
      vertex 47.5677 9.46632 0
      vertex 47.8907 10.4604 0
    endloop
  endfacet
  facet normal 0 0 -1
    outer loop
      vertex 76.5226 0.0273905 0
      vertex 47.0451 8.56107 0
      vertex 47.5677 9.46632 0
    endloop
  endfacet
  facet normal 0 0 -1
    outer loop
      vertex 76.5226 0.0273905 0
      vertex 46.3457 7.78428 0
      vertex 47.0451 8.56107 0
    endloop
  endfacet
  facet normal 0 0 -1
    outer loop
      vertex 76.5226 0.0273905 0
      vertex 45.5 7.16987 0
      vertex 46.3457 7.78428 0
    endloop
  endfacet
  facet normal 0 0 -1
    outer loop
      vertex 76.5226 0.0273905 0
      vertex 44.5451 6.74472 0
      vertex 45.5 7.16987 0
    endloop
  endfacet
  facet normal 0 0 -1
    outer loop
      vertex 76.5226 0.0273905 0
      vertex 43.5226 6.52739 0
      vertex 44.5451 6.74472 0
    endloop
  endfacet
  facet normal 0 0 -1
    outer loop
      vertex 76.5226 0.0273905 0
      vertex 37.4774 6.52739 0
      vertex 43.5226 6.52739 0
    endloop
  endfacet
  facet normal 0 0 -1
    outer loop
      vertex 0 5 0
      vertex 33 11.5 0
      vertex 4.47736 0.0273905 0
    endloop
  endfacet
  facet normal -0 0 -1
    outer loop
      vertex 33.1093 10.4604 0
      vertex 4.47736 0.0273905 0
      vertex 33 11.5 0
    endloop
  endfacet
  facet normal -0 0 -1
    outer loop
      vertex 33.4323 9.46632 0
      vertex 4.47736 0.0273905 0
      vertex 33.1093 10.4604 0
    endloop
  endfacet
  facet normal -0 0 -1
    outer loop
      vertex 33.9549 8.56107 0
      vertex 4.47736 0.0273905 0
      vertex 33.4323 9.46632 0
    endloop
  endfacet
  facet normal -0 0 -1
    outer loop
      vertex 34.6543 7.78428 0
      vertex 4.47736 0.0273905 0
      vertex 33.9549 8.56107 0
    endloop
  endfacet
  facet normal -0 0 -1
    outer loop
      vertex 35.5 7.16987 0
      vertex 4.47736 0.0273905 0
      vertex 34.6543 7.78428 0
    endloop
  endfacet
  facet normal -0 0 -1
    outer loop
      vertex 36.4549 6.74472 0
      vertex 4.47736 0.0273905 0
      vertex 35.5 7.16987 0
    endloop
  endfacet
  facet normal -0 0 -1
    outer loop
      vertex 37.4774 6.52739 0
      vertex 4.47736 0.0273905 0
      vertex 36.4549 6.74472 0
    endloop
  endfacet
  facet normal 0 0 -1
    outer loop
      vertex 4.47736 0.0273905 0
      vertex 37.4774 6.52739 0
      vertex 76.5226 0.0273905 0
    endloop
  endfacet
  facet normal 0 0 -1
    outer loop
      vertex 81 28 0
      vertex 76.5226 32.9726 0
      vertex 80.8907 29.0396 0
    endloop
  endfacet
  facet normal 0 0 -1
    outer loop
      vertex 47.8907 22.5396 0
      vertex 76.5226 32.9726 0
      vertex 48 21.5 0
    endloop
  endfacet
  facet normal 0 0 -1
    outer loop
      vertex 47.5677 23.5337 0
      vertex 76.5226 32.9726 0
      vertex 47.8907 22.5396 0
    endloop
  endfacet
  facet normal 0 0 -1
    outer loop
      vertex 47.0451 24.4389 0
      vertex 76.5226 32.9726 0
      vertex 47.5677 23.5337 0
    endloop
  endfacet
  facet normal 0 0 -1
    outer loop
      vertex 46.3457 25.2157 0
      vertex 76.5226 32.9726 0
      vertex 47.0451 24.4389 0
    endloop
  endfacet
  facet normal 0 0 -1
    outer loop
      vertex 45.5 25.8301 0
      vertex 76.5226 32.9726 0
      vertex 46.3457 25.2157 0
    endloop
  endfacet
  facet normal 0 0 -1
    outer loop
      vertex 44.5451 26.2553 0
      vertex 76.5226 32.9726 0
      vertex 45.5 25.8301 0
    endloop
  endfacet
  facet normal 0 0 -1
    outer loop
      vertex 43.5226 26.4726 0
      vertex 76.5226 32.9726 0
      vertex 44.5451 26.2553 0
    endloop
  endfacet
  facet normal 0 0 -1
    outer loop
      vertex 37.4774 26.4726 0
      vertex 76.5226 32.9726 0
      vertex 43.5226 26.4726 0
    endloop
  endfacet
  facet normal -0 0 -1
    outer loop
      vertex 33 11.5 0
      vertex 0 5 0
      vertex 33 21.5 0
    endloop
  endfacet
  facet normal 0 0 -1
    outer loop
      vertex 0 28 0
      vertex 33 21.5 0
      vertex 0 5 0
    endloop
  endfacet
  facet normal 0 -0 -1
    outer loop
      vertex 4.47736 32.9726 0
      vertex 33 21.5 0
      vertex 0 28 0
    endloop
  endfacet
  facet normal 0 0 -1
    outer loop
      vertex 33 21.5 0
      vertex 4.47736 32.9726 0
      vertex 33.1093 22.5396 0
    endloop
  endfacet
  facet normal 0 0 -1
    outer loop
      vertex 37.4774 26.4726 0
      vertex 4.47736 32.9726 0
      vertex 76.5226 32.9726 0
    endloop
  endfacet
  facet normal 0 0 -1
    outer loop
      vertex 36.4549 26.2553 0
      vertex 4.47736 32.9726 0
      vertex 37.4774 26.4726 0
    endloop
  endfacet
  facet normal 0 0 -1
    outer loop
      vertex 35.5 25.8301 0
      vertex 4.47736 32.9726 0
      vertex 36.4549 26.2553 0
    endloop
  endfacet
  facet normal 0 0 -1
    outer loop
      vertex 34.6543 25.2157 0
      vertex 4.47736 32.9726 0
      vertex 35.5 25.8301 0
    endloop
  endfacet
  facet normal 0 0 -1
    outer loop
      vertex 33.1093 22.5396 0
      vertex 4.47736 32.9726 0
      vertex 33.4323 23.5337 0
    endloop
  endfacet
  facet normal 0 0 -1
    outer loop
      vertex 0 5 0
      vertex 4.47736 0.0273905 0
      vertex 3.45491 0.244717 0
    endloop
  endfacet
  facet normal 0 0 -1
    outer loop
      vertex 33.4323 23.5337 0
      vertex 4.47736 32.9726 0
      vertex 33.9549 24.4389 0
    endloop
  endfacet
  facet normal 0 0 -1
    outer loop
      vertex 0 5 0
      vertex 3.45491 0.244717 0
      vertex 2.5 0.669872 0
    endloop
  endfacet
  facet normal 0 0 -1
    outer loop
      vertex 33.9549 24.4389 0
      vertex 4.47736 32.9726 0
      vertex 34.6543 25.2157 0
    endloop
  endfacet
  facet normal 0 0 -1
    outer loop
      vertex 0 5 0
      vertex 2.5 0.669872 0
      vertex 1.65435 1.28428 0
    endloop
  endfacet
  facet normal 0 0 -1
    outer loop
      vertex 4.47736 32.9726 0
      vertex 0 28 0
      vertex 3.45491 32.7553 0
    endloop
  endfacet
  facet normal 0 0 -1
    outer loop
      vertex 0 5 0
      vertex 1.65435 1.28428 0
      vertex 0.954914 2.06107 0
    endloop
  endfacet
  facet normal 0 0 -1
    outer loop
      vertex 3.45491 32.7553 0
      vertex 0 28 0
      vertex 2.5 32.3301 0
    endloop
  endfacet
  facet normal 0 0 -1
    outer loop
      vertex 0 5 0
      vertex 0.954914 2.06107 0
      vertex 0.432272 2.96632 0
    endloop
  endfacet
  facet normal 0 0 -1
    outer loop
      vertex 2.5 32.3301 0
      vertex 0 28 0
      vertex 1.65435 31.7157 0
    endloop
  endfacet
  facet normal 0 0 -1
    outer loop
      vertex 0 5 0
      vertex 0.432272 2.96632 0
      vertex 0.109262 3.96044 0
    endloop
  endfacet
  facet normal 0 0 -1
    outer loop
      vertex 1.65435 31.7157 0
      vertex 0 28 0
      vertex 0.954914 30.9389 0
    endloop
  endfacet
  facet normal 0 0 -1
    outer loop
      vertex 0.954914 30.9389 0
      vertex 0 28 0
      vertex 0.432272 30.0337 0
    endloop
  endfacet
  facet normal 0 0 -1
    outer loop
      vertex 0.432272 30.0337 0
      vertex 0 28 0
      vertex 0.109262 29.0396 0
    endloop
  endfacet
  facet normal -0.951056 -0.309018 0
    outer loop
      vertex 0.432272 2.96632 0
      vertex 0.109262 3.96044 70
      vertex 0.109262 3.96044 0
    endloop
  endfacet
  facet normal -0.951056 -0.309018 0
    outer loop
      vertex 0.109262 3.96044 70
      vertex 0.432272 2.96632 0
      vertex 0.432272 2.96632 70
    endloop
  endfacet
  facet normal -0.743144 0.669132 0
    outer loop
      vertex 0.954914 30.9389 0
      vertex 1.65435 31.7157 70
      vertex 1.65435 31.7157 0
    endloop
  endfacet
  facet normal -0.743144 0.669132 0
    outer loop
      vertex 1.65435 31.7157 70
      vertex 0.954914 30.9389 0
      vertex 0.954914 30.9389 70
    endloop
  endfacet
  facet normal -1 0 0
    outer loop
      vertex 0 5 0
      vertex 0 28 70
      vertex 0 28 0
    endloop
  endfacet
  facet normal -1 -0 0
    outer loop
      vertex 0 28 70
      vertex 0 5 0
      vertex 0 5 70
    endloop
  endfacet
  facet normal -0.994522 0.104524 0
    outer loop
      vertex 0 28 0
      vertex 0.109262 29.0396 70
      vertex 0.109262 29.0396 0
    endloop
  endfacet
  facet normal -0.994522 0.104524 0
    outer loop
      vertex 0.109262 29.0396 70
      vertex 0 28 0
      vertex 0 28 70
    endloop
  endfacet
  facet normal 1 -0 0
    outer loop
      vertex 81 5 70
      vertex 81 28 0
      vertex 81 28 70
    endloop
  endfacet
  facet normal 1 0 0
    outer loop
      vertex 81 28 0
      vertex 81 5 70
      vertex 81 5 0
    endloop
  endfacet
  facet normal 0 1 0
    outer loop
      vertex 76.5226 32.9726 70
      vertex 45.5 32.9726 44
      vertex 4.47736 32.9726 70
    endloop
  endfacet
  facet normal 0 1 0
    outer loop
      vertex 76.5226 32.9726 70
      vertex 46.5396 32.9726 43.8907
      vertex 45.5 32.9726 44
    endloop
  endfacet
  facet normal 0 1 0
    outer loop
      vertex 76.5226 32.9726 70
      vertex 47.5337 32.9726 43.5677
      vertex 46.5396 32.9726 43.8907
    endloop
  endfacet
  facet normal 0 1 0
    outer loop
      vertex 76.5226 32.9726 70
      vertex 48.4389 32.9726 43.0451
      vertex 47.5337 32.9726 43.5677
    endloop
  endfacet
  facet normal 0 1 0
    outer loop
      vertex 76.5226 32.9726 70
      vertex 49.2157 32.9726 42.3457
      vertex 48.4389 32.9726 43.0451
    endloop
  endfacet
  facet normal 0 1 0
    outer loop
      vertex 76.5226 32.9726 70
      vertex 49.8301 32.9726 41.5
      vertex 49.2157 32.9726 42.3457
    endloop
  endfacet
  facet normal 0 1 0
    outer loop
      vertex 76.5226 32.9726 70
      vertex 50.2553 32.9726 40.5451
      vertex 49.8301 32.9726 41.5
    endloop
  endfacet
  facet normal 0 1 0
    outer loop
      vertex 76.5226 32.9726 70
      vertex 50.4726 32.9726 39.5226
      vertex 50.2553 32.9726 40.5451
    endloop
  endfacet
  facet normal 0 1 -0
    outer loop
      vertex 76.5226 32.9726 0
      vertex 50.4726 32.9726 39.5226
      vertex 76.5226 32.9726 70
    endloop
  endfacet
  facet normal 0 1 0
    outer loop
      vertex 50.4726 32.9726 39.5226
      vertex 76.5226 32.9726 0
      vertex 50.4726 32.9726 18.4774
    endloop
  endfacet
  facet normal 0 1 0
    outer loop
      vertex 50.4726 32.9726 18.4774
      vertex 76.5226 32.9726 0
      vertex 50.2553 32.9726 17.4549
    endloop
  endfacet
  facet normal 0 1 0
    outer loop
      vertex 45.5 32.9726 14
      vertex 76.5226 32.9726 0
      vertex 35.5 32.9726 14
    endloop
  endfacet
  facet normal 0 1 0
    outer loop
      vertex 46.5396 32.9726 14.1093
      vertex 76.5226 32.9726 0
      vertex 45.5 32.9726 14
    endloop
  endfacet
  facet normal 0 1 0
    outer loop
      vertex 47.5337 32.9726 14.4323
      vertex 76.5226 32.9726 0
      vertex 46.5396 32.9726 14.1093
    endloop
  endfacet
  facet normal 0 1 0
    outer loop
      vertex 48.4389 32.9726 14.9549
      vertex 76.5226 32.9726 0
      vertex 47.5337 32.9726 14.4323
    endloop
  endfacet
  facet normal 0 1 0
    outer loop
      vertex 49.2157 32.9726 15.6543
      vertex 76.5226 32.9726 0
      vertex 48.4389 32.9726 14.9549
    endloop
  endfacet
  facet normal 0 1 0
    outer loop
      vertex 49.8301 32.9726 16.5
      vertex 76.5226 32.9726 0
      vertex 49.2157 32.9726 15.6543
    endloop
  endfacet
  facet normal 0 1 0
    outer loop
      vertex 50.2553 32.9726 17.4549
      vertex 76.5226 32.9726 0
      vertex 49.8301 32.9726 16.5
    endloop
  endfacet
  facet normal 0 1 -0
    outer loop
      vertex 35.5 32.9726 44
      vertex 4.47736 32.9726 70
      vertex 45.5 32.9726 44
    endloop
  endfacet
  facet normal 0 1 -0
    outer loop
      vertex 34.4604 32.9726 43.8907
      vertex 4.47736 32.9726 70
      vertex 35.5 32.9726 44
    endloop
  endfacet
  facet normal 0 1 -0
    outer loop
      vertex 33.4663 32.9726 43.5677
      vertex 4.47736 32.9726 70
      vertex 34.4604 32.9726 43.8907
    endloop
  endfacet
  facet normal 0 1 -0
    outer loop
      vertex 32.5611 32.9726 43.0451
      vertex 4.47736 32.9726 70
      vertex 33.4663 32.9726 43.5677
    endloop
  endfacet
  facet normal 0 1 -0
    outer loop
      vertex 31.7843 32.9726 42.3457
      vertex 4.47736 32.9726 70
      vertex 32.5611 32.9726 43.0451
    endloop
  endfacet
  facet normal 0 1 -0
    outer loop
      vertex 31.1699 32.9726 41.5
      vertex 4.47736 32.9726 70
      vertex 31.7843 32.9726 42.3457
    endloop
  endfacet
  facet normal 0 1 -0
    outer loop
      vertex 30.7447 32.9726 40.5451
      vertex 4.47736 32.9726 70
      vertex 31.1699 32.9726 41.5
    endloop
  endfacet
  facet normal 0 1 -0
    outer loop
      vertex 30.5274 32.9726 39.5226
      vertex 4.47736 32.9726 70
      vertex 30.7447 32.9726 40.5451
    endloop
  endfacet
  facet normal 0 1 0
    outer loop
      vertex 4.47736 32.9726 0
      vertex 30.5274 32.9726 39.5226
      vertex 30.5274 32.9726 18.4774
    endloop
  endfacet
  facet normal 0 1 0
    outer loop
      vertex 4.47736 32.9726 0
      vertex 30.5274 32.9726 18.4774
      vertex 30.7447 32.9726 17.4549
    endloop
  endfacet
  facet normal 0 1 0
    outer loop
      vertex 4.47736 32.9726 0
      vertex 30.7447 32.9726 17.4549
      vertex 31.1699 32.9726 16.5
    endloop
  endfacet
  facet normal 0 1 0
    outer loop
      vertex 4.47736 32.9726 0
      vertex 35.5 32.9726 14
      vertex 76.5226 32.9726 0
    endloop
  endfacet
  facet normal 0 1 0
    outer loop
      vertex 35.5 32.9726 14
      vertex 4.47736 32.9726 0
      vertex 34.4604 32.9726 14.1093
    endloop
  endfacet
  facet normal 0 1 0
    outer loop
      vertex 30.5274 32.9726 39.5226
      vertex 4.47736 32.9726 0
      vertex 4.47736 32.9726 70
    endloop
  endfacet
  facet normal 0 1 0
    outer loop
      vertex 31.7843 32.9726 15.6543
      vertex 4.47736 32.9726 0
      vertex 31.1699 32.9726 16.5
    endloop
  endfacet
  facet normal 0 1 0
    outer loop
      vertex 32.5611 32.9726 14.9549
      vertex 4.47736 32.9726 0
      vertex 31.7843 32.9726 15.6543
    endloop
  endfacet
  facet normal 0 1 0
    outer loop
      vertex 33.4663 32.9726 14.4323
      vertex 4.47736 32.9726 0
      vertex 32.5611 32.9726 14.9549
    endloop
  endfacet
  facet normal 0 1 0
    outer loop
      vertex 34.4604 32.9726 14.1093
      vertex 4.47736 32.9726 0
      vertex 33.4663 32.9726 14.4323
    endloop
  endfacet
  facet normal -0.866027 -0.499997 0
    outer loop
      vertex 0.954914 2.06107 0
      vertex 0.432272 2.96632 70
      vertex 0.432272 2.96632 0
    endloop
  endfacet
  facet normal -0.866027 -0.499997 0
    outer loop
      vertex 0.432272 2.96632 70
      vertex 0.954914 2.06107 0
      vertex 0.954914 2.06107 70
    endloop
  endfacet
  facet normal 0.743109 -0.66917 0
    outer loop
      vertex 79.3456 1.28428 70
      vertex 80.0451 2.06107 0
      vertex 80.0451 2.06107 70
    endloop
  endfacet
  facet normal 0.743109 -0.66917 0
    outer loop
      vertex 80.0451 2.06107 0
      vertex 79.3456 1.28428 70
      vertex 79.3456 1.28428 0
    endloop
  endfacet
  facet normal 0.994519 0.10456 0
    outer loop
      vertex 81 28 70
      vertex 80.8907 29.0396 0
      vertex 80.8907 29.0396 70
    endloop
  endfacet
  facet normal 0.994519 0.10456 0
    outer loop
      vertex 80.8907 29.0396 0
      vertex 81 28 70
      vertex 81 28 0
    endloop
  endfacet
  facet normal 0.866033 0.499987 0
    outer loop
      vertex 80.5677 30.0337 70
      vertex 80.0451 30.9389 0
      vertex 80.0451 30.9389 70
    endloop
  endfacet
  facet normal 0.866033 0.499987 0
    outer loop
      vertex 80.0451 30.9389 0
      vertex 80.5677 30.0337 70
      vertex 80.5677 30.0337 0
    endloop
  endfacet
  facet normal -0.866015 0.500018 0
    outer loop
      vertex 0.432272 30.0337 0
      vertex 0.954914 30.9389 70
      vertex 0.954914 30.9389 0
    endloop
  endfacet
  facet normal -0.866015 0.500018 0
    outer loop
      vertex 0.954914 30.9389 70
      vertex 0.432272 30.0337 0
      vertex 0.432272 30.0337 70
    endloop
  endfacet
  facet normal -0.207886 0.978153 0
    outer loop
      vertex 4.47736 32.9726 0
      vertex 3.45491 32.7553 70
      vertex 4.47736 32.9726 70
    endloop
  endfacet
  facet normal -0.207886 0.978153 0
    outer loop
      vertex 3.45491 32.7553 70
      vertex 4.47736 32.9726 0
      vertex 3.45491 32.7553 0
    endloop
  endfacet
  facet normal -0.74314 -0.669136 0
    outer loop
      vertex 1.65435 1.28428 0
      vertex 0.954914 2.06107 70
      vertex 0.954914 2.06107 0
    endloop
  endfacet
  facet normal -0.74314 -0.669136 0
    outer loop
      vertex 0.954914 2.06107 70
      vertex 1.65435 1.28428 0
      vertex 1.65435 1.28428 70
    endloop
  endfacet
  facet normal 0.2079 -0.97815 0
    outer loop
      vertex 76.5226 0.0273905 0
      vertex 77.5451 0.244717 70
      vertex 76.5226 0.0273905 70
    endloop
  endfacet
  facet normal 0.2079 -0.97815 0
    outer loop
      vertex 77.5451 0.244717 70
      vertex 76.5226 0.0273905 0
      vertex 77.5451 0.244717 0
    endloop
  endfacet
  facet normal 0 -1 0
    outer loop
      vertex 22.95 0.0273905 11.7
      vertex 58.05 0.0273905 58.3
      vertex 22.95 0.0273905 58.3
    endloop
  endfacet
  facet normal 0 -1 -0
    outer loop
      vertex 58.05 0.0273905 58.3
      vertex 22.95 0.0273905 11.7
      vertex 58.05 0.0273905 11.7
    endloop
  endfacet
  facet normal 0 -1 0
    outer loop
      vertex 22.95 0.0273905 58.3
      vertex 4.47736 0.0273905 70
      vertex 18.05 0.0273905 58.3
    endloop
  endfacet
  facet normal 0 -1 0
    outer loop
      vertex 4.47736 0.0273905 70
      vertex 18.05 0.0273905 11.7
      vertex 18.05 0.0273905 58.3
    endloop
  endfacet
  facet normal 0 -1 0
    outer loop
      vertex 4.47736 0.0273905 0
      vertex 22.95 0.0273905 11.7
      vertex 18.05 0.0273905 11.7
    endloop
  endfacet
  facet normal 0 -1 -0
    outer loop
      vertex 22.95 0.0273905 11.7
      vertex 4.47736 0.0273905 0
      vertex 58.05 0.0273905 11.7
    endloop
  endfacet
  facet normal 0 -1 0
    outer loop
      vertex 76.5226 0.0273905 0
      vertex 58.05 0.0273905 11.7
      vertex 4.47736 0.0273905 0
    endloop
  endfacet
  facet normal 0 -1 0
    outer loop
      vertex 4.47736 0.0273905 0
      vertex 18.05 0.0273905 11.7
      vertex 4.47736 0.0273905 70
    endloop
  endfacet
  facet normal 0 -1 0
    outer loop
      vertex 4.47736 0.0273905 70
      vertex 22.95 0.0273905 58.3
      vertex 76.5226 0.0273905 70
    endloop
  endfacet
  facet normal 0 -1 0
    outer loop
      vertex 58.05 0.0273905 58.3
      vertex 76.5226 0.0273905 70
      vertex 22.95 0.0273905 58.3
    endloop
  endfacet
  facet normal 0 -1 0
    outer loop
      vertex 62.95 0.0273905 58.3
      vertex 76.5226 0.0273905 70
      vertex 58.05 0.0273905 58.3
    endloop
  endfacet
  facet normal 0 -1 0
    outer loop
      vertex 62.95 0.0273905 11.7
      vertex 76.5226 0.0273905 70
      vertex 62.95 0.0273905 58.3
    endloop
  endfacet
  facet normal 0 -1 0
    outer loop
      vertex 62.95 0.0273905 11.7
      vertex 76.5226 0.0273905 0
      vertex 76.5226 0.0273905 70
    endloop
  endfacet
  facet normal 0 -1 0
    outer loop
      vertex 58.05 0.0273905 11.7
      vertex 76.5226 0.0273905 0
      vertex 62.95 0.0273905 11.7
    endloop
  endfacet
  facet normal 0.951059 -0.309009 0
    outer loop
      vertex 80.5677 2.96632 70
      vertex 80.8907 3.96044 0
      vertex 80.8907 3.96044 70
    endloop
  endfacet
  facet normal 0.951059 -0.309009 0
    outer loop
      vertex 80.8907 3.96044 0
      vertex 80.5677 2.96632 70
      vertex 80.5677 2.96632 0
    endloop
  endfacet
  facet normal 0.951057 0.309015 0
    outer loop
      vertex 80.8907 29.0396 70
      vertex 80.5677 30.0337 0
      vertex 80.5677 30.0337 70
    endloop
  endfacet
  facet normal 0.951057 0.309015 0
    outer loop
      vertex 80.5677 30.0337 0
      vertex 80.8907 29.0396 70
      vertex 80.8907 29.0396 0
    endloop
  endfacet
  facet normal -0.951054 0.309023 0
    outer loop
      vertex 0.109262 29.0396 0
      vertex 0.432272 30.0337 70
      vertex 0.432272 30.0337 0
    endloop
  endfacet
  facet normal -0.951054 0.309023 0
    outer loop
      vertex 0.432272 30.0337 70
      vertex 0.109262 29.0396 0
      vertex 0.109262 29.0396 70
    endloop
  endfacet
  facet normal -0.587785 0.809017 0
    outer loop
      vertex 2.5 32.3301 0
      vertex 1.65435 31.7157 70
      vertex 2.5 32.3301 70
    endloop
  endfacet
  facet normal -0.587785 0.809017 0
    outer loop
      vertex 1.65435 31.7157 70
      vertex 2.5 32.3301 0
      vertex 1.65435 31.7157 0
    endloop
  endfacet
  facet normal -0.58779 -0.809014 0
    outer loop
      vertex 1.65435 1.28428 0
      vertex 2.5 0.669872 70
      vertex 1.65435 1.28428 70
    endloop
  endfacet
  facet normal -0.58779 -0.809014 -0
    outer loop
      vertex 2.5 0.669872 70
      vertex 1.65435 1.28428 0
      vertex 2.5 0.669872 0
    endloop
  endfacet
  facet normal -0.20791 -0.978148 0
    outer loop
      vertex 3.45491 0.244717 0
      vertex 4.47736 0.0273905 70
      vertex 3.45491 0.244717 70
    endloop
  endfacet
  facet normal -0.20791 -0.978148 -0
    outer loop
      vertex 4.47736 0.0273905 70
      vertex 3.45491 0.244717 0
      vertex 4.47736 0.0273905 0
    endloop
  endfacet
  facet normal 0.866045 -0.499967 0
    outer loop
      vertex 80.0451 2.06107 70
      vertex 80.5677 2.96632 0
      vertex 80.5677 2.96632 70
    endloop
  endfacet
  facet normal 0.866045 -0.499967 0
    outer loop
      vertex 80.5677 2.96632 0
      vertex 80.0451 2.06107 70
      vertex 80.0451 2.06107 0
    endloop
  endfacet
  facet normal 0.406742 -0.913543 0
    outer loop
      vertex 77.5451 0.244717 0
      vertex 78.5 0.669872 70
      vertex 77.5451 0.244717 70
    endloop
  endfacet
  facet normal 0.406742 -0.913543 0
    outer loop
      vertex 78.5 0.669872 70
      vertex 77.5451 0.244717 0
      vertex 78.5 0.669872 0
    endloop
  endfacet
  facet normal 0.207876 0.978155 -0
    outer loop
      vertex 77.5451 32.7553 0
      vertex 76.5226 32.9726 70
      vertex 77.5451 32.7553 70
    endloop
  endfacet
  facet normal 0.207876 0.978155 0
    outer loop
      vertex 76.5226 32.9726 70
      vertex 77.5451 32.7553 0
      vertex 76.5226 32.9726 0
    endloop
  endfacet
  facet normal -0.406774 0.913529 0
    outer loop
      vertex 3.45491 32.7553 0
      vertex 2.5 32.3301 70
      vertex 3.45491 32.7553 70
    endloop
  endfacet
  facet normal -0.406774 0.913529 0
    outer loop
      vertex 2.5 32.3301 70
      vertex 3.45491 32.7553 0
      vertex 2.5 32.3301 0
    endloop
  endfacet
  facet normal -0.406738 -0.913545 0
    outer loop
      vertex 2.5 0.669872 0
      vertex 3.45491 0.244717 70
      vertex 2.5 0.669872 70
    endloop
  endfacet
  facet normal -0.406738 -0.913545 -0
    outer loop
      vertex 3.45491 0.244717 70
      vertex 2.5 0.669872 0
      vertex 3.45491 0.244717 0
    endloop
  endfacet
  facet normal 0.587813 -0.808997 0
    outer loop
      vertex 78.5 0.669872 0
      vertex 79.3456 1.28428 70
      vertex 78.5 0.669872 70
    endloop
  endfacet
  facet normal 0.587813 -0.808997 0
    outer loop
      vertex 79.3456 1.28428 70
      vertex 78.5 0.669872 0
      vertex 79.3456 1.28428 0
    endloop
  endfacet
  facet normal 0.743113 0.669166 0
    outer loop
      vertex 80.0451 30.9389 70
      vertex 79.3456 31.7157 0
      vertex 79.3456 31.7157 70
    endloop
  endfacet
  facet normal 0.743113 0.669166 0
    outer loop
      vertex 79.3456 31.7157 0
      vertex 80.0451 30.9389 70
      vertex 80.0451 30.9389 0
    endloop
  endfacet
  facet normal 0.587808 0.809001 -0
    outer loop
      vertex 79.3456 31.7157 0
      vertex 78.5 32.3301 70
      vertex 79.3456 31.7157 70
    endloop
  endfacet
  facet normal 0.587808 0.809001 0
    outer loop
      vertex 78.5 32.3301 70
      vertex 79.3456 31.7157 0
      vertex 78.5 32.3301 0
    endloop
  endfacet
  facet normal 0.406777 0.913527 -0
    outer loop
      vertex 78.5 32.3301 0
      vertex 77.5451 32.7553 70
      vertex 78.5 32.3301 70
    endloop
  endfacet
  facet normal 0.406777 0.913527 0
    outer loop
      vertex 77.5451 32.7553 70
      vertex 78.5 32.3301 0
      vertex 77.5451 32.7553 0
    endloop
  endfacet
  facet normal 1 -0 0
    outer loop
      vertex 1.6 6.6 70
      vertex 1.6 26.4 2.7
      vertex 1.6 26.4 70
    endloop
  endfacet
  facet normal 1 0 0
    outer loop
      vertex 1.6 26.4 2.7
      vertex 1.6 6.6 70
      vertex 1.6 6.6 2.7
    endloop
  endfacet
  facet normal 0.207913 0.978147 -0
    outer loop
      vertex 6.07736 1.62739 2.7
      vertex 5.05491 1.84472 70
      vertex 6.07736 1.62739 70
    endloop
  endfacet
  facet normal 0.207913 0.978147 0
    outer loop
      vertex 5.05491 1.84472 70
      vertex 6.07736 1.62739 2.7
      vertex 5.05491 1.84472 2.7
    endloop
  endfacet
  facet normal 0 1 -0
    outer loop
      vertex 74.9226 1.62739 2.7
      vertex 6.07736 1.62739 70
      vertex 74.9226 1.62739 70
    endloop
  endfacet
  facet normal 0 1 0
    outer loop
      vertex 6.07736 1.62739 70
      vertex 74.9226 1.62739 2.7
      vertex 6.07736 1.62739 2.7
    endloop
  endfacet
  facet normal 0 0 1
    outer loop
      vertex 74.9226 31.3726 2.7
      vertex 79.4 26.4 2.7
      vertex 79.2907 27.4396 2.7
    endloop
  endfacet
  facet normal 0 0 1
    outer loop
      vertex 48 21.5 2.7
      vertex 79.4 26.4 2.7
      vertex 74.9226 31.3726 2.7
    endloop
  endfacet
  facet normal 0 0 1
    outer loop
      vertex 74.9226 31.3726 2.7
      vertex 79.2907 27.4396 2.7
      vertex 78.9677 28.4337 2.7
    endloop
  endfacet
  facet normal 0 0 1
    outer loop
      vertex 79.4 26.4 2.7
      vertex 48 21.5 2.7
      vertex 79.4 6.6 2.7
    endloop
  endfacet
  facet normal 0 0 1
    outer loop
      vertex 74.9226 31.3726 2.7
      vertex 78.9677 28.4337 2.7
      vertex 78.4451 29.3389 2.7
    endloop
  endfacet
  facet normal 0 0 1
    outer loop
      vertex 79.4 6.6 2.7
      vertex 74.9226 1.62739 2.7
      vertex 79.2907 5.56044 2.7
    endloop
  endfacet
  facet normal 0 0 1
    outer loop
      vertex 74.9226 31.3726 2.7
      vertex 78.4451 29.3389 2.7
      vertex 77.7457 30.1157 2.7
    endloop
  endfacet
  facet normal 0 0 1
    outer loop
      vertex 79.2907 5.56044 2.7
      vertex 74.9226 1.62739 2.7
      vertex 78.9677 4.56632 2.7
    endloop
  endfacet
  facet normal 0 0 1
    outer loop
      vertex 74.9226 31.3726 2.7
      vertex 77.7457 30.1157 2.7
      vertex 76.9 30.7301 2.7
    endloop
  endfacet
  facet normal 0 0 1
    outer loop
      vertex 78.9677 4.56632 2.7
      vertex 74.9226 1.62739 2.7
      vertex 78.4451 3.66107 2.7
    endloop
  endfacet
  facet normal 0 0 1
    outer loop
      vertex 74.9226 31.3726 2.7
      vertex 76.9 30.7301 2.7
      vertex 75.9451 31.1553 2.7
    endloop
  endfacet
  facet normal 0 0 1
    outer loop
      vertex 78.4451 3.66107 2.7
      vertex 74.9226 1.62739 2.7
      vertex 77.7457 2.88428 2.7
    endloop
  endfacet
  facet normal 0 0 1
    outer loop
      vertex 77.7457 2.88428 2.7
      vertex 74.9226 1.62739 2.7
      vertex 76.9 2.26987 2.7
    endloop
  endfacet
  facet normal 0 0 1
    outer loop
      vertex 76.9 2.26987 2.7
      vertex 74.9226 1.62739 2.7
      vertex 75.9451 1.84472 2.7
    endloop
  endfacet
  facet normal -0 0 1
    outer loop
      vertex 48 11.5 2.7
      vertex 79.4 6.6 2.7
      vertex 48 21.5 2.7
    endloop
  endfacet
  facet normal 0 0 1
    outer loop
      vertex 74.9226 31.3726 2.7
      vertex 47.8907 22.5396 2.7
      vertex 48 21.5 2.7
    endloop
  endfacet
  facet normal 0 0 1
    outer loop
      vertex 74.9226 31.3726 2.7
      vertex 47.5677 23.5337 2.7
      vertex 47.8907 22.5396 2.7
    endloop
  endfacet
  facet normal 0 0 1
    outer loop
      vertex 74.9226 31.3726 2.7
      vertex 47.0451 24.4389 2.7
      vertex 47.5677 23.5337 2.7
    endloop
  endfacet
  facet normal 0 0 1
    outer loop
      vertex 74.9226 31.3726 2.7
      vertex 46.3457 25.2157 2.7
      vertex 47.0451 24.4389 2.7
    endloop
  endfacet
  facet normal 0 0 1
    outer loop
      vertex 74.9226 31.3726 2.7
      vertex 45.5 25.8301 2.7
      vertex 46.3457 25.2157 2.7
    endloop
  endfacet
  facet normal 0 0 1
    outer loop
      vertex 74.9226 31.3726 2.7
      vertex 44.5451 26.2553 2.7
      vertex 45.5 25.8301 2.7
    endloop
  endfacet
  facet normal 0 0 1
    outer loop
      vertex 74.9226 31.3726 2.7
      vertex 43.5226 26.4726 2.7
      vertex 44.5451 26.2553 2.7
    endloop
  endfacet
  facet normal 0 0 1
    outer loop
      vertex 74.9226 31.3726 2.7
      vertex 37.4774 26.4726 2.7
      vertex 43.5226 26.4726 2.7
    endloop
  endfacet
  facet normal -0 0 1
    outer loop
      vertex 1.6 26.4 2.7
      vertex 33 21.5 2.7
      vertex 6.07736 31.3726 2.7
    endloop
  endfacet
  facet normal 0 0 1
    outer loop
      vertex 33.1093 22.5396 2.7
      vertex 6.07736 31.3726 2.7
      vertex 33 21.5 2.7
    endloop
  endfacet
  facet normal 0 0 1
    outer loop
      vertex 33.4323 23.5337 2.7
      vertex 6.07736 31.3726 2.7
      vertex 33.1093 22.5396 2.7
    endloop
  endfacet
  facet normal 0 0 1
    outer loop
      vertex 33.9549 24.4389 2.7
      vertex 6.07736 31.3726 2.7
      vertex 33.4323 23.5337 2.7
    endloop
  endfacet
  facet normal 0 0 1
    outer loop
      vertex 34.6543 25.2157 2.7
      vertex 6.07736 31.3726 2.7
      vertex 33.9549 24.4389 2.7
    endloop
  endfacet
  facet normal 0 0 1
    outer loop
      vertex 35.5 25.8301 2.7
      vertex 6.07736 31.3726 2.7
      vertex 34.6543 25.2157 2.7
    endloop
  endfacet
  facet normal 0 0 1
    outer loop
      vertex 36.4549 26.2553 2.7
      vertex 6.07736 31.3726 2.7
      vertex 35.5 25.8301 2.7
    endloop
  endfacet
  facet normal 0 0 1
    outer loop
      vertex 37.4774 26.4726 2.7
      vertex 6.07736 31.3726 2.7
      vertex 36.4549 26.2553 2.7
    endloop
  endfacet
  facet normal -0 0 1
    outer loop
      vertex 6.07736 31.3726 2.7
      vertex 37.4774 26.4726 2.7
      vertex 74.9226 31.3726 2.7
    endloop
  endfacet
  facet normal 0 0 1
    outer loop
      vertex 79.4 6.6 2.7
      vertex 48 11.5 2.7
      vertex 74.9226 1.62739 2.7
    endloop
  endfacet
  facet normal -0 0 1
    outer loop
      vertex 47.8907 10.4604 2.7
      vertex 74.9226 1.62739 2.7
      vertex 48 11.5 2.7
    endloop
  endfacet
  facet normal -0 0 1
    outer loop
      vertex 47.5677 9.46632 2.7
      vertex 74.9226 1.62739 2.7
      vertex 47.8907 10.4604 2.7
    endloop
  endfacet
  facet normal -0 0 1
    outer loop
      vertex 47.0451 8.56107 2.7
      vertex 74.9226 1.62739 2.7
      vertex 47.5677 9.46632 2.7
    endloop
  endfacet
  facet normal -0 0 1
    outer loop
      vertex 46.3457 7.78428 2.7
      vertex 74.9226 1.62739 2.7
      vertex 47.0451 8.56107 2.7
    endloop
  endfacet
  facet normal -0 0 1
    outer loop
      vertex 45.5 7.16987 2.7
      vertex 74.9226 1.62739 2.7
      vertex 46.3457 7.78428 2.7
    endloop
  endfacet
  facet normal -0 0 1
    outer loop
      vertex 44.5451 6.74472 2.7
      vertex 74.9226 1.62739 2.7
      vertex 45.5 7.16987 2.7
    endloop
  endfacet
  facet normal -0 0 1
    outer loop
      vertex 43.5226 6.52739 2.7
      vertex 74.9226 1.62739 2.7
      vertex 44.5451 6.74472 2.7
    endloop
  endfacet
  facet normal -0 0 1
    outer loop
      vertex 37.4774 6.52739 2.7
      vertex 74.9226 1.62739 2.7
      vertex 43.5226 6.52739 2.7
    endloop
  endfacet
  facet normal 0 0 1
    outer loop
      vertex 33 21.5 2.7
      vertex 1.6 26.4 2.7
      vertex 33 11.5 2.7
    endloop
  endfacet
  facet normal 0 0 1
    outer loop
      vertex 1.6 6.6 2.7
      vertex 33 11.5 2.7
      vertex 1.6 26.4 2.7
    endloop
  endfacet
  facet normal 0 -0 1
    outer loop
      vertex 6.07736 1.62739 2.7
      vertex 33 11.5 2.7
      vertex 1.6 6.6 2.7
    endloop
  endfacet
  facet normal 0 0 1
    outer loop
      vertex 33 11.5 2.7
      vertex 6.07736 1.62739 2.7
      vertex 33.1093 10.4604 2.7
    endloop
  endfacet
  facet normal 0 0 1
    outer loop
      vertex 37.4774 6.52739 2.7
      vertex 6.07736 1.62739 2.7
      vertex 74.9226 1.62739 2.7
    endloop
  endfacet
  facet normal 0 0 1
    outer loop
      vertex 36.4549 6.74472 2.7
      vertex 6.07736 1.62739 2.7
      vertex 37.4774 6.52739 2.7
    endloop
  endfacet
  facet normal 0 0 1
    outer loop
      vertex 35.5 7.16987 2.7
      vertex 6.07736 1.62739 2.7
      vertex 36.4549 6.74472 2.7
    endloop
  endfacet
  facet normal 0 0 1
    outer loop
      vertex 34.6543 7.78428 2.7
      vertex 6.07736 1.62739 2.7
      vertex 35.5 7.16987 2.7
    endloop
  endfacet
  facet normal 0 0 1
    outer loop
      vertex 33.9549 8.56107 2.7
      vertex 6.07736 1.62739 2.7
      vertex 34.6543 7.78428 2.7
    endloop
  endfacet
  facet normal 0 0 1
    outer loop
      vertex 1.6 26.4 2.7
      vertex 6.07736 31.3726 2.7
      vertex 5.05491 31.1553 2.7
    endloop
  endfacet
  facet normal 0 0 1
    outer loop
      vertex 33.1093 10.4604 2.7
      vertex 6.07736 1.62739 2.7
      vertex 33.4323 9.46632 2.7
    endloop
  endfacet
  facet normal 0 0 1
    outer loop
      vertex 1.6 26.4 2.7
      vertex 5.05491 31.1553 2.7
      vertex 4.1 30.7301 2.7
    endloop
  endfacet
  facet normal 0 0 1
    outer loop
      vertex 33.4323 9.46632 2.7
      vertex 6.07736 1.62739 2.7
      vertex 33.9549 8.56107 2.7
    endloop
  endfacet
  facet normal 0 0 1
    outer loop
      vertex 1.6 26.4 2.7
      vertex 4.1 30.7301 2.7
      vertex 3.25435 30.1157 2.7
    endloop
  endfacet
  facet normal 0 0 1
    outer loop
      vertex 6.07736 1.62739 2.7
      vertex 1.6 6.6 2.7
      vertex 5.05491 1.84472 2.7
    endloop
  endfacet
  facet normal 0 0 1
    outer loop
      vertex 1.6 26.4 2.7
      vertex 3.25435 30.1157 2.7
      vertex 2.55491 29.3389 2.7
    endloop
  endfacet
  facet normal 0 0 1
    outer loop
      vertex 5.05491 1.84472 2.7
      vertex 1.6 6.6 2.7
      vertex 4.1 2.26987 2.7
    endloop
  endfacet
  facet normal 0 0 1
    outer loop
      vertex 1.6 26.4 2.7
      vertex 2.55491 29.3389 2.7
      vertex 2.03227 28.4337 2.7
    endloop
  endfacet
  facet normal 0 0 1
    outer loop
      vertex 4.1 2.26987 2.7
      vertex 1.6 6.6 2.7
      vertex 3.25435 2.88428 2.7
    endloop
  endfacet
  facet normal 0 0 1
    outer loop
      vertex 1.6 26.4 2.7
      vertex 2.03227 28.4337 2.7
      vertex 1.70926 27.4396 2.7
    endloop
  endfacet
  facet normal 0 0 1
    outer loop
      vertex 3.25435 2.88428 2.7
      vertex 1.6 6.6 2.7
      vertex 2.55491 3.66107 2.7
    endloop
  endfacet
  facet normal 0 0 1
    outer loop
      vertex 2.55491 3.66107 2.7
      vertex 1.6 6.6 2.7
      vertex 2.03227 4.56632 2.7
    endloop
  endfacet
  facet normal 0 0 1
    outer loop
      vertex 2.03227 4.56632 2.7
      vertex 1.6 6.6 2.7
      vertex 1.70926 5.56044 2.7
    endloop
  endfacet
  facet normal 0.951054 -0.309023 0
    outer loop
      vertex 1.70926 27.4396 70
      vertex 2.03227 28.4337 2.7
      vertex 2.03227 28.4337 70
    endloop
  endfacet
  facet normal 0.951054 -0.309023 0
    outer loop
      vertex 2.03227 28.4337 2.7
      vertex 1.70926 27.4396 70
      vertex 1.70926 27.4396 2.7
    endloop
  endfacet
  facet normal -1 0 0
    outer loop
      vertex 79.4 6.6 2.7
      vertex 79.4 26.4 70
      vertex 79.4 26.4 2.7
    endloop
  endfacet
  facet normal -1 -0 0
    outer loop
      vertex 79.4 26.4 70
      vertex 79.4 6.6 2.7
      vertex 79.4 6.6 70
    endloop
  endfacet
  facet normal -0.207876 -0.978155 0
    outer loop
      vertex 74.9226 31.3726 2.7
      vertex 75.9451 31.1553 70
      vertex 74.9226 31.3726 70
    endloop
  endfacet
  facet normal -0.207876 -0.978155 -0
    outer loop
      vertex 75.9451 31.1553 70
      vertex 74.9226 31.3726 2.7
      vertex 75.9451 31.1553 2.7
    endloop
  endfacet
  facet normal -0.994519 -0.10456 0
    outer loop
      vertex 79.4 26.4 2.7
      vertex 79.2907 27.4396 70
      vertex 79.2907 27.4396 2.7
    endloop
  endfacet
  facet normal -0.994519 -0.10456 0
    outer loop
      vertex 79.2907 27.4396 70
      vertex 79.4 26.4 2.7
      vertex 79.4 26.4 70
    endloop
  endfacet
  facet normal -0.207903 0.978149 0
    outer loop
      vertex 75.9451 1.84472 2.7
      vertex 74.9226 1.62739 70
      vertex 75.9451 1.84472 70
    endloop
  endfacet
  facet normal -0.207903 0.978149 0
    outer loop
      vertex 74.9226 1.62739 70
      vertex 75.9451 1.84472 2.7
      vertex 74.9226 1.62739 2.7
    endloop
  endfacet
  facet normal 0.994523 -0.104522 0
    outer loop
      vertex 1.6 26.4 70
      vertex 1.70926 27.4396 2.7
      vertex 1.70926 27.4396 70
    endloop
  endfacet
  facet normal 0.994523 -0.104522 0
    outer loop
      vertex 1.70926 27.4396 2.7
      vertex 1.6 26.4 70
      vertex 1.6 26.4 2.7
    endloop
  endfacet
  facet normal 0.866016 -0.500016 0
    outer loop
      vertex 2.03227 28.4337 70
      vertex 2.55491 29.3389 2.7
      vertex 2.55491 29.3389 70
    endloop
  endfacet
  facet normal 0.866016 -0.500016 0
    outer loop
      vertex 2.55491 29.3389 2.7
      vertex 2.03227 28.4337 70
      vertex 2.03227 28.4337 2.7
    endloop
  endfacet
  facet normal 0.406774 -0.913529 0
    outer loop
      vertex 4.1 30.7301 2.7
      vertex 5.05491 31.1553 70
      vertex 4.1 30.7301 70
    endloop
  endfacet
  facet normal 0.406774 -0.913529 0
    outer loop
      vertex 5.05491 31.1553 70
      vertex 4.1 30.7301 2.7
      vertex 5.05491 31.1553 2.7
    endloop
  endfacet
  facet normal -0.994518 0.104564 0
    outer loop
      vertex 79.2907 5.56044 2.7
      vertex 79.4 6.6 70
      vertex 79.4 6.6 2.7
    endloop
  endfacet
  facet normal -0.994518 0.104564 0
    outer loop
      vertex 79.4 6.6 70
      vertex 79.2907 5.56044 2.7
      vertex 79.2907 5.56044 70
    endloop
  endfacet
  facet normal 0 -1 0
    outer loop
      vertex 6.07736 31.3726 70
      vertex 35.5 31.3726 44
      vertex 74.9226 31.3726 70
    endloop
  endfacet
  facet normal 0 -1 0
    outer loop
      vertex 6.07736 31.3726 70
      vertex 34.4604 31.3726 43.8907
      vertex 35.5 31.3726 44
    endloop
  endfacet
  facet normal 0 -1 0
    outer loop
      vertex 6.07736 31.3726 70
      vertex 33.4663 31.3726 43.5677
      vertex 34.4604 31.3726 43.8907
    endloop
  endfacet
  facet normal 0 -1 0
    outer loop
      vertex 6.07736 31.3726 70
      vertex 32.5611 31.3726 43.0451
      vertex 33.4663 31.3726 43.5677
    endloop
  endfacet
  facet normal 0 -1 0
    outer loop
      vertex 6.07736 31.3726 70
      vertex 31.7843 31.3726 42.3457
      vertex 32.5611 31.3726 43.0451
    endloop
  endfacet
  facet normal 0 -1 0
    outer loop
      vertex 6.07736 31.3726 70
      vertex 31.1699 31.3726 41.5
      vertex 31.7843 31.3726 42.3457
    endloop
  endfacet
  facet normal 0 -1 0
    outer loop
      vertex 6.07736 31.3726 70
      vertex 30.7447 31.3726 40.5451
      vertex 31.1699 31.3726 41.5
    endloop
  endfacet
  facet normal 0 -1 0
    outer loop
      vertex 6.07736 31.3726 70
      vertex 30.5274 31.3726 39.5226
      vertex 30.7447 31.3726 40.5451
    endloop
  endfacet
  facet normal 0 -1 0
    outer loop
      vertex 6.07736 31.3726 2.7
      vertex 30.5274 31.3726 39.5226
      vertex 6.07736 31.3726 70
    endloop
  endfacet
  facet normal 0 -1 -0
    outer loop
      vertex 30.5274 31.3726 39.5226
      vertex 6.07736 31.3726 2.7
      vertex 30.5274 31.3726 18.4774
    endloop
  endfacet
  facet normal 0 -1 -0
    outer loop
      vertex 30.5274 31.3726 18.4774
      vertex 6.07736 31.3726 2.7
      vertex 30.7447 31.3726 17.4549
    endloop
  endfacet
  facet normal 0 -1 -0
    outer loop
      vertex 35.5 31.3726 14
      vertex 6.07736 31.3726 2.7
      vertex 45.5 31.3726 14
    endloop
  endfacet
  facet normal 0 -1 -0
    outer loop
      vertex 34.4604 31.3726 14.1093
      vertex 6.07736 31.3726 2.7
      vertex 35.5 31.3726 14
    endloop
  endfacet
  facet normal 0 -1 -0
    outer loop
      vertex 33.4663 31.3726 14.4323
      vertex 6.07736 31.3726 2.7
      vertex 34.4604 31.3726 14.1093
    endloop
  endfacet
  facet normal 0 -1 -0
    outer loop
      vertex 32.5611 31.3726 14.9549
      vertex 6.07736 31.3726 2.7
      vertex 33.4663 31.3726 14.4323
    endloop
  endfacet
  facet normal 0 -1 -0
    outer loop
      vertex 31.7843 31.3726 15.6543
      vertex 6.07736 31.3726 2.7
      vertex 32.5611 31.3726 14.9549
    endloop
  endfacet
  facet normal 0 -1 -0
    outer loop
      vertex 31.1699 31.3726 16.5
      vertex 6.07736 31.3726 2.7
      vertex 31.7843 31.3726 15.6543
    endloop
  endfacet
  facet normal 0 -1 -0
    outer loop
      vertex 30.7447 31.3726 17.4549
      vertex 6.07736 31.3726 2.7
      vertex 31.1699 31.3726 16.5
    endloop
  endfacet
  facet normal 0 -1 0
    outer loop
      vertex 45.5 31.3726 44
      vertex 74.9226 31.3726 70
      vertex 35.5 31.3726 44
    endloop
  endfacet
  facet normal 0 -1 0
    outer loop
      vertex 46.5396 31.3726 43.8907
      vertex 74.9226 31.3726 70
      vertex 45.5 31.3726 44
    endloop
  endfacet
  facet normal 0 -1 0
    outer loop
      vertex 47.5337 31.3726 43.5677
      vertex 74.9226 31.3726 70
      vertex 46.5396 31.3726 43.8907
    endloop
  endfacet
  facet normal 0 -1 0
    outer loop
      vertex 48.4389 31.3726 43.0451
      vertex 74.9226 31.3726 70
      vertex 47.5337 31.3726 43.5677
    endloop
  endfacet
  facet normal 0 -1 0
    outer loop
      vertex 49.2157 31.3726 42.3457
      vertex 74.9226 31.3726 70
      vertex 48.4389 31.3726 43.0451
    endloop
  endfacet
  facet normal 0 -1 0
    outer loop
      vertex 49.8301 31.3726 41.5
      vertex 74.9226 31.3726 70
      vertex 49.2157 31.3726 42.3457
    endloop
  endfacet
  facet normal 0 -1 0
    outer loop
      vertex 50.2553 31.3726 40.5451
      vertex 74.9226 31.3726 70
      vertex 49.8301 31.3726 41.5
    endloop
  endfacet
  facet normal 0 -1 0
    outer loop
      vertex 50.4726 31.3726 39.5226
      vertex 74.9226 31.3726 70
      vertex 50.2553 31.3726 40.5451
    endloop
  endfacet
  facet normal 0 -1 0
    outer loop
      vertex 74.9226 31.3726 2.7
      vertex 50.4726 31.3726 39.5226
      vertex 50.4726 31.3726 18.4774
    endloop
  endfacet
  facet normal 0 -1 0
    outer loop
      vertex 74.9226 31.3726 2.7
      vertex 50.4726 31.3726 18.4774
      vertex 50.2553 31.3726 17.4549
    endloop
  endfacet
  facet normal 0 -1 0
    outer loop
      vertex 74.9226 31.3726 2.7
      vertex 50.2553 31.3726 17.4549
      vertex 49.8301 31.3726 16.5
    endloop
  endfacet
  facet normal 0 -1 0
    outer loop
      vertex 74.9226 31.3726 2.7
      vertex 45.5 31.3726 14
      vertex 6.07736 31.3726 2.7
    endloop
  endfacet
  facet normal 0 -1 0
    outer loop
      vertex 50.4726 31.3726 39.5226
      vertex 74.9226 31.3726 2.7
      vertex 74.9226 31.3726 70
    endloop
  endfacet
  facet normal 0 -1 0
    outer loop
      vertex 49.2157 31.3726 15.6543
      vertex 74.9226 31.3726 2.7
      vertex 49.8301 31.3726 16.5
    endloop
  endfacet
  facet normal 0 -1 0
    outer loop
      vertex 48.4389 31.3726 14.9549
      vertex 74.9226 31.3726 2.7
      vertex 49.2157 31.3726 15.6543
    endloop
  endfacet
  facet normal 0 -1 0
    outer loop
      vertex 47.5337 31.3726 14.4323
      vertex 74.9226 31.3726 2.7
      vertex 48.4389 31.3726 14.9549
    endloop
  endfacet
  facet normal 0 -1 0
    outer loop
      vertex 46.5396 31.3726 14.1093
      vertex 74.9226 31.3726 2.7
      vertex 47.5337 31.3726 14.4323
    endloop
  endfacet
  facet normal 0 -1 0
    outer loop
      vertex 45.5 31.3726 14
      vertex 74.9226 31.3726 2.7
      vertex 46.5396 31.3726 14.1093
    endloop
  endfacet
  facet normal -0.406777 -0.913527 0
    outer loop
      vertex 75.9451 31.1553 2.7
      vertex 76.9 30.7301 70
      vertex 75.9451 31.1553 70
    endloop
  endfacet
  facet normal -0.406777 -0.913527 -0
    outer loop
      vertex 76.9 30.7301 70
      vertex 75.9451 31.1553 2.7
      vertex 76.9 30.7301 2.7
    endloop
  endfacet
  facet normal 0.743138 0.669139 0
    outer loop
      vertex 3.25435 2.88428 70
      vertex 2.55491 3.66107 2.7
      vertex 2.55491 3.66107 70
    endloop
  endfacet
  facet normal 0.743138 0.669139 0
    outer loop
      vertex 2.55491 3.66107 2.7
      vertex 3.25435 2.88428 70
      vertex 3.25435 2.88428 2.7
    endloop
  endfacet
  facet normal 0.406734 0.913547 -0
    outer loop
      vertex 5.05491 1.84472 2.7
      vertex 4.1 2.26987 70
      vertex 5.05491 1.84472 70
    endloop
  endfacet
  facet normal 0.406734 0.913547 0
    outer loop
      vertex 4.1 2.26987 70
      vertex 5.05491 1.84472 2.7
      vertex 4.1 2.26987 2.7
    endloop
  endfacet
  facet normal 0.866028 0.499995 0
    outer loop
      vertex 2.55491 3.66107 70
      vertex 2.03227 4.56632 2.7
      vertex 2.03227 4.56632 70
    endloop
  endfacet
  facet normal 0.866028 0.499995 0
    outer loop
      vertex 2.03227 4.56632 2.7
      vertex 2.55491 3.66107 70
      vertex 2.55491 3.66107 2.7
    endloop
  endfacet
  facet normal 0.994522 0.104526 0
    outer loop
      vertex 1.70926 5.56044 70
      vertex 1.6 6.6 2.7
      vertex 1.6 6.6 70
    endloop
  endfacet
  facet normal 0.994522 0.104526 0
    outer loop
      vertex 1.6 6.6 2.7
      vertex 1.70926 5.56044 70
      vertex 1.70926 5.56044 2.7
    endloop
  endfacet
  facet normal 0.207886 -0.978153 0
    outer loop
      vertex 5.05491 31.1553 2.7
      vertex 6.07736 31.3726 70
      vertex 5.05491 31.1553 70
    endloop
  endfacet
  facet normal 0.207886 -0.978153 0
    outer loop
      vertex 6.07736 31.3726 70
      vertex 5.05491 31.1553 2.7
      vertex 6.07736 31.3726 2.7
    endloop
  endfacet
  facet normal -0.406738 0.913545 0
    outer loop
      vertex 76.9 2.26987 2.7
      vertex 75.9451 1.84472 70
      vertex 76.9 2.26987 70
    endloop
  endfacet
  facet normal -0.406738 0.913545 0
    outer loop
      vertex 75.9451 1.84472 70
      vertex 76.9 2.26987 2.7
      vertex 75.9451 1.84472 2.7
    endloop
  endfacet
  facet normal -0.743161 -0.669113 0
    outer loop
      vertex 78.4451 29.3389 2.7
      vertex 77.7457 30.1157 70
      vertex 77.7457 30.1157 2.7
    endloop
  endfacet
  facet normal -0.743161 -0.669113 0
    outer loop
      vertex 77.7457 30.1157 70
      vertex 78.4451 29.3389 2.7
      vertex 78.4451 29.3389 70
    endloop
  endfacet
  facet normal 0.951056 0.309018 0
    outer loop
      vertex 2.03227 4.56632 70
      vertex 1.70926 5.56044 2.7
      vertex 1.70926 5.56044 70
    endloop
  endfacet
  facet normal 0.951056 0.309018 0
    outer loop
      vertex 1.70926 5.56044 2.7
      vertex 2.03227 4.56632 70
      vertex 2.03227 4.56632 2.7
    endloop
  endfacet
  facet normal 0.587785 -0.809017 0
    outer loop
      vertex 3.25435 30.1157 2.7
      vertex 4.1 30.7301 70
      vertex 3.25435 30.1157 70
    endloop
  endfacet
  facet normal 0.587785 -0.809017 0
    outer loop
      vertex 4.1 30.7301 70
      vertex 3.25435 30.1157 2.7
      vertex 4.1 30.7301 2.7
    endloop
  endfacet
  facet normal -0.951059 0.309009 0
    outer loop
      vertex 78.9677 4.56632 2.7
      vertex 79.2907 5.56044 70
      vertex 79.2907 5.56044 2.7
    endloop
  endfacet
  facet normal -0.951059 0.309009 0
    outer loop
      vertex 79.2907 5.56044 70
      vertex 78.9677 4.56632 2.7
      vertex 78.9677 4.56632 70
    endloop
  endfacet
  facet normal -0.866033 -0.499987 0
    outer loop
      vertex 78.9677 28.4337 2.7
      vertex 78.4451 29.3389 70
      vertex 78.4451 29.3389 2.7
    endloop
  endfacet
  facet normal -0.866033 -0.499987 0
    outer loop
      vertex 78.4451 29.3389 70
      vertex 78.9677 28.4337 2.7
      vertex 78.9677 28.4337 70
    endloop
  endfacet
  facet normal -0.587762 -0.809034 0
    outer loop
      vertex 76.9 30.7301 2.7
      vertex 77.7457 30.1157 70
      vertex 76.9 30.7301 70
    endloop
  endfacet
  facet normal -0.587762 -0.809034 -0
    outer loop
      vertex 77.7457 30.1157 70
      vertex 76.9 30.7301 2.7
      vertex 77.7457 30.1157 2.7
    endloop
  endfacet
  facet normal 0.587791 0.809013 -0
    outer loop
      vertex 4.1 2.26987 2.7
      vertex 3.25435 2.88428 70
      vertex 4.1 2.26987 70
    endloop
  endfacet
  facet normal 0.587791 0.809013 0
    outer loop
      vertex 3.25435 2.88428 70
      vertex 4.1 2.26987 2.7
      vertex 3.25435 2.88428 2.7
    endloop
  endfacet
  facet normal 0.743142 -0.669134 0
    outer loop
      vertex 2.55491 29.3389 70
      vertex 3.25435 30.1157 2.7
      vertex 3.25435 30.1157 70
    endloop
  endfacet
  facet normal 0.743142 -0.669134 0
    outer loop
      vertex 3.25435 30.1157 2.7
      vertex 2.55491 29.3389 70
      vertex 2.55491 29.3389 2.7
    endloop
  endfacet
  facet normal -0.587768 0.809029 0
    outer loop
      vertex 77.7457 2.88428 2.7
      vertex 76.9 2.26987 70
      vertex 77.7457 2.88428 70
    endloop
  endfacet
  facet normal -0.587768 0.809029 0
    outer loop
      vertex 76.9 2.26987 70
      vertex 77.7457 2.88428 2.7
      vertex 76.9 2.26987 2.7
    endloop
  endfacet
  facet normal -0.866045 0.499967 0
    outer loop
      vertex 78.4451 3.66107 2.7
      vertex 78.9677 4.56632 70
      vertex 78.9677 4.56632 2.7
    endloop
  endfacet
  facet normal -0.866045 0.499967 0
    outer loop
      vertex 78.9677 4.56632 70
      vertex 78.4451 3.66107 2.7
      vertex 78.4451 3.66107 70
    endloop
  endfacet
  facet normal -0.743157 0.669117 0
    outer loop
      vertex 77.7457 2.88428 2.7
      vertex 78.4451 3.66107 70
      vertex 78.4451 3.66107 2.7
    endloop
  endfacet
  facet normal -0.743157 0.669117 0
    outer loop
      vertex 78.4451 3.66107 70
      vertex 77.7457 2.88428 2.7
      vertex 77.7457 2.88428 70
    endloop
  endfacet
  facet normal -0.951057 -0.309015 0
    outer loop
      vertex 79.2907 27.4396 2.7
      vertex 78.9677 28.4337 70
      vertex 78.9677 28.4337 2.7
    endloop
  endfacet
  facet normal -0.951057 -0.309015 0
    outer loop
      vertex 78.9677 28.4337 70
      vertex 79.2907 27.4396 2.7
      vertex 79.2907 27.4396 70
    endloop
  endfacet
  facet normal 1 -0 0
    outer loop
      vertex 18.05 0.0273905 58.3
      vertex 18.05 0.6 11.7
      vertex 18.05 0.6 58.3
    endloop
  endfacet
  facet normal 1 0 0
    outer loop
      vertex 18.05 0.6 11.7
      vertex 18.05 0.0273905 58.3
      vertex 18.05 0.0273905 11.7
    endloop
  endfacet
  facet normal 0 0 -1
    outer loop
      vertex 18.05 0.0273905 58.3
      vertex 22.95 0.6 58.3
      vertex 22.95 0.0273905 58.3
    endloop
  endfacet
  facet normal -0 0 -1
    outer loop
      vertex 22.95 0.6 58.3
      vertex 18.05 0.0273905 58.3
      vertex 18.05 0.6 58.3
    endloop
  endfacet
  facet normal -1 0 0
    outer loop
      vertex 22.95 0.0273905 11.7
      vertex 22.95 0.6 58.3
      vertex 22.95 0.6 11.7
    endloop
  endfacet
  facet normal -1 -0 0
    outer loop
      vertex 22.95 0.6 58.3
      vertex 22.95 0.0273905 11.7
      vertex 22.95 0.0273905 58.3
    endloop
  endfacet
  facet normal 0 -1 0
    outer loop
      vertex 18.05 0.6 11.7
      vertex 22.95 0.6 58.3
      vertex 18.05 0.6 58.3
    endloop
  endfacet
  facet normal 0 -1 -0
    outer loop
      vertex 22.95 0.6 58.3
      vertex 18.05 0.6 11.7
      vertex 22.95 0.6 11.7
    endloop
  endfacet
  facet normal -0 0 1
    outer loop
      vertex 18.05 0.6 11.7
      vertex 22.95 0.0273905 11.7
      vertex 22.95 0.6 11.7
    endloop
  endfacet
  facet normal 0 0 1
    outer loop
      vertex 22.95 0.0273905 11.7
      vertex 18.05 0.6 11.7
      vertex 18.05 0.0273905 11.7
    endloop
  endfacet
  facet normal 1 -0 0
    outer loop
      vertex 58.05 0.0273905 58.3
      vertex 58.05 0.6 11.7
      vertex 58.05 0.6 58.3
    endloop
  endfacet
  facet normal 1 0 0
    outer loop
      vertex 58.05 0.6 11.7
      vertex 58.05 0.0273905 58.3
      vertex 58.05 0.0273905 11.7
    endloop
  endfacet
  facet normal 0 0 -1
    outer loop
      vertex 58.05 0.0273905 58.3
      vertex 62.95 0.6 58.3
      vertex 62.95 0.0273905 58.3
    endloop
  endfacet
  facet normal -0 0 -1
    outer loop
      vertex 62.95 0.6 58.3
      vertex 58.05 0.0273905 58.3
      vertex 58.05 0.6 58.3
    endloop
  endfacet
  facet normal -1 0 0
    outer loop
      vertex 62.95 0.0273905 11.7
      vertex 62.95 0.6 58.3
      vertex 62.95 0.6 11.7
    endloop
  endfacet
  facet normal -1 -0 0
    outer loop
      vertex 62.95 0.6 58.3
      vertex 62.95 0.0273905 11.7
      vertex 62.95 0.0273905 58.3
    endloop
  endfacet
  facet normal 0 -1 0
    outer loop
      vertex 58.05 0.6 11.7
      vertex 62.95 0.6 58.3
      vertex 58.05 0.6 58.3
    endloop
  endfacet
  facet normal 0 -1 -0
    outer loop
      vertex 62.95 0.6 58.3
      vertex 58.05 0.6 11.7
      vertex 62.95 0.6 11.7
    endloop
  endfacet
  facet normal -0 0 1
    outer loop
      vertex 58.05 0.6 11.7
      vertex 62.95 0.0273905 11.7
      vertex 62.95 0.6 11.7
    endloop
  endfacet
  facet normal 0 0 1
    outer loop
      vertex 62.95 0.0273905 11.7
      vertex 58.05 0.6 11.7
      vertex 58.05 0.0273905 11.7
    endloop
  endfacet
  facet normal 0.866033 -0.499987 0
    outer loop
      vertex 33.4323 23.5337 2.7
      vertex 33.9549 24.4389 0
      vertex 33.9549 24.4389 2.7
    endloop
  endfacet
  facet normal 0.866033 -0.499987 0
    outer loop
      vertex 33.9549 24.4389 0
      vertex 33.4323 23.5337 2.7
      vertex 33.4323 23.5337 0
    endloop
  endfacet
  facet normal 0.406777 -0.913527 0
    outer loop
      vertex 35.5 25.8301 0
      vertex 36.4549 26.2553 2.7
      vertex 35.5 25.8301 2.7
    endloop
  endfacet
  facet normal 0.406777 -0.913527 0
    outer loop
      vertex 36.4549 26.2553 2.7
      vertex 35.5 25.8301 0
      vertex 36.4549 26.2553 0
    endloop
  endfacet
  facet normal -0.866033 -0.499987 0
    outer loop
      vertex 47.5677 23.5337 0
      vertex 47.0451 24.4389 2.7
      vertex 47.0451 24.4389 0
    endloop
  endfacet
  facet normal -0.866033 -0.499987 0
    outer loop
      vertex 47.0451 24.4389 2.7
      vertex 47.5677 23.5337 0
      vertex 47.5677 23.5337 2.7
    endloop
  endfacet
  facet normal -0.743157 0.669117 0
    outer loop
      vertex 46.3457 7.78428 0
      vertex 47.0451 8.56107 2.7
      vertex 47.0451 8.56107 0
    endloop
  endfacet
  facet normal -0.743157 0.669117 0
    outer loop
      vertex 47.0451 8.56107 2.7
      vertex 46.3457 7.78428 0
      vertex 46.3457 7.78428 2.7
    endloop
  endfacet
  facet normal 0.951057 -0.309015 0
    outer loop
      vertex 33.1093 22.5396 2.7
      vertex 33.4323 23.5337 0
      vertex 33.4323 23.5337 2.7
    endloop
  endfacet
  facet normal 0.951057 -0.309015 0
    outer loop
      vertex 33.4323 23.5337 0
      vertex 33.1093 22.5396 2.7
      vertex 33.1093 22.5396 0
    endloop
  endfacet
  facet normal 0.743161 -0.669113 0
    outer loop
      vertex 33.9549 24.4389 2.7
      vertex 34.6543 25.2157 0
      vertex 34.6543 25.2157 2.7
    endloop
  endfacet
  facet normal 0.743161 -0.669113 0
    outer loop
      vertex 34.6543 25.2157 0
      vertex 33.9549 24.4389 2.7
      vertex 33.9549 24.4389 0
    endloop
  endfacet
  facet normal 0.587762 -0.809034 0
    outer loop
      vertex 34.6543 25.2157 0
      vertex 35.5 25.8301 2.7
      vertex 34.6543 25.2157 2.7
    endloop
  endfacet
  facet normal 0.587762 -0.809034 0
    outer loop
      vertex 35.5 25.8301 2.7
      vertex 34.6543 25.2157 0
      vertex 35.5 25.8301 0
    endloop
  endfacet
  facet normal 0.951055 0.30902 0
    outer loop
      vertex 33.4323 9.46632 2.7
      vertex 33.1093 10.4604 0
      vertex 33.1093 10.4604 2.7
    endloop
  endfacet
  facet normal 0.951055 0.30902 0
    outer loop
      vertex 33.1093 10.4604 0
      vertex 33.4323 9.46632 2.7
      vertex 33.4323 9.46632 0
    endloop
  endfacet
  facet normal 0.994519 0.10456 0
    outer loop
      vertex 33.1093 10.4604 2.7
      vertex 33 11.5 0
      vertex 33 11.5 2.7
    endloop
  endfacet
  facet normal 0.994519 0.10456 0
    outer loop
      vertex 33 11.5 0
      vertex 33.1093 10.4604 2.7
      vertex 33.1093 10.4604 0
    endloop
  endfacet
  facet normal 0.587768 0.809029 -0
    outer loop
      vertex 35.5 7.16987 0
      vertex 34.6543 7.78428 2.7
      vertex 35.5 7.16987 2.7
    endloop
  endfacet
  facet normal 0.587768 0.809029 0
    outer loop
      vertex 34.6543 7.78428 2.7
      vertex 35.5 7.16987 0
      vertex 34.6543 7.78428 0
    endloop
  endfacet
  facet normal 0 -1 0
    outer loop
      vertex 37.4774 26.4726 0
      vertex 43.5226 26.4726 2.7
      vertex 37.4774 26.4726 2.7
    endloop
  endfacet
  facet normal 0 -1 -0
    outer loop
      vertex 43.5226 26.4726 2.7
      vertex 37.4774 26.4726 0
      vertex 43.5226 26.4726 0
    endloop
  endfacet
  facet normal -0.994519 0.10456 0
    outer loop
      vertex 47.8907 10.4604 0
      vertex 48 11.5 2.7
      vertex 48 11.5 0
    endloop
  endfacet
  facet normal -0.994519 0.10456 0
    outer loop
      vertex 48 11.5 2.7
      vertex 47.8907 10.4604 0
      vertex 47.8907 10.4604 2.7
    endloop
  endfacet
  facet normal 0.207903 0.978149 -0
    outer loop
      vertex 37.4774 6.52739 0
      vertex 36.4549 6.74472 2.7
      vertex 37.4774 6.52739 2.7
    endloop
  endfacet
  facet normal 0.207903 0.978149 0
    outer loop
      vertex 36.4549 6.74472 2.7
      vertex 37.4774 6.52739 0
      vertex 36.4549 6.74472 0
    endloop
  endfacet
  facet normal 0.406738 0.913545 -0
    outer loop
      vertex 36.4549 6.74472 0
      vertex 35.5 7.16987 2.7
      vertex 36.4549 6.74472 2.7
    endloop
  endfacet
  facet normal 0.406738 0.913545 0
    outer loop
      vertex 35.5 7.16987 2.7
      vertex 36.4549 6.74472 0
      vertex 35.5 7.16987 0
    endloop
  endfacet
  facet normal 0.207876 -0.978155 0
    outer loop
      vertex 36.4549 26.2553 0
      vertex 37.4774 26.4726 2.7
      vertex 36.4549 26.2553 2.7
    endloop
  endfacet
  facet normal 0.207876 -0.978155 0
    outer loop
      vertex 37.4774 26.4726 2.7
      vertex 36.4549 26.2553 0
      vertex 37.4774 26.4726 0
    endloop
  endfacet
  facet normal -0.207876 -0.978155 0
    outer loop
      vertex 43.5226 26.4726 0
      vertex 44.5451 26.2553 2.7
      vertex 43.5226 26.4726 2.7
    endloop
  endfacet
  facet normal -0.207876 -0.978155 -0
    outer loop
      vertex 44.5451 26.2553 2.7
      vertex 43.5226 26.4726 0
      vertex 44.5451 26.2553 0
    endloop
  endfacet
  facet normal -0.207903 0.978149 0
    outer loop
      vertex 44.5451 6.74472 0
      vertex 43.5226 6.52739 2.7
      vertex 44.5451 6.74472 2.7
    endloop
  endfacet
  facet normal -0.207903 0.978149 0
    outer loop
      vertex 43.5226 6.52739 2.7
      vertex 44.5451 6.74472 0
      vertex 43.5226 6.52739 0
    endloop
  endfacet
  facet normal -0.951057 -0.309015 0
    outer loop
      vertex 47.8907 22.5396 0
      vertex 47.5677 23.5337 2.7
      vertex 47.5677 23.5337 0
    endloop
  endfacet
  facet normal -0.951057 -0.309015 0
    outer loop
      vertex 47.5677 23.5337 2.7
      vertex 47.8907 22.5396 0
      vertex 47.8907 22.5396 2.7
    endloop
  endfacet
  facet normal -1 0 0
    outer loop
      vertex 48 11.5 0
      vertex 48 21.5 2.7
      vertex 48 21.5 0
    endloop
  endfacet
  facet normal -1 -0 0
    outer loop
      vertex 48 21.5 2.7
      vertex 48 11.5 0
      vertex 48 11.5 2.7
    endloop
  endfacet
  facet normal -0.587762 -0.809034 0
    outer loop
      vertex 45.5 25.8301 0
      vertex 46.3457 25.2157 2.7
      vertex 45.5 25.8301 2.7
    endloop
  endfacet
  facet normal -0.587762 -0.809034 -0
    outer loop
      vertex 46.3457 25.2157 2.7
      vertex 45.5 25.8301 0
      vertex 46.3457 25.2157 0
    endloop
  endfacet
  facet normal -0.743161 -0.669113 0
    outer loop
      vertex 47.0451 24.4389 0
      vertex 46.3457 25.2157 2.7
      vertex 46.3457 25.2157 0
    endloop
  endfacet
  facet normal -0.743161 -0.669113 0
    outer loop
      vertex 46.3457 25.2157 2.7
      vertex 47.0451 24.4389 0
      vertex 47.0451 24.4389 2.7
    endloop
  endfacet
  facet normal 1 -0 0
    outer loop
      vertex 33 11.5 2.7
      vertex 33 21.5 0
      vertex 33 21.5 2.7
    endloop
  endfacet
  facet normal 1 0 0
    outer loop
      vertex 33 21.5 0
      vertex 33 11.5 2.7
      vertex 33 11.5 0
    endloop
  endfacet
  facet normal 0.994519 -0.10456 0
    outer loop
      vertex 33 21.5 2.7
      vertex 33.1093 22.5396 0
      vertex 33.1093 22.5396 2.7
    endloop
  endfacet
  facet normal 0.994519 -0.10456 0
    outer loop
      vertex 33.1093 22.5396 0
      vertex 33 21.5 2.7
      vertex 33 21.5 0
    endloop
  endfacet
  facet normal 0 1 -0
    outer loop
      vertex 43.5226 6.52739 0
      vertex 37.4774 6.52739 2.7
      vertex 43.5226 6.52739 2.7
    endloop
  endfacet
  facet normal 0 1 0
    outer loop
      vertex 37.4774 6.52739 2.7
      vertex 43.5226 6.52739 0
      vertex 37.4774 6.52739 0
    endloop
  endfacet
  facet normal 0.743157 0.669117 0
    outer loop
      vertex 34.6543 7.78428 2.7
      vertex 33.9549 8.56107 0
      vertex 33.9549 8.56107 2.7
    endloop
  endfacet
  facet normal 0.743157 0.669117 0
    outer loop
      vertex 33.9549 8.56107 0
      vertex 34.6543 7.78428 2.7
      vertex 34.6543 7.78428 0
    endloop
  endfacet
  facet normal 0.866045 0.499967 0
    outer loop
      vertex 33.9549 8.56107 2.7
      vertex 33.4323 9.46632 0
      vertex 33.4323 9.46632 2.7
    endloop
  endfacet
  facet normal 0.866045 0.499967 0
    outer loop
      vertex 33.4323 9.46632 0
      vertex 33.9549 8.56107 2.7
      vertex 33.9549 8.56107 0
    endloop
  endfacet
  facet normal -0.406777 -0.913527 0
    outer loop
      vertex 44.5451 26.2553 0
      vertex 45.5 25.8301 2.7
      vertex 44.5451 26.2553 2.7
    endloop
  endfacet
  facet normal -0.406777 -0.913527 -0
    outer loop
      vertex 45.5 25.8301 2.7
      vertex 44.5451 26.2553 0
      vertex 45.5 25.8301 0
    endloop
  endfacet
  facet normal -0.994519 -0.10456 0
    outer loop
      vertex 48 21.5 0
      vertex 47.8907 22.5396 2.7
      vertex 47.8907 22.5396 0
    endloop
  endfacet
  facet normal -0.994519 -0.10456 0
    outer loop
      vertex 47.8907 22.5396 2.7
      vertex 48 21.5 0
      vertex 48 21.5 2.7
    endloop
  endfacet
  facet normal -0.866045 0.499967 0
    outer loop
      vertex 47.0451 8.56107 0
      vertex 47.5677 9.46632 2.7
      vertex 47.5677 9.46632 0
    endloop
  endfacet
  facet normal -0.866045 0.499967 0
    outer loop
      vertex 47.5677 9.46632 2.7
      vertex 47.0451 8.56107 0
      vertex 47.0451 8.56107 2.7
    endloop
  endfacet
  facet normal -0.951055 0.30902 0
    outer loop
      vertex 47.5677 9.46632 0
      vertex 47.8907 10.4604 2.7
      vertex 47.8907 10.4604 0
    endloop
  endfacet
  facet normal -0.951055 0.30902 0
    outer loop
      vertex 47.8907 10.4604 2.7
      vertex 47.5677 9.46632 0
      vertex 47.5677 9.46632 2.7
    endloop
  endfacet
  facet normal -0.587768 0.809029 0
    outer loop
      vertex 46.3457 7.78428 0
      vertex 45.5 7.16987 2.7
      vertex 46.3457 7.78428 2.7
    endloop
  endfacet
  facet normal -0.587768 0.809029 0
    outer loop
      vertex 45.5 7.16987 2.7
      vertex 46.3457 7.78428 0
      vertex 45.5 7.16987 0
    endloop
  endfacet
  facet normal -0.406738 0.913545 0
    outer loop
      vertex 45.5 7.16987 0
      vertex 44.5451 6.74472 2.7
      vertex 45.5 7.16987 2.7
    endloop
  endfacet
  facet normal -0.406738 0.913545 0
    outer loop
      vertex 44.5451 6.74472 2.7
      vertex 45.5 7.16987 0
      vertex 44.5451 6.74472 0
    endloop
  endfacet
  facet normal 0.809034 0 -0.587762
    outer loop
      vertex 31.7843 31.3726 42.3457
      vertex 31.1699 32.9726 41.5
      vertex 31.7843 32.9726 42.3457
    endloop
  endfacet
  facet normal 0.809034 0 -0.587762
    outer loop
      vertex 31.1699 32.9726 41.5
      vertex 31.7843 31.3726 42.3457
      vertex 31.1699 31.3726 41.5
    endloop
  endfacet
  facet normal 0.10456 0 0.994519
    outer loop
      vertex 34.4604 32.9726 14.1093
      vertex 35.5 31.3726 14
      vertex 35.5 32.9726 14
    endloop
  endfacet
  facet normal 0.10456 0 0.994519
    outer loop
      vertex 35.5 31.3726 14
      vertex 34.4604 32.9726 14.1093
      vertex 34.4604 31.3726 14.1093
    endloop
  endfacet
  facet normal 0.978155 0 -0.207876
    outer loop
      vertex 30.7447 31.3726 40.5451
      vertex 30.5274 32.9726 39.5226
      vertex 30.7447 32.9726 40.5451
    endloop
  endfacet
  facet normal 0.978155 0 -0.207876
    outer loop
      vertex 30.5274 32.9726 39.5226
      vertex 30.7447 31.3726 40.5451
      vertex 30.5274 31.3726 39.5226
    endloop
  endfacet
  facet normal -0.809034 0 -0.587762
    outer loop
      vertex 49.8301 31.3726 41.5
      vertex 49.2157 32.9726 42.3457
      vertex 49.8301 32.9726 41.5
    endloop
  endfacet
  facet normal -0.809034 -0 -0.587762
    outer loop
      vertex 49.2157 32.9726 42.3457
      vertex 49.8301 31.3726 41.5
      vertex 49.2157 31.3726 42.3457
    endloop
  endfacet
  facet normal -0.913527 0 -0.406777
    outer loop
      vertex 50.2553 31.3726 40.5451
      vertex 49.8301 32.9726 41.5
      vertex 50.2553 32.9726 40.5451
    endloop
  endfacet
  facet normal -0.913527 -0 -0.406777
    outer loop
      vertex 49.8301 32.9726 41.5
      vertex 50.2553 31.3726 40.5451
      vertex 49.8301 31.3726 41.5
    endloop
  endfacet
  facet normal 0.978155 -0 0.207876
    outer loop
      vertex 30.5274 31.3726 18.4774
      vertex 30.7447 32.9726 17.4549
      vertex 30.5274 32.9726 18.4774
    endloop
  endfacet
  facet normal 0.978155 0 0.207876
    outer loop
      vertex 30.7447 32.9726 17.4549
      vertex 30.5274 31.3726 18.4774
      vertex 30.7447 31.3726 17.4549
    endloop
  endfacet
  facet normal 0.913527 -0 0.406777
    outer loop
      vertex 30.7447 31.3726 17.4549
      vertex 31.1699 32.9726 16.5
      vertex 30.7447 32.9726 17.4549
    endloop
  endfacet
  facet normal 0.913527 0 0.406777
    outer loop
      vertex 31.1699 32.9726 16.5
      vertex 30.7447 31.3726 17.4549
      vertex 31.1699 31.3726 16.5
    endloop
  endfacet
  facet normal 1 -0 0
    outer loop
      vertex 30.5274 31.3726 39.5226
      vertex 30.5274 32.9726 18.4774
      vertex 30.5274 32.9726 39.5226
    endloop
  endfacet
  facet normal 1 0 0
    outer loop
      vertex 30.5274 32.9726 18.4774
      vertex 30.5274 31.3726 39.5226
      vertex 30.5274 31.3726 18.4774
    endloop
  endfacet
  facet normal 0.913527 0 -0.406777
    outer loop
      vertex 31.1699 31.3726 41.5
      vertex 30.7447 32.9726 40.5451
      vertex 31.1699 32.9726 41.5
    endloop
  endfacet
  facet normal 0.913527 0 -0.406777
    outer loop
      vertex 30.7447 32.9726 40.5451
      vertex 31.1699 31.3726 41.5
      vertex 30.7447 31.3726 40.5451
    endloop
  endfacet
  facet normal -1 0 0
    outer loop
      vertex 50.4726 31.3726 18.4774
      vertex 50.4726 32.9726 39.5226
      vertex 50.4726 32.9726 18.4774
    endloop
  endfacet
  facet normal -1 -0 0
    outer loop
      vertex 50.4726 32.9726 39.5226
      vertex 50.4726 31.3726 18.4774
      vertex 50.4726 31.3726 39.5226
    endloop
  endfacet
  facet normal -0 0 1
    outer loop
      vertex 35.5 32.9726 14
      vertex 45.5 31.3726 14
      vertex 45.5 32.9726 14
    endloop
  endfacet
  facet normal 0 0 1
    outer loop
      vertex 45.5 31.3726 14
      vertex 35.5 32.9726 14
      vertex 35.5 31.3726 14
    endloop
  endfacet
  facet normal 0.809034 -0 0.587762
    outer loop
      vertex 31.1699 31.3726 16.5
      vertex 31.7843 32.9726 15.6543
      vertex 31.1699 32.9726 16.5
    endloop
  endfacet
  facet normal 0.809034 0 0.587762
    outer loop
      vertex 31.7843 32.9726 15.6543
      vertex 31.1699 31.3726 16.5
      vertex 31.7843 31.3726 15.6543
    endloop
  endfacet
  facet normal 0.309015 0 0.951057
    outer loop
      vertex 33.4663 32.9726 14.4323
      vertex 34.4604 31.3726 14.1093
      vertex 34.4604 32.9726 14.1093
    endloop
  endfacet
  facet normal 0.309015 0 0.951057
    outer loop
      vertex 34.4604 31.3726 14.1093
      vertex 33.4663 32.9726 14.4323
      vertex 33.4663 31.3726 14.4323
    endloop
  endfacet
  facet normal 0.10456 0 -0.994519
    outer loop
      vertex 34.4604 31.3726 43.8907
      vertex 35.5 32.9726 44
      vertex 35.5 31.3726 44
    endloop
  endfacet
  facet normal 0.10456 0 -0.994519
    outer loop
      vertex 35.5 32.9726 44
      vertex 34.4604 31.3726 43.8907
      vertex 34.4604 32.9726 43.8907
    endloop
  endfacet
  facet normal -0.10456 0 -0.994519
    outer loop
      vertex 45.5 31.3726 44
      vertex 46.5396 32.9726 43.8907
      vertex 46.5396 31.3726 43.8907
    endloop
  endfacet
  facet normal -0.10456 0 -0.994519
    outer loop
      vertex 46.5396 32.9726 43.8907
      vertex 45.5 31.3726 44
      vertex 45.5 32.9726 44
    endloop
  endfacet
  facet normal -0.669113 0 -0.743161
    outer loop
      vertex 48.4389 31.3726 43.0451
      vertex 49.2157 32.9726 42.3457
      vertex 49.2157 31.3726 42.3457
    endloop
  endfacet
  facet normal -0.669113 0 -0.743161
    outer loop
      vertex 49.2157 32.9726 42.3457
      vertex 48.4389 31.3726 43.0451
      vertex 48.4389 32.9726 43.0451
    endloop
  endfacet
  facet normal -0.978155 0 0.207876
    outer loop
      vertex 50.2553 31.3726 17.4549
      vertex 50.4726 32.9726 18.4774
      vertex 50.2553 32.9726 17.4549
    endloop
  endfacet
  facet normal -0.978155 0 0.207876
    outer loop
      vertex 50.4726 32.9726 18.4774
      vertex 50.2553 31.3726 17.4549
      vertex 50.4726 31.3726 18.4774
    endloop
  endfacet
  facet normal -0.309015 0 0.951057
    outer loop
      vertex 46.5396 32.9726 14.1093
      vertex 47.5337 31.3726 14.4323
      vertex 47.5337 32.9726 14.4323
    endloop
  endfacet
  facet normal -0.309015 0 0.951057
    outer loop
      vertex 47.5337 31.3726 14.4323
      vertex 46.5396 32.9726 14.1093
      vertex 46.5396 31.3726 14.1093
    endloop
  endfacet
  facet normal -0.10456 0 0.994519
    outer loop
      vertex 45.5 32.9726 14
      vertex 46.5396 31.3726 14.1093
      vertex 46.5396 32.9726 14.1093
    endloop
  endfacet
  facet normal -0.10456 0 0.994519
    outer loop
      vertex 46.5396 31.3726 14.1093
      vertex 45.5 32.9726 14
      vertex 45.5 31.3726 14
    endloop
  endfacet
  facet normal 0.669113 0 0.743161
    outer loop
      vertex 31.7843 32.9726 15.6543
      vertex 32.5611 31.3726 14.9549
      vertex 32.5611 32.9726 14.9549
    endloop
  endfacet
  facet normal 0.669113 0 0.743161
    outer loop
      vertex 32.5611 31.3726 14.9549
      vertex 31.7843 32.9726 15.6543
      vertex 31.7843 31.3726 15.6543
    endloop
  endfacet
  facet normal 0.499987 0 0.866033
    outer loop
      vertex 32.5611 32.9726 14.9549
      vertex 33.4663 31.3726 14.4323
      vertex 33.4663 32.9726 14.4323
    endloop
  endfacet
  facet normal 0.499987 0 0.866033
    outer loop
      vertex 33.4663 31.3726 14.4323
      vertex 32.5611 32.9726 14.9549
      vertex 32.5611 31.3726 14.9549
    endloop
  endfacet
  facet normal -0.499987 0 -0.866033
    outer loop
      vertex 47.5337 31.3726 43.5677
      vertex 48.4389 32.9726 43.0451
      vertex 48.4389 31.3726 43.0451
    endloop
  endfacet
  facet normal -0.499987 0 -0.866033
    outer loop
      vertex 48.4389 32.9726 43.0451
      vertex 47.5337 31.3726 43.5677
      vertex 47.5337 32.9726 43.5677
    endloop
  endfacet
  facet normal -0.309015 0 -0.951057
    outer loop
      vertex 46.5396 31.3726 43.8907
      vertex 47.5337 32.9726 43.5677
      vertex 47.5337 31.3726 43.5677
    endloop
  endfacet
  facet normal -0.309015 0 -0.951057
    outer loop
      vertex 47.5337 32.9726 43.5677
      vertex 46.5396 31.3726 43.8907
      vertex 46.5396 32.9726 43.8907
    endloop
  endfacet
  facet normal -0.978155 0 -0.207876
    outer loop
      vertex 50.4726 31.3726 39.5226
      vertex 50.2553 32.9726 40.5451
      vertex 50.4726 32.9726 39.5226
    endloop
  endfacet
  facet normal -0.978155 -0 -0.207876
    outer loop
      vertex 50.2553 32.9726 40.5451
      vertex 50.4726 31.3726 39.5226
      vertex 50.2553 31.3726 40.5451
    endloop
  endfacet
  facet normal -0.499987 0 0.866033
    outer loop
      vertex 47.5337 32.9726 14.4323
      vertex 48.4389 31.3726 14.9549
      vertex 48.4389 32.9726 14.9549
    endloop
  endfacet
  facet normal -0.499987 0 0.866033
    outer loop
      vertex 48.4389 31.3726 14.9549
      vertex 47.5337 32.9726 14.4323
      vertex 47.5337 31.3726 14.4323
    endloop
  endfacet
  facet normal -0.669113 0 0.743161
    outer loop
      vertex 48.4389 32.9726 14.9549
      vertex 49.2157 31.3726 15.6543
      vertex 49.2157 32.9726 15.6543
    endloop
  endfacet
  facet normal -0.669113 0 0.743161
    outer loop
      vertex 49.2157 31.3726 15.6543
      vertex 48.4389 32.9726 14.9549
      vertex 48.4389 31.3726 14.9549
    endloop
  endfacet
  facet normal -0.809034 0 0.587762
    outer loop
      vertex 49.2157 31.3726 15.6543
      vertex 49.8301 32.9726 16.5
      vertex 49.2157 32.9726 15.6543
    endloop
  endfacet
  facet normal -0.809034 0 0.587762
    outer loop
      vertex 49.8301 32.9726 16.5
      vertex 49.2157 31.3726 15.6543
      vertex 49.8301 31.3726 16.5
    endloop
  endfacet
  facet normal -0.913527 0 0.406777
    outer loop
      vertex 49.8301 31.3726 16.5
      vertex 50.2553 32.9726 17.4549
      vertex 49.8301 32.9726 16.5
    endloop
  endfacet
  facet normal -0.913527 0 0.406777
    outer loop
      vertex 50.2553 32.9726 17.4549
      vertex 49.8301 31.3726 16.5
      vertex 50.2553 31.3726 17.4549
    endloop
  endfacet
  facet normal 0 0 -1
    outer loop
      vertex 35.5 31.3726 44
      vertex 45.5 32.9726 44
      vertex 45.5 31.3726 44
    endloop
  endfacet
  facet normal -0 0 -1
    outer loop
      vertex 45.5 32.9726 44
      vertex 35.5 31.3726 44
      vertex 35.5 32.9726 44
    endloop
  endfacet
  facet normal 0.499987 0 -0.866033
    outer loop
      vertex 32.5611 31.3726 43.0451
      vertex 33.4663 32.9726 43.5677
      vertex 33.4663 31.3726 43.5677
    endloop
  endfacet
  facet normal 0.499987 0 -0.866033
    outer loop
      vertex 33.4663 32.9726 43.5677
      vertex 32.5611 31.3726 43.0451
      vertex 32.5611 32.9726 43.0451
    endloop
  endfacet
  facet normal 0.669113 0 -0.743161
    outer loop
      vertex 31.7843 31.3726 42.3457
      vertex 32.5611 32.9726 43.0451
      vertex 32.5611 31.3726 43.0451
    endloop
  endfacet
  facet normal 0.669113 0 -0.743161
    outer loop
      vertex 32.5611 32.9726 43.0451
      vertex 31.7843 31.3726 42.3457
      vertex 31.7843 32.9726 42.3457
    endloop
  endfacet
  facet normal 0.309015 0 -0.951057
    outer loop
      vertex 33.4663 31.3726 43.5677
      vertex 34.4604 32.9726 43.8907
      vertex 34.4604 31.3726 43.8907
    endloop
  endfacet
  facet normal 0.309015 0 -0.951057
    outer loop
      vertex 34.4604 32.9726 43.8907
      vertex 33.4663 31.3726 43.5677
      vertex 33.4663 32.9726 43.5677
    endloop
  endfacet
endsolid OpenSCAD_Model
