solid OpenSCAD_Model
  facet normal -1 0 0
    outer loop
      vertex 0 0 0
      vertex 0 100 55
      vertex 0 100 0
    endloop
  endfacet
  facet normal -1 -0 0
    outer loop
      vertex 0 100 55
      vertex 0 0 0
      vertex 0 0 55
    endloop
  endfacet
  facet normal 0 0 1
    outer loop
      vertex 50 100 55
      vertex 48.5 91.5 55
      vertex 50 0 55
    endloop
  endfacet
  facet normal 0 0 1
    outer loop
      vertex 50 100 55
      vertex 43.5 97.5 55
      vertex 48.5 91.5 55
    endloop
  endfacet
  facet normal 0 0 1
    outer loop
      vertex 50 100 55
      vertex 6.5 97.5 55
      vertex 43.5 97.5 55
    endloop
  endfacet
  facet normal 0 0 1
    outer loop
      vertex 6.5 97.5 55
      vertex 1.5 91.5 55
      vertex 6.5 92.5 55
    endloop
  endfacet
  facet normal 0 0 1
    outer loop
      vertex 0 0 55
      vertex 1.5 91.5 55
      vertex 0 100 55
    endloop
  endfacet
  facet normal 0 0 1
    outer loop
      vertex 6.5 97.5 55
      vertex 0 100 55
      vertex 1.5 91.5 55
    endloop
  endfacet
  facet normal -0 0 1
    outer loop
      vertex 0 100 55
      vertex 6.5 97.5 55
      vertex 50 100 55
    endloop
  endfacet
  facet normal -0 0 1
    outer loop
      vertex 48.5 5.5 55
      vertex 50 0 55
      vertex 48.5 91.5 55
    endloop
  endfacet
  facet normal -0 0 1
    outer loop
      vertex 44.5 1.5 55
      vertex 50 0 55
      vertex 48.5 5.5 55
    endloop
  endfacet
  facet normal -0 0 1
    outer loop
      vertex 5.5 1.5 55
      vertex 50 0 55
      vertex 44.5 1.5 55
    endloop
  endfacet
  facet normal 0 0 1
    outer loop
      vertex 5.5 1.5 55
      vertex 0 0 55
      vertex 50 0 55
    endloop
  endfacet
  facet normal 0 0 1
    outer loop
      vertex 1.5 5.5 55
      vertex 0 0 55
      vertex 5.5 1.5 55
    endloop
  endfacet
  facet normal 0 0 1
    outer loop
      vertex 1.5 91.5 55
      vertex 0 0 55
      vertex 1.5 5.5 55
    endloop
  endfacet
  facet normal -0 0 1
    outer loop
      vertex 43.5 92.5 55
      vertex 48.5 91.5 55
      vertex 43.5 97.5 55
    endloop
  endfacet
  facet normal -0 0 1
    outer loop
      vertex 6.5 92.5 55
      vertex 48.5 91.5 55
      vertex 43.5 92.5 55
    endloop
  endfacet
  facet normal 0 0 1
    outer loop
      vertex 48.5 91.5 55
      vertex 6.5 92.5 55
      vertex 1.5 91.5 55
    endloop
  endfacet
  facet normal 1 -0 0
    outer loop
      vertex 50 0 55
      vertex 50 100 0
      vertex 50 100 55
    endloop
  endfacet
  facet normal 1 0 0
    outer loop
      vertex 50 100 0
      vertex 50 0 55
      vertex 50 0 0
    endloop
  endfacet
  facet normal 0 1 -0
    outer loop
      vertex 50 100 0
      vertex 0 100 55
      vertex 50 100 55
    endloop
  endfacet
  facet normal 0 1 0
    outer loop
      vertex 0 100 55
      vertex 50 100 0
      vertex 0 100 0
    endloop
  endfacet
  facet normal 0 0 -1
    outer loop
      vertex 0 0 0
      vertex 50 100 0
      vertex 50 0 0
    endloop
  endfacet
  facet normal -0 0 -1
    outer loop
      vertex 50 100 0
      vertex 0 0 0
      vertex 0 100 0
    endloop
  endfacet
  facet normal 0 -1 0
    outer loop
      vertex 0 0 0
      vertex 50 0 55
      vertex 0 0 55
    endloop
  endfacet
  facet normal 0 -1 -0
    outer loop
      vertex 50 0 55
      vertex 0 0 0
      vertex 50 0 0
    endloop
  endfacet
  facet normal 1 0 0
    outer loop
      vertex 1.5 91.5 55
      vertex 1.5 5.5 55
      vertex 1.5 91.5 54
    endloop
  endfacet
  facet normal 1 0 0
    outer loop
      vertex 1.5 91.5 54
      vertex 1.5 94.5 5.5
      vertex 1.5 94.5 51
    endloop
  endfacet
  facet normal 1 0 0
    outer loop
      vertex 1.5 5.5 5.5
      vertex 1.5 91.5 54
      vertex 1.5 5.5 55
    endloop
  endfacet
  facet normal 1 0 0
    outer loop
      vertex 1.5 91.5 54
      vertex 1.5 5.5 5.5
      vertex 1.5 94.5 5.5
    endloop
  endfacet
  facet normal -1 0 0
    outer loop
      vertex 48.5 94.5 5.5
      vertex 48.5 91.5 54
      vertex 48.5 94.5 51
    endloop
  endfacet
  facet normal -1 0 0
    outer loop
      vertex 48.5 5.5 5.5
      vertex 48.5 91.5 54
      vertex 48.5 94.5 5.5
    endloop
  endfacet
  facet normal -1 0 0
    outer loop
      vertex 48.5 5.5 55
      vertex 48.5 91.5 54
      vertex 48.5 5.5 5.5
    endloop
  endfacet
  facet normal -1 0 0
    outer loop
      vertex 48.5 91.5 54
      vertex 48.5 5.5 55
      vertex 48.5 91.5 55
    endloop
  endfacet
  facet normal -0 0 1
    outer loop
      vertex 5.5 94.5 1.5
      vertex 44.5 5.5 1.5
      vertex 44.5 94.5 1.5
    endloop
  endfacet
  facet normal 0 0 1
    outer loop
      vertex 44.5 5.5 1.5
      vertex 5.5 94.5 1.5
      vertex 5.5 5.5 1.5
    endloop
  endfacet
  facet normal 0 1 -0
    outer loop
      vertex 44.5 1.5 5.5
      vertex 5.5 1.5 55
      vertex 44.5 1.5 55
    endloop
  endfacet
  facet normal 0 1 0
    outer loop
      vertex 5.5 1.5 55
      vertex 44.5 1.5 5.5
      vertex 5.5 1.5 5.5
    endloop
  endfacet
  facet normal 0 -1 0
    outer loop
      vertex 5.5 98.5 5.5
      vertex 44.5 98.5 47
      vertex 5.5 98.5 47
    endloop
  endfacet
  facet normal 0 -1 -0
    outer loop
      vertex 44.5 98.5 47
      vertex 5.5 98.5 5.5
      vertex 44.5 98.5 5.5
    endloop
  endfacet
  facet normal 0 -1 0
    outer loop
      vertex 1.5 91.5 54
      vertex 48.5 91.5 55
      vertex 1.5 91.5 55
    endloop
  endfacet
  facet normal 0 -1 -0
    outer loop
      vertex 48.5 91.5 55
      vertex 1.5 91.5 54
      vertex 48.5 91.5 54
    endloop
  endfacet
  facet normal 1 -0 0
    outer loop
      vertex 6.5 92.5 55
      vertex 6.5 97.5 54.8
      vertex 6.5 97.5 55
    endloop
  endfacet
  facet normal 1 0 0
    outer loop
      vertex 6.5 97.5 54.8
      vertex 6.5 92.5 55
      vertex 6.5 92.5 54.8
    endloop
  endfacet
  facet normal -1 0 0
    outer loop
      vertex 43.5 92.5 54.8
      vertex 43.5 97.5 55
      vertex 43.5 97.5 54.8
    endloop
  endfacet
  facet normal -1 -0 0
    outer loop
      vertex 43.5 97.5 55
      vertex 43.5 92.5 54.8
      vertex 43.5 92.5 55
    endloop
  endfacet
  facet normal 0 -1 0
    outer loop
      vertex 6.5 97.5 54.8
      vertex 43.5 97.5 55
      vertex 6.5 97.5 55
    endloop
  endfacet
  facet normal 0 -1 -0
    outer loop
      vertex 43.5 97.5 55
      vertex 6.5 97.5 54.8
      vertex 43.5 97.5 54.8
    endloop
  endfacet
  facet normal -0 0 1
    outer loop
      vertex 6.5 97.5 54.8
      vertex 43.5 92.5 54.8
      vertex 43.5 97.5 54.8
    endloop
  endfacet
  facet normal 0 0 1
    outer loop
      vertex 43.5 92.5 54.8
      vertex 6.5 97.5 54.8
      vertex 6.5 92.5 54.8
    endloop
  endfacet
  facet normal 0 1 -0
    outer loop
      vertex 43.5 92.5 54.8
      vertex 6.5 92.5 55
      vertex 43.5 92.5 55
    endloop
  endfacet
  facet normal 0 1 0
    outer loop
      vertex 6.5 92.5 55
      vertex 43.5 92.5 54.8
      vertex 6.5 92.5 54.8
    endloop
  endfacet
  facet normal 0 -0.707107 -0.707107
    outer loop
      vertex 5.5 98.5 47
      vertex 1.5 91.5 54
      vertex 1.5 94.5 51
    endloop
  endfacet
  facet normal 0 -0.707107 -0.707107
    outer loop
      vertex 1.5 91.5 54
      vertex 5.5 98.5 47
      vertex 48.5 91.5 54
    endloop
  endfacet
  facet normal -0 -0.707107 -0.707107
    outer loop
      vertex 44.5 98.5 47
      vertex 48.5 91.5 54
      vertex 5.5 98.5 47
    endloop
  endfacet
  facet normal 0 -0.707107 -0.707107
    outer loop
      vertex 48.5 91.5 54
      vertex 44.5 98.5 47
      vertex 48.5 94.5 51
    endloop
  endfacet
  facet normal 0.707107 0.707107 0
    outer loop
      vertex 5.5 1.5 5.5
      vertex 1.5 5.5 5.5
      vertex 1.5 5.5 55
    endloop
  endfacet
  facet normal 0.707107 0.707107 -0
    outer loop
      vertex 5.5 1.5 5.5
      vertex 1.5 5.5 55
      vertex 5.5 1.5 55
    endloop
  endfacet
  facet normal 0.707107 0.707107 0
    outer loop
      vertex 1.5 5.5 5.5
      vertex 5.5 1.5 5.5
      vertex 3.5 3.5 3.5
    endloop
  endfacet
  facet normal -0.707107 0.707107 0
    outer loop
      vertex 44.5 1.5 5.5
      vertex 48.5 5.5 5.5
      vertex 46.5 3.5 3.5
    endloop
  endfacet
  facet normal -0.707107 0.707107 0
    outer loop
      vertex 48.5 5.5 5.5
      vertex 44.5 1.5 5.5
      vertex 48.5 5.5 55
    endloop
  endfacet
  facet normal -0.707107 0.707107 0
    outer loop
      vertex 48.5 5.5 55
      vertex 44.5 1.5 5.5
      vertex 44.5 1.5 55
    endloop
  endfacet
  facet normal 0.707107 -0.707107 0
    outer loop
      vertex 1.5 94.5 5.5
      vertex 5.5 98.5 5.5
      vertex 5.5 98.5 47
    endloop
  endfacet
  facet normal 0.707107 -0.707107 0
    outer loop
      vertex 1.5 94.5 5.5
      vertex 5.5 98.5 47
      vertex 1.5 94.5 51
    endloop
  endfacet
  facet normal 0.707107 -0.707107 0
    outer loop
      vertex 5.5 98.5 5.5
      vertex 1.5 94.5 5.5
      vertex 3.5 96.5 3.5
    endloop
  endfacet
  facet normal -0.707107 -0.707107 0
    outer loop
      vertex 48.5 94.5 5.5
      vertex 44.5 98.5 5.5
      vertex 46.5 96.5 3.5
    endloop
  endfacet
  facet normal -0.707107 -0.707107 0
    outer loop
      vertex 44.5 98.5 5.5
      vertex 48.5 94.5 5.5
      vertex 44.5 98.5 47
    endloop
  endfacet
  facet normal -0.707107 -0.707107 0
    outer loop
      vertex 44.5 98.5 47
      vertex 48.5 94.5 5.5
      vertex 48.5 94.5 51
    endloop
  endfacet
  facet normal 0 -0.707107 0.707107
    outer loop
      vertex 5.5 94.5 1.5
      vertex 5.5 98.5 5.5
      vertex 3.5 96.5 3.5
    endloop
  endfacet
  facet normal 0 -0.707107 0.707107
    outer loop
      vertex 5.5 98.5 5.5
      vertex 5.5 94.5 1.5
      vertex 44.5 98.5 5.5
    endloop
  endfacet
  facet normal 0 -0.707107 0.707107
    outer loop
      vertex 44.5 94.5 1.5
      vertex 44.5 98.5 5.5
      vertex 5.5 94.5 1.5
    endloop
  endfacet
  facet normal 0 -0.707107 0.707107
    outer loop
      vertex 44.5 98.5 5.5
      vertex 44.5 94.5 1.5
      vertex 46.5 96.5 3.5
    endloop
  endfacet
  facet normal 0.707107 0 0.707107
    outer loop
      vertex 1.5 94.5 5.5
      vertex 5.5 94.5 1.5
      vertex 3.5 96.5 3.5
    endloop
  endfacet
  facet normal 0.707107 -0 0.707107
    outer loop
      vertex 1.5 5.5 5.5
      vertex 5.5 94.5 1.5
      vertex 1.5 94.5 5.5
    endloop
  endfacet
  facet normal 0.707107 0 0.707107
    outer loop
      vertex 1.5 5.5 5.5
      vertex 5.5 5.5 1.5
      vertex 5.5 94.5 1.5
    endloop
  endfacet
  facet normal 0.707107 0 0.707107
    outer loop
      vertex 5.5 5.5 1.5
      vertex 1.5 5.5 5.5
      vertex 3.5 3.5 3.5
    endloop
  endfacet
  facet normal -0.707107 0 0.707107
    outer loop
      vertex 44.5 94.5 1.5
      vertex 48.5 94.5 5.5
      vertex 46.5 96.5 3.5
    endloop
  endfacet
  facet normal -0.707107 0 0.707107
    outer loop
      vertex 44.5 5.5 1.5
      vertex 48.5 94.5 5.5
      vertex 44.5 94.5 1.5
    endloop
  endfacet
  facet normal -0.707107 0 0.707107
    outer loop
      vertex 44.5 5.5 1.5
      vertex 48.5 5.5 5.5
      vertex 48.5 94.5 5.5
    endloop
  endfacet
  facet normal -0.707107 0 0.707107
    outer loop
      vertex 48.5 5.5 5.5
      vertex 44.5 5.5 1.5
      vertex 46.5 3.5 3.5
    endloop
  endfacet
  facet normal 0 0.707107 0.707107
    outer loop
      vertex 44.5 5.5 1.5
      vertex 44.5 1.5 5.5
      vertex 46.5 3.5 3.5
    endloop
  endfacet
  facet normal 0 0.707107 0.707107
    outer loop
      vertex 44.5 1.5 5.5
      vertex 44.5 5.5 1.5
      vertex 5.5 1.5 5.5
    endloop
  endfacet
  facet normal -0 0.707107 0.707107
    outer loop
      vertex 5.5 5.5 1.5
      vertex 5.5 1.5 5.5
      vertex 44.5 5.5 1.5
    endloop
  endfacet
  facet normal 0 0.707107 0.707107
    outer loop
      vertex 5.5 1.5 5.5
      vertex 5.5 5.5 1.5
      vertex 3.5 3.5 3.5
    endloop
  endfacet
endsolid OpenSCAD_Model
