solid OpenSCAD_Model
  facet normal -1 0 0
    outer loop
      vertex 0 0 0
      vertex 0 50 55
      vertex 0 50 0
    endloop
  endfacet
  facet normal -1 -0 0
    outer loop
      vertex 0 50 55
      vertex 0 0 0
      vertex 0 0 55
    endloop
  endfacet
  facet normal 0 0 1
    outer loop
      vertex 50 50 55
      vertex 48.5 41.5 55
      vertex 50 0 55
    endloop
  endfacet
  facet normal 0 0 1
    outer loop
      vertex 50 50 55
      vertex 43.5 47.5 55
      vertex 48.5 41.5 55
    endloop
  endfacet
  facet normal 0 0 1
    outer loop
      vertex 50 50 55
      vertex 6.5 47.5 55
      vertex 43.5 47.5 55
    endloop
  endfacet
  facet normal 0 0 1
    outer loop
      vertex 6.5 47.5 55
      vertex 1.5 41.5 55
      vertex 6.5 42.5 55
    endloop
  endfacet
  facet normal 0 0 1
    outer loop
      vertex 0 0 55
      vertex 1.5 41.5 55
      vertex 0 50 55
    endloop
  endfacet
  facet normal 0 0 1
    outer loop
      vertex 6.5 47.5 55
      vertex 0 50 55
      vertex 1.5 41.5 55
    endloop
  endfacet
  facet normal -0 0 1
    outer loop
      vertex 0 50 55
      vertex 6.5 47.5 55
      vertex 50 50 55
    endloop
  endfacet
  facet normal -0 0 1
    outer loop
      vertex 48.5 5.5 55
      vertex 50 0 55
      vertex 48.5 41.5 55
    endloop
  endfacet
  facet normal -0 0 1
    outer loop
      vertex 44.5 1.5 55
      vertex 50 0 55
      vertex 48.5 5.5 55
    endloop
  endfacet
  facet normal -0 0 1
    outer loop
      vertex 5.5 1.5 55
      vertex 50 0 55
      vertex 44.5 1.5 55
    endloop
  endfacet
  facet normal 0 0 1
    outer loop
      vertex 5.5 1.5 55
      vertex 0 0 55
      vertex 50 0 55
    endloop
  endfacet
  facet normal 0 0 1
    outer loop
      vertex 1.5 5.5 55
      vertex 0 0 55
      vertex 5.5 1.5 55
    endloop
  endfacet
  facet normal 0 0 1
    outer loop
      vertex 1.5 41.5 55
      vertex 0 0 55
      vertex 1.5 5.5 55
    endloop
  endfacet
  facet normal -0 0 1
    outer loop
      vertex 43.5 42.5 55
      vertex 48.5 41.5 55
      vertex 43.5 47.5 55
    endloop
  endfacet
  facet normal -0 0 1
    outer loop
      vertex 6.5 42.5 55
      vertex 48.5 41.5 55
      vertex 43.5 42.5 55
    endloop
  endfacet
  facet normal 0 0 1
    outer loop
      vertex 48.5 41.5 55
      vertex 6.5 42.5 55
      vertex 1.5 41.5 55
    endloop
  endfacet
  facet normal 1 -0 0
    outer loop
      vertex 50 0 55
      vertex 50 50 0
      vertex 50 50 55
    endloop
  endfacet
  facet normal 1 0 0
    outer loop
      vertex 50 50 0
      vertex 50 0 55
      vertex 50 0 0
    endloop
  endfacet
  facet normal 0 0 -1
    outer loop
      vertex 0 0 0
      vertex 50 50 0
      vertex 50 0 0
    endloop
  endfacet
  facet normal -0 0 -1
    outer loop
      vertex 50 50 0
      vertex 0 0 0
      vertex 0 50 0
    endloop
  endfacet
  facet normal 0 -1 0
    outer loop
      vertex 0 0 0
      vertex 50 0 55
      vertex 0 0 55
    endloop
  endfacet
  facet normal 0 -1 -0
    outer loop
      vertex 50 0 55
      vertex 0 0 0
      vertex 50 0 0
    endloop
  endfacet
  facet normal 0 1 -0
    outer loop
      vertex 50 50 0
      vertex 0 50 55
      vertex 50 50 55
    endloop
  endfacet
  facet normal 0 1 0
    outer loop
      vertex 0 50 55
      vertex 50 50 0
      vertex 0 50 0
    endloop
  endfacet
  facet normal 1 0 0
    outer loop
      vertex 1.5 41.5 55
      vertex 1.5 5.5 55
      vertex 1.5 41.5 54
    endloop
  endfacet
  facet normal 1 0 0
    outer loop
      vertex 1.5 5.5 55
      vertex 1.5 44.5 51
      vertex 1.5 41.5 54
    endloop
  endfacet
  facet normal 1 0 0
    outer loop
      vertex 1.5 44.5 51
      vertex 1.5 5.5 55
      vertex 1.5 5.5 5.5
    endloop
  endfacet
  facet normal 1 0 0
    outer loop
      vertex 1.5 44.5 51
      vertex 1.5 5.5 5.5
      vertex 1.5 44.5 5.5
    endloop
  endfacet
  facet normal -1 0 0
    outer loop
      vertex 48.5 5.5 5.5
      vertex 48.5 44.5 51
      vertex 48.5 44.5 5.5
    endloop
  endfacet
  facet normal -1 0 0
    outer loop
      vertex 48.5 5.5 55
      vertex 48.5 44.5 51
      vertex 48.5 5.5 5.5
    endloop
  endfacet
  facet normal -1 0 0
    outer loop
      vertex 48.5 44.5 51
      vertex 48.5 5.5 55
      vertex 48.5 41.5 54
    endloop
  endfacet
  facet normal -1 0 0
    outer loop
      vertex 48.5 41.5 54
      vertex 48.5 5.5 55
      vertex 48.5 41.5 55
    endloop
  endfacet
  facet normal -0 0 1
    outer loop
      vertex 5.5 44.5 1.5
      vertex 44.5 5.5 1.5
      vertex 44.5 44.5 1.5
    endloop
  endfacet
  facet normal 0 0 1
    outer loop
      vertex 44.5 5.5 1.5
      vertex 5.5 44.5 1.5
      vertex 5.5 5.5 1.5
    endloop
  endfacet
  facet normal 0 1 -0
    outer loop
      vertex 44.5 1.5 5.5
      vertex 5.5 1.5 55
      vertex 44.5 1.5 55
    endloop
  endfacet
  facet normal 0 1 0
    outer loop
      vertex 5.5 1.5 55
      vertex 44.5 1.5 5.5
      vertex 5.5 1.5 5.5
    endloop
  endfacet
  facet normal 0 -1 0
    outer loop
      vertex 5.5 48.5 5.5
      vertex 44.5 48.5 47
      vertex 5.5 48.5 47
    endloop
  endfacet
  facet normal 0 -1 -0
    outer loop
      vertex 44.5 48.5 47
      vertex 5.5 48.5 5.5
      vertex 44.5 48.5 5.5
    endloop
  endfacet
  facet normal 0 -1 0
    outer loop
      vertex 1.5 41.5 54
      vertex 48.5 41.5 55
      vertex 1.5 41.5 55
    endloop
  endfacet
  facet normal 0 -1 -0
    outer loop
      vertex 48.5 41.5 55
      vertex 1.5 41.5 54
      vertex 48.5 41.5 54
    endloop
  endfacet
  facet normal 1 -0 0
    outer loop
      vertex 6.5 42.5 55
      vertex 6.5 47.5 54.8
      vertex 6.5 47.5 55
    endloop
  endfacet
  facet normal 1 0 0
    outer loop
      vertex 6.5 47.5 54.8
      vertex 6.5 42.5 55
      vertex 6.5 42.5 54.8
    endloop
  endfacet
  facet normal -1 0 0
    outer loop
      vertex 43.5 42.5 54.8
      vertex 43.5 47.5 55
      vertex 43.5 47.5 54.8
    endloop
  endfacet
  facet normal -1 -0 0
    outer loop
      vertex 43.5 47.5 55
      vertex 43.5 42.5 54.8
      vertex 43.5 42.5 55
    endloop
  endfacet
  facet normal 0 -1 0
    outer loop
      vertex 6.5 47.5 54.8
      vertex 43.5 47.5 55
      vertex 6.5 47.5 55
    endloop
  endfacet
  facet normal 0 -1 -0
    outer loop
      vertex 43.5 47.5 55
      vertex 6.5 47.5 54.8
      vertex 43.5 47.5 54.8
    endloop
  endfacet
  facet normal -0 0 1
    outer loop
      vertex 6.5 47.5 54.8
      vertex 43.5 42.5 54.8
      vertex 43.5 47.5 54.8
    endloop
  endfacet
  facet normal 0 0 1
    outer loop
      vertex 43.5 42.5 54.8
      vertex 6.5 47.5 54.8
      vertex 6.5 42.5 54.8
    endloop
  endfacet
  facet normal 0 1 -0
    outer loop
      vertex 43.5 42.5 54.8
      vertex 6.5 42.5 55
      vertex 43.5 42.5 55
    endloop
  endfacet
  facet normal 0 1 0
    outer loop
      vertex 6.5 42.5 55
      vertex 43.5 42.5 54.8
      vertex 6.5 42.5 54.8
    endloop
  endfacet
  facet normal 0 -0.707107 -0.707107
    outer loop
      vertex 5.5 48.5 47
      vertex 1.5 41.5 54
      vertex 1.5 44.5 51
    endloop
  endfacet
  facet normal 0 -0.707107 -0.707107
    outer loop
      vertex 1.5 41.5 54
      vertex 5.5 48.5 47
      vertex 48.5 41.5 54
    endloop
  endfacet
  facet normal -0 -0.707107 -0.707107
    outer loop
      vertex 44.5 48.5 47
      vertex 48.5 41.5 54
      vertex 5.5 48.5 47
    endloop
  endfacet
  facet normal 0 -0.707107 -0.707107
    outer loop
      vertex 48.5 41.5 54
      vertex 44.5 48.5 47
      vertex 48.5 44.5 51
    endloop
  endfacet
  facet normal 0.707107 0.707107 0
    outer loop
      vertex 5.5 1.5 5.5
      vertex 1.5 5.5 5.5
      vertex 1.5 5.5 55
    endloop
  endfacet
  facet normal 0.707107 0.707107 -0
    outer loop
      vertex 5.5 1.5 5.5
      vertex 1.5 5.5 55
      vertex 5.5 1.5 55
    endloop
  endfacet
  facet normal 0.707107 0.707107 0
    outer loop
      vertex 1.5 5.5 5.5
      vertex 5.5 1.5 5.5
      vertex 3.5 3.5 3.5
    endloop
  endfacet
  facet normal -0.707107 0.707107 0
    outer loop
      vertex 44.5 1.5 5.5
      vertex 48.5 5.5 5.5
      vertex 46.5 3.5 3.5
    endloop
  endfacet
  facet normal -0.707107 0.707107 0
    outer loop
      vertex 48.5 5.5 5.5
      vertex 44.5 1.5 5.5
      vertex 48.5 5.5 55
    endloop
  endfacet
  facet normal -0.707107 0.707107 0
    outer loop
      vertex 48.5 5.5 55
      vertex 44.5 1.5 5.5
      vertex 44.5 1.5 55
    endloop
  endfacet
  facet normal 0.707107 -0.707107 0
    outer loop
      vertex 1.5 44.5 5.5
      vertex 5.5 48.5 5.5
      vertex 5.5 48.5 47
    endloop
  endfacet
  facet normal 0.707107 -0.707107 0
    outer loop
      vertex 1.5 44.5 5.5
      vertex 5.5 48.5 47
      vertex 1.5 44.5 51
    endloop
  endfacet
  facet normal 0.707107 -0.707107 0
    outer loop
      vertex 5.5 48.5 5.5
      vertex 1.5 44.5 5.5
      vertex 3.5 46.5 3.5
    endloop
  endfacet
  facet normal -0.707107 -0.707107 0
    outer loop
      vertex 48.5 44.5 5.5
      vertex 44.5 48.5 5.5
      vertex 46.5 46.5 3.5
    endloop
  endfacet
  facet normal -0.707107 -0.707107 0
    outer loop
      vertex 44.5 48.5 5.5
      vertex 48.5 44.5 5.5
      vertex 44.5 48.5 47
    endloop
  endfacet
  facet normal -0.707107 -0.707107 0
    outer loop
      vertex 44.5 48.5 47
      vertex 48.5 44.5 5.5
      vertex 48.5 44.5 51
    endloop
  endfacet
  facet normal 0 -0.707107 0.707107
    outer loop
      vertex 5.5 44.5 1.5
      vertex 5.5 48.5 5.5
      vertex 3.5 46.5 3.5
    endloop
  endfacet
  facet normal 0 -0.707107 0.707107
    outer loop
      vertex 5.5 48.5 5.5
      vertex 5.5 44.5 1.5
      vertex 44.5 48.5 5.5
    endloop
  endfacet
  facet normal 0 -0.707107 0.707107
    outer loop
      vertex 44.5 44.5 1.5
      vertex 44.5 48.5 5.5
      vertex 5.5 44.5 1.5
    endloop
  endfacet
  facet normal 0 -0.707107 0.707107
    outer loop
      vertex 44.5 48.5 5.5
      vertex 44.5 44.5 1.5
      vertex 46.5 46.5 3.5
    endloop
  endfacet
  facet normal 0.707107 0 0.707107
    outer loop
      vertex 1.5 44.5 5.5
      vertex 5.5 44.5 1.5
      vertex 3.5 46.5 3.5
    endloop
  endfacet
  facet normal 0.707107 -0 0.707107
    outer loop
      vertex 1.5 5.5 5.5
      vertex 5.5 44.5 1.5
      vertex 1.5 44.5 5.5
    endloop
  endfacet
  facet normal 0.707107 0 0.707107
    outer loop
      vertex 1.5 5.5 5.5
      vertex 5.5 5.5 1.5
      vertex 5.5 44.5 1.5
    endloop
  endfacet
  facet normal 0.707107 0 0.707107
    outer loop
      vertex 5.5 5.5 1.5
      vertex 1.5 5.5 5.5
      vertex 3.5 3.5 3.5
    endloop
  endfacet
  facet normal -0.707107 0 0.707107
    outer loop
      vertex 44.5 44.5 1.5
      vertex 48.5 44.5 5.5
      vertex 46.5 46.5 3.5
    endloop
  endfacet
  facet normal -0.707107 0 0.707107
    outer loop
      vertex 44.5 5.5 1.5
      vertex 48.5 44.5 5.5
      vertex 44.5 44.5 1.5
    endloop
  endfacet
  facet normal -0.707107 0 0.707107
    outer loop
      vertex 44.5 5.5 1.5
      vertex 48.5 5.5 5.5
      vertex 48.5 44.5 5.5
    endloop
  endfacet
  facet normal -0.707107 0 0.707107
    outer loop
      vertex 48.5 5.5 5.5
      vertex 44.5 5.5 1.5
      vertex 46.5 3.5 3.5
    endloop
  endfacet
  facet normal 0 0.707107 0.707107
    outer loop
      vertex 44.5 5.5 1.5
      vertex 44.5 1.5 5.5
      vertex 46.5 3.5 3.5
    endloop
  endfacet
  facet normal 0 0.707107 0.707107
    outer loop
      vertex 44.5 1.5 5.5
      vertex 44.5 5.5 1.5
      vertex 5.5 1.5 5.5
    endloop
  endfacet
  facet normal -0 0.707107 0.707107
    outer loop
      vertex 5.5 5.5 1.5
      vertex 5.5 1.5 5.5
      vertex 44.5 5.5 1.5
    endloop
  endfacet
  facet normal 0 0.707107 0.707107
    outer loop
      vertex 5.5 1.5 5.5
      vertex 5.5 5.5 1.5
      vertex 3.5 3.5 3.5
    endloop
  endfacet
endsolid OpenSCAD_Model
