solid OpenSCAD_Model
  facet normal -1 0 0
    outer loop
      vertex -31 -31 -1
      vertex -31 31 1
      vertex -31 31 -1
    endloop
  endfacet
  facet normal -1 -0 0
    outer loop
      vertex -31 31 1
      vertex -31 -31 -1
      vertex -31 -31 1
    endloop
  endfacet
  facet normal 0 0 1
    outer loop
      vertex 31 31 1
      vertex 27.5 27.5 1
      vertex 31 -31 1
    endloop
  endfacet
  facet normal 0 0 1
    outer loop
      vertex 31 31 1
      vertex -27.5 27.5 1
      vertex 27.5 27.5 1
    endloop
  endfacet
  facet normal 0 0 1
    outer loop
      vertex -27.5 27.5 1
      vertex -31 31 1
      vertex -27.5 -27.5 1
    endloop
  endfacet
  facet normal -0 0 1
    outer loop
      vertex -31 31 1
      vertex -27.5 27.5 1
      vertex 31 31 1
    endloop
  endfacet
  facet normal -0 0 1
    outer loop
      vertex 27.5 -27.5 1
      vertex 31 -31 1
      vertex 27.5 27.5 1
    endloop
  endfacet
  facet normal -0 0 1
    outer loop
      vertex -27.5 -27.5 1
      vertex 31 -31 1
      vertex 27.5 -27.5 1
    endloop
  endfacet
  facet normal 0 0 1
    outer loop
      vertex -27.5 -27.5 1
      vertex -31 -31 1
      vertex 31 -31 1
    endloop
  endfacet
  facet normal 0 0 1
    outer loop
      vertex -31 -31 1
      vertex -27.5 -27.5 1
      vertex -31 31 1
    endloop
  endfacet
  facet normal 1 -0 0
    outer loop
      vertex 31 -31 1
      vertex 31 31 -1
      vertex 31 31 1
    endloop
  endfacet
  facet normal 1 0 0
    outer loop
      vertex 31 31 -1
      vertex 31 -31 1
      vertex 31 -31 -1
    endloop
  endfacet
  facet normal 0 1 -0
    outer loop
      vertex 31 31 -1
      vertex -31 31 1
      vertex 31 31 1
    endloop
  endfacet
  facet normal 0 1 0
    outer loop
      vertex -31 31 1
      vertex 31 31 -1
      vertex -31 31 -1
    endloop
  endfacet
  facet normal 0 0 -1
    outer loop
      vertex 31 -31 -1
      vertex 28.95 -28.95 -1
      vertex 31 31 -1
    endloop
  endfacet
  facet normal 0 0 -1
    outer loop
      vertex 31 -31 -1
      vertex -28.95 -28.95 -1
      vertex 28.95 -28.95 -1
    endloop
  endfacet
  facet normal -0 0 -1
    outer loop
      vertex -28.95 -28.95 -1
      vertex -31 -31 -1
      vertex -28.95 28.95 -1
    endloop
  endfacet
  facet normal 0 0 -1
    outer loop
      vertex -31 -31 -1
      vertex -28.95 -28.95 -1
      vertex 31 -31 -1
    endloop
  endfacet
  facet normal 0 0 -1
    outer loop
      vertex 28.95 28.95 -1
      vertex 31 31 -1
      vertex 28.95 -28.95 -1
    endloop
  endfacet
  facet normal 0 0 -1
    outer loop
      vertex -28.95 28.95 -1
      vertex 31 31 -1
      vertex 28.95 28.95 -1
    endloop
  endfacet
  facet normal 0 0 -1
    outer loop
      vertex -28.95 28.95 -1
      vertex -31 31 -1
      vertex 31 31 -1
    endloop
  endfacet
  facet normal 0 0 -1
    outer loop
      vertex -31 31 -1
      vertex -28.95 28.95 -1
      vertex -31 -31 -1
    endloop
  endfacet
  facet normal 0 0 -1
    outer loop
      vertex 28.25 -28.25 -1
      vertex 27.5 -27.5 -1
      vertex 28.25 28.25 -1
    endloop
  endfacet
  facet normal 0 0 -1
    outer loop
      vertex 28.25 -28.25 -1
      vertex -27.5 -27.5 -1
      vertex 27.5 -27.5 -1
    endloop
  endfacet
  facet normal -0 0 -1
    outer loop
      vertex -27.5 -27.5 -1
      vertex -28.25 -28.25 -1
      vertex -27.5 27.5 -1
    endloop
  endfacet
  facet normal 0 0 -1
    outer loop
      vertex -28.25 -28.25 -1
      vertex -27.5 -27.5 -1
      vertex 28.25 -28.25 -1
    endloop
  endfacet
  facet normal 0 0 -1
    outer loop
      vertex 27.5 27.5 -1
      vertex 28.25 28.25 -1
      vertex 27.5 -27.5 -1
    endloop
  endfacet
  facet normal 0 0 -1
    outer loop
      vertex -27.5 27.5 -1
      vertex 28.25 28.25 -1
      vertex 27.5 27.5 -1
    endloop
  endfacet
  facet normal 0 0 -1
    outer loop
      vertex -27.5 27.5 -1
      vertex -28.25 28.25 -1
      vertex 28.25 28.25 -1
    endloop
  endfacet
  facet normal 0 0 -1
    outer loop
      vertex -28.25 28.25 -1
      vertex -27.5 27.5 -1
      vertex -28.25 -28.25 -1
    endloop
  endfacet
  facet normal 0 -1 0
    outer loop
      vertex -31 -31 -1
      vertex 31 -31 1
      vertex -31 -31 1
    endloop
  endfacet
  facet normal 0 -1 -0
    outer loop
      vertex 31 -31 1
      vertex -31 -31 -1
      vertex 31 -31 -1
    endloop
  endfacet
  facet normal 1 -0 0
    outer loop
      vertex -27.5 -27.5 1
      vertex -27.5 27.5 -1
      vertex -27.5 27.5 1
    endloop
  endfacet
  facet normal 1 0 0
    outer loop
      vertex -27.5 27.5 -1
      vertex -27.5 -27.5 1
      vertex -27.5 -27.5 -1
    endloop
  endfacet
  facet normal -1 0 0
    outer loop
      vertex 27.5 -27.5 -1
      vertex 27.5 27.5 1
      vertex 27.5 27.5 -1
    endloop
  endfacet
  facet normal -1 -0 0
    outer loop
      vertex 27.5 27.5 1
      vertex 27.5 -27.5 -1
      vertex 27.5 -27.5 1
    endloop
  endfacet
  facet normal 0 -1 0
    outer loop
      vertex -27.5 27.5 -1
      vertex 27.5 27.5 1
      vertex -27.5 27.5 1
    endloop
  endfacet
  facet normal 0 -1 -0
    outer loop
      vertex 27.5 27.5 1
      vertex -27.5 27.5 -1
      vertex 27.5 27.5 -1
    endloop
  endfacet
  facet normal 0 1 -0
    outer loop
      vertex 27.5 -27.5 -1
      vertex -27.5 -27.5 1
      vertex 27.5 -27.5 1
    endloop
  endfacet
  facet normal 0 1 0
    outer loop
      vertex -27.5 -27.5 1
      vertex 27.5 -27.5 -1
      vertex -27.5 -27.5 -1
    endloop
  endfacet
  facet normal -1 0 0
    outer loop
      vertex -28.95 -28.95 -3
      vertex -28.95 28.95 -1
      vertex -28.95 28.95 -3
    endloop
  endfacet
  facet normal -1 -0 0
    outer loop
      vertex -28.95 28.95 -1
      vertex -28.95 -28.95 -3
      vertex -28.95 -28.95 -1
    endloop
  endfacet
  facet normal 1 -0 0
    outer loop
      vertex 28.95 -28.95 -1
      vertex 28.95 28.95 -3
      vertex 28.95 28.95 -1
    endloop
  endfacet
  facet normal 1 0 0
    outer loop
      vertex 28.95 28.95 -3
      vertex 28.95 -28.95 -1
      vertex 28.95 -28.95 -3
    endloop
  endfacet
  facet normal 0 0 -1
    outer loop
      vertex 28.95 -28.95 -3
      vertex 28.25 -28.25 -3
      vertex 28.95 28.95 -3
    endloop
  endfacet
  facet normal 0 0 -1
    outer loop
      vertex 28.95 -28.95 -3
      vertex -28.25 -28.25 -3
      vertex 28.25 -28.25 -3
    endloop
  endfacet
  facet normal -0 0 -1
    outer loop
      vertex -28.25 -28.25 -3
      vertex -28.95 -28.95 -3
      vertex -28.25 28.25 -3
    endloop
  endfacet
  facet normal 0 0 -1
    outer loop
      vertex -28.95 -28.95 -3
      vertex -28.25 -28.25 -3
      vertex 28.95 -28.95 -3
    endloop
  endfacet
  facet normal 0 0 -1
    outer loop
      vertex 28.25 28.25 -3
      vertex 28.95 28.95 -3
      vertex 28.25 -28.25 -3
    endloop
  endfacet
  facet normal 0 0 -1
    outer loop
      vertex -28.25 28.25 -3
      vertex 28.95 28.95 -3
      vertex 28.25 28.25 -3
    endloop
  endfacet
  facet normal 0 0 -1
    outer loop
      vertex -28.25 28.25 -3
      vertex -28.95 28.95 -3
      vertex 28.95 28.95 -3
    endloop
  endfacet
  facet normal 0 0 -1
    outer loop
      vertex -28.95 28.95 -3
      vertex -28.25 28.25 -3
      vertex -28.95 -28.95 -3
    endloop
  endfacet
  facet normal 0 -1 0
    outer loop
      vertex -28.95 -28.95 -3
      vertex 28.95 -28.95 -1
      vertex -28.95 -28.95 -1
    endloop
  endfacet
  facet normal 0 -1 -0
    outer loop
      vertex 28.95 -28.95 -1
      vertex -28.95 -28.95 -3
      vertex 28.95 -28.95 -3
    endloop
  endfacet
  facet normal 0 1 -0
    outer loop
      vertex 28.95 28.95 -3
      vertex -28.95 28.95 -1
      vertex 28.95 28.95 -1
    endloop
  endfacet
  facet normal 0 1 0
    outer loop
      vertex -28.95 28.95 -1
      vertex 28.95 28.95 -3
      vertex -28.95 28.95 -3
    endloop
  endfacet
  facet normal 1 -0 0
    outer loop
      vertex -28.25 -28.25 -1
      vertex -28.25 28.25 -3
      vertex -28.25 28.25 -1
    endloop
  endfacet
  facet normal 1 0 0
    outer loop
      vertex -28.25 28.25 -3
      vertex -28.25 -28.25 -1
      vertex -28.25 -28.25 -3
    endloop
  endfacet
  facet normal -1 0 0
    outer loop
      vertex 28.25 -28.25 -3
      vertex 28.25 28.25 -1
      vertex 28.25 28.25 -3
    endloop
  endfacet
  facet normal -1 -0 0
    outer loop
      vertex 28.25 28.25 -1
      vertex 28.25 -28.25 -3
      vertex 28.25 -28.25 -1
    endloop
  endfacet
  facet normal 0 -1 0
    outer loop
      vertex -28.25 28.25 -3
      vertex 28.25 28.25 -1
      vertex -28.25 28.25 -1
    endloop
  endfacet
  facet normal 0 -1 -0
    outer loop
      vertex 28.25 28.25 -1
      vertex -28.25 28.25 -3
      vertex 28.25 28.25 -3
    endloop
  endfacet
  facet normal 0 1 -0
    outer loop
      vertex 28.25 -28.25 -3
      vertex -28.25 -28.25 -1
      vertex 28.25 -28.25 -1
    endloop
  endfacet
  facet normal 0 1 0
    outer loop
      vertex -28.25 -28.25 -1
      vertex 28.25 -28.25 -3
      vertex -28.25 -28.25 -3
    endloop
  endfacet
endsolid OpenSCAD_Model
