solid OpenSCAD_Model
  facet normal -1 0 0
    outer loop
      vertex -31 -31 -1
      vertex -31 31 1
      vertex -31 31 -1
    endloop
  endfacet
  facet normal -1 -0 0
    outer loop
      vertex -31 31 1
      vertex -31 -31 -1
      vertex -31 -31 1
    endloop
  endfacet
  facet normal 0 0 1
    outer loop
      vertex 31 31 1
      vertex 26.5 27 1
      vertex 31 -31 1
    endloop
  endfacet
  facet normal 0 0 1
    outer loop
      vertex 31 31 1
      vertex -26.5 27 1
      vertex 26.5 27 1
    endloop
  endfacet
  facet normal 0 0 1
    outer loop
      vertex -26.5 27 1
      vertex -31 31 1
      vertex -26.5 -27 1
    endloop
  endfacet
  facet normal -0 0 1
    outer loop
      vertex -31 31 1
      vertex -26.5 27 1
      vertex 31 31 1
    endloop
  endfacet
  facet normal -0 0 1
    outer loop
      vertex 26.5 -27 1
      vertex 31 -31 1
      vertex 26.5 27 1
    endloop
  endfacet
  facet normal -0 0 1
    outer loop
      vertex -26.5 -27 1
      vertex 31 -31 1
      vertex 26.5 -27 1
    endloop
  endfacet
  facet normal 0 0 1
    outer loop
      vertex -26.5 -27 1
      vertex -31 -31 1
      vertex 31 -31 1
    endloop
  endfacet
  facet normal 0 0 1
    outer loop
      vertex -31 -31 1
      vertex -26.5 -27 1
      vertex -31 31 1
    endloop
  endfacet
  facet normal 1 -0 0
    outer loop
      vertex 31 -31 1
      vertex 31 31 -1
      vertex 31 31 1
    endloop
  endfacet
  facet normal 1 0 0
    outer loop
      vertex 31 31 -1
      vertex 31 -31 1
      vertex 31 -31 -1
    endloop
  endfacet
  facet normal 0 1 -0
    outer loop
      vertex 31 31 -1
      vertex -31 31 1
      vertex 31 31 1
    endloop
  endfacet
  facet normal 0 1 0
    outer loop
      vertex -31 31 1
      vertex 31 31 -1
      vertex -31 31 -1
    endloop
  endfacet
  facet normal 0 0 -1
    outer loop
      vertex 31 -31 -1
      vertex 28.9 -28.9 -1
      vertex 31 31 -1
    endloop
  endfacet
  facet normal 0 0 -1
    outer loop
      vertex 31 -31 -1
      vertex -28.9 -28.9 -1
      vertex 28.9 -28.9 -1
    endloop
  endfacet
  facet normal -0 0 -1
    outer loop
      vertex -28.9 -28.9 -1
      vertex -31 -31 -1
      vertex -28.9 28.9 -1
    endloop
  endfacet
  facet normal 0 0 -1
    outer loop
      vertex -31 -31 -1
      vertex -28.9 -28.9 -1
      vertex 31 -31 -1
    endloop
  endfacet
  facet normal 0 0 -1
    outer loop
      vertex 28.9 28.9 -1
      vertex 31 31 -1
      vertex 28.9 -28.9 -1
    endloop
  endfacet
  facet normal 0 0 -1
    outer loop
      vertex -28.9 28.9 -1
      vertex 31 31 -1
      vertex 28.9 28.9 -1
    endloop
  endfacet
  facet normal 0 0 -1
    outer loop
      vertex -28.9 28.9 -1
      vertex -31 31 -1
      vertex 31 31 -1
    endloop
  endfacet
  facet normal 0 0 -1
    outer loop
      vertex -31 31 -1
      vertex -28.9 28.9 -1
      vertex -31 -31 -1
    endloop
  endfacet
  facet normal 0 0 -1
    outer loop
      vertex 28.25 -28.25 -1
      vertex 26.5 -27 -1
      vertex 28.25 28.25 -1
    endloop
  endfacet
  facet normal 0 0 -1
    outer loop
      vertex 28.25 -28.25 -1
      vertex -26.5 -27 -1
      vertex 26.5 -27 -1
    endloop
  endfacet
  facet normal -0 0 -1
    outer loop
      vertex -26.5 -27 -1
      vertex -28.25 -28.25 -1
      vertex -26.5 27 -1
    endloop
  endfacet
  facet normal 0 0 -1
    outer loop
      vertex -28.25 -28.25 -1
      vertex -26.5 -27 -1
      vertex 28.25 -28.25 -1
    endloop
  endfacet
  facet normal 0 0 -1
    outer loop
      vertex 26.5 27 -1
      vertex 28.25 28.25 -1
      vertex 26.5 -27 -1
    endloop
  endfacet
  facet normal 0 0 -1
    outer loop
      vertex -26.5 27 -1
      vertex 28.25 28.25 -1
      vertex 26.5 27 -1
    endloop
  endfacet
  facet normal 0 0 -1
    outer loop
      vertex -26.5 27 -1
      vertex -28.25 28.25 -1
      vertex 28.25 28.25 -1
    endloop
  endfacet
  facet normal 0 0 -1
    outer loop
      vertex -28.25 28.25 -1
      vertex -26.5 27 -1
      vertex -28.25 -28.25 -1
    endloop
  endfacet
  facet normal 0 -1 0
    outer loop
      vertex -31 -31 -1
      vertex 31 -31 1
      vertex -31 -31 1
    endloop
  endfacet
  facet normal 0 -1 -0
    outer loop
      vertex 31 -31 1
      vertex -31 -31 -1
      vertex 31 -31 -1
    endloop
  endfacet
  facet normal 1 -0 0
    outer loop
      vertex -26.5 -27 1
      vertex -26.5 27 -1
      vertex -26.5 27 1
    endloop
  endfacet
  facet normal 1 0 0
    outer loop
      vertex -26.5 27 -1
      vertex -26.5 -27 1
      vertex -26.5 -27 -1
    endloop
  endfacet
  facet normal -1 0 0
    outer loop
      vertex 26.5 -27 -1
      vertex 26.5 27 1
      vertex 26.5 27 -1
    endloop
  endfacet
  facet normal -1 -0 0
    outer loop
      vertex 26.5 27 1
      vertex 26.5 -27 -1
      vertex 26.5 -27 1
    endloop
  endfacet
  facet normal 0 1 -0
    outer loop
      vertex 26.5 -27 -1
      vertex -26.5 -27 1
      vertex 26.5 -27 1
    endloop
  endfacet
  facet normal 0 1 0
    outer loop
      vertex -26.5 -27 1
      vertex 26.5 -27 -1
      vertex -26.5 -27 -1
    endloop
  endfacet
  facet normal 0 -1 0
    outer loop
      vertex -26.5 27 -1
      vertex 26.5 27 1
      vertex -26.5 27 1
    endloop
  endfacet
  facet normal 0 -1 -0
    outer loop
      vertex 26.5 27 1
      vertex -26.5 27 -1
      vertex 26.5 27 -1
    endloop
  endfacet
  facet normal -1 0 0
    outer loop
      vertex -28.9 -28.9 -9
      vertex -28.9 28.9 -1
      vertex -28.9 28.9 -9
    endloop
  endfacet
  facet normal -1 -0 0
    outer loop
      vertex -28.9 28.9 -1
      vertex -28.9 -28.9 -9
      vertex -28.9 -28.9 -1
    endloop
  endfacet
  facet normal 1 -0 0
    outer loop
      vertex 28.9 -28.9 -1
      vertex 28.9 28.9 -9
      vertex 28.9 28.9 -1
    endloop
  endfacet
  facet normal 1 0 0
    outer loop
      vertex 28.9 28.9 -9
      vertex 28.9 -28.9 -1
      vertex 28.9 -28.9 -9
    endloop
  endfacet
  facet normal 0 1 -0
    outer loop
      vertex 28.9 28.9 -9
      vertex -28.9 28.9 -1
      vertex 28.9 28.9 -1
    endloop
  endfacet
  facet normal 0 1 0
    outer loop
      vertex -28.9 28.9 -1
      vertex 28.9 28.9 -9
      vertex -28.9 28.9 -9
    endloop
  endfacet
  facet normal 0 0 -1
    outer loop
      vertex 28.9 -28.9 -9
      vertex 28.25 -28.25 -9
      vertex 28.9 28.9 -9
    endloop
  endfacet
  facet normal 0 0 -1
    outer loop
      vertex 28.9 -28.9 -9
      vertex -28.25 -28.25 -9
      vertex 28.25 -28.25 -9
    endloop
  endfacet
  facet normal -0 0 -1
    outer loop
      vertex -28.25 -28.25 -9
      vertex -28.9 -28.9 -9
      vertex -28.25 28.25 -9
    endloop
  endfacet
  facet normal 0 0 -1
    outer loop
      vertex -28.9 -28.9 -9
      vertex -28.25 -28.25 -9
      vertex 28.9 -28.9 -9
    endloop
  endfacet
  facet normal 0 0 -1
    outer loop
      vertex 28.25 28.25 -9
      vertex 28.9 28.9 -9
      vertex 28.25 -28.25 -9
    endloop
  endfacet
  facet normal 0 0 -1
    outer loop
      vertex -28.25 28.25 -9
      vertex 28.9 28.9 -9
      vertex 28.25 28.25 -9
    endloop
  endfacet
  facet normal 0 0 -1
    outer loop
      vertex -28.25 28.25 -9
      vertex -28.9 28.9 -9
      vertex 28.9 28.9 -9
    endloop
  endfacet
  facet normal 0 0 -1
    outer loop
      vertex -28.9 28.9 -9
      vertex -28.25 28.25 -9
      vertex -28.9 -28.9 -9
    endloop
  endfacet
  facet normal 0 -1 0
    outer loop
      vertex -28.9 -28.9 -9
      vertex 28.9 -28.9 -1
      vertex -28.9 -28.9 -1
    endloop
  endfacet
  facet normal 0 -1 -0
    outer loop
      vertex 28.9 -28.9 -1
      vertex -28.9 -28.9 -9
      vertex 28.9 -28.9 -9
    endloop
  endfacet
  facet normal 1 -0 0
    outer loop
      vertex -28.25 -28.25 -1
      vertex -28.25 28.25 -9
      vertex -28.25 28.25 -1
    endloop
  endfacet
  facet normal 1 0 0
    outer loop
      vertex -28.25 28.25 -9
      vertex -28.25 -28.25 -1
      vertex -28.25 -28.25 -9
    endloop
  endfacet
  facet normal -1 0 0
    outer loop
      vertex 28.25 -28.25 -9
      vertex 28.25 28.25 -1
      vertex 28.25 28.25 -9
    endloop
  endfacet
  facet normal -1 -0 0
    outer loop
      vertex 28.25 28.25 -1
      vertex 28.25 -28.25 -9
      vertex 28.25 -28.25 -1
    endloop
  endfacet
  facet normal 0 -1 0
    outer loop
      vertex -28.25 28.25 -9
      vertex 28.25 28.25 -1
      vertex -28.25 28.25 -1
    endloop
  endfacet
  facet normal 0 -1 -0
    outer loop
      vertex 28.25 28.25 -1
      vertex -28.25 28.25 -9
      vertex 28.25 28.25 -9
    endloop
  endfacet
  facet normal 0 1 -0
    outer loop
      vertex 28.25 -28.25 -9
      vertex -28.25 -28.25 -1
      vertex 28.25 -28.25 -1
    endloop
  endfacet
  facet normal 0 1 0
    outer loop
      vertex -28.25 -28.25 -1
      vertex 28.25 -28.25 -9
      vertex -28.25 -28.25 -9
    endloop
  endfacet
endsolid OpenSCAD_Model
