solid OpenSCAD_Model
  facet normal -1 0 0
    outer loop
      vertex -47.5 -33 -1
      vertex -47.5 33 1
      vertex -47.5 33 -1
    endloop
  endfacet
  facet normal -1 -0 0
    outer loop
      vertex -47.5 33 1
      vertex -47.5 -33 -1
      vertex -47.5 -33 1
    endloop
  endfacet
  facet normal 0 0 1
    outer loop
      vertex 47.5 33 1
      vertex 39.5 24 1
      vertex 47.5 -33 1
    endloop
  endfacet
  facet normal 0 0 1
    outer loop
      vertex 47.5 33 1
      vertex -37.5 24 1
      vertex 39.5 24 1
    endloop
  endfacet
  facet normal 0 0 1
    outer loop
      vertex -47.5 -33 1
      vertex -37.5 24 1
      vertex -47.5 33 1
    endloop
  endfacet
  facet normal -0 0 1
    outer loop
      vertex -47.5 33 1
      vertex -37.5 24 1
      vertex 47.5 33 1
    endloop
  endfacet
  facet normal -0 0 1
    outer loop
      vertex 39.5 -26 1
      vertex 47.5 -33 1
      vertex 39.5 24 1
    endloop
  endfacet
  facet normal -0 0 1
    outer loop
      vertex -37.5 -26 1
      vertex 47.5 -33 1
      vertex 39.5 -26 1
    endloop
  endfacet
  facet normal 0 0 1
    outer loop
      vertex -37.5 -26 1
      vertex -47.5 -33 1
      vertex 47.5 -33 1
    endloop
  endfacet
  facet normal 0 0 1
    outer loop
      vertex -37.5 24 1
      vertex -47.5 -33 1
      vertex -37.5 -26 1
    endloop
  endfacet
  facet normal 1 -0 0
    outer loop
      vertex 47.5 -33 1
      vertex 47.5 33 -1
      vertex 47.5 33 1
    endloop
  endfacet
  facet normal 1 0 0
    outer loop
      vertex 47.5 33 -1
      vertex 47.5 -33 1
      vertex 47.5 -33 -1
    endloop
  endfacet
  facet normal 0 1 -0
    outer loop
      vertex 47.5 33 -1
      vertex -47.5 33 1
      vertex 47.5 33 1
    endloop
  endfacet
  facet normal 0 1 0
    outer loop
      vertex -47.5 33 1
      vertex 47.5 33 -1
      vertex -47.5 33 -1
    endloop
  endfacet
  facet normal 0 0 -1
    outer loop
      vertex 47.5 -33 -1
      vertex 45.25 -30.75 -1
      vertex 47.5 33 -1
    endloop
  endfacet
  facet normal 0 0 -1
    outer loop
      vertex 47.5 -33 -1
      vertex -45.25 -30.75 -1
      vertex 45.25 -30.75 -1
    endloop
  endfacet
  facet normal -0 0 -1
    outer loop
      vertex -45.25 -30.75 -1
      vertex -47.5 -33 -1
      vertex -45.25 30.75 -1
    endloop
  endfacet
  facet normal 0 0 -1
    outer loop
      vertex -47.5 -33 -1
      vertex -45.25 -30.75 -1
      vertex 47.5 -33 -1
    endloop
  endfacet
  facet normal 0 0 -1
    outer loop
      vertex 45.25 30.75 -1
      vertex 47.5 33 -1
      vertex 45.25 -30.75 -1
    endloop
  endfacet
  facet normal 0 0 -1
    outer loop
      vertex -45.25 30.75 -1
      vertex 47.5 33 -1
      vertex 45.25 30.75 -1
    endloop
  endfacet
  facet normal 0 0 -1
    outer loop
      vertex -45.25 30.75 -1
      vertex -47.5 33 -1
      vertex 47.5 33 -1
    endloop
  endfacet
  facet normal 0 0 -1
    outer loop
      vertex -47.5 33 -1
      vertex -45.25 30.75 -1
      vertex -47.5 -33 -1
    endloop
  endfacet
  facet normal 0 0 -1
    outer loop
      vertex 39.5 24 -1
      vertex 44.6 -30.25 -1
      vertex 39.5 -26 -1
    endloop
  endfacet
  facet normal 0 0 -1
    outer loop
      vertex 44.6 -30.25 -1
      vertex -37.5 -26 -1
      vertex 39.5 -26 -1
    endloop
  endfacet
  facet normal -0 0 -1
    outer loop
      vertex -37.5 -26 -1
      vertex -44.6 -30.25 -1
      vertex -37.5 24 -1
    endloop
  endfacet
  facet normal 0 0 -1
    outer loop
      vertex -44.6 -30.25 -1
      vertex -37.5 -26 -1
      vertex 44.6 -30.25 -1
    endloop
  endfacet
  facet normal 0 0 -1
    outer loop
      vertex 44.6 -30.25 -1
      vertex 39.5 24 -1
      vertex 44.6 30.25 -1
    endloop
  endfacet
  facet normal 0 0 -1
    outer loop
      vertex -37.5 24 -1
      vertex 44.6 30.25 -1
      vertex 39.5 24 -1
    endloop
  endfacet
  facet normal 0 0 -1
    outer loop
      vertex -37.5 24 -1
      vertex -44.6 30.25 -1
      vertex 44.6 30.25 -1
    endloop
  endfacet
  facet normal 0 0 -1
    outer loop
      vertex -44.6 30.25 -1
      vertex -37.5 24 -1
      vertex -44.6 -30.25 -1
    endloop
  endfacet
  facet normal 0 -1 0
    outer loop
      vertex -47.5 -33 -1
      vertex 47.5 -33 1
      vertex -47.5 -33 1
    endloop
  endfacet
  facet normal 0 -1 -0
    outer loop
      vertex 47.5 -33 1
      vertex -47.5 -33 -1
      vertex 47.5 -33 -1
    endloop
  endfacet
  facet normal 1 -0 0
    outer loop
      vertex -37.5 -26 1
      vertex -37.5 24 -1
      vertex -37.5 24 1
    endloop
  endfacet
  facet normal 1 0 0
    outer loop
      vertex -37.5 24 -1
      vertex -37.5 -26 1
      vertex -37.5 -26 -1
    endloop
  endfacet
  facet normal -1 0 0
    outer loop
      vertex 39.5 -26 -1
      vertex 39.5 24 1
      vertex 39.5 24 -1
    endloop
  endfacet
  facet normal -1 -0 0
    outer loop
      vertex 39.5 24 1
      vertex 39.5 -26 -1
      vertex 39.5 -26 1
    endloop
  endfacet
  facet normal 0 1 -0
    outer loop
      vertex 39.5 -26 -1
      vertex -37.5 -26 1
      vertex 39.5 -26 1
    endloop
  endfacet
  facet normal 0 1 0
    outer loop
      vertex -37.5 -26 1
      vertex 39.5 -26 -1
      vertex -37.5 -26 -1
    endloop
  endfacet
  facet normal 0 -1 0
    outer loop
      vertex -37.5 24 -1
      vertex 39.5 24 1
      vertex -37.5 24 1
    endloop
  endfacet
  facet normal 0 -1 -0
    outer loop
      vertex 39.5 24 1
      vertex -37.5 24 -1
      vertex 39.5 24 -1
    endloop
  endfacet
  facet normal -1 0 0
    outer loop
      vertex -45.25 -30.75 -9
      vertex -45.25 30.75 -1
      vertex -45.25 30.75 -9
    endloop
  endfacet
  facet normal -1 -0 0
    outer loop
      vertex -45.25 30.75 -1
      vertex -45.25 -30.75 -9
      vertex -45.25 -30.75 -1
    endloop
  endfacet
  facet normal 1 -0 0
    outer loop
      vertex 45.25 -30.75 -1
      vertex 45.25 30.75 -7
      vertex 45.25 30.75 -1
    endloop
  endfacet
  facet normal 1 0 0
    outer loop
      vertex 45.25 30.75 -7
      vertex 45.25 -30.75 -1
      vertex 45.25 -30.75 -7
    endloop
  endfacet
  facet normal 0 1 0
    outer loop
      vertex 26.5 30.75 -7
      vertex 45.25 30.75 -1
      vertex 45.25 30.75 -7
    endloop
  endfacet
  facet normal 0 1 0
    outer loop
      vertex 45.25 30.75 -1
      vertex 26.5 30.75 -7
      vertex -45.25 30.75 -1
    endloop
  endfacet
  facet normal 0 1 0
    outer loop
      vertex -45.25 30.75 -9
      vertex 26.5 30.75 -7
      vertex 26.5 30.75 -9
    endloop
  endfacet
  facet normal 0 1 0
    outer loop
      vertex 26.5 30.75 -7
      vertex -45.25 30.75 -9
      vertex -45.25 30.75 -1
    endloop
  endfacet
  facet normal 0 0 -1
    outer loop
      vertex 26.5 -30.75 -9
      vertex -44.6 -30.25 -9
      vertex 26.5 -30.25 -9
    endloop
  endfacet
  facet normal -0 0 -1
    outer loop
      vertex -44.6 -30.25 -9
      vertex -45.25 -30.75 -9
      vertex -44.6 30.25 -9
    endloop
  endfacet
  facet normal 0 0 -1
    outer loop
      vertex -45.25 -30.75 -9
      vertex -44.6 -30.25 -9
      vertex 26.5 -30.75 -9
    endloop
  endfacet
  facet normal 0 0 -1
    outer loop
      vertex -44.6 30.25 -9
      vertex 26.5 30.75 -9
      vertex 26.5 30.25 -9
    endloop
  endfacet
  facet normal 0 0 -1
    outer loop
      vertex -44.6 30.25 -9
      vertex -45.25 30.75 -9
      vertex 26.5 30.75 -9
    endloop
  endfacet
  facet normal 0 0 -1
    outer loop
      vertex -45.25 30.75 -9
      vertex -44.6 30.25 -9
      vertex -45.25 -30.75 -9
    endloop
  endfacet
  facet normal 0 -1 0
    outer loop
      vertex -45.25 -30.75 -1
      vertex 26.5 -30.75 -7
      vertex 45.25 -30.75 -1
    endloop
  endfacet
  facet normal 0 -1 0
    outer loop
      vertex -45.25 -30.75 -9
      vertex 26.5 -30.75 -7
      vertex -45.25 -30.75 -1
    endloop
  endfacet
  facet normal 0 -1 -0
    outer loop
      vertex 26.5 -30.75 -7
      vertex -45.25 -30.75 -9
      vertex 26.5 -30.75 -9
    endloop
  endfacet
  facet normal 0 -1 -0
    outer loop
      vertex 45.25 -30.75 -1
      vertex 26.5 -30.75 -7
      vertex 45.25 -30.75 -7
    endloop
  endfacet
  facet normal 1 -0 0
    outer loop
      vertex -44.6 -30.25 -1
      vertex -44.6 30.25 -9
      vertex -44.6 30.25 -1
    endloop
  endfacet
  facet normal 1 0 0
    outer loop
      vertex -44.6 30.25 -9
      vertex -44.6 -30.25 -1
      vertex -44.6 -30.25 -9
    endloop
  endfacet
  facet normal -1 0 0
    outer loop
      vertex 44.6 -30.25 -7
      vertex 44.6 30.25 -1
      vertex 44.6 30.25 -7
    endloop
  endfacet
  facet normal -1 -0 0
    outer loop
      vertex 44.6 30.25 -1
      vertex 44.6 -30.25 -7
      vertex 44.6 -30.25 -1
    endloop
  endfacet
  facet normal 0 -1 0
    outer loop
      vertex -44.6 30.25 -1
      vertex 26.5 30.25 -7
      vertex 44.6 30.25 -1
    endloop
  endfacet
  facet normal 0 -1 0
    outer loop
      vertex -44.6 30.25 -9
      vertex 26.5 30.25 -7
      vertex -44.6 30.25 -1
    endloop
  endfacet
  facet normal 0 -1 -0
    outer loop
      vertex 26.5 30.25 -7
      vertex -44.6 30.25 -9
      vertex 26.5 30.25 -9
    endloop
  endfacet
  facet normal 0 -1 -0
    outer loop
      vertex 44.6 30.25 -1
      vertex 26.5 30.25 -7
      vertex 44.6 30.25 -7
    endloop
  endfacet
  facet normal 0 1 0
    outer loop
      vertex 26.5 -30.25 -7
      vertex 44.6 -30.25 -1
      vertex 44.6 -30.25 -7
    endloop
  endfacet
  facet normal 0 1 0
    outer loop
      vertex 44.6 -30.25 -1
      vertex 26.5 -30.25 -7
      vertex -44.6 -30.25 -1
    endloop
  endfacet
  facet normal 0 1 0
    outer loop
      vertex -44.6 -30.25 -9
      vertex 26.5 -30.25 -7
      vertex 26.5 -30.25 -9
    endloop
  endfacet
  facet normal 0 1 0
    outer loop
      vertex 26.5 -30.25 -7
      vertex -44.6 -30.25 -9
      vertex -44.6 -30.25 -1
    endloop
  endfacet
  facet normal 1 -0 0
    outer loop
      vertex 26.5 30.25 -7
      vertex 26.5 30.75 -9
      vertex 26.5 30.75 -7
    endloop
  endfacet
  facet normal 1 0 0
    outer loop
      vertex 26.5 30.75 -9
      vertex 26.5 30.25 -7
      vertex 26.5 30.25 -9
    endloop
  endfacet
  facet normal 1 -0 0
    outer loop
      vertex 26.5 -30.75 -7
      vertex 26.5 -30.25 -9
      vertex 26.5 -30.25 -7
    endloop
  endfacet
  facet normal 1 0 0
    outer loop
      vertex 26.5 -30.25 -9
      vertex 26.5 -30.75 -7
      vertex 26.5 -30.75 -9
    endloop
  endfacet
  facet normal 0 0 -1
    outer loop
      vertex 45.25 -30.75 -7
      vertex 44.6 -30.25 -7
      vertex 45.25 30.75 -7
    endloop
  endfacet
  facet normal 0 0 -1
    outer loop
      vertex 26.5 -30.75 -7
      vertex 44.6 -30.25 -7
      vertex 45.25 -30.75 -7
    endloop
  endfacet
  facet normal -0 0 -1
    outer loop
      vertex 44.6 -30.25 -7
      vertex 26.5 -30.75 -7
      vertex 26.5 -30.25 -7
    endloop
  endfacet
  facet normal 0 0 -1
    outer loop
      vertex 44.6 30.25 -7
      vertex 45.25 30.75 -7
      vertex 44.6 -30.25 -7
    endloop
  endfacet
  facet normal 0 0 -1
    outer loop
      vertex 26.5 30.75 -7
      vertex 44.6 30.25 -7
      vertex 26.5 30.25 -7
    endloop
  endfacet
  facet normal 0 0 -1
    outer loop
      vertex 44.6 30.25 -7
      vertex 26.5 30.75 -7
      vertex 45.25 30.75 -7
    endloop
  endfacet
endsolid OpenSCAD_Model
