<?xml version="1.0" encoding="UTF-8" standalone="no"?>
<!DOCTYPE svg PUBLIC "-//W3C//DTD SVG 20010904//EN"
              "http://www.w3.org/TR/2001/REC-SVG-20010904/DTD/svg10.dtd">

<svg xmlns="http://www.w3.org/2000/svg"
     width="27.7778in" height="27.7778in"
     viewBox="0 0 2500 2500">
  <path id="Selection"
        fill="none" stroke="black" stroke-width="1"
        d="M 1447.00,249.00
           C 1446.96,262.44 1441.72,281.80 1438.15,295.00
             1438.15,295.00 1427.37,338.00 1427.37,338.00
             1419.41,368.95 1403.28,407.92 1386.42,435.00
             1375.82,452.03 1361.93,470.22 1346.00,482.50
             1336.50,489.83 1317.28,501.37 1306.00,505.11
             1306.00,505.11 1238.00,519.88 1238.00,519.88
             1238.00,519.88 1210.00,526.93 1210.00,526.93
             1210.00,526.93 1199.00,526.93 1199.00,526.93
             1199.00,526.93 1179.00,529.00 1179.00,529.00
             1179.00,529.00 1120.00,529.00 1120.00,529.00
             1120.00,529.00 1104.00,528.00 1104.00,528.00
             1104.00,528.00 1074.00,528.00 1074.00,528.00
             1074.00,528.00 1042.00,526.00 1042.00,526.00
             1042.00,526.00 1008.00,526.00 1008.00,526.00
             1008.00,526.00 991.00,525.00 991.00,525.00
             991.00,525.00 969.00,525.00 969.00,525.00
             969.00,525.00 952.00,524.00 952.00,524.00
             952.00,524.00 925.00,524.00 925.00,524.00
             925.00,524.00 908.00,523.00 908.00,523.00
             908.00,523.00 879.00,523.00 879.00,523.00
             879.00,523.00 850.00,521.00 850.00,521.00
             850.00,521.00 782.00,521.00 782.00,521.00
             782.00,521.00 770.00,521.91 770.00,521.91
             770.00,521.91 731.00,525.83 731.00,525.83
             731.00,525.83 685.00,533.00 685.00,533.00
             596.54,551.30 500.26,600.49 476.63,695.00
             473.76,706.46 471.02,721.23 471.00,733.00
             471.00,733.00 471.00,749.00 471.00,749.00
             471.65,804.34 509.07,851.16 555.00,878.55
             555.00,878.55 606.00,906.58 606.00,906.58
             614.16,911.19 623.73,916.11 627.95,925.00
             635.75,941.42 621.93,965.67 613.00,979.00
             592.31,1009.90 553.55,1042.98 521.00,1061.14
             511.34,1066.53 491.77,1077.39 481.00,1076.96
             474.46,1076.70 464.21,1072.86 458.00,1070.40
             447.46,1066.22 436.89,1062.01 427.00,1056.42
             411.90,1047.89 397.45,1038.15 385.01,1025.96
             356.46,997.97 340.99,959.20 336.28,920.00
             334.12,902.00 334.79,883.14 335.00,865.00
             335.13,854.43 338.62,835.84 340.58,825.00
             346.57,791.75 356.67,759.57 368.58,728.00
             368.58,728.00 390.31,676.00 390.31,676.00
             390.31,676.00 400.22,656.00 400.22,656.00
             433.30,585.97 471.07,525.97 522.84,468.00
             522.84,468.00 544.00,445.00 544.00,445.00
             544.00,445.00 565.00,424.09 565.00,424.09
             626.90,366.42 698.65,317.23 779.00,289.34
             813.73,277.29 851.44,268.75 888.00,264.84
             888.00,264.84 921.00,261.91 921.00,261.91
             921.00,261.91 933.00,261.00 933.00,261.00
             933.00,261.00 967.00,261.00 967.00,261.00
             967.00,261.00 988.00,262.91 988.00,262.91
             988.00,262.91 1043.00,266.91 1043.00,266.91
             1043.00,266.91 1173.00,276.09 1173.00,276.09
             1173.00,276.09 1207.00,278.91 1207.00,278.91
             1207.00,278.91 1229.00,280.17 1229.00,280.17
             1229.00,280.17 1256.00,282.09 1256.00,282.09
             1256.00,282.09 1268.00,283.00 1268.00,283.00
             1268.00,283.00 1303.00,283.00 1303.00,283.00
             1321.40,282.78 1350.58,276.96 1367.00,268.75
             1388.36,258.07 1382.24,249.03 1401.00,249.00
             1401.00,249.00 1447.00,249.00 1447.00,249.00 Z
           M 1170.00,1872.00
           C 1172.57,1876.70 1175.29,1876.84 1180.00,1878.85
             1180.00,1878.85 1200.00,1887.15 1200.00,1887.15
             1200.00,1887.15 1285.00,1922.85 1285.00,1922.85
             1344.79,1948.51 1406.68,1975.64 1472.00,1982.17
             1472.00,1982.17 1492.00,1984.00 1492.00,1984.00
             1521.64,1984.34 1551.65,1982.36 1580.00,1973.00
             1598.82,1966.79 1610.60,1962.18 1628.00,1952.28
             1647.09,1941.43 1667.13,1927.14 1683.00,1911.96
             1696.56,1898.99 1709.68,1885.52 1721.58,1871.00
             1765.83,1816.99 1801.61,1743.06 1826.81,1678.00
             1864.35,1581.11 1891.48,1473.49 1901.83,1370.00
             1901.83,1370.00 1903.17,1353.00 1903.17,1353.00
             1903.17,1353.00 1906.09,1317.00 1906.09,1317.00
             1906.09,1317.00 1907.00,1307.00 1907.00,1307.00
             1907.00,1307.00 1908.00,1286.00 1908.00,1286.00
             1908.00,1286.00 1909.00,1271.00 1909.00,1271.00
             1909.00,1271.00 1909.00,1195.00 1909.00,1195.00
             1909.00,1195.00 1908.00,1173.00 1908.00,1173.00
             1908.00,1173.00 1905.17,1142.00 1905.17,1142.00
             1905.17,1142.00 1898.27,1080.00 1898.27,1080.00
             1884.26,982.83 1850.05,883.41 1794.66,802.00
             1778.74,778.61 1761.11,756.97 1742.17,736.00
             1705.46,695.36 1657.43,658.18 1608.00,634.26
             1565.87,613.86 1522.24,601.39 1476.00,594.73
             1476.00,594.73 1430.00,590.00 1430.00,590.00
             1430.00,590.00 1375.00,590.00 1375.00,590.00
             1375.00,590.00 1332.00,594.73 1332.00,594.73
             1302.54,598.98 1267.84,607.01 1240.00,617.42
             1240.00,617.42 1196.00,635.31 1196.00,635.31
             1155.45,653.93 1108.57,683.15 1074.00,711.26
             1000.62,770.93 930.49,844.63 909.42,940.00
             903.33,967.58 903.68,982.24 904.00,1010.00
             904.00,1010.00 905.72,1026.00 905.72,1026.00
             908.31,1045.83 913.05,1061.19 922.26,1079.00
             934.12,1101.93 954.57,1121.63 977.00,1134.14
             999.75,1146.83 1033.64,1159.06 1034.00,1190.00
             1034.26,1213.47 1016.84,1225.01 999.00,1236.66
             971.86,1254.37 931.56,1270.19 901.00,1282.20
             886.70,1287.82 859.76,1298.82 845.00,1299.00
             845.00,1299.00 838.00,1299.00 838.00,1299.00
             802.79,1298.95 773.25,1272.51 753.37,1246.00
             727.00,1210.83 704.07,1154.41 704.00,1110.00
             704.00,1110.00 703.00,1089.00 703.00,1089.00
             703.00,1089.00 704.00,1076.00 704.00,1076.00
             704.00,1076.00 704.00,1059.00 704.00,1059.00
             704.27,1036.56 713.69,995.97 720.28,974.00
             743.30,897.26 789.74,825.44 843.91,767.00
             895.98,710.83 951.58,662.89 1017.00,622.81
             1104.32,569.32 1212.95,533.11 1314.00,517.42
             1314.00,517.42 1382.00,509.83 1382.00,509.83
             1382.00,509.83 1414.00,506.91 1414.00,506.91
             1414.00,506.91 1425.00,506.00 1425.00,506.00
             1425.00,506.00 1444.00,505.00 1444.00,505.00
             1444.00,505.00 1475.00,505.00 1475.00,505.00
             1475.00,505.00 1497.00,504.00 1497.00,504.00
             1497.00,504.00 1512.00,505.00 1512.00,505.00
             1512.00,505.00 1539.00,505.00 1539.00,505.00
             1539.00,505.00 1558.00,506.00 1558.00,506.00
             1558.00,506.00 1579.00,507.91 1579.00,507.91
             1607.22,509.84 1635.02,513.23 1663.00,517.58
             1808.86,540.22 1945.11,602.99 2049.04,709.01
             2071.31,731.73 2092.04,755.07 2110.57,781.00
             2140.01,822.19 2163.91,867.82 2182.19,915.00
             2196.43,951.77 2206.48,988.38 2214.20,1027.00
             2218.73,1049.64 2223.74,1080.15 2224.00,1103.00
             2224.00,1103.00 2224.96,1113.00 2224.96,1113.00
             2224.96,1113.00 2224.96,1122.00 2224.96,1122.00
             2224.96,1122.00 2226.00,1139.00 2226.00,1139.00
             2226.00,1139.00 2227.00,1154.00 2227.00,1154.00
             2227.00,1154.00 2228.79,1184.00 2228.79,1184.00
             2228.79,1184.00 2228.00,1195.00 2228.00,1195.00
             2228.00,1195.00 2228.00,1217.00 2228.00,1217.00
             2228.00,1217.00 2226.08,1238.00 2226.08,1238.00
             2226.08,1238.00 2226.08,1250.00 2226.08,1250.00
             2226.08,1250.00 2223.17,1277.00 2223.17,1277.00
             2223.17,1277.00 2215.25,1336.00 2215.25,1336.00
             2201.16,1417.12 2177.60,1487.33 2143.31,1562.00
             2120.72,1611.20 2091.76,1660.66 2060.72,1705.00
             2032.36,1745.52 2001.16,1784.25 1966.96,1820.00
             1876.96,1914.10 1761.81,1990.07 1641.00,2038.40
             1571.79,2066.08 1508.99,2082.50 1435.00,2091.72
             1435.00,2091.72 1407.00,2094.17 1407.00,2094.17
             1407.00,2094.17 1370.00,2097.09 1370.00,2097.09
             1370.00,2097.09 1360.00,2098.00 1360.00,2098.00
             1360.00,2098.00 1297.00,2098.00 1297.00,2098.00
             1297.00,2098.00 1261.00,2095.09 1261.00,2095.09
             1205.23,2091.26 1149.61,2081.36 1096.00,2065.28
             1096.00,2065.28 1062.00,2054.56 1062.00,2054.56
             1062.00,2054.56 1002.00,2030.60 1002.00,2030.60
             1002.00,2030.60 977.00,2019.69 977.00,2019.69
             973.48,2018.08 967.60,2014.60 964.00,2014.25
             957.68,2013.65 944.09,2023.74 938.00,2027.14
             917.31,2038.69 896.66,2050.49 875.00,2060.14
             824.84,2082.49 777.48,2098.09 722.00,2098.00
             722.00,2098.00 710.00,2097.09 710.00,2097.09
             695.39,2096.07 684.00,2094.33 670.00,2089.67
             629.14,2076.04 590.07,2038.48 590.00,1993.00
             590.00,1993.00 590.00,1971.00 590.00,1971.00
             590.12,1961.25 593.60,1949.15 596.95,1940.00
             607.62,1910.90 627.68,1887.17 652.00,1868.35
             692.59,1836.93 745.33,1817.04 796.00,1809.73
             796.00,1809.73 839.00,1805.00 839.00,1805.00
             839.00,1805.00 857.00,1805.00 857.00,1805.00
             857.00,1805.00 870.00,1804.01 870.00,1804.01
             870.00,1804.01 883.00,1805.00 883.00,1805.00
             883.00,1805.00 902.00,1805.00 902.00,1805.00
             902.00,1805.00 912.00,1805.91 912.00,1805.91
             940.93,1807.93 967.00,1813.17 995.00,1820.37
             995.00,1820.37 1020.00,1827.02 1020.00,1827.02
             1024.58,1828.44 1029.25,1830.90 1034.00,1828.91
             1038.45,1827.04 1050.17,1815.83 1054.00,1812.00
             1067.39,1798.61 1081.77,1781.74 1092.33,1766.00
             1125.66,1716.31 1137.97,1662.91 1148.42,1605.00
             1148.42,1605.00 1164.27,1511.00 1164.27,1511.00
             1188.27,1348.08 1200.97,1165.09 1294.00,1024.00
             1307.86,1002.98 1323.29,982.69 1340.17,964.00
             1371.45,929.36 1404.28,902.81 1443.00,877.00
             1484.44,849.37 1523.02,830.45 1571.00,816.86
             1582.43,813.62 1610.96,806.56 1622.00,806.46
             1630.25,806.38 1633.71,811.99 1638.00,818.00
             1638.00,818.00 1659.87,848.00 1659.87,848.00
             1662.77,851.86 1669.39,859.90 1668.08,865.00
             1667.35,867.84 1664.10,870.82 1662.16,873.00
             1662.16,873.00 1649.58,887.00 1649.58,887.00
             1634.37,904.55 1619.25,921.85 1606.02,941.00
             1591.39,962.19 1575.53,988.36 1565.43,1012.00
             1554.50,1037.56 1544.92,1076.42 1539.40,1104.00
             1528.78,1157.02 1519.97,1210.34 1513.28,1264.00
             1513.28,1264.00 1501.73,1357.00 1501.73,1357.00
             1486.84,1458.06 1460.99,1573.63 1406.58,1661.00
             1381.40,1701.42 1349.81,1736.82 1315.00,1769.09
             1295.10,1787.53 1274.00,1804.69 1252.00,1820.58
             1252.00,1820.58 1219.00,1843.42 1219.00,1843.42
             1219.00,1843.42 1191.00,1861.68 1191.00,1861.68
             1184.91,1865.50 1177.02,1870.68 1170.00,1872.00 Z
           M 709.00,1191.00
           C 709.00,1191.00 720.75,1215.00 720.75,1215.00
             738.29,1249.99 763.31,1283.45 799.00,1301.25
             804.31,1303.89 810.28,1306.65 816.00,1308.25
             821.35,1309.76 828.42,1310.56 834.00,1311.07
             839.19,1311.55 841.36,1312.30 847.00,1311.91
             859.47,1311.04 877.17,1303.92 889.00,1299.42
             889.00,1299.42 954.00,1273.30 954.00,1273.30
             977.35,1262.77 1001.02,1251.93 1021.00,1235.58
             1032.04,1226.55 1042.37,1215.15 1046.08,1201.00
             1047.59,1195.24 1047.05,1189.78 1046.08,1184.00
             1039.17,1142.98 993.92,1134.76 966.00,1112.71
             928.16,1082.83 915.46,1040.45 916.00,994.00
             916.00,994.00 917.00,976.00 917.00,976.00
             917.19,959.69 922.56,936.72 927.28,921.00
             944.81,862.58 981.32,813.68 1024.00,771.00
             1046.56,748.44 1072.02,726.55 1098.00,708.00
             1118.44,693.40 1139.14,679.15 1161.00,666.72
             1168.96,662.20 1181.33,654.57 1190.00,653.00
             1173.73,691.36 1159.04,726.10 1149.65,767.00
             1142.59,797.75 1139.82,828.72 1136.83,860.00
             1136.83,860.00 1133.96,902.00 1133.96,902.00
             1133.96,902.00 1133.00,917.00 1133.00,917.00
             1133.00,917.00 1132.09,927.00 1132.09,927.00
             1132.09,927.00 1131.00,952.00 1131.00,952.00
             1131.00,952.00 1130.00,968.00 1130.00,968.00
             1130.00,968.00 1130.00,985.00 1130.00,985.00
             1130.00,985.00 1129.00,1001.00 1129.00,1001.00
             1129.00,1001.00 1129.00,1025.00 1129.00,1025.00
             1129.00,1025.00 1160.00,1014.31 1160.00,1014.31
             1160.00,1014.31 1231.00,988.58 1231.00,988.58
             1231.00,988.58 1296.00,962.58 1296.00,962.58
             1296.00,962.58 1339.00,945.00 1339.00,945.00
             1336.27,951.04 1330.66,956.83 1326.42,962.00
             1326.42,962.00 1302.88,991.00 1302.88,991.00
             1282.58,1017.62 1262.29,1050.55 1248.31,1081.00
             1237.51,1104.52 1227.85,1128.45 1219.67,1153.00
             1219.67,1153.00 1212.02,1176.00 1212.02,1176.00
             1210.71,1180.22 1209.76,1185.46 1206.61,1188.73
             1202.79,1192.69 1190.59,1195.47 1185.00,1196.87
             1185.00,1196.87 1138.00,1208.87 1138.00,1208.87
             1138.00,1208.87 1122.00,1213.12 1122.00,1213.12
             1119.04,1213.91 1116.07,1214.31 1114.43,1217.22
             1113.07,1219.63 1112.22,1234.24 1111.92,1238.00
             1111.92,1238.00 1106.58,1278.00 1106.58,1278.00
             1099.61,1322.85 1090.31,1364.44 1077.58,1408.00
             1071.55,1428.60 1063.97,1449.08 1056.00,1469.00
             1013.85,1574.40 948.07,1671.22 858.00,1741.42
             831.63,1761.98 791.33,1789.02 761.00,1802.69
             761.00,1802.69 741.00,1809.51 741.00,1809.51
             741.00,1809.51 722.00,1816.42 722.00,1816.42
             696.80,1825.85 691.59,1831.12 663.00,1838.85
             641.59,1844.64 603.12,1851.62 581.00,1853.83
             581.00,1853.83 563.00,1855.17 563.00,1855.17
             563.00,1855.17 539.00,1857.09 539.00,1857.09
             539.00,1857.09 527.00,1858.00 527.00,1858.00
             527.00,1858.00 480.00,1858.00 480.00,1858.00
             480.00,1858.00 468.00,1857.09 468.00,1857.09
             468.00,1857.09 436.00,1854.17 436.00,1854.17
             436.00,1854.17 409.00,1851.71 409.00,1851.71
             357.52,1845.30 302.52,1828.31 258.00,1801.60
             239.55,1790.53 224.11,1778.34 208.00,1764.15
             176.01,1735.99 142.96,1698.93 133.66,1656.00
             132.45,1650.42 131.07,1634.78 131.00,1629.00
             130.76,1607.53 145.60,1588.82 158.61,1573.00
             171.13,1557.79 185.59,1544.27 200.00,1530.91
             221.29,1511.18 248.15,1488.94 273.00,1474.00
             281.46,1468.92 297.50,1460.26 307.00,1458.23
             313.29,1457.28 317.86,1457.84 324.00,1458.23
             332.60,1458.18 339.90,1458.71 346.91,1464.53
             355.34,1471.53 356.96,1482.81 358.28,1493.00
             358.28,1493.00 360.00,1517.00 360.00,1517.00
             360.00,1517.00 361.00,1534.00 361.00,1534.00
             361.00,1534.00 362.09,1556.00 362.09,1556.00
             362.09,1556.00 363.00,1567.00 363.00,1567.00
             363.00,1567.00 363.00,1595.00 363.00,1595.00
             363.01,1603.80 365.10,1616.14 366.59,1625.00
             371.78,1655.87 383.17,1686.46 401.43,1712.00
             411.39,1725.94 423.69,1739.10 438.00,1748.65
             455.61,1760.39 482.64,1770.97 504.00,1771.00
             504.00,1771.00 531.00,1771.00 531.00,1771.00
             564.47,1770.60 601.33,1755.40 628.00,1735.85
             692.23,1688.74 727.49,1610.52 752.00,1537.00
             752.00,1537.00 767.37,1485.00 767.37,1485.00
             770.01,1474.47 772.98,1464.98 773.00,1454.00
             773.00,1454.00 773.00,1403.00 773.00,1403.00
             772.92,1396.13 771.08,1384.55 768.97,1378.00
             766.48,1370.24 762.83,1365.62 757.00,1360.04
             747.95,1351.38 735.66,1345.15 723.00,1345.00
             691.11,1344.63 662.72,1360.89 635.00,1374.75
             635.00,1374.75 608.00,1387.76 608.00,1387.76
             597.36,1393.00 581.79,1403.47 571.00,1406.00
             571.00,1406.00 586.02,1358.00 586.02,1358.00
             586.02,1358.00 602.28,1307.00 602.28,1307.00
             602.28,1307.00 613.00,1273.00 613.00,1273.00
             614.72,1267.84 616.55,1260.24 619.64,1256.01
             623.30,1250.99 639.27,1239.02 645.00,1234.58
             662.40,1221.07 689.85,1201.13 709.00,1191.00 Z" />
</svg>
