solid OpenSCAD_Model
  facet normal -1 0 0
    outer loop
      vertex 0 1.5 0
      vertex 0 0 0
      vertex 0 1.5 1.5
    endloop
  endfacet
  facet normal -1 0 0
    outer loop
      vertex 0 1.5 1.5
      vertex 0 75.5 15
      vertex 0 75.5 1.5
    endloop
  endfacet
  facet normal -1 0 0
    outer loop
      vertex 0 1.5 1.5
      vertex 0 0 15
      vertex 0 75.5 15
    endloop
  endfacet
  facet normal -1 0 0
    outer loop
      vertex 0 0 15
      vertex 0 1.5 1.5
      vertex 0 0 0
    endloop
  endfacet
  facet normal -0 0 1
    outer loop
      vertex 58 24.0667 15
      vertex 59.5 22.5667 15
      vertex 59.5 24.0667 15
    endloop
  endfacet
  facet normal 0 0 1
    outer loop
      vertex 59.5 22.5667 15
      vertex 58 24.0667 15
      vertex 58 22.5667 15
    endloop
  endfacet
  facet normal -0 0 1
    outer loop
      vertex 58 27.2667 15
      vertex 59.5 25.7667 15
      vertex 59.5 27.2667 15
    endloop
  endfacet
  facet normal 0 0 1
    outer loop
      vertex 59.5 25.7667 15
      vertex 58 27.2667 15
      vertex 58 25.7667 15
    endloop
  endfacet
  facet normal -0 0 1
    outer loop
      vertex 58 36.15 15
      vertex 59.5 34.65 15
      vertex 59.5 36.15 15
    endloop
  endfacet
  facet normal 0 0 1
    outer loop
      vertex 59.5 34.65 15
      vertex 58 36.15 15
      vertex 58 34.65 15
    endloop
  endfacet
  facet normal -0 0 1
    outer loop
      vertex 58 39.35 15
      vertex 59.5 37.85 15
      vertex 59.5 39.35 15
    endloop
  endfacet
  facet normal 0 0 1
    outer loop
      vertex 59.5 37.85 15
      vertex 58 39.35 15
      vertex 58 37.85 15
    endloop
  endfacet
  facet normal -0 0 1
    outer loop
      vertex 58 48.2333 15
      vertex 59.5 46.7333 15
      vertex 59.5 48.2333 15
    endloop
  endfacet
  facet normal 0 0 1
    outer loop
      vertex 59.5 46.7333 15
      vertex 58 48.2333 15
      vertex 58 46.7333 15
    endloop
  endfacet
  facet normal -0 0 1
    outer loop
      vertex 58 51.4333 15
      vertex 59.5 49.9333 15
      vertex 59.5 51.4333 15
    endloop
  endfacet
  facet normal 0 0 1
    outer loop
      vertex 59.5 49.9333 15
      vertex 58 51.4333 15
      vertex 58 49.9333 15
    endloop
  endfacet
  facet normal 0 0 1
    outer loop
      vertex 59.5 51.4333 15
      vertex 61 75.5 15
      vertex 59.5 74 15
    endloop
  endfacet
  facet normal 0 0 1
    outer loop
      vertex 61 75.5 15
      vertex 1.5 74 15
      vertex 59.5 74 15
    endloop
  endfacet
  facet normal 0 0 1
    outer loop
      vertex 0 75.5 15
      vertex 1.5 51.4333 15
      vertex 1.5 74 15
    endloop
  endfacet
  facet normal 0 0 1
    outer loop
      vertex 1.5 51.4333 15
      vertex 0 75.5 15
      vertex 1.5 49.9333 15
    endloop
  endfacet
  facet normal 0 0 1
    outer loop
      vertex 1.5 49.9333 15
      vertex 0 75.5 15
      vertex 1.5 48.2333 15
    endloop
  endfacet
  facet normal 0 0 1
    outer loop
      vertex 1.5 48.2333 15
      vertex 0 75.5 15
      vertex 1.5 46.7333 15
    endloop
  endfacet
  facet normal 0 0 1
    outer loop
      vertex 1.5 46.7333 15
      vertex 0 75.5 15
      vertex 1.5 39.35 15
    endloop
  endfacet
  facet normal 0 0 1
    outer loop
      vertex 1.5 39.35 15
      vertex 0 75.5 15
      vertex 1.5 37.85 15
    endloop
  endfacet
  facet normal 0 0 1
    outer loop
      vertex 1.5 37.85 15
      vertex 0 75.5 15
      vertex 1.5 36.15 15
    endloop
  endfacet
  facet normal 0 0 1
    outer loop
      vertex 1.5 36.15 15
      vertex 0 75.5 15
      vertex 1.5 34.65 15
    endloop
  endfacet
  facet normal 0 0 1
    outer loop
      vertex 0 0 15
      vertex 1.5 34.65 15
      vertex 0 75.5 15
    endloop
  endfacet
  facet normal 0 0 1
    outer loop
      vertex 1.5 34.65 15
      vertex 0 0 15
      vertex 1.5 27.2667 15
    endloop
  endfacet
  facet normal 0 0 1
    outer loop
      vertex 1.5 27.2667 15
      vertex 0 0 15
      vertex 1.5 25.7667 15
    endloop
  endfacet
  facet normal 0 0 1
    outer loop
      vertex 1.5 25.7667 15
      vertex 0 0 15
      vertex 1.5 24.0667 15
    endloop
  endfacet
  facet normal 0 0 1
    outer loop
      vertex 1.5 24.0667 15
      vertex 0 0 15
      vertex 1.5 22.5667 15
    endloop
  endfacet
  facet normal -0 0 1
    outer loop
      vertex 0 75.5 15
      vertex 1.5 74 15
      vertex 61 75.5 15
    endloop
  endfacet
  facet normal 0 0 1
    outer loop
      vertex 59.5 49.9333 15
      vertex 61 75.5 15
      vertex 59.5 51.4333 15
    endloop
  endfacet
  facet normal 0 0 1
    outer loop
      vertex 59.5 48.2333 15
      vertex 61 75.5 15
      vertex 59.5 49.9333 15
    endloop
  endfacet
  facet normal 0 0 1
    outer loop
      vertex 59.5 46.7333 15
      vertex 61 75.5 15
      vertex 59.5 48.2333 15
    endloop
  endfacet
  facet normal 0 0 1
    outer loop
      vertex 59.5 39.35 15
      vertex 61 75.5 15
      vertex 59.5 46.7333 15
    endloop
  endfacet
  facet normal 0 0 1
    outer loop
      vertex 61 75.5 15
      vertex 59.5 39.35 15
      vertex 61 0 15
    endloop
  endfacet
  facet normal -0 0 1
    outer loop
      vertex 59.5 37.85 15
      vertex 61 0 15
      vertex 59.5 39.35 15
    endloop
  endfacet
  facet normal -0 0 1
    outer loop
      vertex 59.5 36.15 15
      vertex 61 0 15
      vertex 59.5 37.85 15
    endloop
  endfacet
  facet normal -0 0 1
    outer loop
      vertex 59.5 34.65 15
      vertex 61 0 15
      vertex 59.5 36.15 15
    endloop
  endfacet
  facet normal -0 0 1
    outer loop
      vertex 59.5 27.2667 15
      vertex 61 0 15
      vertex 59.5 34.65 15
    endloop
  endfacet
  facet normal -0 0 1
    outer loop
      vertex 59.5 25.7667 15
      vertex 61 0 15
      vertex 59.5 27.2667 15
    endloop
  endfacet
  facet normal -0 0 1
    outer loop
      vertex 59.5 24.0667 15
      vertex 61 0 15
      vertex 59.5 25.7667 15
    endloop
  endfacet
  facet normal -0 0 1
    outer loop
      vertex 59.5 22.5667 15
      vertex 61 0 15
      vertex 59.5 24.0667 15
    endloop
  endfacet
  facet normal -0 0 1
    outer loop
      vertex 59.5 1.5 15
      vertex 61 0 15
      vertex 59.5 22.5667 15
    endloop
  endfacet
  facet normal -0 0 1
    outer loop
      vertex 1.5 1.5 15
      vertex 61 0 15
      vertex 59.5 1.5 15
    endloop
  endfacet
  facet normal 0 0 1
    outer loop
      vertex 1.5 1.5 15
      vertex 0 0 15
      vertex 61 0 15
    endloop
  endfacet
  facet normal 0 0 1
    outer loop
      vertex 1.5 22.5667 15
      vertex 0 0 15
      vertex 1.5 1.5 15
    endloop
  endfacet
  facet normal -0 0 1
    outer loop
      vertex 1.5 51.4333 15
      vertex 3 49.9333 15
      vertex 3 51.4333 15
    endloop
  endfacet
  facet normal 0 0 1
    outer loop
      vertex 3 49.9333 15
      vertex 1.5 51.4333 15
      vertex 1.5 49.9333 15
    endloop
  endfacet
  facet normal -0 0 1
    outer loop
      vertex 1.5 48.2333 15
      vertex 3 46.7333 15
      vertex 3 48.2333 15
    endloop
  endfacet
  facet normal 0 0 1
    outer loop
      vertex 3 46.7333 15
      vertex 1.5 48.2333 15
      vertex 1.5 46.7333 15
    endloop
  endfacet
  facet normal -0 0 1
    outer loop
      vertex 1.5 39.35 15
      vertex 3 37.85 15
      vertex 3 39.35 15
    endloop
  endfacet
  facet normal 0 0 1
    outer loop
      vertex 3 37.85 15
      vertex 1.5 39.35 15
      vertex 1.5 37.85 15
    endloop
  endfacet
  facet normal -0 0 1
    outer loop
      vertex 1.5 36.15 15
      vertex 3 34.65 15
      vertex 3 36.15 15
    endloop
  endfacet
  facet normal 0 0 1
    outer loop
      vertex 3 34.65 15
      vertex 1.5 36.15 15
      vertex 1.5 34.65 15
    endloop
  endfacet
  facet normal -0 0 1
    outer loop
      vertex 1.5 27.2667 15
      vertex 3 25.7667 15
      vertex 3 27.2667 15
    endloop
  endfacet
  facet normal 0 0 1
    outer loop
      vertex 3 25.7667 15
      vertex 1.5 27.2667 15
      vertex 1.5 25.7667 15
    endloop
  endfacet
  facet normal -0 0 1
    outer loop
      vertex 1.5 24.0667 15
      vertex 3 22.5667 15
      vertex 3 24.0667 15
    endloop
  endfacet
  facet normal 0 0 1
    outer loop
      vertex 3 22.5667 15
      vertex 1.5 24.0667 15
      vertex 1.5 22.5667 15
    endloop
  endfacet
  facet normal 1 0 0
    outer loop
      vertex 61 75.5 15
      vertex 61 1.5 1.5
      vertex 61 75.5 1.5
    endloop
  endfacet
  facet normal 1 -0 0
    outer loop
      vertex 61 0 15
      vertex 61 1.5 1.5
      vertex 61 75.5 15
    endloop
  endfacet
  facet normal 1 0 0
    outer loop
      vertex 61 0 0
      vertex 61 1.5 1.5
      vertex 61 0 15
    endloop
  endfacet
  facet normal 1 0 0
    outer loop
      vertex 61 1.5 1.5
      vertex 61 0 0
      vertex 61 1.5 0
    endloop
  endfacet
  facet normal 0 1 -0
    outer loop
      vertex 55.5 75.5 0
      vertex 5.5 75.5 1.5
      vertex 55.5 75.5 1.5
    endloop
  endfacet
  facet normal 0 1 0
    outer loop
      vertex 5.5 75.5 1.5
      vertex 55.5 75.5 0
      vertex 5.5 75.5 0
    endloop
  endfacet
  facet normal 0 1 0
    outer loop
      vertex 55.5 75.5 1.5
      vertex 61 75.5 15
      vertex 61 75.5 1.5
    endloop
  endfacet
  facet normal 0 1 0
    outer loop
      vertex 61 75.5 15
      vertex 55.5 75.5 1.5
      vertex 0 75.5 15
    endloop
  endfacet
  facet normal 0 1 -0
    outer loop
      vertex 5.5 75.5 1.5
      vertex 0 75.5 15
      vertex 55.5 75.5 1.5
    endloop
  endfacet
  facet normal 0 1 0
    outer loop
      vertex 0 75.5 15
      vertex 5.5 75.5 1.5
      vertex 0 75.5 1.5
    endloop
  endfacet
  facet normal 0 0 -1
    outer loop
      vertex 61 0 0
      vertex 55.5 1.5 0
      vertex 61 1.5 0
    endloop
  endfacet
  facet normal 0 0 -1
    outer loop
      vertex 55.5 1.5 0
      vertex 5.5 1.5 0
      vertex 55.5 75.5 0
    endloop
  endfacet
  facet normal 0 0 -1
    outer loop
      vertex 61 0 0
      vertex 5.5 1.5 0
      vertex 55.5 1.5 0
    endloop
  endfacet
  facet normal 0 0 -1
    outer loop
      vertex 0 0 0
      vertex 5.5 1.5 0
      vertex 61 0 0
    endloop
  endfacet
  facet normal -0 0 -1
    outer loop
      vertex 5.5 1.5 0
      vertex 0 0 0
      vertex 0 1.5 0
    endloop
  endfacet
  facet normal -0 0 -1
    outer loop
      vertex 55.5 75.5 0
      vertex 5.5 1.5 0
      vertex 5.5 75.5 0
    endloop
  endfacet
  facet normal 0 -1 0
    outer loop
      vertex 0 0 15
      vertex 13 0 10.5
      vertex 61 0 15
    endloop
  endfacet
  facet normal 0 -1 0
    outer loop
      vertex 0 0 15
      vertex 7.5 0 8.5
      vertex 13 0 10.5
    endloop
  endfacet
  facet normal 0 -1 0
    outer loop
      vertex 0 0 15
      vertex 7.19098 0 8.45106
      vertex 7.5 0 8.5
    endloop
  endfacet
  facet normal 0 -1 0
    outer loop
      vertex 0 0 15
      vertex 6.91221 0 8.30902
      vertex 7.19098 0 8.45106
    endloop
  endfacet
  facet normal 0 -1 0
    outer loop
      vertex 0 0 15
      vertex 6.69098 0 8.08778
      vertex 6.91221 0 8.30902
    endloop
  endfacet
  facet normal 0 -1 0
    outer loop
      vertex 0 0 15
      vertex 6.54894 0 7.80902
      vertex 6.69098 0 8.08778
    endloop
  endfacet
  facet normal 0 -1 0
    outer loop
      vertex 0 0 15
      vertex 6.5 0 7.5
      vertex 6.54894 0 7.80902
    endloop
  endfacet
  facet normal 0 -1 0
    outer loop
      vertex 0 0 0
      vertex 6.5 0 7.5
      vertex 0 0 15
    endloop
  endfacet
  facet normal 0 -1 -0
    outer loop
      vertex 6.5 0 7.5
      vertex 0 0 0
      vertex 6.54894 0 7.19098
    endloop
  endfacet
  facet normal 0 -1 0
    outer loop
      vertex 0 0 0
      vertex 7.5 0 6.5
      vertex 7.19098 0 6.54894
    endloop
  endfacet
  facet normal 0 -1 0
    outer loop
      vertex 61 0 0
      vertex 13 0 4.5
      vertex 0 0 0
    endloop
  endfacet
  facet normal 0 -1 -0
    outer loop
      vertex 7.5 0 6.5
      vertex 0 0 0
      vertex 13 0 4.5
    endloop
  endfacet
  facet normal 0 -1 -0
    outer loop
      vertex 6.91221 0 6.69098
      vertex 0 0 0
      vertex 7.19098 0 6.54894
    endloop
  endfacet
  facet normal 0 -1 -0
    outer loop
      vertex 6.69098 0 6.91221
      vertex 0 0 0
      vertex 6.91221 0 6.69098
    endloop
  endfacet
  facet normal 0 -1 -0
    outer loop
      vertex 6.54894 0 7.19098
      vertex 0 0 0
      vertex 6.69098 0 6.91221
    endloop
  endfacet
  facet normal 0 -1 0
    outer loop
      vertex 51 0 10.5
      vertex 61 0 15
      vertex 13 0 10.5
    endloop
  endfacet
  facet normal 0 -1 0
    outer loop
      vertex 51 0 4.5
      vertex 61 0 15
      vertex 51 0 10.5
    endloop
  endfacet
  facet normal 0 -1 0
    outer loop
      vertex 51 0 4.5
      vertex 61 0 0
      vertex 61 0 15
    endloop
  endfacet
  facet normal 0 -1 0
    outer loop
      vertex 13 0 4.5
      vertex 61 0 0
      vertex 51 0 4.5
    endloop
  endfacet
  facet normal 0 -1 0
    outer loop
      vertex 7.80902 0 8.45106
      vertex 13 0 10.5
      vertex 7.5 0 8.5
    endloop
  endfacet
  facet normal 0 -1 0
    outer loop
      vertex 8.08778 0 8.30902
      vertex 13 0 10.5
      vertex 7.80902 0 8.45106
    endloop
  endfacet
  facet normal 0 -1 0
    outer loop
      vertex 8.30902 0 8.08778
      vertex 13 0 10.5
      vertex 8.08778 0 8.30902
    endloop
  endfacet
  facet normal 0 -1 0
    outer loop
      vertex 8.45106 0 7.80902
      vertex 13 0 10.5
      vertex 8.30902 0 8.08778
    endloop
  endfacet
  facet normal 0 -1 0
    outer loop
      vertex 8.5 0 7.5
      vertex 13 0 10.5
      vertex 8.45106 0 7.80902
    endloop
  endfacet
  facet normal 0 -1 0
    outer loop
      vertex 13 0 4.5
      vertex 8.5 0 7.5
      vertex 8.45106 0 7.19098
    endloop
  endfacet
  facet normal 0 -1 0
    outer loop
      vertex 13 0 4.5
      vertex 8.45106 0 7.19098
      vertex 8.30902 0 6.91221
    endloop
  endfacet
  facet normal 0 -1 0
    outer loop
      vertex 13 0 4.5
      vertex 8.30902 0 6.91221
      vertex 8.08778 0 6.69098
    endloop
  endfacet
  facet normal 0 -1 0
    outer loop
      vertex 8.5 0 7.5
      vertex 13 0 4.5
      vertex 13 0 10.5
    endloop
  endfacet
  facet normal 0 -1 0
    outer loop
      vertex 7.80902 0 6.54894
      vertex 13 0 4.5
      vertex 8.08778 0 6.69098
    endloop
  endfacet
  facet normal 0 -1 0
    outer loop
      vertex 13 0 4.5
      vertex 7.80902 0 6.54894
      vertex 7.5 0 6.5
    endloop
  endfacet
  facet normal 1 -0 0
    outer loop
      vertex 1.5 1.5 15
      vertex 1.5 22.5667 3
      vertex 1.5 22.5667 15
    endloop
  endfacet
  facet normal 1 0 0
    outer loop
      vertex 1.5 22.5667 3
      vertex 1.5 1.5 15
      vertex 1.5 1.5 3
    endloop
  endfacet
  facet normal 1 -0 0
    outer loop
      vertex 1.5 24.0667 15
      vertex 1.5 25.7667 3
      vertex 1.5 25.7667 15
    endloop
  endfacet
  facet normal 1 0 0
    outer loop
      vertex 1.5 25.7667 3
      vertex 1.5 24.0667 15
      vertex 1.5 24.0667 3
    endloop
  endfacet
  facet normal 1 -0 0
    outer loop
      vertex 1.5 27.2667 15
      vertex 1.5 34.65 3
      vertex 1.5 34.65 15
    endloop
  endfacet
  facet normal 1 0 0
    outer loop
      vertex 1.5 34.65 3
      vertex 1.5 27.2667 15
      vertex 1.5 27.2667 3
    endloop
  endfacet
  facet normal 1 -0 0
    outer loop
      vertex 1.5 48.2333 15
      vertex 1.5 49.9333 3
      vertex 1.5 49.9333 15
    endloop
  endfacet
  facet normal 1 0 0
    outer loop
      vertex 1.5 49.9333 3
      vertex 1.5 48.2333 15
      vertex 1.5 48.2333 3
    endloop
  endfacet
  facet normal 1 -0 0
    outer loop
      vertex 1.5 51.4333 15
      vertex 1.5 74 3
      vertex 1.5 74 15
    endloop
  endfacet
  facet normal 1 0 0
    outer loop
      vertex 1.5 74 3
      vertex 1.5 51.4333 15
      vertex 1.5 51.4333 3
    endloop
  endfacet
  facet normal 1 -0 0
    outer loop
      vertex 1.5 39.35 15
      vertex 1.5 46.7333 3
      vertex 1.5 46.7333 15
    endloop
  endfacet
  facet normal 1 0 0
    outer loop
      vertex 1.5 46.7333 3
      vertex 1.5 39.35 15
      vertex 1.5 39.35 3
    endloop
  endfacet
  facet normal 1 -0 0
    outer loop
      vertex 1.5 36.15 15
      vertex 1.5 37.85 3
      vertex 1.5 37.85 15
    endloop
  endfacet
  facet normal 1 0 0
    outer loop
      vertex 1.5 37.85 3
      vertex 1.5 36.15 15
      vertex 1.5 36.15 3
    endloop
  endfacet
  facet normal -1 0 0
    outer loop
      vertex 59.5 36.15 3
      vertex 59.5 37.85 15
      vertex 59.5 37.85 3
    endloop
  endfacet
  facet normal -1 -0 0
    outer loop
      vertex 59.5 37.85 15
      vertex 59.5 36.15 3
      vertex 59.5 36.15 15
    endloop
  endfacet
  facet normal -1 0 0
    outer loop
      vertex 59.5 39.35 3
      vertex 59.5 46.7333 15
      vertex 59.5 46.7333 3
    endloop
  endfacet
  facet normal -1 -0 0
    outer loop
      vertex 59.5 46.7333 15
      vertex 59.5 39.35 3
      vertex 59.5 39.35 15
    endloop
  endfacet
  facet normal -1 0 0
    outer loop
      vertex 59.5 27.2667 3
      vertex 59.5 34.65 15
      vertex 59.5 34.65 3
    endloop
  endfacet
  facet normal -1 -0 0
    outer loop
      vertex 59.5 34.65 15
      vertex 59.5 27.2667 3
      vertex 59.5 27.2667 15
    endloop
  endfacet
  facet normal -1 0 0
    outer loop
      vertex 59.5 48.2333 3
      vertex 59.5 49.9333 15
      vertex 59.5 49.9333 3
    endloop
  endfacet
  facet normal -1 -0 0
    outer loop
      vertex 59.5 49.9333 15
      vertex 59.5 48.2333 3
      vertex 59.5 48.2333 15
    endloop
  endfacet
  facet normal -1 0 0
    outer loop
      vertex 59.5 51.4333 3
      vertex 59.5 74 15
      vertex 59.5 74 3
    endloop
  endfacet
  facet normal -1 -0 0
    outer loop
      vertex 59.5 74 15
      vertex 59.5 51.4333 3
      vertex 59.5 51.4333 15
    endloop
  endfacet
  facet normal -1 0 0
    outer loop
      vertex 59.5 1.5 3
      vertex 59.5 22.5667 15
      vertex 59.5 22.5667 3
    endloop
  endfacet
  facet normal -1 -0 0
    outer loop
      vertex 59.5 22.5667 15
      vertex 59.5 1.5 3
      vertex 59.5 1.5 15
    endloop
  endfacet
  facet normal -1 0 0
    outer loop
      vertex 59.5 24.0667 3
      vertex 59.5 25.7667 15
      vertex 59.5 25.7667 3
    endloop
  endfacet
  facet normal -1 -0 0
    outer loop
      vertex 59.5 25.7667 15
      vertex 59.5 24.0667 3
      vertex 59.5 24.0667 15
    endloop
  endfacet
  facet normal 0 -1 0
    outer loop
      vertex 1.5 74 3
      vertex 59.5 74 15
      vertex 1.5 74 15
    endloop
  endfacet
  facet normal 0 -1 -0
    outer loop
      vertex 59.5 74 15
      vertex 1.5 74 3
      vertex 59.5 74 3
    endloop
  endfacet
  facet normal 0 1 -0
    outer loop
      vertex 8.08778 1.5 8.30902
      vertex 1.5 1.5 15
      vertex 59.5 1.5 15
    endloop
  endfacet
  facet normal 0 1 0
    outer loop
      vertex 1.5 1.5 15
      vertex 7.80902 1.5 8.45106
      vertex 7.5 1.5 8.5
    endloop
  endfacet
  facet normal 0 1 0
    outer loop
      vertex 1.5 1.5 15
      vertex 8.08778 1.5 8.30902
      vertex 7.80902 1.5 8.45106
    endloop
  endfacet
  facet normal 0 1 0
    outer loop
      vertex 59.5 1.5 15
      vertex 8.30902 1.5 8.08778
      vertex 8.08778 1.5 8.30902
    endloop
  endfacet
  facet normal 0 1 0
    outer loop
      vertex 59.5 1.5 15
      vertex 8.45106 1.5 7.80902
      vertex 8.30902 1.5 8.08778
    endloop
  endfacet
  facet normal 0 1 0
    outer loop
      vertex 59.5 1.5 15
      vertex 8.5 1.5 7.5
      vertex 8.45106 1.5 7.80902
    endloop
  endfacet
  facet normal 0 1 -0
    outer loop
      vertex 59.5 1.5 3
      vertex 8.5 1.5 7.5
      vertex 59.5 1.5 15
    endloop
  endfacet
  facet normal 0 1 0
    outer loop
      vertex 8.5 1.5 7.5
      vertex 59.5 1.5 3
      vertex 8.45106 1.5 7.19098
    endloop
  endfacet
  facet normal 0 1 0
    outer loop
      vertex 8.45106 1.5 7.19098
      vertex 59.5 1.5 3
      vertex 8.30902 1.5 6.91221
    endloop
  endfacet
  facet normal 0 1 0
    outer loop
      vertex 8.30902 1.5 6.91221
      vertex 59.5 1.5 3
      vertex 8.08778 1.5 6.69098
    endloop
  endfacet
  facet normal 0 1 0
    outer loop
      vertex 1.5 1.5 3
      vertex 7.80902 1.5 6.54894
      vertex 59.5 1.5 3
    endloop
  endfacet
  facet normal 0 1 0
    outer loop
      vertex 8.08778 1.5 6.69098
      vertex 59.5 1.5 3
      vertex 7.80902 1.5 6.54894
    endloop
  endfacet
  facet normal 0 1 -0
    outer loop
      vertex 7.19098 1.5 8.45106
      vertex 1.5 1.5 15
      vertex 7.5 1.5 8.5
    endloop
  endfacet
  facet normal 0 1 -0
    outer loop
      vertex 6.91221 1.5 8.30902
      vertex 1.5 1.5 15
      vertex 7.19098 1.5 8.45106
    endloop
  endfacet
  facet normal 0 1 -0
    outer loop
      vertex 6.69098 1.5 8.08778
      vertex 1.5 1.5 15
      vertex 6.91221 1.5 8.30902
    endloop
  endfacet
  facet normal 0 1 -0
    outer loop
      vertex 6.54894 1.5 7.80902
      vertex 1.5 1.5 15
      vertex 6.69098 1.5 8.08778
    endloop
  endfacet
  facet normal 0 1 0
    outer loop
      vertex 1.5 1.5 3
      vertex 6.54894 1.5 7.80902
      vertex 6.5 1.5 7.5
    endloop
  endfacet
  facet normal 0 1 0
    outer loop
      vertex 1.5 1.5 3
      vertex 6.5 1.5 7.5
      vertex 6.54894 1.5 7.19098
    endloop
  endfacet
  facet normal 0 1 0
    outer loop
      vertex 1.5 1.5 3
      vertex 6.54894 1.5 7.19098
      vertex 6.69098 1.5 6.91221
    endloop
  endfacet
  facet normal 0 1 0
    outer loop
      vertex 6.54894 1.5 7.80902
      vertex 1.5 1.5 3
      vertex 1.5 1.5 15
    endloop
  endfacet
  facet normal 0 1 0
    outer loop
      vertex 6.91221 1.5 6.69098
      vertex 1.5 1.5 3
      vertex 6.69098 1.5 6.91221
    endloop
  endfacet
  facet normal 0 1 0
    outer loop
      vertex 7.19098 1.5 6.54894
      vertex 1.5 1.5 3
      vertex 6.91221 1.5 6.69098
    endloop
  endfacet
  facet normal 0 1 0
    outer loop
      vertex 7.5 1.5 6.5
      vertex 1.5 1.5 3
      vertex 7.19098 1.5 6.54894
    endloop
  endfacet
  facet normal 0 1 0
    outer loop
      vertex 7.80902 1.5 6.54894
      vertex 1.5 1.5 3
      vertex 7.5 1.5 6.5
    endloop
  endfacet
  facet normal -0 0 1
    outer loop
      vertex 1.5 25.7667 3
      vertex 3 24.0667 3
      vertex 3 25.7667 3
    endloop
  endfacet
  facet normal 0 0 1
    outer loop
      vertex 3 24.0667 3
      vertex 1.5 25.7667 3
      vertex 1.5 24.0667 3
    endloop
  endfacet
  facet normal -0 0 1
    outer loop
      vertex 1.5 34.65 3
      vertex 3 27.2667 3
      vertex 3 34.65 3
    endloop
  endfacet
  facet normal 0 0 1
    outer loop
      vertex 3 27.2667 3
      vertex 1.5 34.65 3
      vertex 1.5 27.2667 3
    endloop
  endfacet
  facet normal -0 0 1
    outer loop
      vertex 1.5 37.85 3
      vertex 3 36.15 3
      vertex 3 37.85 3
    endloop
  endfacet
  facet normal 0 0 1
    outer loop
      vertex 3 36.15 3
      vertex 1.5 37.85 3
      vertex 1.5 36.15 3
    endloop
  endfacet
  facet normal -0 0 1
    outer loop
      vertex 1.5 46.7333 3
      vertex 3 39.35 3
      vertex 3 46.7333 3
    endloop
  endfacet
  facet normal 0 0 1
    outer loop
      vertex 3 39.35 3
      vertex 1.5 46.7333 3
      vertex 1.5 39.35 3
    endloop
  endfacet
  facet normal -0 0 1
    outer loop
      vertex 1.5 49.9333 3
      vertex 3 48.2333 3
      vertex 3 49.9333 3
    endloop
  endfacet
  facet normal 0 0 1
    outer loop
      vertex 3 48.2333 3
      vertex 1.5 49.9333 3
      vertex 1.5 48.2333 3
    endloop
  endfacet
  facet normal 0 0 1
    outer loop
      vertex 59.5 74 3
      vertex 58 51.4333 3
      vertex 59.5 51.4333 3
    endloop
  endfacet
  facet normal 0 0 1
    outer loop
      vertex 3 49.9333 3
      vertex 58 49.9333 3
      vertex 58 51.4333 3
    endloop
  endfacet
  facet normal 0 0 1
    outer loop
      vertex 58 49.9333 3
      vertex 3 49.9333 3
      vertex 58 48.2333 3
    endloop
  endfacet
  facet normal 0 0 1
    outer loop
      vertex 58 48.2333 3
      vertex 3 48.2333 3
      vertex 58 46.7333 3
    endloop
  endfacet
  facet normal 0 0 1
    outer loop
      vertex 58 46.7333 3
      vertex 3 46.7333 3
      vertex 58 39.35 3
    endloop
  endfacet
  facet normal 0 0 1
    outer loop
      vertex 3 39.35 3
      vertex 58 39.35 3
      vertex 3 46.7333 3
    endloop
  endfacet
  facet normal 0 0 1
    outer loop
      vertex 58 39.35 3
      vertex 3 39.35 3
      vertex 58 37.85 3
    endloop
  endfacet
  facet normal 0 0 1
    outer loop
      vertex 58 37.85 3
      vertex 3 37.85 3
      vertex 58 36.15 3
    endloop
  endfacet
  facet normal 0 0 1
    outer loop
      vertex 3 36.15 3
      vertex 58 36.15 3
      vertex 3 37.85 3
    endloop
  endfacet
  facet normal 0 0 1
    outer loop
      vertex 3 34.65 3
      vertex 58 34.65 3
      vertex 3 36.15 3
    endloop
  endfacet
  facet normal 0 0 1
    outer loop
      vertex 58 34.65 3
      vertex 3 34.65 3
      vertex 58 27.2667 3
    endloop
  endfacet
  facet normal 0 0 1
    outer loop
      vertex 3 49.9333 3
      vertex 58 51.4333 3
      vertex 3 51.4333 3
    endloop
  endfacet
  facet normal 0 0 1
    outer loop
      vertex 59.5 74 3
      vertex 3 51.4333 3
      vertex 58 51.4333 3
    endloop
  endfacet
  facet normal -0 0 1
    outer loop
      vertex 1.5 74 3
      vertex 3 51.4333 3
      vertex 59.5 74 3
    endloop
  endfacet
  facet normal 0 0 1
    outer loop
      vertex 3 51.4333 3
      vertex 1.5 74 3
      vertex 1.5 51.4333 3
    endloop
  endfacet
  facet normal -0 0 1
    outer loop
      vertex 58 49.9333 3
      vertex 59.5 48.2333 3
      vertex 59.5 49.9333 3
    endloop
  endfacet
  facet normal 0 0 1
    outer loop
      vertex 59.5 48.2333 3
      vertex 58 49.9333 3
      vertex 58 48.2333 3
    endloop
  endfacet
  facet normal -0 0 1
    outer loop
      vertex 58 46.7333 3
      vertex 59.5 39.35 3
      vertex 59.5 46.7333 3
    endloop
  endfacet
  facet normal 0 0 1
    outer loop
      vertex 59.5 39.35 3
      vertex 58 46.7333 3
      vertex 58 39.35 3
    endloop
  endfacet
  facet normal -0 0 1
    outer loop
      vertex 58 37.85 3
      vertex 59.5 36.15 3
      vertex 59.5 37.85 3
    endloop
  endfacet
  facet normal 0 0 1
    outer loop
      vertex 59.5 36.15 3
      vertex 58 37.85 3
      vertex 58 36.15 3
    endloop
  endfacet
  facet normal -0 0 1
    outer loop
      vertex 58 34.65 3
      vertex 59.5 27.2667 3
      vertex 59.5 34.65 3
    endloop
  endfacet
  facet normal 0 0 1
    outer loop
      vertex 59.5 27.2667 3
      vertex 58 34.65 3
      vertex 58 27.2667 3
    endloop
  endfacet
  facet normal -0 0 1
    outer loop
      vertex 58 25.7667 3
      vertex 59.5 24.0667 3
      vertex 59.5 25.7667 3
    endloop
  endfacet
  facet normal 0 0 1
    outer loop
      vertex 59.5 24.0667 3
      vertex 58 25.7667 3
      vertex 58 24.0667 3
    endloop
  endfacet
  facet normal -0 0 1
    outer loop
      vertex 58 22.5667 3
      vertex 59.5 1.5 3
      vertex 59.5 22.5667 3
    endloop
  endfacet
  facet normal 0 0 1
    outer loop
      vertex 58 48.2333 3
      vertex 3 49.9333 3
      vertex 3 48.2333 3
    endloop
  endfacet
  facet normal 0 0 1
    outer loop
      vertex 58 46.7333 3
      vertex 3 48.2333 3
      vertex 3 46.7333 3
    endloop
  endfacet
  facet normal 0 0 1
    outer loop
      vertex 3 37.85 3
      vertex 58 37.85 3
      vertex 3 39.35 3
    endloop
  endfacet
  facet normal 0 0 1
    outer loop
      vertex 58 36.15 3
      vertex 3 36.15 3
      vertex 58 34.65 3
    endloop
  endfacet
  facet normal 0 0 1
    outer loop
      vertex 3 27.2667 3
      vertex 58 27.2667 3
      vertex 3 34.65 3
    endloop
  endfacet
  facet normal 0 0 1
    outer loop
      vertex 58 27.2667 3
      vertex 3 27.2667 3
      vertex 58 25.7667 3
    endloop
  endfacet
  facet normal 0 0 1
    outer loop
      vertex 3 25.7667 3
      vertex 58 25.7667 3
      vertex 3 27.2667 3
    endloop
  endfacet
  facet normal 0 0 1
    outer loop
      vertex 58 25.7667 3
      vertex 3 25.7667 3
      vertex 58 24.0667 3
    endloop
  endfacet
  facet normal 0 0 1
    outer loop
      vertex 3 24.0667 3
      vertex 58 24.0667 3
      vertex 3 25.7667 3
    endloop
  endfacet
  facet normal 0 0 1
    outer loop
      vertex 58 24.0667 3
      vertex 3 24.0667 3
      vertex 58 22.5667 3
    endloop
  endfacet
  facet normal 0 0 1
    outer loop
      vertex 3 22.5667 3
      vertex 58 22.5667 3
      vertex 3 24.0667 3
    endloop
  endfacet
  facet normal 0 0 1
    outer loop
      vertex 58 22.5667 3
      vertex 3 22.5667 3
      vertex 59.5 1.5 3
    endloop
  endfacet
  facet normal 0 0 1
    outer loop
      vertex 1.5 1.5 3
      vertex 3 22.5667 3
      vertex 1.5 22.5667 3
    endloop
  endfacet
  facet normal 0 0 1
    outer loop
      vertex 3 22.5667 3
      vertex 1.5 1.5 3
      vertex 59.5 1.5 3
    endloop
  endfacet
  facet normal 0 0 -1
    outer loop
      vertex 1.5 22.5667 1.5
      vertex 3 24.0667 1.5
      vertex 3 22.5667 1.5
    endloop
  endfacet
  facet normal -0 0 -1
    outer loop
      vertex 3 24.0667 1.5
      vertex 1.5 22.5667 1.5
      vertex 1.5 24.0667 1.5
    endloop
  endfacet
  facet normal 0 0 -1
    outer loop
      vertex 1.5 25.7667 1.5
      vertex 3 27.2667 1.5
      vertex 3 25.7667 1.5
    endloop
  endfacet
  facet normal -0 0 -1
    outer loop
      vertex 3 27.2667 1.5
      vertex 1.5 25.7667 1.5
      vertex 1.5 27.2667 1.5
    endloop
  endfacet
  facet normal 0 0 -1
    outer loop
      vertex 1.5 49.9333 1.5
      vertex 3 51.4333 1.5
      vertex 3 49.9333 1.5
    endloop
  endfacet
  facet normal -0 0 -1
    outer loop
      vertex 3 51.4333 1.5
      vertex 1.5 49.9333 1.5
      vertex 1.5 51.4333 1.5
    endloop
  endfacet
  facet normal 0 0 -1
    outer loop
      vertex 1.5 46.7333 1.5
      vertex 3 48.2333 1.5
      vertex 3 46.7333 1.5
    endloop
  endfacet
  facet normal -0 0 -1
    outer loop
      vertex 3 48.2333 1.5
      vertex 1.5 46.7333 1.5
      vertex 1.5 48.2333 1.5
    endloop
  endfacet
  facet normal 0 0 -1
    outer loop
      vertex 1.5 37.85 1.5
      vertex 3 39.35 1.5
      vertex 3 37.85 1.5
    endloop
  endfacet
  facet normal -0 0 -1
    outer loop
      vertex 3 39.35 1.5
      vertex 1.5 37.85 1.5
      vertex 1.5 39.35 1.5
    endloop
  endfacet
  facet normal 0 0 -1
    outer loop
      vertex 1.5 34.65 1.5
      vertex 3 36.15 1.5
      vertex 3 34.65 1.5
    endloop
  endfacet
  facet normal -0 0 -1
    outer loop
      vertex 3 36.15 1.5
      vertex 1.5 34.65 1.5
      vertex 1.5 36.15 1.5
    endloop
  endfacet
  facet normal 0 0 -1
    outer loop
      vertex 1.5 48.2333 1.5
      vertex 3 49.9333 1.5
      vertex 3 48.2333 1.5
    endloop
  endfacet
  facet normal -0 0 -1
    outer loop
      vertex 3 49.9333 1.5
      vertex 1.5 48.2333 1.5
      vertex 1.5 49.9333 1.5
    endloop
  endfacet
  facet normal 0 0 -1
    outer loop
      vertex 1.5 39.35 1.5
      vertex 3 46.7333 1.5
      vertex 3 39.35 1.5
    endloop
  endfacet
  facet normal -0 0 -1
    outer loop
      vertex 3 46.7333 1.5
      vertex 1.5 39.35 1.5
      vertex 1.5 46.7333 1.5
    endloop
  endfacet
  facet normal 0 0 -1
    outer loop
      vertex 1.5 36.15 1.5
      vertex 3 37.85 1.5
      vertex 3 36.15 1.5
    endloop
  endfacet
  facet normal -0 0 -1
    outer loop
      vertex 3 37.85 1.5
      vertex 1.5 36.15 1.5
      vertex 1.5 37.85 1.5
    endloop
  endfacet
  facet normal 0 0 -1
    outer loop
      vertex 1.5 27.2667 1.5
      vertex 3 34.65 1.5
      vertex 3 27.2667 1.5
    endloop
  endfacet
  facet normal -0 0 -1
    outer loop
      vertex 3 34.65 1.5
      vertex 1.5 27.2667 1.5
      vertex 1.5 34.65 1.5
    endloop
  endfacet
  facet normal 0 0 -1
    outer loop
      vertex 1.5 24.0667 1.5
      vertex 3 25.7667 1.5
      vertex 3 24.0667 1.5
    endloop
  endfacet
  facet normal -0 0 -1
    outer loop
      vertex 3 25.7667 1.5
      vertex 1.5 24.0667 1.5
      vertex 1.5 25.7667 1.5
    endloop
  endfacet
  facet normal 0 0 -1
    outer loop
      vertex 3 24.0667 1.5
      vertex 5.5 1.5 1.5
      vertex 3 22.5667 1.5
    endloop
  endfacet
  facet normal 0 0 -1
    outer loop
      vertex 0 1.5 1.5
      vertex 3 22.5667 1.5
      vertex 5.5 1.5 1.5
    endloop
  endfacet
  facet normal 0 0 0
    outer loop
      vertex 1.5 22.5667 1.5
      vertex 1.5 25.7667 1.5
      vertex 1.5 24.0667 1.5
    endloop
  endfacet
  facet normal 0 0 -1
    outer loop
      vertex 0 1.5 1.5
      vertex 1.5 25.7667 1.5
      vertex 1.5 22.5667 1.5
    endloop
  endfacet
  facet normal -0 0 -1
    outer loop
      vertex 1.5 25.7667 1.5
      vertex 0 1.5 1.5
      vertex 1.5 27.2667 1.5
    endloop
  endfacet
  facet normal -0 0 -1
    outer loop
      vertex 1.5 27.2667 1.5
      vertex 0 1.5 1.5
      vertex 1.5 34.65 1.5
    endloop
  endfacet
  facet normal -0 0 -1
    outer loop
      vertex 1.5 34.65 1.5
      vertex 0 1.5 1.5
      vertex 1.5 36.15 1.5
    endloop
  endfacet
  facet normal -0 0 -1
    outer loop
      vertex 1.5 36.15 1.5
      vertex 0 1.5 1.5
      vertex 1.5 37.85 1.5
    endloop
  endfacet
  facet normal -0 0 -1
    outer loop
      vertex 1.5 37.85 1.5
      vertex 0 1.5 1.5
      vertex 1.5 39.35 1.5
    endloop
  endfacet
  facet normal 0 0 -1
    outer loop
      vertex 0 75.5 1.5
      vertex 1.5 39.35 1.5
      vertex 0 1.5 1.5
    endloop
  endfacet
  facet normal 0 0 -1
    outer loop
      vertex 1.5 39.35 1.5
      vertex 0 75.5 1.5
      vertex 1.5 46.7333 1.5
    endloop
  endfacet
  facet normal 0 0 -1
    outer loop
      vertex 1.5 46.7333 1.5
      vertex 0 75.5 1.5
      vertex 1.5 48.2333 1.5
    endloop
  endfacet
  facet normal 0 0 -1
    outer loop
      vertex 1.5 48.2333 1.5
      vertex 0 75.5 1.5
      vertex 1.5 49.9333 1.5
    endloop
  endfacet
  facet normal -0 0 -1
    outer loop
      vertex 3 22.5667 1.5
      vertex 0 1.5 1.5
      vertex 1.5 22.5667 1.5
    endloop
  endfacet
  facet normal 0 0 -1
    outer loop
      vertex 3 25.7667 1.5
      vertex 5.5 1.5 1.5
      vertex 3 24.0667 1.5
    endloop
  endfacet
  facet normal 0 0 -1
    outer loop
      vertex 3 27.2667 1.5
      vertex 5.5 1.5 1.5
      vertex 3 25.7667 1.5
    endloop
  endfacet
  facet normal 0 0 -1
    outer loop
      vertex 3 34.65 1.5
      vertex 5.5 1.5 1.5
      vertex 3 27.2667 1.5
    endloop
  endfacet
  facet normal 0 0 -1
    outer loop
      vertex 3 36.15 1.5
      vertex 5.5 1.5 1.5
      vertex 3 34.65 1.5
    endloop
  endfacet
  facet normal 0 0 -1
    outer loop
      vertex 5.5 1.5 1.5
      vertex 3 36.15 1.5
      vertex 5.5 75.5 1.5
    endloop
  endfacet
  facet normal 0 0 -1
    outer loop
      vertex 3 37.85 1.5
      vertex 5.5 75.5 1.5
      vertex 3 36.15 1.5
    endloop
  endfacet
  facet normal 0 0 -1
    outer loop
      vertex 3 39.35 1.5
      vertex 5.5 75.5 1.5
      vertex 3 37.85 1.5
    endloop
  endfacet
  facet normal 0 0 -1
    outer loop
      vertex 3 46.7333 1.5
      vertex 5.5 75.5 1.5
      vertex 3 39.35 1.5
    endloop
  endfacet
  facet normal 0 0 -1
    outer loop
      vertex 3 48.2333 1.5
      vertex 5.5 75.5 1.5
      vertex 3 46.7333 1.5
    endloop
  endfacet
  facet normal 0 0 -1
    outer loop
      vertex 3 49.9333 1.5
      vertex 5.5 75.5 1.5
      vertex 3 48.2333 1.5
    endloop
  endfacet
  facet normal 0 0 -1
    outer loop
      vertex 3 51.4333 1.5
      vertex 5.5 75.5 1.5
      vertex 3 49.9333 1.5
    endloop
  endfacet
  facet normal 0 0 -1
    outer loop
      vertex 0 75.5 1.5
      vertex 3 51.4333 1.5
      vertex 1.5 51.4333 1.5
    endloop
  endfacet
  facet normal 0 0 -1
    outer loop
      vertex 3 51.4333 1.5
      vertex 0 75.5 1.5
      vertex 5.5 75.5 1.5
    endloop
  endfacet
  facet normal 0 0 -1
    outer loop
      vertex 1.5 49.9333 1.5
      vertex 0 75.5 1.5
      vertex 1.5 51.4333 1.5
    endloop
  endfacet
  facet normal -1 0 0
    outer loop
      vertex 5.5 1.5 0
      vertex 5.5 75.5 1.5
      vertex 5.5 75.5 0
    endloop
  endfacet
  facet normal -1 -0 0
    outer loop
      vertex 5.5 75.5 1.5
      vertex 5.5 1.5 0
      vertex 5.5 1.5 1.5
    endloop
  endfacet
  facet normal 0 1 -0
    outer loop
      vertex 5.5 1.5 0
      vertex 0 1.5 1.5
      vertex 5.5 1.5 1.5
    endloop
  endfacet
  facet normal 0 1 0
    outer loop
      vertex 0 1.5 1.5
      vertex 5.5 1.5 0
      vertex 0 1.5 0
    endloop
  endfacet
  facet normal 1 -0 0
    outer loop
      vertex 55.5 1.5 1.5
      vertex 55.5 75.5 0
      vertex 55.5 75.5 1.5
    endloop
  endfacet
  facet normal 1 0 0
    outer loop
      vertex 55.5 75.5 0
      vertex 55.5 1.5 1.5
      vertex 55.5 1.5 0
    endloop
  endfacet
  facet normal 0 0 -1
    outer loop
      vertex 58 37.85 1.5
      vertex 59.5 39.35 1.5
      vertex 59.5 37.85 1.5
    endloop
  endfacet
  facet normal -0 0 -1
    outer loop
      vertex 59.5 39.35 1.5
      vertex 58 37.85 1.5
      vertex 58 39.35 1.5
    endloop
  endfacet
  facet normal 0 0 -1
    outer loop
      vertex 58 34.65 1.5
      vertex 59.5 36.15 1.5
      vertex 59.5 34.65 1.5
    endloop
  endfacet
  facet normal -0 0 -1
    outer loop
      vertex 59.5 36.15 1.5
      vertex 58 34.65 1.5
      vertex 58 36.15 1.5
    endloop
  endfacet
  facet normal 0 0 -1
    outer loop
      vertex 58 49.9333 1.5
      vertex 59.5 51.4333 1.5
      vertex 59.5 49.9333 1.5
    endloop
  endfacet
  facet normal -0 0 -1
    outer loop
      vertex 59.5 51.4333 1.5
      vertex 58 49.9333 1.5
      vertex 58 51.4333 1.5
    endloop
  endfacet
  facet normal 0 0 -1
    outer loop
      vertex 58 46.7333 1.5
      vertex 59.5 48.2333 1.5
      vertex 59.5 46.7333 1.5
    endloop
  endfacet
  facet normal -0 0 -1
    outer loop
      vertex 59.5 48.2333 1.5
      vertex 58 46.7333 1.5
      vertex 58 48.2333 1.5
    endloop
  endfacet
  facet normal 0 0 -1
    outer loop
      vertex 58 22.5667 1.5
      vertex 59.5 24.0667 1.5
      vertex 59.5 22.5667 1.5
    endloop
  endfacet
  facet normal -0 0 -1
    outer loop
      vertex 59.5 24.0667 1.5
      vertex 58 22.5667 1.5
      vertex 58 24.0667 1.5
    endloop
  endfacet
  facet normal 0 0 -1
    outer loop
      vertex 58 25.7667 1.5
      vertex 59.5 27.2667 1.5
      vertex 59.5 25.7667 1.5
    endloop
  endfacet
  facet normal -0 0 -1
    outer loop
      vertex 59.5 27.2667 1.5
      vertex 58 25.7667 1.5
      vertex 58 27.2667 1.5
    endloop
  endfacet
  facet normal 0 0 -1
    outer loop
      vertex 58 48.2333 1.5
      vertex 59.5 49.9333 1.5
      vertex 59.5 48.2333 1.5
    endloop
  endfacet
  facet normal -0 0 -1
    outer loop
      vertex 59.5 49.9333 1.5
      vertex 58 48.2333 1.5
      vertex 58 49.9333 1.5
    endloop
  endfacet
  facet normal 0 0 -1
    outer loop
      vertex 58 39.35 1.5
      vertex 59.5 46.7333 1.5
      vertex 59.5 39.35 1.5
    endloop
  endfacet
  facet normal -0 0 -1
    outer loop
      vertex 59.5 46.7333 1.5
      vertex 58 39.35 1.5
      vertex 58 46.7333 1.5
    endloop
  endfacet
  facet normal 0 0 -1
    outer loop
      vertex 58 36.15 1.5
      vertex 59.5 37.85 1.5
      vertex 59.5 36.15 1.5
    endloop
  endfacet
  facet normal -0 0 -1
    outer loop
      vertex 59.5 37.85 1.5
      vertex 58 36.15 1.5
      vertex 58 37.85 1.5
    endloop
  endfacet
  facet normal 0 0 -1
    outer loop
      vertex 58 27.2667 1.5
      vertex 59.5 34.65 1.5
      vertex 59.5 27.2667 1.5
    endloop
  endfacet
  facet normal -0 0 -1
    outer loop
      vertex 59.5 34.65 1.5
      vertex 58 27.2667 1.5
      vertex 58 34.65 1.5
    endloop
  endfacet
  facet normal 0 0 -1
    outer loop
      vertex 58 24.0667 1.5
      vertex 59.5 25.7667 1.5
      vertex 59.5 24.0667 1.5
    endloop
  endfacet
  facet normal -0 0 -1
    outer loop
      vertex 59.5 25.7667 1.5
      vertex 58 24.0667 1.5
      vertex 58 25.7667 1.5
    endloop
  endfacet
  facet normal 0 0 -1
    outer loop
      vertex 59.5 24.0667 1.5
      vertex 61 1.5 1.5
      vertex 59.5 22.5667 1.5
    endloop
  endfacet
  facet normal 0 0 -1
    outer loop
      vertex 61 1.5 1.5
      vertex 58 22.5667 1.5
      vertex 59.5 22.5667 1.5
    endloop
  endfacet
  facet normal 0 0 -1
    outer loop
      vertex 55.5 1.5 1.5
      vertex 58 24.0667 1.5
      vertex 58 22.5667 1.5
    endloop
  endfacet
  facet normal -0 0 -1
    outer loop
      vertex 58 24.0667 1.5
      vertex 55.5 1.5 1.5
      vertex 58 25.7667 1.5
    endloop
  endfacet
  facet normal -0 0 -1
    outer loop
      vertex 58 25.7667 1.5
      vertex 55.5 1.5 1.5
      vertex 58 27.2667 1.5
    endloop
  endfacet
  facet normal -0 0 -1
    outer loop
      vertex 58 27.2667 1.5
      vertex 55.5 1.5 1.5
      vertex 58 34.65 1.5
    endloop
  endfacet
  facet normal -0 0 -1
    outer loop
      vertex 58 34.65 1.5
      vertex 55.5 1.5 1.5
      vertex 58 36.15 1.5
    endloop
  endfacet
  facet normal -0 0 -1
    outer loop
      vertex 58 36.15 1.5
      vertex 55.5 1.5 1.5
      vertex 58 37.85 1.5
    endloop
  endfacet
  facet normal -0 0 -1
    outer loop
      vertex 58 37.85 1.5
      vertex 55.5 1.5 1.5
      vertex 58 39.35 1.5
    endloop
  endfacet
  facet normal 0 0 -1
    outer loop
      vertex 55.5 75.5 1.5
      vertex 58 39.35 1.5
      vertex 55.5 1.5 1.5
    endloop
  endfacet
  facet normal 0 0 -1
    outer loop
      vertex 58 39.35 1.5
      vertex 55.5 75.5 1.5
      vertex 58 46.7333 1.5
    endloop
  endfacet
  facet normal 0 0 -1
    outer loop
      vertex 58 46.7333 1.5
      vertex 55.5 75.5 1.5
      vertex 58 48.2333 1.5
    endloop
  endfacet
  facet normal 0 0 -1
    outer loop
      vertex 58 48.2333 1.5
      vertex 55.5 75.5 1.5
      vertex 58 49.9333 1.5
    endloop
  endfacet
  facet normal 0 0 -1
    outer loop
      vertex 55.5 1.5 1.5
      vertex 58 22.5667 1.5
      vertex 61 1.5 1.5
    endloop
  endfacet
  facet normal 0 0 -1
    outer loop
      vertex 59.5 25.7667 1.5
      vertex 61 1.5 1.5
      vertex 59.5 24.0667 1.5
    endloop
  endfacet
  facet normal 0 0 -1
    outer loop
      vertex 59.5 27.2667 1.5
      vertex 61 1.5 1.5
      vertex 59.5 25.7667 1.5
    endloop
  endfacet
  facet normal 0 0 -1
    outer loop
      vertex 59.5 34.65 1.5
      vertex 61 1.5 1.5
      vertex 59.5 27.2667 1.5
    endloop
  endfacet
  facet normal 0 0 -1
    outer loop
      vertex 61 1.5 1.5
      vertex 59.5 34.65 1.5
      vertex 61 75.5 1.5
    endloop
  endfacet
  facet normal 0 0 -1
    outer loop
      vertex 59.5 36.15 1.5
      vertex 61 75.5 1.5
      vertex 59.5 34.65 1.5
    endloop
  endfacet
  facet normal 0 0 -1
    outer loop
      vertex 59.5 37.85 1.5
      vertex 61 75.5 1.5
      vertex 59.5 36.15 1.5
    endloop
  endfacet
  facet normal 0 0 -1
    outer loop
      vertex 59.5 39.35 1.5
      vertex 61 75.5 1.5
      vertex 59.5 37.85 1.5
    endloop
  endfacet
  facet normal 0 0 -1
    outer loop
      vertex 59.5 46.7333 1.5
      vertex 61 75.5 1.5
      vertex 59.5 39.35 1.5
    endloop
  endfacet
  facet normal 0 0 -1
    outer loop
      vertex 59.5 48.2333 1.5
      vertex 61 75.5 1.5
      vertex 59.5 46.7333 1.5
    endloop
  endfacet
  facet normal 0 0 -1
    outer loop
      vertex 59.5 49.9333 1.5
      vertex 61 75.5 1.5
      vertex 59.5 48.2333 1.5
    endloop
  endfacet
  facet normal 0 0 -1
    outer loop
      vertex 59.5 51.4333 1.5
      vertex 61 75.5 1.5
      vertex 59.5 49.9333 1.5
    endloop
  endfacet
  facet normal 0 0 -1
    outer loop
      vertex 58 51.4333 1.5
      vertex 61 75.5 1.5
      vertex 59.5 51.4333 1.5
    endloop
  endfacet
  facet normal 0 0 -1
    outer loop
      vertex 58 51.4333 1.5
      vertex 55.5 75.5 1.5
      vertex 61 75.5 1.5
    endloop
  endfacet
  facet normal 0 0 -1
    outer loop
      vertex 58 49.9333 1.5
      vertex 55.5 75.5 1.5
      vertex 58 51.4333 1.5
    endloop
  endfacet
  facet normal 0 1 -0
    outer loop
      vertex 61 1.5 0
      vertex 55.5 1.5 1.5
      vertex 61 1.5 1.5
    endloop
  endfacet
  facet normal 0 1 0
    outer loop
      vertex 55.5 1.5 1.5
      vertex 61 1.5 0
      vertex 55.5 1.5 0
    endloop
  endfacet
  facet normal 1 -0 0
    outer loop
      vertex 13 0 10.5
      vertex 13 0.2 4.5
      vertex 13 0.2 10.5
    endloop
  endfacet
  facet normal 1 0 0
    outer loop
      vertex 13 0.2 4.5
      vertex 13 0 10.5
      vertex 13 0 4.5
    endloop
  endfacet
  facet normal 0 0 -1
    outer loop
      vertex 13 0 10.5
      vertex 51 0.2 10.5
      vertex 51 0 10.5
    endloop
  endfacet
  facet normal -0 0 -1
    outer loop
      vertex 51 0.2 10.5
      vertex 13 0 10.5
      vertex 13 0.2 10.5
    endloop
  endfacet
  facet normal -1 0 0
    outer loop
      vertex 51 0 4.5
      vertex 51 0.2 10.5
      vertex 51 0.2 4.5
    endloop
  endfacet
  facet normal -1 -0 0
    outer loop
      vertex 51 0.2 10.5
      vertex 51 0 4.5
      vertex 51 0 10.5
    endloop
  endfacet
  facet normal 0 -1 0
    outer loop
      vertex 13 0.2 4.5
      vertex 51 0.2 10.5
      vertex 13 0.2 10.5
    endloop
  endfacet
  facet normal 0 -1 -0
    outer loop
      vertex 51 0.2 10.5
      vertex 13 0.2 4.5
      vertex 51 0.2 4.5
    endloop
  endfacet
  facet normal -0 0 1
    outer loop
      vertex 13 0.2 4.5
      vertex 51 0 4.5
      vertex 51 0.2 4.5
    endloop
  endfacet
  facet normal 0 0 1
    outer loop
      vertex 51 0 4.5
      vertex 13 0.2 4.5
      vertex 13 0 4.5
    endloop
  endfacet
  facet normal -0.98769 0 -0.156422
    outer loop
      vertex 8.5 0 7.5
      vertex 8.45106 1.5 7.80902
      vertex 8.5 1.5 7.5
    endloop
  endfacet
  facet normal -0.98769 -0 -0.156422
    outer loop
      vertex 8.45106 1.5 7.80902
      vertex 8.5 0 7.5
      vertex 8.45106 0 7.80902
    endloop
  endfacet
  facet normal 0.98769 -0 0.156422
    outer loop
      vertex 6.5 0 7.5
      vertex 6.54894 1.5 7.19098
      vertex 6.5 1.5 7.5
    endloop
  endfacet
  facet normal 0.98769 0 0.156422
    outer loop
      vertex 6.54894 1.5 7.19098
      vertex 6.5 0 7.5
      vertex 6.54894 0 7.19098
    endloop
  endfacet
  facet normal -0.156422 0 0.98769
    outer loop
      vertex 7.5 1.5 6.5
      vertex 7.80902 0 6.54894
      vertex 7.80902 1.5 6.54894
    endloop
  endfacet
  facet normal -0.156422 0 0.98769
    outer loop
      vertex 7.80902 0 6.54894
      vertex 7.5 1.5 6.5
      vertex 7.5 0 6.5
    endloop
  endfacet
  facet normal 0.156422 0 -0.98769
    outer loop
      vertex 7.19098 0 8.45106
      vertex 7.5 1.5 8.5
      vertex 7.5 0 8.5
    endloop
  endfacet
  facet normal 0.156422 0 -0.98769
    outer loop
      vertex 7.5 1.5 8.5
      vertex 7.19098 0 8.45106
      vertex 7.19098 1.5 8.45106
    endloop
  endfacet
  facet normal -0.156422 0 -0.98769
    outer loop
      vertex 7.5 0 8.5
      vertex 7.80902 1.5 8.45106
      vertex 7.80902 0 8.45106
    endloop
  endfacet
  facet normal -0.156422 0 -0.98769
    outer loop
      vertex 7.80902 1.5 8.45106
      vertex 7.5 0 8.5
      vertex 7.5 1.5 8.5
    endloop
  endfacet
  facet normal -0.98769 0 0.156422
    outer loop
      vertex 8.45106 0 7.19098
      vertex 8.5 1.5 7.5
      vertex 8.45106 1.5 7.19098
    endloop
  endfacet
  facet normal -0.98769 0 0.156422
    outer loop
      vertex 8.5 1.5 7.5
      vertex 8.45106 0 7.19098
      vertex 8.5 0 7.5
    endloop
  endfacet
  facet normal 0.156422 0 0.98769
    outer loop
      vertex 7.19098 1.5 6.54894
      vertex 7.5 0 6.5
      vertex 7.5 1.5 6.5
    endloop
  endfacet
  facet normal 0.156422 0 0.98769
    outer loop
      vertex 7.5 0 6.5
      vertex 7.19098 1.5 6.54894
      vertex 7.19098 0 6.54894
    endloop
  endfacet
  facet normal -0.891 0 -0.454002
    outer loop
      vertex 8.45106 0 7.80902
      vertex 8.30902 1.5 8.08778
      vertex 8.45106 1.5 7.80902
    endloop
  endfacet
  facet normal -0.891 -0 -0.454002
    outer loop
      vertex 8.30902 1.5 8.08778
      vertex 8.45106 0 7.80902
      vertex 8.30902 0 8.08778
    endloop
  endfacet
  facet normal 0.98769 0 -0.156422
    outer loop
      vertex 6.54894 0 7.80902
      vertex 6.5 1.5 7.5
      vertex 6.54894 1.5 7.80902
    endloop
  endfacet
  facet normal 0.98769 0 -0.156422
    outer loop
      vertex 6.5 1.5 7.5
      vertex 6.54894 0 7.80902
      vertex 6.5 0 7.5
    endloop
  endfacet
  facet normal 0.453989 0 -0.891007
    outer loop
      vertex 6.91221 0 8.30902
      vertex 7.19098 1.5 8.45106
      vertex 7.19098 0 8.45106
    endloop
  endfacet
  facet normal 0.453989 0 -0.891007
    outer loop
      vertex 7.19098 1.5 8.45106
      vertex 6.91221 0 8.30902
      vertex 6.91221 1.5 8.30902
    endloop
  endfacet
  facet normal -0.454002 0 0.891
    outer loop
      vertex 7.80902 1.5 6.54894
      vertex 8.08778 0 6.69098
      vertex 8.08778 1.5 6.69098
    endloop
  endfacet
  facet normal -0.454002 0 0.891
    outer loop
      vertex 8.08778 0 6.69098
      vertex 7.80902 1.5 6.54894
      vertex 7.80902 0 6.54894
    endloop
  endfacet
  facet normal 0.891007 -0 0.453989
    outer loop
      vertex 6.54894 0 7.19098
      vertex 6.69098 1.5 6.91221
      vertex 6.54894 1.5 7.19098
    endloop
  endfacet
  facet normal 0.891007 0 0.453989
    outer loop
      vertex 6.69098 1.5 6.91221
      vertex 6.54894 0 7.19098
      vertex 6.69098 0 6.91221
    endloop
  endfacet
  facet normal -0.707107 0 -0.707107
    outer loop
      vertex 8.30902 0 8.08778
      vertex 8.08778 1.5 8.30902
      vertex 8.30902 1.5 8.08778
    endloop
  endfacet
  facet normal -0.707107 -0 -0.707107
    outer loop
      vertex 8.08778 1.5 8.30902
      vertex 8.30902 0 8.08778
      vertex 8.08778 0 8.30902
    endloop
  endfacet
  facet normal -0.454002 0 -0.891
    outer loop
      vertex 7.80902 0 8.45106
      vertex 8.08778 1.5 8.30902
      vertex 8.08778 0 8.30902
    endloop
  endfacet
  facet normal -0.454002 0 -0.891
    outer loop
      vertex 8.08778 1.5 8.30902
      vertex 7.80902 0 8.45106
      vertex 7.80902 1.5 8.45106
    endloop
  endfacet
  facet normal 0.707123 0 -0.707091
    outer loop
      vertex 6.91221 0 8.30902
      vertex 6.69098 1.5 8.08778
      vertex 6.91221 1.5 8.30902
    endloop
  endfacet
  facet normal 0.707123 0 -0.707091
    outer loop
      vertex 6.69098 1.5 8.08778
      vertex 6.91221 0 8.30902
      vertex 6.69098 0 8.08778
    endloop
  endfacet
  facet normal 0.891 0 -0.454002
    outer loop
      vertex 6.69098 0 8.08778
      vertex 6.54894 1.5 7.80902
      vertex 6.69098 1.5 8.08778
    endloop
  endfacet
  facet normal 0.891 0 -0.454002
    outer loop
      vertex 6.54894 1.5 7.80902
      vertex 6.69098 0 8.08778
      vertex 6.54894 0 7.80902
    endloop
  endfacet
  facet normal -0.707091 0 0.707123
    outer loop
      vertex 8.08778 0 6.69098
      vertex 8.30902 1.5 6.91221
      vertex 8.08778 1.5 6.69098
    endloop
  endfacet
  facet normal -0.707091 0 0.707123
    outer loop
      vertex 8.30902 1.5 6.91221
      vertex 8.08778 0 6.69098
      vertex 8.30902 0 6.91221
    endloop
  endfacet
  facet normal -0.891007 0 0.453989
    outer loop
      vertex 8.30902 0 6.91221
      vertex 8.45106 1.5 7.19098
      vertex 8.30902 1.5 6.91221
    endloop
  endfacet
  facet normal -0.891007 0 0.453989
    outer loop
      vertex 8.45106 1.5 7.19098
      vertex 8.30902 0 6.91221
      vertex 8.45106 0 7.19098
    endloop
  endfacet
  facet normal 0.707107 -0 0.707107
    outer loop
      vertex 6.69098 0 6.91221
      vertex 6.91221 1.5 6.69098
      vertex 6.69098 1.5 6.91221
    endloop
  endfacet
  facet normal 0.707107 0 0.707107
    outer loop
      vertex 6.91221 1.5 6.69098
      vertex 6.69098 0 6.91221
      vertex 6.91221 0 6.69098
    endloop
  endfacet
  facet normal 0.453989 0 0.891007
    outer loop
      vertex 6.91221 1.5 6.69098
      vertex 7.19098 0 6.54894
      vertex 7.19098 1.5 6.54894
    endloop
  endfacet
  facet normal 0.453989 0 0.891007
    outer loop
      vertex 7.19098 0 6.54894
      vertex 6.91221 1.5 6.69098
      vertex 6.91221 0 6.69098
    endloop
  endfacet
  facet normal 1 -0 0
    outer loop
      vertex 3 22.5667 15
      vertex 3 24.0667 3
      vertex 3 24.0667 15
    endloop
  endfacet
  facet normal 1 0 0
    outer loop
      vertex 3 24.0667 3
      vertex 3 22.5667 15
      vertex 3 22.5667 3
    endloop
  endfacet
  facet normal 0 -1 0
    outer loop
      vertex 1.5 22.5667 3
      vertex 3 22.5667 15
      vertex 1.5 22.5667 15
    endloop
  endfacet
  facet normal 0 -1 -0
    outer loop
      vertex 3 22.5667 15
      vertex 1.5 22.5667 3
      vertex 3 22.5667 3
    endloop
  endfacet
  facet normal 0 1 -0
    outer loop
      vertex 3 24.0667 3
      vertex 1.5 24.0667 15
      vertex 3 24.0667 15
    endloop
  endfacet
  facet normal 0 1 0
    outer loop
      vertex 1.5 24.0667 15
      vertex 3 24.0667 3
      vertex 1.5 24.0667 3
    endloop
  endfacet
  facet normal 1 -0 0
    outer loop
      vertex 3 25.7667 15
      vertex 3 27.2667 3
      vertex 3 27.2667 15
    endloop
  endfacet
  facet normal 1 0 0
    outer loop
      vertex 3 27.2667 3
      vertex 3 25.7667 15
      vertex 3 25.7667 3
    endloop
  endfacet
  facet normal 0 1 -0
    outer loop
      vertex 3 27.2667 3
      vertex 1.5 27.2667 15
      vertex 3 27.2667 15
    endloop
  endfacet
  facet normal 0 1 0
    outer loop
      vertex 1.5 27.2667 15
      vertex 3 27.2667 3
      vertex 1.5 27.2667 3
    endloop
  endfacet
  facet normal 0 -1 0
    outer loop
      vertex 1.5 25.7667 3
      vertex 3 25.7667 15
      vertex 1.5 25.7667 15
    endloop
  endfacet
  facet normal 0 -1 -0
    outer loop
      vertex 3 25.7667 15
      vertex 1.5 25.7667 3
      vertex 3 25.7667 3
    endloop
  endfacet
  facet normal -1 0 0
    outer loop
      vertex 58 22.5667 3
      vertex 58 24.0667 15
      vertex 58 24.0667 3
    endloop
  endfacet
  facet normal -1 -0 0
    outer loop
      vertex 58 24.0667 15
      vertex 58 22.5667 3
      vertex 58 22.5667 15
    endloop
  endfacet
  facet normal 0 1 -0
    outer loop
      vertex 59.5 24.0667 3
      vertex 58 24.0667 15
      vertex 59.5 24.0667 15
    endloop
  endfacet
  facet normal 0 1 0
    outer loop
      vertex 58 24.0667 15
      vertex 59.5 24.0667 3
      vertex 58 24.0667 3
    endloop
  endfacet
  facet normal 0 -1 0
    outer loop
      vertex 58 22.5667 3
      vertex 59.5 22.5667 15
      vertex 58 22.5667 15
    endloop
  endfacet
  facet normal 0 -1 -0
    outer loop
      vertex 59.5 22.5667 15
      vertex 58 22.5667 3
      vertex 59.5 22.5667 3
    endloop
  endfacet
  facet normal -1 0 0
    outer loop
      vertex 58 25.7667 3
      vertex 58 27.2667 15
      vertex 58 27.2667 3
    endloop
  endfacet
  facet normal -1 -0 0
    outer loop
      vertex 58 27.2667 15
      vertex 58 25.7667 3
      vertex 58 25.7667 15
    endloop
  endfacet
  facet normal 0 -1 0
    outer loop
      vertex 58 25.7667 3
      vertex 59.5 25.7667 15
      vertex 58 25.7667 15
    endloop
  endfacet
  facet normal 0 -1 -0
    outer loop
      vertex 59.5 25.7667 15
      vertex 58 25.7667 3
      vertex 59.5 25.7667 3
    endloop
  endfacet
  facet normal 0 1 -0
    outer loop
      vertex 59.5 27.2667 3
      vertex 58 27.2667 15
      vertex 59.5 27.2667 15
    endloop
  endfacet
  facet normal 0 1 0
    outer loop
      vertex 58 27.2667 15
      vertex 59.5 27.2667 3
      vertex 58 27.2667 3
    endloop
  endfacet
  facet normal 1 -0 0
    outer loop
      vertex 3 46.7333 15
      vertex 3 48.2333 3
      vertex 3 48.2333 15
    endloop
  endfacet
  facet normal 1 0 0
    outer loop
      vertex 3 48.2333 3
      vertex 3 46.7333 15
      vertex 3 46.7333 3
    endloop
  endfacet
  facet normal 0 -1 0
    outer loop
      vertex 1.5 46.7333 3
      vertex 3 46.7333 15
      vertex 1.5 46.7333 15
    endloop
  endfacet
  facet normal 0 -1 -0
    outer loop
      vertex 3 46.7333 15
      vertex 1.5 46.7333 3
      vertex 3 46.7333 3
    endloop
  endfacet
  facet normal 0 1 -0
    outer loop
      vertex 3 48.2333 3
      vertex 1.5 48.2333 15
      vertex 3 48.2333 15
    endloop
  endfacet
  facet normal 0 1 0
    outer loop
      vertex 1.5 48.2333 15
      vertex 3 48.2333 3
      vertex 1.5 48.2333 3
    endloop
  endfacet
  facet normal 1 -0 0
    outer loop
      vertex 3 49.9333 15
      vertex 3 51.4333 3
      vertex 3 51.4333 15
    endloop
  endfacet
  facet normal 1 0 0
    outer loop
      vertex 3 51.4333 3
      vertex 3 49.9333 15
      vertex 3 49.9333 3
    endloop
  endfacet
  facet normal 0 1 -0
    outer loop
      vertex 3 51.4333 3
      vertex 1.5 51.4333 15
      vertex 3 51.4333 15
    endloop
  endfacet
  facet normal 0 1 0
    outer loop
      vertex 1.5 51.4333 15
      vertex 3 51.4333 3
      vertex 1.5 51.4333 3
    endloop
  endfacet
  facet normal 0 -1 0
    outer loop
      vertex 1.5 49.9333 3
      vertex 3 49.9333 15
      vertex 1.5 49.9333 15
    endloop
  endfacet
  facet normal 0 -1 -0
    outer loop
      vertex 3 49.9333 15
      vertex 1.5 49.9333 3
      vertex 3 49.9333 3
    endloop
  endfacet
  facet normal -1 0 0
    outer loop
      vertex 58 46.7333 3
      vertex 58 48.2333 15
      vertex 58 48.2333 3
    endloop
  endfacet
  facet normal -1 -0 0
    outer loop
      vertex 58 48.2333 15
      vertex 58 46.7333 3
      vertex 58 46.7333 15
    endloop
  endfacet
  facet normal 0 1 -0
    outer loop
      vertex 59.5 48.2333 3
      vertex 58 48.2333 15
      vertex 59.5 48.2333 15
    endloop
  endfacet
  facet normal 0 1 0
    outer loop
      vertex 58 48.2333 15
      vertex 59.5 48.2333 3
      vertex 58 48.2333 3
    endloop
  endfacet
  facet normal 0 -1 0
    outer loop
      vertex 58 46.7333 3
      vertex 59.5 46.7333 15
      vertex 58 46.7333 15
    endloop
  endfacet
  facet normal 0 -1 -0
    outer loop
      vertex 59.5 46.7333 15
      vertex 58 46.7333 3
      vertex 59.5 46.7333 3
    endloop
  endfacet
  facet normal -1 0 0
    outer loop
      vertex 58 49.9333 3
      vertex 58 51.4333 15
      vertex 58 51.4333 3
    endloop
  endfacet
  facet normal -1 -0 0
    outer loop
      vertex 58 51.4333 15
      vertex 58 49.9333 3
      vertex 58 49.9333 15
    endloop
  endfacet
  facet normal 0 -1 0
    outer loop
      vertex 58 49.9333 3
      vertex 59.5 49.9333 15
      vertex 58 49.9333 15
    endloop
  endfacet
  facet normal 0 -1 -0
    outer loop
      vertex 59.5 49.9333 15
      vertex 58 49.9333 3
      vertex 59.5 49.9333 3
    endloop
  endfacet
  facet normal 0 1 -0
    outer loop
      vertex 59.5 51.4333 3
      vertex 58 51.4333 15
      vertex 59.5 51.4333 15
    endloop
  endfacet
  facet normal 0 1 0
    outer loop
      vertex 58 51.4333 15
      vertex 59.5 51.4333 3
      vertex 58 51.4333 3
    endloop
  endfacet
  facet normal 1 -0 0
    outer loop
      vertex 3 34.65 15
      vertex 3 36.15 3
      vertex 3 36.15 15
    endloop
  endfacet
  facet normal 1 0 0
    outer loop
      vertex 3 36.15 3
      vertex 3 34.65 15
      vertex 3 34.65 3
    endloop
  endfacet
  facet normal 0 1 -0
    outer loop
      vertex 3 36.15 3
      vertex 1.5 36.15 15
      vertex 3 36.15 15
    endloop
  endfacet
  facet normal 0 1 0
    outer loop
      vertex 1.5 36.15 15
      vertex 3 36.15 3
      vertex 1.5 36.15 3
    endloop
  endfacet
  facet normal 0 -1 0
    outer loop
      vertex 1.5 34.65 3
      vertex 3 34.65 15
      vertex 1.5 34.65 15
    endloop
  endfacet
  facet normal 0 -1 -0
    outer loop
      vertex 3 34.65 15
      vertex 1.5 34.65 3
      vertex 3 34.65 3
    endloop
  endfacet
  facet normal 1 -0 0
    outer loop
      vertex 3 37.85 15
      vertex 3 39.35 3
      vertex 3 39.35 15
    endloop
  endfacet
  facet normal 1 0 0
    outer loop
      vertex 3 39.35 3
      vertex 3 37.85 15
      vertex 3 37.85 3
    endloop
  endfacet
  facet normal 0 -1 0
    outer loop
      vertex 1.5 37.85 3
      vertex 3 37.85 15
      vertex 1.5 37.85 15
    endloop
  endfacet
  facet normal 0 -1 -0
    outer loop
      vertex 3 37.85 15
      vertex 1.5 37.85 3
      vertex 3 37.85 3
    endloop
  endfacet
  facet normal 0 1 -0
    outer loop
      vertex 3 39.35 3
      vertex 1.5 39.35 15
      vertex 3 39.35 15
    endloop
  endfacet
  facet normal 0 1 0
    outer loop
      vertex 1.5 39.35 15
      vertex 3 39.35 3
      vertex 1.5 39.35 3
    endloop
  endfacet
  facet normal -1 0 0
    outer loop
      vertex 58 34.65 3
      vertex 58 36.15 15
      vertex 58 36.15 3
    endloop
  endfacet
  facet normal -1 -0 0
    outer loop
      vertex 58 36.15 15
      vertex 58 34.65 3
      vertex 58 34.65 15
    endloop
  endfacet
  facet normal 0 -1 0
    outer loop
      vertex 58 34.65 3
      vertex 59.5 34.65 15
      vertex 58 34.65 15
    endloop
  endfacet
  facet normal 0 -1 -0
    outer loop
      vertex 59.5 34.65 15
      vertex 58 34.65 3
      vertex 59.5 34.65 3
    endloop
  endfacet
  facet normal 0 1 -0
    outer loop
      vertex 59.5 36.15 3
      vertex 58 36.15 15
      vertex 59.5 36.15 15
    endloop
  endfacet
  facet normal 0 1 0
    outer loop
      vertex 58 36.15 15
      vertex 59.5 36.15 3
      vertex 58 36.15 3
    endloop
  endfacet
  facet normal -1 0 0
    outer loop
      vertex 58 37.85 3
      vertex 58 39.35 15
      vertex 58 39.35 3
    endloop
  endfacet
  facet normal -1 -0 0
    outer loop
      vertex 58 39.35 15
      vertex 58 37.85 3
      vertex 58 37.85 15
    endloop
  endfacet
  facet normal 0 1 -0
    outer loop
      vertex 59.5 39.35 3
      vertex 58 39.35 15
      vertex 59.5 39.35 15
    endloop
  endfacet
  facet normal 0 1 0
    outer loop
      vertex 58 39.35 15
      vertex 59.5 39.35 3
      vertex 58 39.35 3
    endloop
  endfacet
  facet normal 0 -1 0
    outer loop
      vertex 58 37.85 3
      vertex 59.5 37.85 15
      vertex 58 37.85 15
    endloop
  endfacet
  facet normal 0 -1 -0
    outer loop
      vertex 59.5 37.85 15
      vertex 58 37.85 3
      vertex 59.5 37.85 3
    endloop
  endfacet
endsolid OpenSCAD_Model
