solid OpenSCAD_Model
  facet normal -1 0 0
    outer loop
      vertex 0 0 0
      vertex 0 50 80
      vertex 0 50 0
    endloop
  endfacet
  facet normal -1 -0 0
    outer loop
      vertex 0 50 80
      vertex 0 0 0
      vertex 0 0 80
    endloop
  endfacet
  facet normal 0 0 1
    outer loop
      vertex 65 50 80
      vertex 63.5 48.5 80
      vertex 65 0 80
    endloop
  endfacet
  facet normal 0 0 1
    outer loop
      vertex 65 50 80
      vertex 1.5 48.5 80
      vertex 63.5 48.5 80
    endloop
  endfacet
  facet normal 0 0 1
    outer loop
      vertex 1.5 48.5 80
      vertex 0 50 80
      vertex 1.5 1.5 80
    endloop
  endfacet
  facet normal -0 0 1
    outer loop
      vertex 0 50 80
      vertex 1.5 48.5 80
      vertex 65 50 80
    endloop
  endfacet
  facet normal -0 0 1
    outer loop
      vertex 63.5 1.5 80
      vertex 65 0 80
      vertex 63.5 48.5 80
    endloop
  endfacet
  facet normal -0 0 1
    outer loop
      vertex 1.5 1.5 80
      vertex 65 0 80
      vertex 63.5 1.5 80
    endloop
  endfacet
  facet normal 0 0 1
    outer loop
      vertex 1.5 1.5 80
      vertex 0 0 80
      vertex 65 0 80
    endloop
  endfacet
  facet normal 0 0 1
    outer loop
      vertex 0 0 80
      vertex 1.5 1.5 80
      vertex 0 50 80
    endloop
  endfacet
  facet normal 1 -0 0
    outer loop
      vertex 65 0 80
      vertex 65 50 0
      vertex 65 50 80
    endloop
  endfacet
  facet normal 1 0 0
    outer loop
      vertex 65 50 0
      vertex 65 0 80
      vertex 65 0 0
    endloop
  endfacet
  facet normal 0 1 -0
    outer loop
      vertex 65 50 0
      vertex 0 50 80
      vertex 65 50 80
    endloop
  endfacet
  facet normal 0 1 0
    outer loop
      vertex 0 50 80
      vertex 65 50 0
      vertex 0 50 0
    endloop
  endfacet
  facet normal 0 0 -1
    outer loop
      vertex 0 0 0
      vertex 65 50 0
      vertex 65 0 0
    endloop
  endfacet
  facet normal -0 0 -1
    outer loop
      vertex 65 50 0
      vertex 0 0 0
      vertex 0 50 0
    endloop
  endfacet
  facet normal 0 -1 0
    outer loop
      vertex 0 0 0
      vertex 65 0 80
      vertex 0 0 80
    endloop
  endfacet
  facet normal 0 -1 -0
    outer loop
      vertex 65 0 80
      vertex 0 0 0
      vertex 65 0 0
    endloop
  endfacet
  facet normal 1 0 0
    outer loop
      vertex 1.5 48.5 80
      vertex 1.5 3 78.5
      vertex 1.5 48.5 1.5
    endloop
  endfacet
  facet normal 1 -0 0
    outer loop
      vertex 1.5 1.5 80
      vertex 1.5 3 78.5
      vertex 1.5 48.5 80
    endloop
  endfacet
  facet normal 1 0 0
    outer loop
      vertex 1.5 3 78.5
      vertex 1.5 1.5 80
      vertex 1.5 1.5 78.5
    endloop
  endfacet
  facet normal 1 0 0
    outer loop
      vertex 1.5 48.5 1.5
      vertex 1.5 3 78.5
      vertex 1.5 3 1.5
    endloop
  endfacet
  facet normal -1 0 0
    outer loop
      vertex 63.5 3 78.5
      vertex 63.5 48.5 1.5
      vertex 63.5 3 1.5
    endloop
  endfacet
  facet normal -1 0 0
    outer loop
      vertex 63.5 48.5 1.5
      vertex 63.5 3 78.5
      vertex 63.5 48.5 80
    endloop
  endfacet
  facet normal -1 0 0
    outer loop
      vertex 63.5 1.5 80
      vertex 63.5 3 78.5
      vertex 63.5 1.5 78.5
    endloop
  endfacet
  facet normal -1 0 0
    outer loop
      vertex 63.5 3 78.5
      vertex 63.5 1.5 80
      vertex 63.5 48.5 80
    endloop
  endfacet
  facet normal 0 0 1
    outer loop
      vertex 63.5 48.5 1.5
      vertex 58.5 3 1.5
      vertex 63.5 3 1.5
    endloop
  endfacet
  facet normal 0 0 1
    outer loop
      vertex 58.5 3 1.5
      vertex 6.5 3 1.5
      vertex 58.5 1.5 1.5
    endloop
  endfacet
  facet normal 0 0 1
    outer loop
      vertex 63.5 48.5 1.5
      vertex 6.5 3 1.5
      vertex 58.5 3 1.5
    endloop
  endfacet
  facet normal -0 0 1
    outer loop
      vertex 1.5 48.5 1.5
      vertex 6.5 3 1.5
      vertex 63.5 48.5 1.5
    endloop
  endfacet
  facet normal 0 0 1
    outer loop
      vertex 6.5 3 1.5
      vertex 1.5 48.5 1.5
      vertex 1.5 3 1.5
    endloop
  endfacet
  facet normal 0 0 1
    outer loop
      vertex 58.5 1.5 1.5
      vertex 6.5 3 1.5
      vertex 6.5 1.5 1.5
    endloop
  endfacet
  facet normal 0 1 -0
    outer loop
      vertex 58.5 1.5 1.5
      vertex 6.5 1.5 78.5
      vertex 58.5 1.5 78.5
    endloop
  endfacet
  facet normal 0 1 0
    outer loop
      vertex 6.5 1.5 78.5
      vertex 58.5 1.5 1.5
      vertex 6.5 1.5 1.5
    endloop
  endfacet
  facet normal 0 1 0
    outer loop
      vertex 58.5 1.5 78.5
      vertex 63.5 1.5 80
      vertex 63.5 1.5 78.5
    endloop
  endfacet
  facet normal 0 1 0
    outer loop
      vertex 63.5 1.5 80
      vertex 58.5 1.5 78.5
      vertex 1.5 1.5 80
    endloop
  endfacet
  facet normal 0 1 -0
    outer loop
      vertex 6.5 1.5 78.5
      vertex 1.5 1.5 80
      vertex 58.5 1.5 78.5
    endloop
  endfacet
  facet normal 0 1 0
    outer loop
      vertex 1.5 1.5 80
      vertex 6.5 1.5 78.5
      vertex 1.5 1.5 78.5
    endloop
  endfacet
  facet normal 0 -1 0
    outer loop
      vertex 1.5 48.5 1.5
      vertex 63.5 48.5 80
      vertex 1.5 48.5 80
    endloop
  endfacet
  facet normal 0 -1 -0
    outer loop
      vertex 63.5 48.5 80
      vertex 1.5 48.5 1.5
      vertex 63.5 48.5 1.5
    endloop
  endfacet
  facet normal -0 0 1
    outer loop
      vertex 1.5 3 78.5
      vertex 6.5 1.5 78.5
      vertex 6.5 3 78.5
    endloop
  endfacet
  facet normal 0 0 1
    outer loop
      vertex 6.5 1.5 78.5
      vertex 1.5 3 78.5
      vertex 1.5 1.5 78.5
    endloop
  endfacet
  facet normal 1 -0 0
    outer loop
      vertex 6.5 1.5 78.5
      vertex 6.5 3 1.5
      vertex 6.5 3 78.5
    endloop
  endfacet
  facet normal 1 0 0
    outer loop
      vertex 6.5 3 1.5
      vertex 6.5 1.5 78.5
      vertex 6.5 1.5 1.5
    endloop
  endfacet
  facet normal 0 1 -0
    outer loop
      vertex 6.5 3 1.5
      vertex 1.5 3 78.5
      vertex 6.5 3 78.5
    endloop
  endfacet
  facet normal 0 1 0
    outer loop
      vertex 1.5 3 78.5
      vertex 6.5 3 1.5
      vertex 1.5 3 1.5
    endloop
  endfacet
  facet normal -1 0 0
    outer loop
      vertex 58.5 1.5 1.5
      vertex 58.5 3 78.5
      vertex 58.5 3 1.5
    endloop
  endfacet
  facet normal -1 -0 0
    outer loop
      vertex 58.5 3 78.5
      vertex 58.5 1.5 1.5
      vertex 58.5 1.5 78.5
    endloop
  endfacet
  facet normal -0 0 1
    outer loop
      vertex 58.5 3 78.5
      vertex 63.5 1.5 78.5
      vertex 63.5 3 78.5
    endloop
  endfacet
  facet normal 0 0 1
    outer loop
      vertex 63.5 1.5 78.5
      vertex 58.5 3 78.5
      vertex 58.5 1.5 78.5
    endloop
  endfacet
  facet normal 0 1 -0
    outer loop
      vertex 63.5 3 1.5
      vertex 58.5 3 78.5
      vertex 63.5 3 78.5
    endloop
  endfacet
  facet normal 0 1 0
    outer loop
      vertex 58.5 3 78.5
      vertex 63.5 3 1.5
      vertex 58.5 3 1.5
    endloop
  endfacet
endsolid OpenSCAD_Model
