solid OpenSCAD_Model
  facet normal -1 0 0
    outer loop
      vertex 0 1.5 0
      vertex 0 0 0
      vertex 0 1.5 1.5
    endloop
  endfacet
  facet normal -1 0 0
    outer loop
      vertex 0 1.5 1.5
      vertex 0 75.5 46.5
      vertex 0 75.5 1.5
    endloop
  endfacet
  facet normal -1 0 0
    outer loop
      vertex 0 1.5 1.5
      vertex 0 0 46.5
      vertex 0 75.5 46.5
    endloop
  endfacet
  facet normal -1 0 0
    outer loop
      vertex 0 0 46.5
      vertex 0 1.5 1.5
      vertex 0 0 0
    endloop
  endfacet
  facet normal -0 0 1
    outer loop
      vertex 58.5 24.0667 46.5
      vertex 60 22.5667 46.5
      vertex 60 24.0667 46.5
    endloop
  endfacet
  facet normal 0 0 1
    outer loop
      vertex 60 22.5667 46.5
      vertex 58.5 24.0667 46.5
      vertex 58.5 22.5667 46.5
    endloop
  endfacet
  facet normal -0 0 1
    outer loop
      vertex 58.5 27.2667 46.5
      vertex 60 25.7667 46.5
      vertex 60 27.2667 46.5
    endloop
  endfacet
  facet normal 0 0 1
    outer loop
      vertex 60 25.7667 46.5
      vertex 58.5 27.2667 46.5
      vertex 58.5 25.7667 46.5
    endloop
  endfacet
  facet normal -0 0 1
    outer loop
      vertex 58.5 36.15 46.5
      vertex 60 34.65 46.5
      vertex 60 36.15 46.5
    endloop
  endfacet
  facet normal 0 0 1
    outer loop
      vertex 60 34.65 46.5
      vertex 58.5 36.15 46.5
      vertex 58.5 34.65 46.5
    endloop
  endfacet
  facet normal -0 0 1
    outer loop
      vertex 58.5 39.35 46.5
      vertex 60 37.85 46.5
      vertex 60 39.35 46.5
    endloop
  endfacet
  facet normal 0 0 1
    outer loop
      vertex 60 37.85 46.5
      vertex 58.5 39.35 46.5
      vertex 58.5 37.85 46.5
    endloop
  endfacet
  facet normal -0 0 1
    outer loop
      vertex 58.5 48.2333 46.5
      vertex 60 46.7333 46.5
      vertex 60 48.2333 46.5
    endloop
  endfacet
  facet normal 0 0 1
    outer loop
      vertex 60 46.7333 46.5
      vertex 58.5 48.2333 46.5
      vertex 58.5 46.7333 46.5
    endloop
  endfacet
  facet normal -0 0 1
    outer loop
      vertex 58.5 51.4333 46.5
      vertex 60 49.9333 46.5
      vertex 60 51.4333 46.5
    endloop
  endfacet
  facet normal 0 0 1
    outer loop
      vertex 60 49.9333 46.5
      vertex 58.5 51.4333 46.5
      vertex 58.5 49.9333 46.5
    endloop
  endfacet
  facet normal 0 0 1
    outer loop
      vertex 60 51.4333 46.5
      vertex 61.5 75.5 46.5
      vertex 60 74 46.5
    endloop
  endfacet
  facet normal 0 0 1
    outer loop
      vertex 61.5 75.5 46.5
      vertex 1.5 74 46.5
      vertex 60 74 46.5
    endloop
  endfacet
  facet normal 0 0 1
    outer loop
      vertex 0 75.5 46.5
      vertex 1.5 51.4333 46.5
      vertex 1.5 74 46.5
    endloop
  endfacet
  facet normal 0 0 1
    outer loop
      vertex 1.5 51.4333 46.5
      vertex 0 75.5 46.5
      vertex 1.5 49.9333 46.5
    endloop
  endfacet
  facet normal 0 0 1
    outer loop
      vertex 1.5 49.9333 46.5
      vertex 0 75.5 46.5
      vertex 1.5 48.2333 46.5
    endloop
  endfacet
  facet normal 0 0 1
    outer loop
      vertex 1.5 48.2333 46.5
      vertex 0 75.5 46.5
      vertex 1.5 46.7333 46.5
    endloop
  endfacet
  facet normal 0 0 1
    outer loop
      vertex 1.5 46.7333 46.5
      vertex 0 75.5 46.5
      vertex 1.5 39.35 46.5
    endloop
  endfacet
  facet normal 0 0 1
    outer loop
      vertex 1.5 39.35 46.5
      vertex 0 75.5 46.5
      vertex 1.5 37.85 46.5
    endloop
  endfacet
  facet normal 0 0 1
    outer loop
      vertex 1.5 37.85 46.5
      vertex 0 75.5 46.5
      vertex 1.5 36.15 46.5
    endloop
  endfacet
  facet normal 0 0 1
    outer loop
      vertex 1.5 36.15 46.5
      vertex 0 75.5 46.5
      vertex 1.5 34.65 46.5
    endloop
  endfacet
  facet normal 0 0 1
    outer loop
      vertex 0 0 46.5
      vertex 1.5 34.65 46.5
      vertex 0 75.5 46.5
    endloop
  endfacet
  facet normal 0 0 1
    outer loop
      vertex 1.5 34.65 46.5
      vertex 0 0 46.5
      vertex 1.5 27.2667 46.5
    endloop
  endfacet
  facet normal 0 0 1
    outer loop
      vertex 1.5 27.2667 46.5
      vertex 0 0 46.5
      vertex 1.5 25.7667 46.5
    endloop
  endfacet
  facet normal 0 0 1
    outer loop
      vertex 1.5 25.7667 46.5
      vertex 0 0 46.5
      vertex 1.5 24.0667 46.5
    endloop
  endfacet
  facet normal 0 0 1
    outer loop
      vertex 1.5 24.0667 46.5
      vertex 0 0 46.5
      vertex 1.5 22.5667 46.5
    endloop
  endfacet
  facet normal -0 0 1
    outer loop
      vertex 0 75.5 46.5
      vertex 1.5 74 46.5
      vertex 61.5 75.5 46.5
    endloop
  endfacet
  facet normal 0 0 1
    outer loop
      vertex 60 49.9333 46.5
      vertex 61.5 75.5 46.5
      vertex 60 51.4333 46.5
    endloop
  endfacet
  facet normal 0 0 1
    outer loop
      vertex 60 48.2333 46.5
      vertex 61.5 75.5 46.5
      vertex 60 49.9333 46.5
    endloop
  endfacet
  facet normal 0 0 1
    outer loop
      vertex 60 46.7333 46.5
      vertex 61.5 75.5 46.5
      vertex 60 48.2333 46.5
    endloop
  endfacet
  facet normal 0 0 1
    outer loop
      vertex 60 39.35 46.5
      vertex 61.5 75.5 46.5
      vertex 60 46.7333 46.5
    endloop
  endfacet
  facet normal 0 0 1
    outer loop
      vertex 61.5 75.5 46.5
      vertex 60 39.35 46.5
      vertex 61.5 0 46.5
    endloop
  endfacet
  facet normal -0 0 1
    outer loop
      vertex 60 37.85 46.5
      vertex 61.5 0 46.5
      vertex 60 39.35 46.5
    endloop
  endfacet
  facet normal -0 0 1
    outer loop
      vertex 60 36.15 46.5
      vertex 61.5 0 46.5
      vertex 60 37.85 46.5
    endloop
  endfacet
  facet normal -0 0 1
    outer loop
      vertex 60 34.65 46.5
      vertex 61.5 0 46.5
      vertex 60 36.15 46.5
    endloop
  endfacet
  facet normal -0 0 1
    outer loop
      vertex 60 27.2667 46.5
      vertex 61.5 0 46.5
      vertex 60 34.65 46.5
    endloop
  endfacet
  facet normal -0 0 1
    outer loop
      vertex 60 25.7667 46.5
      vertex 61.5 0 46.5
      vertex 60 27.2667 46.5
    endloop
  endfacet
  facet normal -0 0 1
    outer loop
      vertex 60 24.0667 46.5
      vertex 61.5 0 46.5
      vertex 60 25.7667 46.5
    endloop
  endfacet
  facet normal -0 0 1
    outer loop
      vertex 60 22.5667 46.5
      vertex 61.5 0 46.5
      vertex 60 24.0667 46.5
    endloop
  endfacet
  facet normal -0 0 1
    outer loop
      vertex 60 1.5 46.5
      vertex 61.5 0 46.5
      vertex 60 22.5667 46.5
    endloop
  endfacet
  facet normal -0 0 1
    outer loop
      vertex 1.5 1.5 46.5
      vertex 61.5 0 46.5
      vertex 60 1.5 46.5
    endloop
  endfacet
  facet normal 0 0 1
    outer loop
      vertex 1.5 1.5 46.5
      vertex 0 0 46.5
      vertex 61.5 0 46.5
    endloop
  endfacet
  facet normal 0 0 1
    outer loop
      vertex 1.5 22.5667 46.5
      vertex 0 0 46.5
      vertex 1.5 1.5 46.5
    endloop
  endfacet
  facet normal -0 0 1
    outer loop
      vertex 1.5 51.4333 46.5
      vertex 3 49.9333 46.5
      vertex 3 51.4333 46.5
    endloop
  endfacet
  facet normal 0 0 1
    outer loop
      vertex 3 49.9333 46.5
      vertex 1.5 51.4333 46.5
      vertex 1.5 49.9333 46.5
    endloop
  endfacet
  facet normal -0 0 1
    outer loop
      vertex 1.5 48.2333 46.5
      vertex 3 46.7333 46.5
      vertex 3 48.2333 46.5
    endloop
  endfacet
  facet normal 0 0 1
    outer loop
      vertex 3 46.7333 46.5
      vertex 1.5 48.2333 46.5
      vertex 1.5 46.7333 46.5
    endloop
  endfacet
  facet normal -0 0 1
    outer loop
      vertex 1.5 39.35 46.5
      vertex 3 37.85 46.5
      vertex 3 39.35 46.5
    endloop
  endfacet
  facet normal 0 0 1
    outer loop
      vertex 3 37.85 46.5
      vertex 1.5 39.35 46.5
      vertex 1.5 37.85 46.5
    endloop
  endfacet
  facet normal -0 0 1
    outer loop
      vertex 1.5 36.15 46.5
      vertex 3 34.65 46.5
      vertex 3 36.15 46.5
    endloop
  endfacet
  facet normal 0 0 1
    outer loop
      vertex 3 34.65 46.5
      vertex 1.5 36.15 46.5
      vertex 1.5 34.65 46.5
    endloop
  endfacet
  facet normal -0 0 1
    outer loop
      vertex 1.5 27.2667 46.5
      vertex 3 25.7667 46.5
      vertex 3 27.2667 46.5
    endloop
  endfacet
  facet normal 0 0 1
    outer loop
      vertex 3 25.7667 46.5
      vertex 1.5 27.2667 46.5
      vertex 1.5 25.7667 46.5
    endloop
  endfacet
  facet normal -0 0 1
    outer loop
      vertex 1.5 24.0667 46.5
      vertex 3 22.5667 46.5
      vertex 3 24.0667 46.5
    endloop
  endfacet
  facet normal 0 0 1
    outer loop
      vertex 3 22.5667 46.5
      vertex 1.5 24.0667 46.5
      vertex 1.5 22.5667 46.5
    endloop
  endfacet
  facet normal 1 0 0
    outer loop
      vertex 61.5 75.5 46.5
      vertex 61.5 1.5 1.5
      vertex 61.5 75.5 1.5
    endloop
  endfacet
  facet normal 1 -0 0
    outer loop
      vertex 61.5 0 46.5
      vertex 61.5 1.5 1.5
      vertex 61.5 75.5 46.5
    endloop
  endfacet
  facet normal 1 0 0
    outer loop
      vertex 61.5 0 0
      vertex 61.5 1.5 1.5
      vertex 61.5 0 46.5
    endloop
  endfacet
  facet normal 1 0 0
    outer loop
      vertex 61.5 1.5 1.5
      vertex 61.5 0 0
      vertex 61.5 1.5 0
    endloop
  endfacet
  facet normal 0 1 -0
    outer loop
      vertex 56 75.5 0
      vertex 5.5 75.5 1.5
      vertex 56 75.5 1.5
    endloop
  endfacet
  facet normal 0 1 0
    outer loop
      vertex 5.5 75.5 1.5
      vertex 56 75.5 0
      vertex 5.5 75.5 0
    endloop
  endfacet
  facet normal 0 1 0
    outer loop
      vertex 56 75.5 1.5
      vertex 61.5 75.5 46.5
      vertex 61.5 75.5 1.5
    endloop
  endfacet
  facet normal 0 1 0
    outer loop
      vertex 61.5 75.5 46.5
      vertex 56 75.5 1.5
      vertex 0 75.5 46.5
    endloop
  endfacet
  facet normal 0 1 -0
    outer loop
      vertex 5.5 75.5 1.5
      vertex 0 75.5 46.5
      vertex 56 75.5 1.5
    endloop
  endfacet
  facet normal 0 1 0
    outer loop
      vertex 0 75.5 46.5
      vertex 5.5 75.5 1.5
      vertex 0 75.5 1.5
    endloop
  endfacet
  facet normal 0 0 -1
    outer loop
      vertex 61.5 0 0
      vertex 56 1.5 0
      vertex 61.5 1.5 0
    endloop
  endfacet
  facet normal 0 0 -1
    outer loop
      vertex 56 1.5 0
      vertex 5.5 1.5 0
      vertex 56 75.5 0
    endloop
  endfacet
  facet normal 0 0 -1
    outer loop
      vertex 61.5 0 0
      vertex 5.5 1.5 0
      vertex 56 1.5 0
    endloop
  endfacet
  facet normal 0 0 -1
    outer loop
      vertex 0 0 0
      vertex 5.5 1.5 0
      vertex 61.5 0 0
    endloop
  endfacet
  facet normal -0 0 -1
    outer loop
      vertex 5.5 1.5 0
      vertex 0 0 0
      vertex 0 1.5 0
    endloop
  endfacet
  facet normal -0 0 -1
    outer loop
      vertex 56 75.5 0
      vertex 5.5 1.5 0
      vertex 5.5 75.5 0
    endloop
  endfacet
  facet normal 0 -1 0
    outer loop
      vertex 0 0 46.5
      vertex 13.5 0 26.25
      vertex 61.5 0 46.5
    endloop
  endfacet
  facet normal 0 -1 0
    outer loop
      vertex 0 0 46.5
      vertex 7.5 0 24.25
      vertex 13.5 0 26.25
    endloop
  endfacet
  facet normal 0 -1 0
    outer loop
      vertex 0 0 46.5
      vertex 7.19098 0 24.2011
      vertex 7.5 0 24.25
    endloop
  endfacet
  facet normal 0 -1 0
    outer loop
      vertex 0 0 46.5
      vertex 6.91221 0 24.059
      vertex 7.19098 0 24.2011
    endloop
  endfacet
  facet normal 0 -1 0
    outer loop
      vertex 0 0 46.5
      vertex 6.69098 0 23.8378
      vertex 6.91221 0 24.059
    endloop
  endfacet
  facet normal 0 -1 0
    outer loop
      vertex 0 0 46.5
      vertex 6.54894 0 23.559
      vertex 6.69098 0 23.8378
    endloop
  endfacet
  facet normal 0 -1 0
    outer loop
      vertex 0 0 46.5
      vertex 6.5 0 23.25
      vertex 6.54894 0 23.559
    endloop
  endfacet
  facet normal 0 -1 0
    outer loop
      vertex 0 0 0
      vertex 6.5 0 23.25
      vertex 0 0 46.5
    endloop
  endfacet
  facet normal 0 -1 0
    outer loop
      vertex 0 0 0
      vertex 7.5 0 22.25
      vertex 7.19098 0 22.2989
    endloop
  endfacet
  facet normal 0 -1 0
    outer loop
      vertex 61.5 0 0
      vertex 13.5 0 20.25
      vertex 0 0 0
    endloop
  endfacet
  facet normal 0 -1 -0
    outer loop
      vertex 7.5 0 22.25
      vertex 0 0 0
      vertex 13.5 0 20.25
    endloop
  endfacet
  facet normal 0 -1 -0
    outer loop
      vertex 6.91221 0 22.441
      vertex 0 0 0
      vertex 7.19098 0 22.2989
    endloop
  endfacet
  facet normal 0 -1 -0
    outer loop
      vertex 6.69098 0 22.6622
      vertex 0 0 0
      vertex 6.91221 0 22.441
    endloop
  endfacet
  facet normal 0 -1 -0
    outer loop
      vertex 6.54894 0 22.941
      vertex 0 0 0
      vertex 6.69098 0 22.6622
    endloop
  endfacet
  facet normal 0 -1 -0
    outer loop
      vertex 6.5 0 23.25
      vertex 0 0 0
      vertex 6.54894 0 22.941
    endloop
  endfacet
  facet normal 0 -1 0
    outer loop
      vertex 51.5 0 26.25
      vertex 61.5 0 46.5
      vertex 13.5 0 26.25
    endloop
  endfacet
  facet normal 0 -1 0
    outer loop
      vertex 51.5 0 20.25
      vertex 61.5 0 46.5
      vertex 51.5 0 26.25
    endloop
  endfacet
  facet normal 0 -1 0
    outer loop
      vertex 51.5 0 20.25
      vertex 61.5 0 0
      vertex 61.5 0 46.5
    endloop
  endfacet
  facet normal 0 -1 0
    outer loop
      vertex 13.5 0 20.25
      vertex 61.5 0 0
      vertex 51.5 0 20.25
    endloop
  endfacet
  facet normal 0 -1 0
    outer loop
      vertex 7.80902 0 24.2011
      vertex 13.5 0 26.25
      vertex 7.5 0 24.25
    endloop
  endfacet
  facet normal 0 -1 0
    outer loop
      vertex 8.08778 0 24.059
      vertex 13.5 0 26.25
      vertex 7.80902 0 24.2011
    endloop
  endfacet
  facet normal 0 -1 0
    outer loop
      vertex 8.30902 0 23.8378
      vertex 13.5 0 26.25
      vertex 8.08778 0 24.059
    endloop
  endfacet
  facet normal 0 -1 0
    outer loop
      vertex 8.45106 0 23.559
      vertex 13.5 0 26.25
      vertex 8.30902 0 23.8378
    endloop
  endfacet
  facet normal 0 -1 0
    outer loop
      vertex 8.5 0 23.25
      vertex 13.5 0 26.25
      vertex 8.45106 0 23.559
    endloop
  endfacet
  facet normal 0 -1 0
    outer loop
      vertex 13.5 0 20.25
      vertex 8.5 0 23.25
      vertex 8.45106 0 22.941
    endloop
  endfacet
  facet normal 0 -1 0
    outer loop
      vertex 13.5 0 20.25
      vertex 8.45106 0 22.941
      vertex 8.30902 0 22.6622
    endloop
  endfacet
  facet normal 0 -1 0
    outer loop
      vertex 13.5 0 20.25
      vertex 8.30902 0 22.6622
      vertex 8.08778 0 22.441
    endloop
  endfacet
  facet normal 0 -1 0
    outer loop
      vertex 8.5 0 23.25
      vertex 13.5 0 20.25
      vertex 13.5 0 26.25
    endloop
  endfacet
  facet normal 0 -1 0
    outer loop
      vertex 7.80902 0 22.2989
      vertex 13.5 0 20.25
      vertex 8.08778 0 22.441
    endloop
  endfacet
  facet normal 0 -1 0
    outer loop
      vertex 13.5 0 20.25
      vertex 7.80902 0 22.2989
      vertex 7.5 0 22.25
    endloop
  endfacet
  facet normal 1 -0 0
    outer loop
      vertex 1.5 1.5 46.5
      vertex 1.5 22.5667 3
      vertex 1.5 22.5667 46.5
    endloop
  endfacet
  facet normal 1 0 0
    outer loop
      vertex 1.5 22.5667 3
      vertex 1.5 1.5 46.5
      vertex 1.5 1.5 3
    endloop
  endfacet
  facet normal 1 -0 0
    outer loop
      vertex 1.5 24.0667 46.5
      vertex 1.5 25.7667 3
      vertex 1.5 25.7667 46.5
    endloop
  endfacet
  facet normal 1 0 0
    outer loop
      vertex 1.5 25.7667 3
      vertex 1.5 24.0667 46.5
      vertex 1.5 24.0667 3
    endloop
  endfacet
  facet normal 1 -0 0
    outer loop
      vertex 1.5 27.2667 46.5
      vertex 1.5 34.65 3
      vertex 1.5 34.65 46.5
    endloop
  endfacet
  facet normal 1 0 0
    outer loop
      vertex 1.5 34.65 3
      vertex 1.5 27.2667 46.5
      vertex 1.5 27.2667 3
    endloop
  endfacet
  facet normal 1 -0 0
    outer loop
      vertex 1.5 48.2333 46.5
      vertex 1.5 49.9333 3
      vertex 1.5 49.9333 46.5
    endloop
  endfacet
  facet normal 1 0 0
    outer loop
      vertex 1.5 49.9333 3
      vertex 1.5 48.2333 46.5
      vertex 1.5 48.2333 3
    endloop
  endfacet
  facet normal 1 -0 0
    outer loop
      vertex 1.5 51.4333 46.5
      vertex 1.5 74 3
      vertex 1.5 74 46.5
    endloop
  endfacet
  facet normal 1 0 0
    outer loop
      vertex 1.5 74 3
      vertex 1.5 51.4333 46.5
      vertex 1.5 51.4333 3
    endloop
  endfacet
  facet normal 1 -0 0
    outer loop
      vertex 1.5 39.35 46.5
      vertex 1.5 46.7333 3
      vertex 1.5 46.7333 46.5
    endloop
  endfacet
  facet normal 1 0 0
    outer loop
      vertex 1.5 46.7333 3
      vertex 1.5 39.35 46.5
      vertex 1.5 39.35 3
    endloop
  endfacet
  facet normal 1 -0 0
    outer loop
      vertex 1.5 36.15 46.5
      vertex 1.5 37.85 3
      vertex 1.5 37.85 46.5
    endloop
  endfacet
  facet normal 1 0 0
    outer loop
      vertex 1.5 37.85 3
      vertex 1.5 36.15 46.5
      vertex 1.5 36.15 3
    endloop
  endfacet
  facet normal -1 0 0
    outer loop
      vertex 60 36.15 3
      vertex 60 37.85 46.5
      vertex 60 37.85 3
    endloop
  endfacet
  facet normal -1 -0 0
    outer loop
      vertex 60 37.85 46.5
      vertex 60 36.15 3
      vertex 60 36.15 46.5
    endloop
  endfacet
  facet normal -1 0 0
    outer loop
      vertex 60 39.35 3
      vertex 60 46.7333 46.5
      vertex 60 46.7333 3
    endloop
  endfacet
  facet normal -1 -0 0
    outer loop
      vertex 60 46.7333 46.5
      vertex 60 39.35 3
      vertex 60 39.35 46.5
    endloop
  endfacet
  facet normal -1 0 0
    outer loop
      vertex 60 27.2667 3
      vertex 60 34.65 46.5
      vertex 60 34.65 3
    endloop
  endfacet
  facet normal -1 -0 0
    outer loop
      vertex 60 34.65 46.5
      vertex 60 27.2667 3
      vertex 60 27.2667 46.5
    endloop
  endfacet
  facet normal -1 0 0
    outer loop
      vertex 60 48.2333 3
      vertex 60 49.9333 46.5
      vertex 60 49.9333 3
    endloop
  endfacet
  facet normal -1 -0 0
    outer loop
      vertex 60 49.9333 46.5
      vertex 60 48.2333 3
      vertex 60 48.2333 46.5
    endloop
  endfacet
  facet normal -1 0 0
    outer loop
      vertex 60 51.4333 3
      vertex 60 74 46.5
      vertex 60 74 3
    endloop
  endfacet
  facet normal -1 -0 0
    outer loop
      vertex 60 74 46.5
      vertex 60 51.4333 3
      vertex 60 51.4333 46.5
    endloop
  endfacet
  facet normal -1 0 0
    outer loop
      vertex 60 1.5 3
      vertex 60 22.5667 46.5
      vertex 60 22.5667 3
    endloop
  endfacet
  facet normal -1 -0 0
    outer loop
      vertex 60 22.5667 46.5
      vertex 60 1.5 3
      vertex 60 1.5 46.5
    endloop
  endfacet
  facet normal -1 0 0
    outer loop
      vertex 60 24.0667 3
      vertex 60 25.7667 46.5
      vertex 60 25.7667 3
    endloop
  endfacet
  facet normal -1 -0 0
    outer loop
      vertex 60 25.7667 46.5
      vertex 60 24.0667 3
      vertex 60 24.0667 46.5
    endloop
  endfacet
  facet normal 0 1 -0
    outer loop
      vertex 8.30902 1.5 23.8378
      vertex 1.5 1.5 46.5
      vertex 60 1.5 46.5
    endloop
  endfacet
  facet normal 0 1 0
    outer loop
      vertex 1.5 1.5 46.5
      vertex 7.80902 1.5 24.2011
      vertex 7.5 1.5 24.25
    endloop
  endfacet
  facet normal 0 1 0
    outer loop
      vertex 1.5 1.5 46.5
      vertex 8.08778 1.5 24.059
      vertex 7.80902 1.5 24.2011
    endloop
  endfacet
  facet normal 0 1 0
    outer loop
      vertex 1.5 1.5 46.5
      vertex 8.30902 1.5 23.8378
      vertex 8.08778 1.5 24.059
    endloop
  endfacet
  facet normal 0 1 0
    outer loop
      vertex 60 1.5 46.5
      vertex 8.45106 1.5 23.559
      vertex 8.30902 1.5 23.8378
    endloop
  endfacet
  facet normal 0 1 0
    outer loop
      vertex 60 1.5 46.5
      vertex 8.5 1.5 23.25
      vertex 8.45106 1.5 23.559
    endloop
  endfacet
  facet normal 0 1 -0
    outer loop
      vertex 60 1.5 3
      vertex 8.5 1.5 23.25
      vertex 60 1.5 46.5
    endloop
  endfacet
  facet normal 0 1 0
    outer loop
      vertex 8.5 1.5 23.25
      vertex 60 1.5 3
      vertex 8.45106 1.5 22.941
    endloop
  endfacet
  facet normal 0 1 0
    outer loop
      vertex 8.45106 1.5 22.941
      vertex 60 1.5 3
      vertex 8.30902 1.5 22.6622
    endloop
  endfacet
  facet normal 0 1 0
    outer loop
      vertex 1.5 1.5 3
      vertex 8.30902 1.5 22.6622
      vertex 60 1.5 3
    endloop
  endfacet
  facet normal 0 1 0
    outer loop
      vertex 8.08778 1.5 22.441
      vertex 1.5 1.5 3
      vertex 7.80902 1.5 22.2989
    endloop
  endfacet
  facet normal 0 1 0
    outer loop
      vertex 8.30902 1.5 22.6622
      vertex 1.5 1.5 3
      vertex 8.08778 1.5 22.441
    endloop
  endfacet
  facet normal 0 1 -0
    outer loop
      vertex 7.19098 1.5 24.2011
      vertex 1.5 1.5 46.5
      vertex 7.5 1.5 24.25
    endloop
  endfacet
  facet normal 0 1 -0
    outer loop
      vertex 6.91221 1.5 24.059
      vertex 1.5 1.5 46.5
      vertex 7.19098 1.5 24.2011
    endloop
  endfacet
  facet normal 0 1 -0
    outer loop
      vertex 6.69098 1.5 23.8378
      vertex 1.5 1.5 46.5
      vertex 6.91221 1.5 24.059
    endloop
  endfacet
  facet normal 0 1 -0
    outer loop
      vertex 6.54894 1.5 23.559
      vertex 1.5 1.5 46.5
      vertex 6.69098 1.5 23.8378
    endloop
  endfacet
  facet normal 0 1 -0
    outer loop
      vertex 6.5 1.5 23.25
      vertex 1.5 1.5 46.5
      vertex 6.54894 1.5 23.559
    endloop
  endfacet
  facet normal 0 1 0
    outer loop
      vertex 1.5 1.5 3
      vertex 6.5 1.5 23.25
      vertex 6.54894 1.5 22.941
    endloop
  endfacet
  facet normal 0 1 0
    outer loop
      vertex 7.80902 1.5 22.2989
      vertex 1.5 1.5 3
      vertex 7.5 1.5 22.25
    endloop
  endfacet
  facet normal 0 1 0
    outer loop
      vertex 6.5 1.5 23.25
      vertex 1.5 1.5 3
      vertex 1.5 1.5 46.5
    endloop
  endfacet
  facet normal 0 1 0
    outer loop
      vertex 6.69098 1.5 22.6622
      vertex 1.5 1.5 3
      vertex 6.54894 1.5 22.941
    endloop
  endfacet
  facet normal 0 1 0
    outer loop
      vertex 6.91221 1.5 22.441
      vertex 1.5 1.5 3
      vertex 6.69098 1.5 22.6622
    endloop
  endfacet
  facet normal 0 1 0
    outer loop
      vertex 7.19098 1.5 22.2989
      vertex 1.5 1.5 3
      vertex 6.91221 1.5 22.441
    endloop
  endfacet
  facet normal 0 1 0
    outer loop
      vertex 7.5 1.5 22.25
      vertex 1.5 1.5 3
      vertex 7.19098 1.5 22.2989
    endloop
  endfacet
  facet normal 0 -1 0
    outer loop
      vertex 1.5 74 3
      vertex 60 74 46.5
      vertex 1.5 74 46.5
    endloop
  endfacet
  facet normal 0 -1 -0
    outer loop
      vertex 60 74 46.5
      vertex 1.5 74 3
      vertex 60 74 3
    endloop
  endfacet
  facet normal -0 0 1
    outer loop
      vertex 1.5 25.7667 3
      vertex 3 24.0667 3
      vertex 3 25.7667 3
    endloop
  endfacet
  facet normal 0 0 1
    outer loop
      vertex 3 24.0667 3
      vertex 1.5 25.7667 3
      vertex 1.5 24.0667 3
    endloop
  endfacet
  facet normal -0 0 1
    outer loop
      vertex 1.5 34.65 3
      vertex 3 27.2667 3
      vertex 3 34.65 3
    endloop
  endfacet
  facet normal 0 0 1
    outer loop
      vertex 3 27.2667 3
      vertex 1.5 34.65 3
      vertex 1.5 27.2667 3
    endloop
  endfacet
  facet normal -0 0 1
    outer loop
      vertex 1.5 37.85 3
      vertex 3 36.15 3
      vertex 3 37.85 3
    endloop
  endfacet
  facet normal 0 0 1
    outer loop
      vertex 3 36.15 3
      vertex 1.5 37.85 3
      vertex 1.5 36.15 3
    endloop
  endfacet
  facet normal -0 0 1
    outer loop
      vertex 1.5 46.7333 3
      vertex 3 39.35 3
      vertex 3 46.7333 3
    endloop
  endfacet
  facet normal 0 0 1
    outer loop
      vertex 3 39.35 3
      vertex 1.5 46.7333 3
      vertex 1.5 39.35 3
    endloop
  endfacet
  facet normal -0 0 1
    outer loop
      vertex 1.5 49.9333 3
      vertex 3 48.2333 3
      vertex 3 49.9333 3
    endloop
  endfacet
  facet normal 0 0 1
    outer loop
      vertex 3 48.2333 3
      vertex 1.5 49.9333 3
      vertex 1.5 48.2333 3
    endloop
  endfacet
  facet normal 0 0 1
    outer loop
      vertex 60 74 3
      vertex 58.5 51.4333 3
      vertex 60 51.4333 3
    endloop
  endfacet
  facet normal 0 0 1
    outer loop
      vertex 3 49.9333 3
      vertex 58.5 49.9333 3
      vertex 58.5 51.4333 3
    endloop
  endfacet
  facet normal 0 0 1
    outer loop
      vertex 58.5 49.9333 3
      vertex 3 49.9333 3
      vertex 58.5 48.2333 3
    endloop
  endfacet
  facet normal 0 0 1
    outer loop
      vertex 58.5 48.2333 3
      vertex 3 48.2333 3
      vertex 58.5 46.7333 3
    endloop
  endfacet
  facet normal 0 0 1
    outer loop
      vertex 58.5 46.7333 3
      vertex 3 46.7333 3
      vertex 58.5 39.35 3
    endloop
  endfacet
  facet normal 0 0 1
    outer loop
      vertex 3 39.35 3
      vertex 58.5 39.35 3
      vertex 3 46.7333 3
    endloop
  endfacet
  facet normal 0 0 1
    outer loop
      vertex 58.5 39.35 3
      vertex 3 39.35 3
      vertex 58.5 37.85 3
    endloop
  endfacet
  facet normal 0 0 1
    outer loop
      vertex 58.5 37.85 3
      vertex 3 37.85 3
      vertex 58.5 36.15 3
    endloop
  endfacet
  facet normal 0 0 1
    outer loop
      vertex 3 36.15 3
      vertex 58.5 36.15 3
      vertex 3 37.85 3
    endloop
  endfacet
  facet normal 0 0 1
    outer loop
      vertex 3 34.65 3
      vertex 58.5 34.65 3
      vertex 3 36.15 3
    endloop
  endfacet
  facet normal 0 0 1
    outer loop
      vertex 58.5 34.65 3
      vertex 3 34.65 3
      vertex 58.5 27.2667 3
    endloop
  endfacet
  facet normal 0 0 1
    outer loop
      vertex 3 49.9333 3
      vertex 58.5 51.4333 3
      vertex 3 51.4333 3
    endloop
  endfacet
  facet normal 0 0 1
    outer loop
      vertex 60 74 3
      vertex 3 51.4333 3
      vertex 58.5 51.4333 3
    endloop
  endfacet
  facet normal -0 0 1
    outer loop
      vertex 1.5 74 3
      vertex 3 51.4333 3
      vertex 60 74 3
    endloop
  endfacet
  facet normal 0 0 1
    outer loop
      vertex 3 51.4333 3
      vertex 1.5 74 3
      vertex 1.5 51.4333 3
    endloop
  endfacet
  facet normal -0 0 1
    outer loop
      vertex 58.5 49.9333 3
      vertex 60 48.2333 3
      vertex 60 49.9333 3
    endloop
  endfacet
  facet normal 0 0 1
    outer loop
      vertex 60 48.2333 3
      vertex 58.5 49.9333 3
      vertex 58.5 48.2333 3
    endloop
  endfacet
  facet normal -0 0 1
    outer loop
      vertex 58.5 46.7333 3
      vertex 60 39.35 3
      vertex 60 46.7333 3
    endloop
  endfacet
  facet normal 0 0 1
    outer loop
      vertex 60 39.35 3
      vertex 58.5 46.7333 3
      vertex 58.5 39.35 3
    endloop
  endfacet
  facet normal -0 0 1
    outer loop
      vertex 58.5 37.85 3
      vertex 60 36.15 3
      vertex 60 37.85 3
    endloop
  endfacet
  facet normal 0 0 1
    outer loop
      vertex 60 36.15 3
      vertex 58.5 37.85 3
      vertex 58.5 36.15 3
    endloop
  endfacet
  facet normal -0 0 1
    outer loop
      vertex 58.5 34.65 3
      vertex 60 27.2667 3
      vertex 60 34.65 3
    endloop
  endfacet
  facet normal 0 0 1
    outer loop
      vertex 60 27.2667 3
      vertex 58.5 34.65 3
      vertex 58.5 27.2667 3
    endloop
  endfacet
  facet normal -0 0 1
    outer loop
      vertex 58.5 25.7667 3
      vertex 60 24.0667 3
      vertex 60 25.7667 3
    endloop
  endfacet
  facet normal 0 0 1
    outer loop
      vertex 60 24.0667 3
      vertex 58.5 25.7667 3
      vertex 58.5 24.0667 3
    endloop
  endfacet
  facet normal -0 0 1
    outer loop
      vertex 58.5 22.5667 3
      vertex 60 1.5 3
      vertex 60 22.5667 3
    endloop
  endfacet
  facet normal 0 0 1
    outer loop
      vertex 58.5 48.2333 3
      vertex 3 49.9333 3
      vertex 3 48.2333 3
    endloop
  endfacet
  facet normal 0 0 1
    outer loop
      vertex 58.5 46.7333 3
      vertex 3 48.2333 3
      vertex 3 46.7333 3
    endloop
  endfacet
  facet normal 0 0 1
    outer loop
      vertex 3 37.85 3
      vertex 58.5 37.85 3
      vertex 3 39.35 3
    endloop
  endfacet
  facet normal 0 0 1
    outer loop
      vertex 58.5 36.15 3
      vertex 3 36.15 3
      vertex 58.5 34.65 3
    endloop
  endfacet
  facet normal 0 0 1
    outer loop
      vertex 3 27.2667 3
      vertex 58.5 27.2667 3
      vertex 3 34.65 3
    endloop
  endfacet
  facet normal 0 0 1
    outer loop
      vertex 58.5 27.2667 3
      vertex 3 27.2667 3
      vertex 58.5 25.7667 3
    endloop
  endfacet
  facet normal 0 0 1
    outer loop
      vertex 3 25.7667 3
      vertex 58.5 25.7667 3
      vertex 3 27.2667 3
    endloop
  endfacet
  facet normal 0 0 1
    outer loop
      vertex 58.5 25.7667 3
      vertex 3 25.7667 3
      vertex 58.5 24.0667 3
    endloop
  endfacet
  facet normal 0 0 1
    outer loop
      vertex 3 24.0667 3
      vertex 58.5 24.0667 3
      vertex 3 25.7667 3
    endloop
  endfacet
  facet normal 0 0 1
    outer loop
      vertex 58.5 24.0667 3
      vertex 3 24.0667 3
      vertex 58.5 22.5667 3
    endloop
  endfacet
  facet normal 0 0 1
    outer loop
      vertex 3 22.5667 3
      vertex 58.5 22.5667 3
      vertex 3 24.0667 3
    endloop
  endfacet
  facet normal 0 0 1
    outer loop
      vertex 58.5 22.5667 3
      vertex 3 22.5667 3
      vertex 60 1.5 3
    endloop
  endfacet
  facet normal 0 0 1
    outer loop
      vertex 1.5 1.5 3
      vertex 3 22.5667 3
      vertex 1.5 22.5667 3
    endloop
  endfacet
  facet normal 0 0 1
    outer loop
      vertex 3 22.5667 3
      vertex 1.5 1.5 3
      vertex 60 1.5 3
    endloop
  endfacet
  facet normal 0 0 -1
    outer loop
      vertex 1.5 22.5667 1.5
      vertex 3 24.0667 1.5
      vertex 3 22.5667 1.5
    endloop
  endfacet
  facet normal -0 0 -1
    outer loop
      vertex 3 24.0667 1.5
      vertex 1.5 22.5667 1.5
      vertex 1.5 24.0667 1.5
    endloop
  endfacet
  facet normal 0 0 -1
    outer loop
      vertex 1.5 25.7667 1.5
      vertex 3 27.2667 1.5
      vertex 3 25.7667 1.5
    endloop
  endfacet
  facet normal -0 0 -1
    outer loop
      vertex 3 27.2667 1.5
      vertex 1.5 25.7667 1.5
      vertex 1.5 27.2667 1.5
    endloop
  endfacet
  facet normal 0 0 -1
    outer loop
      vertex 1.5 49.9333 1.5
      vertex 3 51.4333 1.5
      vertex 3 49.9333 1.5
    endloop
  endfacet
  facet normal -0 0 -1
    outer loop
      vertex 3 51.4333 1.5
      vertex 1.5 49.9333 1.5
      vertex 1.5 51.4333 1.5
    endloop
  endfacet
  facet normal 0 0 -1
    outer loop
      vertex 1.5 46.7333 1.5
      vertex 3 48.2333 1.5
      vertex 3 46.7333 1.5
    endloop
  endfacet
  facet normal -0 0 -1
    outer loop
      vertex 3 48.2333 1.5
      vertex 1.5 46.7333 1.5
      vertex 1.5 48.2333 1.5
    endloop
  endfacet
  facet normal 0 0 -1
    outer loop
      vertex 1.5 37.85 1.5
      vertex 3 39.35 1.5
      vertex 3 37.85 1.5
    endloop
  endfacet
  facet normal -0 0 -1
    outer loop
      vertex 3 39.35 1.5
      vertex 1.5 37.85 1.5
      vertex 1.5 39.35 1.5
    endloop
  endfacet
  facet normal 0 0 -1
    outer loop
      vertex 1.5 34.65 1.5
      vertex 3 36.15 1.5
      vertex 3 34.65 1.5
    endloop
  endfacet
  facet normal -0 0 -1
    outer loop
      vertex 3 36.15 1.5
      vertex 1.5 34.65 1.5
      vertex 1.5 36.15 1.5
    endloop
  endfacet
  facet normal 0 0 -1
    outer loop
      vertex 1.5 48.2333 1.5
      vertex 3 49.9333 1.5
      vertex 3 48.2333 1.5
    endloop
  endfacet
  facet normal -0 0 -1
    outer loop
      vertex 3 49.9333 1.5
      vertex 1.5 48.2333 1.5
      vertex 1.5 49.9333 1.5
    endloop
  endfacet
  facet normal 0 0 -1
    outer loop
      vertex 1.5 39.35 1.5
      vertex 3 46.7333 1.5
      vertex 3 39.35 1.5
    endloop
  endfacet
  facet normal -0 0 -1
    outer loop
      vertex 3 46.7333 1.5
      vertex 1.5 39.35 1.5
      vertex 1.5 46.7333 1.5
    endloop
  endfacet
  facet normal 0 0 -1
    outer loop
      vertex 1.5 36.15 1.5
      vertex 3 37.85 1.5
      vertex 3 36.15 1.5
    endloop
  endfacet
  facet normal -0 0 -1
    outer loop
      vertex 3 37.85 1.5
      vertex 1.5 36.15 1.5
      vertex 1.5 37.85 1.5
    endloop
  endfacet
  facet normal 0 0 -1
    outer loop
      vertex 1.5 27.2667 1.5
      vertex 3 34.65 1.5
      vertex 3 27.2667 1.5
    endloop
  endfacet
  facet normal -0 0 -1
    outer loop
      vertex 3 34.65 1.5
      vertex 1.5 27.2667 1.5
      vertex 1.5 34.65 1.5
    endloop
  endfacet
  facet normal 0 0 -1
    outer loop
      vertex 1.5 24.0667 1.5
      vertex 3 25.7667 1.5
      vertex 3 24.0667 1.5
    endloop
  endfacet
  facet normal -0 0 -1
    outer loop
      vertex 3 25.7667 1.5
      vertex 1.5 24.0667 1.5
      vertex 1.5 25.7667 1.5
    endloop
  endfacet
  facet normal 0 0 -1
    outer loop
      vertex 3 24.0667 1.5
      vertex 5.5 1.5 1.5
      vertex 3 22.5667 1.5
    endloop
  endfacet
  facet normal 0 0 -1
    outer loop
      vertex 0 1.5 1.5
      vertex 3 22.5667 1.5
      vertex 5.5 1.5 1.5
    endloop
  endfacet
  facet normal 0 0 0
    outer loop
      vertex 1.5 22.5667 1.5
      vertex 1.5 25.7667 1.5
      vertex 1.5 24.0667 1.5
    endloop
  endfacet
  facet normal 0 0 -1
    outer loop
      vertex 0 1.5 1.5
      vertex 1.5 25.7667 1.5
      vertex 1.5 22.5667 1.5
    endloop
  endfacet
  facet normal -0 0 -1
    outer loop
      vertex 1.5 25.7667 1.5
      vertex 0 1.5 1.5
      vertex 1.5 27.2667 1.5
    endloop
  endfacet
  facet normal -0 0 -1
    outer loop
      vertex 1.5 27.2667 1.5
      vertex 0 1.5 1.5
      vertex 1.5 34.65 1.5
    endloop
  endfacet
  facet normal -0 0 -1
    outer loop
      vertex 1.5 34.65 1.5
      vertex 0 1.5 1.5
      vertex 1.5 36.15 1.5
    endloop
  endfacet
  facet normal -0 0 -1
    outer loop
      vertex 1.5 36.15 1.5
      vertex 0 1.5 1.5
      vertex 1.5 37.85 1.5
    endloop
  endfacet
  facet normal -0 0 -1
    outer loop
      vertex 1.5 37.85 1.5
      vertex 0 1.5 1.5
      vertex 1.5 39.35 1.5
    endloop
  endfacet
  facet normal 0 0 -1
    outer loop
      vertex 0 75.5 1.5
      vertex 1.5 39.35 1.5
      vertex 0 1.5 1.5
    endloop
  endfacet
  facet normal 0 0 -1
    outer loop
      vertex 1.5 39.35 1.5
      vertex 0 75.5 1.5
      vertex 1.5 46.7333 1.5
    endloop
  endfacet
  facet normal 0 0 -1
    outer loop
      vertex 1.5 46.7333 1.5
      vertex 0 75.5 1.5
      vertex 1.5 48.2333 1.5
    endloop
  endfacet
  facet normal 0 0 -1
    outer loop
      vertex 1.5 48.2333 1.5
      vertex 0 75.5 1.5
      vertex 1.5 49.9333 1.5
    endloop
  endfacet
  facet normal -0 0 -1
    outer loop
      vertex 3 22.5667 1.5
      vertex 0 1.5 1.5
      vertex 1.5 22.5667 1.5
    endloop
  endfacet
  facet normal 0 0 -1
    outer loop
      vertex 3 25.7667 1.5
      vertex 5.5 1.5 1.5
      vertex 3 24.0667 1.5
    endloop
  endfacet
  facet normal 0 0 -1
    outer loop
      vertex 3 27.2667 1.5
      vertex 5.5 1.5 1.5
      vertex 3 25.7667 1.5
    endloop
  endfacet
  facet normal 0 0 -1
    outer loop
      vertex 3 34.65 1.5
      vertex 5.5 1.5 1.5
      vertex 3 27.2667 1.5
    endloop
  endfacet
  facet normal 0 0 -1
    outer loop
      vertex 3 36.15 1.5
      vertex 5.5 1.5 1.5
      vertex 3 34.65 1.5
    endloop
  endfacet
  facet normal 0 0 -1
    outer loop
      vertex 5.5 1.5 1.5
      vertex 3 36.15 1.5
      vertex 5.5 75.5 1.5
    endloop
  endfacet
  facet normal 0 0 -1
    outer loop
      vertex 3 37.85 1.5
      vertex 5.5 75.5 1.5
      vertex 3 36.15 1.5
    endloop
  endfacet
  facet normal 0 0 -1
    outer loop
      vertex 3 39.35 1.5
      vertex 5.5 75.5 1.5
      vertex 3 37.85 1.5
    endloop
  endfacet
  facet normal 0 0 -1
    outer loop
      vertex 3 46.7333 1.5
      vertex 5.5 75.5 1.5
      vertex 3 39.35 1.5
    endloop
  endfacet
  facet normal 0 0 -1
    outer loop
      vertex 3 48.2333 1.5
      vertex 5.5 75.5 1.5
      vertex 3 46.7333 1.5
    endloop
  endfacet
  facet normal 0 0 -1
    outer loop
      vertex 3 49.9333 1.5
      vertex 5.5 75.5 1.5
      vertex 3 48.2333 1.5
    endloop
  endfacet
  facet normal 0 0 -1
    outer loop
      vertex 3 51.4333 1.5
      vertex 5.5 75.5 1.5
      vertex 3 49.9333 1.5
    endloop
  endfacet
  facet normal 0 0 -1
    outer loop
      vertex 0 75.5 1.5
      vertex 3 51.4333 1.5
      vertex 1.5 51.4333 1.5
    endloop
  endfacet
  facet normal 0 0 -1
    outer loop
      vertex 3 51.4333 1.5
      vertex 0 75.5 1.5
      vertex 5.5 75.5 1.5
    endloop
  endfacet
  facet normal 0 0 -1
    outer loop
      vertex 1.5 49.9333 1.5
      vertex 0 75.5 1.5
      vertex 1.5 51.4333 1.5
    endloop
  endfacet
  facet normal -1 0 0
    outer loop
      vertex 5.5 1.5 0
      vertex 5.5 75.5 1.5
      vertex 5.5 75.5 0
    endloop
  endfacet
  facet normal -1 -0 0
    outer loop
      vertex 5.5 75.5 1.5
      vertex 5.5 1.5 0
      vertex 5.5 1.5 1.5
    endloop
  endfacet
  facet normal 0 1 -0
    outer loop
      vertex 5.5 1.5 0
      vertex 0 1.5 1.5
      vertex 5.5 1.5 1.5
    endloop
  endfacet
  facet normal 0 1 0
    outer loop
      vertex 0 1.5 1.5
      vertex 5.5 1.5 0
      vertex 0 1.5 0
    endloop
  endfacet
  facet normal 1 -0 0
    outer loop
      vertex 56 1.5 1.5
      vertex 56 75.5 0
      vertex 56 75.5 1.5
    endloop
  endfacet
  facet normal 1 0 0
    outer loop
      vertex 56 75.5 0
      vertex 56 1.5 1.5
      vertex 56 1.5 0
    endloop
  endfacet
  facet normal 0 0 -1
    outer loop
      vertex 58.5 37.85 1.5
      vertex 60 39.35 1.5
      vertex 60 37.85 1.5
    endloop
  endfacet
  facet normal -0 0 -1
    outer loop
      vertex 60 39.35 1.5
      vertex 58.5 37.85 1.5
      vertex 58.5 39.35 1.5
    endloop
  endfacet
  facet normal 0 0 -1
    outer loop
      vertex 58.5 34.65 1.5
      vertex 60 36.15 1.5
      vertex 60 34.65 1.5
    endloop
  endfacet
  facet normal -0 0 -1
    outer loop
      vertex 60 36.15 1.5
      vertex 58.5 34.65 1.5
      vertex 58.5 36.15 1.5
    endloop
  endfacet
  facet normal 0 0 -1
    outer loop
      vertex 58.5 49.9333 1.5
      vertex 60 51.4333 1.5
      vertex 60 49.9333 1.5
    endloop
  endfacet
  facet normal -0 0 -1
    outer loop
      vertex 60 51.4333 1.5
      vertex 58.5 49.9333 1.5
      vertex 58.5 51.4333 1.5
    endloop
  endfacet
  facet normal 0 0 -1
    outer loop
      vertex 58.5 46.7333 1.5
      vertex 60 48.2333 1.5
      vertex 60 46.7333 1.5
    endloop
  endfacet
  facet normal -0 0 -1
    outer loop
      vertex 60 48.2333 1.5
      vertex 58.5 46.7333 1.5
      vertex 58.5 48.2333 1.5
    endloop
  endfacet
  facet normal 0 0 -1
    outer loop
      vertex 58.5 22.5667 1.5
      vertex 60 24.0667 1.5
      vertex 60 22.5667 1.5
    endloop
  endfacet
  facet normal -0 0 -1
    outer loop
      vertex 60 24.0667 1.5
      vertex 58.5 22.5667 1.5
      vertex 58.5 24.0667 1.5
    endloop
  endfacet
  facet normal 0 0 -1
    outer loop
      vertex 58.5 25.7667 1.5
      vertex 60 27.2667 1.5
      vertex 60 25.7667 1.5
    endloop
  endfacet
  facet normal -0 0 -1
    outer loop
      vertex 60 27.2667 1.5
      vertex 58.5 25.7667 1.5
      vertex 58.5 27.2667 1.5
    endloop
  endfacet
  facet normal 0 0 -1
    outer loop
      vertex 58.5 48.2333 1.5
      vertex 60 49.9333 1.5
      vertex 60 48.2333 1.5
    endloop
  endfacet
  facet normal -0 0 -1
    outer loop
      vertex 60 49.9333 1.5
      vertex 58.5 48.2333 1.5
      vertex 58.5 49.9333 1.5
    endloop
  endfacet
  facet normal 0 0 -1
    outer loop
      vertex 58.5 39.35 1.5
      vertex 60 46.7333 1.5
      vertex 60 39.35 1.5
    endloop
  endfacet
  facet normal -0 0 -1
    outer loop
      vertex 60 46.7333 1.5
      vertex 58.5 39.35 1.5
      vertex 58.5 46.7333 1.5
    endloop
  endfacet
  facet normal 0 0 -1
    outer loop
      vertex 58.5 36.15 1.5
      vertex 60 37.85 1.5
      vertex 60 36.15 1.5
    endloop
  endfacet
  facet normal -0 0 -1
    outer loop
      vertex 60 37.85 1.5
      vertex 58.5 36.15 1.5
      vertex 58.5 37.85 1.5
    endloop
  endfacet
  facet normal 0 0 -1
    outer loop
      vertex 58.5 27.2667 1.5
      vertex 60 34.65 1.5
      vertex 60 27.2667 1.5
    endloop
  endfacet
  facet normal -0 0 -1
    outer loop
      vertex 60 34.65 1.5
      vertex 58.5 27.2667 1.5
      vertex 58.5 34.65 1.5
    endloop
  endfacet
  facet normal 0 0 -1
    outer loop
      vertex 58.5 24.0667 1.5
      vertex 60 25.7667 1.5
      vertex 60 24.0667 1.5
    endloop
  endfacet
  facet normal -0 0 -1
    outer loop
      vertex 60 25.7667 1.5
      vertex 58.5 24.0667 1.5
      vertex 58.5 25.7667 1.5
    endloop
  endfacet
  facet normal 0 0 -1
    outer loop
      vertex 60 24.0667 1.5
      vertex 61.5 1.5 1.5
      vertex 60 22.5667 1.5
    endloop
  endfacet
  facet normal 0 0 -1
    outer loop
      vertex 61.5 1.5 1.5
      vertex 58.5 22.5667 1.5
      vertex 60 22.5667 1.5
    endloop
  endfacet
  facet normal 0 0 -1
    outer loop
      vertex 56 1.5 1.5
      vertex 58.5 24.0667 1.5
      vertex 58.5 22.5667 1.5
    endloop
  endfacet
  facet normal -0 0 -1
    outer loop
      vertex 58.5 24.0667 1.5
      vertex 56 1.5 1.5
      vertex 58.5 25.7667 1.5
    endloop
  endfacet
  facet normal -0 0 -1
    outer loop
      vertex 58.5 25.7667 1.5
      vertex 56 1.5 1.5
      vertex 58.5 27.2667 1.5
    endloop
  endfacet
  facet normal -0 0 -1
    outer loop
      vertex 58.5 27.2667 1.5
      vertex 56 1.5 1.5
      vertex 58.5 34.65 1.5
    endloop
  endfacet
  facet normal -0 0 -1
    outer loop
      vertex 58.5 34.65 1.5
      vertex 56 1.5 1.5
      vertex 58.5 36.15 1.5
    endloop
  endfacet
  facet normal -0 0 -1
    outer loop
      vertex 58.5 36.15 1.5
      vertex 56 1.5 1.5
      vertex 58.5 37.85 1.5
    endloop
  endfacet
  facet normal -0 0 -1
    outer loop
      vertex 58.5 37.85 1.5
      vertex 56 1.5 1.5
      vertex 58.5 39.35 1.5
    endloop
  endfacet
  facet normal 0 0 -1
    outer loop
      vertex 56 75.5 1.5
      vertex 58.5 39.35 1.5
      vertex 56 1.5 1.5
    endloop
  endfacet
  facet normal 0 0 -1
    outer loop
      vertex 58.5 39.35 1.5
      vertex 56 75.5 1.5
      vertex 58.5 46.7333 1.5
    endloop
  endfacet
  facet normal 0 0 -1
    outer loop
      vertex 58.5 46.7333 1.5
      vertex 56 75.5 1.5
      vertex 58.5 48.2333 1.5
    endloop
  endfacet
  facet normal 0 0 -1
    outer loop
      vertex 58.5 48.2333 1.5
      vertex 56 75.5 1.5
      vertex 58.5 49.9333 1.5
    endloop
  endfacet
  facet normal 0 0 -1
    outer loop
      vertex 56 1.5 1.5
      vertex 58.5 22.5667 1.5
      vertex 61.5 1.5 1.5
    endloop
  endfacet
  facet normal 0 0 -1
    outer loop
      vertex 60 25.7667 1.5
      vertex 61.5 1.5 1.5
      vertex 60 24.0667 1.5
    endloop
  endfacet
  facet normal 0 0 -1
    outer loop
      vertex 60 27.2667 1.5
      vertex 61.5 1.5 1.5
      vertex 60 25.7667 1.5
    endloop
  endfacet
  facet normal 0 0 -1
    outer loop
      vertex 60 34.65 1.5
      vertex 61.5 1.5 1.5
      vertex 60 27.2667 1.5
    endloop
  endfacet
  facet normal 0 0 -1
    outer loop
      vertex 61.5 1.5 1.5
      vertex 60 34.65 1.5
      vertex 61.5 75.5 1.5
    endloop
  endfacet
  facet normal 0 0 -1
    outer loop
      vertex 60 36.15 1.5
      vertex 61.5 75.5 1.5
      vertex 60 34.65 1.5
    endloop
  endfacet
  facet normal 0 0 -1
    outer loop
      vertex 60 37.85 1.5
      vertex 61.5 75.5 1.5
      vertex 60 36.15 1.5
    endloop
  endfacet
  facet normal 0 0 -1
    outer loop
      vertex 60 39.35 1.5
      vertex 61.5 75.5 1.5
      vertex 60 37.85 1.5
    endloop
  endfacet
  facet normal 0 0 -1
    outer loop
      vertex 60 46.7333 1.5
      vertex 61.5 75.5 1.5
      vertex 60 39.35 1.5
    endloop
  endfacet
  facet normal 0 0 -1
    outer loop
      vertex 60 48.2333 1.5
      vertex 61.5 75.5 1.5
      vertex 60 46.7333 1.5
    endloop
  endfacet
  facet normal 0 0 -1
    outer loop
      vertex 60 49.9333 1.5
      vertex 61.5 75.5 1.5
      vertex 60 48.2333 1.5
    endloop
  endfacet
  facet normal 0 0 -1
    outer loop
      vertex 60 51.4333 1.5
      vertex 61.5 75.5 1.5
      vertex 60 49.9333 1.5
    endloop
  endfacet
  facet normal 0 0 -1
    outer loop
      vertex 58.5 51.4333 1.5
      vertex 61.5 75.5 1.5
      vertex 60 51.4333 1.5
    endloop
  endfacet
  facet normal 0 0 -1
    outer loop
      vertex 58.5 51.4333 1.5
      vertex 56 75.5 1.5
      vertex 61.5 75.5 1.5
    endloop
  endfacet
  facet normal 0 0 -1
    outer loop
      vertex 58.5 49.9333 1.5
      vertex 56 75.5 1.5
      vertex 58.5 51.4333 1.5
    endloop
  endfacet
  facet normal 0 1 -0
    outer loop
      vertex 61.5 1.5 0
      vertex 56 1.5 1.5
      vertex 61.5 1.5 1.5
    endloop
  endfacet
  facet normal 0 1 0
    outer loop
      vertex 56 1.5 1.5
      vertex 61.5 1.5 0
      vertex 56 1.5 0
    endloop
  endfacet
  facet normal 1 -0 0
    outer loop
      vertex 13.5 0 26.25
      vertex 13.5 0.2 20.25
      vertex 13.5 0.2 26.25
    endloop
  endfacet
  facet normal 1 0 0
    outer loop
      vertex 13.5 0.2 20.25
      vertex 13.5 0 26.25
      vertex 13.5 0 20.25
    endloop
  endfacet
  facet normal 0 0 -1
    outer loop
      vertex 13.5 0 26.25
      vertex 51.5 0.2 26.25
      vertex 51.5 0 26.25
    endloop
  endfacet
  facet normal -0 0 -1
    outer loop
      vertex 51.5 0.2 26.25
      vertex 13.5 0 26.25
      vertex 13.5 0.2 26.25
    endloop
  endfacet
  facet normal -1 0 0
    outer loop
      vertex 51.5 0 20.25
      vertex 51.5 0.2 26.25
      vertex 51.5 0.2 20.25
    endloop
  endfacet
  facet normal -1 -0 0
    outer loop
      vertex 51.5 0.2 26.25
      vertex 51.5 0 20.25
      vertex 51.5 0 26.25
    endloop
  endfacet
  facet normal -0 0 1
    outer loop
      vertex 13.5 0.2 20.25
      vertex 51.5 0 20.25
      vertex 51.5 0.2 20.25
    endloop
  endfacet
  facet normal 0 0 1
    outer loop
      vertex 51.5 0 20.25
      vertex 13.5 0.2 20.25
      vertex 13.5 0 20.25
    endloop
  endfacet
  facet normal 0 -1 0
    outer loop
      vertex 13.5 0.2 20.25
      vertex 51.5 0.2 26.25
      vertex 13.5 0.2 26.25
    endloop
  endfacet
  facet normal 0 -1 -0
    outer loop
      vertex 51.5 0.2 26.25
      vertex 13.5 0.2 20.25
      vertex 51.5 0.2 20.25
    endloop
  endfacet
  facet normal -0.987689 0 -0.156432
    outer loop
      vertex 8.5 0 23.25
      vertex 8.45106 1.5 23.559
      vertex 8.5 1.5 23.25
    endloop
  endfacet
  facet normal -0.987689 -0 -0.156432
    outer loop
      vertex 8.45106 1.5 23.559
      vertex 8.5 0 23.25
      vertex 8.45106 0 23.559
    endloop
  endfacet
  facet normal -0.891027 0 -0.453951
    outer loop
      vertex 8.45106 0 23.559
      vertex 8.30902 1.5 23.8378
      vertex 8.45106 1.5 23.559
    endloop
  endfacet
  facet normal -0.891027 -0 -0.453951
    outer loop
      vertex 8.30902 1.5 23.8378
      vertex 8.45106 0 23.559
      vertex 8.30902 0 23.8378
    endloop
  endfacet
  facet normal 0.156297 0 -0.98771
    outer loop
      vertex 7.19098 0 24.2011
      vertex 7.5 1.5 24.25
      vertex 7.5 0 24.25
    endloop
  endfacet
  facet normal 0.156297 0 -0.98771
    outer loop
      vertex 7.5 1.5 24.25
      vertex 7.19098 0 24.2011
      vertex 7.19098 1.5 24.2011
    endloop
  endfacet
  facet normal -0.454155 0 -0.890923
    outer loop
      vertex 7.80902 0 24.2011
      vertex 8.08778 1.5 24.059
      vertex 8.08778 0 24.059
    endloop
  endfacet
  facet normal -0.454155 0 -0.890923
    outer loop
      vertex 8.08778 1.5 24.059
      vertex 7.80902 0 24.2011
      vertex 7.80902 1.5 24.2011
    endloop
  endfacet
  facet normal 0.891027 0 -0.453951
    outer loop
      vertex 6.69098 0 23.8378
      vertex 6.54894 1.5 23.559
      vertex 6.69098 1.5 23.8378
    endloop
  endfacet
  facet normal 0.891027 0 -0.453951
    outer loop
      vertex 6.54894 1.5 23.559
      vertex 6.69098 0 23.8378
      vertex 6.54894 0 23.559
    endloop
  endfacet
  facet normal 0.454142 0 -0.890929
    outer loop
      vertex 6.91221 0 24.059
      vertex 7.19098 1.5 24.2011
      vertex 7.19098 0 24.2011
    endloop
  endfacet
  facet normal 0.454142 0 -0.890929
    outer loop
      vertex 7.19098 1.5 24.2011
      vertex 6.91221 0 24.059
      vertex 6.91221 1.5 24.059
    endloop
  endfacet
  facet normal -0.454155 0 0.890923
    outer loop
      vertex 7.80902 1.5 22.2989
      vertex 8.08778 0 22.441
      vertex 8.08778 1.5 22.441
    endloop
  endfacet
  facet normal -0.454155 0 0.890923
    outer loop
      vertex 8.08778 0 22.441
      vertex 7.80902 1.5 22.2989
      vertex 7.80902 0 22.2989
    endloop
  endfacet
  facet normal -0.987689 0 0.156432
    outer loop
      vertex 8.45106 0 22.941
      vertex 8.5 1.5 23.25
      vertex 8.45106 1.5 22.941
    endloop
  endfacet
  facet normal -0.987689 0 0.156432
    outer loop
      vertex 8.5 1.5 23.25
      vertex 8.45106 0 22.941
      vertex 8.5 0 23.25
    endloop
  endfacet
  facet normal 0.891027 -0 0.453951
    outer loop
      vertex 6.54894 0 22.941
      vertex 6.69098 1.5 22.6622
      vertex 6.54894 1.5 22.941
    endloop
  endfacet
  facet normal 0.891027 0 0.453951
    outer loop
      vertex 6.69098 1.5 22.6622
      vertex 6.54894 0 22.941
      vertex 6.69098 0 22.6622
    endloop
  endfacet
  facet normal -0.156297 0 -0.98771
    outer loop
      vertex 7.5 0 24.25
      vertex 7.80902 1.5 24.2011
      vertex 7.80902 0 24.2011
    endloop
  endfacet
  facet normal -0.156297 0 -0.98771
    outer loop
      vertex 7.80902 1.5 24.2011
      vertex 7.5 0 24.25
      vertex 7.5 1.5 24.25
    endloop
  endfacet
  facet normal 0.987689 0 -0.156432
    outer loop
      vertex 6.54894 0 23.559
      vertex 6.5 1.5 23.25
      vertex 6.54894 1.5 23.559
    endloop
  endfacet
  facet normal 0.987689 0 -0.156432
    outer loop
      vertex 6.5 1.5 23.25
      vertex 6.54894 0 23.559
      vertex 6.5 0 23.25
    endloop
  endfacet
  facet normal 0.987689 -0 0.156432
    outer loop
      vertex 6.5 0 23.25
      vertex 6.54894 1.5 22.941
      vertex 6.5 1.5 23.25
    endloop
  endfacet
  facet normal 0.987689 0 0.156432
    outer loop
      vertex 6.54894 1.5 22.941
      vertex 6.5 0 23.25
      vertex 6.54894 0 22.941
    endloop
  endfacet
  facet normal 0.156297 0 0.98771
    outer loop
      vertex 7.19098 1.5 22.2989
      vertex 7.5 0 22.25
      vertex 7.5 1.5 22.25
    endloop
  endfacet
  facet normal 0.156297 0 0.98771
    outer loop
      vertex 7.5 0 22.25
      vertex 7.19098 1.5 22.2989
      vertex 7.19098 0 22.2989
    endloop
  endfacet
  facet normal -0.156297 0 0.98771
    outer loop
      vertex 7.5 1.5 22.25
      vertex 7.80902 0 22.2989
      vertex 7.80902 1.5 22.2989
    endloop
  endfacet
  facet normal -0.156297 0 0.98771
    outer loop
      vertex 7.80902 0 22.2989
      vertex 7.5 1.5 22.25
      vertex 7.5 0 22.25
    endloop
  endfacet
  facet normal -0.707043 0 -0.707171
    outer loop
      vertex 8.30902 0 23.8378
      vertex 8.08778 1.5 24.059
      vertex 8.30902 1.5 23.8378
    endloop
  endfacet
  facet normal -0.707043 -0 -0.707171
    outer loop
      vertex 8.08778 1.5 24.059
      vertex 8.30902 0 23.8378
      vertex 8.08778 0 24.059
    endloop
  endfacet
  facet normal 0.707059 0 -0.707155
    outer loop
      vertex 6.91221 0 24.059
      vertex 6.69098 1.5 23.8378
      vertex 6.91221 1.5 24.059
    endloop
  endfacet
  facet normal 0.707059 0 -0.707155
    outer loop
      vertex 6.69098 1.5 23.8378
      vertex 6.91221 0 24.059
      vertex 6.69098 0 23.8378
    endloop
  endfacet
  facet normal -0.707043 0 0.707171
    outer loop
      vertex 8.08778 0 22.441
      vertex 8.30902 1.5 22.6622
      vertex 8.08778 1.5 22.441
    endloop
  endfacet
  facet normal -0.707043 0 0.707171
    outer loop
      vertex 8.30902 1.5 22.6622
      vertex 8.08778 0 22.441
      vertex 8.30902 0 22.6622
    endloop
  endfacet
  facet normal -0.891027 0 0.453951
    outer loop
      vertex 8.30902 0 22.6622
      vertex 8.45106 1.5 22.941
      vertex 8.30902 1.5 22.6622
    endloop
  endfacet
  facet normal -0.891027 0 0.453951
    outer loop
      vertex 8.45106 1.5 22.941
      vertex 8.30902 0 22.6622
      vertex 8.45106 0 22.941
    endloop
  endfacet
  facet normal 0.707059 -0 0.707155
    outer loop
      vertex 6.69098 0 22.6622
      vertex 6.91221 1.5 22.441
      vertex 6.69098 1.5 22.6622
    endloop
  endfacet
  facet normal 0.707059 0 0.707155
    outer loop
      vertex 6.91221 1.5 22.441
      vertex 6.69098 0 22.6622
      vertex 6.91221 0 22.441
    endloop
  endfacet
  facet normal 0.454142 0 0.890929
    outer loop
      vertex 6.91221 1.5 22.441
      vertex 7.19098 0 22.2989
      vertex 7.19098 1.5 22.2989
    endloop
  endfacet
  facet normal 0.454142 0 0.890929
    outer loop
      vertex 7.19098 0 22.2989
      vertex 6.91221 1.5 22.441
      vertex 6.91221 0 22.441
    endloop
  endfacet
  facet normal 1 -0 0
    outer loop
      vertex 3 22.5667 46.5
      vertex 3 24.0667 3
      vertex 3 24.0667 46.5
    endloop
  endfacet
  facet normal 1 0 0
    outer loop
      vertex 3 24.0667 3
      vertex 3 22.5667 46.5
      vertex 3 22.5667 3
    endloop
  endfacet
  facet normal 0 1 -0
    outer loop
      vertex 3 24.0667 3
      vertex 1.5 24.0667 46.5
      vertex 3 24.0667 46.5
    endloop
  endfacet
  facet normal 0 1 0
    outer loop
      vertex 1.5 24.0667 46.5
      vertex 3 24.0667 3
      vertex 1.5 24.0667 3
    endloop
  endfacet
  facet normal 0 -1 0
    outer loop
      vertex 1.5 22.5667 3
      vertex 3 22.5667 46.5
      vertex 1.5 22.5667 46.5
    endloop
  endfacet
  facet normal 0 -1 -0
    outer loop
      vertex 3 22.5667 46.5
      vertex 1.5 22.5667 3
      vertex 3 22.5667 3
    endloop
  endfacet
  facet normal 1 -0 0
    outer loop
      vertex 3 25.7667 46.5
      vertex 3 27.2667 3
      vertex 3 27.2667 46.5
    endloop
  endfacet
  facet normal 1 0 0
    outer loop
      vertex 3 27.2667 3
      vertex 3 25.7667 46.5
      vertex 3 25.7667 3
    endloop
  endfacet
  facet normal 0 -1 0
    outer loop
      vertex 1.5 25.7667 3
      vertex 3 25.7667 46.5
      vertex 1.5 25.7667 46.5
    endloop
  endfacet
  facet normal 0 -1 -0
    outer loop
      vertex 3 25.7667 46.5
      vertex 1.5 25.7667 3
      vertex 3 25.7667 3
    endloop
  endfacet
  facet normal 0 1 -0
    outer loop
      vertex 3 27.2667 3
      vertex 1.5 27.2667 46.5
      vertex 3 27.2667 46.5
    endloop
  endfacet
  facet normal 0 1 0
    outer loop
      vertex 1.5 27.2667 46.5
      vertex 3 27.2667 3
      vertex 1.5 27.2667 3
    endloop
  endfacet
  facet normal -1 0 0
    outer loop
      vertex 58.5 22.5667 3
      vertex 58.5 24.0667 46.5
      vertex 58.5 24.0667 3
    endloop
  endfacet
  facet normal -1 -0 0
    outer loop
      vertex 58.5 24.0667 46.5
      vertex 58.5 22.5667 3
      vertex 58.5 22.5667 46.5
    endloop
  endfacet
  facet normal 0 1 -0
    outer loop
      vertex 60 24.0667 3
      vertex 58.5 24.0667 46.5
      vertex 60 24.0667 46.5
    endloop
  endfacet
  facet normal 0 1 0
    outer loop
      vertex 58.5 24.0667 46.5
      vertex 60 24.0667 3
      vertex 58.5 24.0667 3
    endloop
  endfacet
  facet normal 0 -1 0
    outer loop
      vertex 58.5 22.5667 3
      vertex 60 22.5667 46.5
      vertex 58.5 22.5667 46.5
    endloop
  endfacet
  facet normal 0 -1 -0
    outer loop
      vertex 60 22.5667 46.5
      vertex 58.5 22.5667 3
      vertex 60 22.5667 3
    endloop
  endfacet
  facet normal -1 0 0
    outer loop
      vertex 58.5 25.7667 3
      vertex 58.5 27.2667 46.5
      vertex 58.5 27.2667 3
    endloop
  endfacet
  facet normal -1 -0 0
    outer loop
      vertex 58.5 27.2667 46.5
      vertex 58.5 25.7667 3
      vertex 58.5 25.7667 46.5
    endloop
  endfacet
  facet normal 0 -1 0
    outer loop
      vertex 58.5 25.7667 3
      vertex 60 25.7667 46.5
      vertex 58.5 25.7667 46.5
    endloop
  endfacet
  facet normal 0 -1 -0
    outer loop
      vertex 60 25.7667 46.5
      vertex 58.5 25.7667 3
      vertex 60 25.7667 3
    endloop
  endfacet
  facet normal 0 1 -0
    outer loop
      vertex 60 27.2667 3
      vertex 58.5 27.2667 46.5
      vertex 60 27.2667 46.5
    endloop
  endfacet
  facet normal 0 1 0
    outer loop
      vertex 58.5 27.2667 46.5
      vertex 60 27.2667 3
      vertex 58.5 27.2667 3
    endloop
  endfacet
  facet normal 1 -0 0
    outer loop
      vertex 3 46.7333 46.5
      vertex 3 48.2333 3
      vertex 3 48.2333 46.5
    endloop
  endfacet
  facet normal 1 0 0
    outer loop
      vertex 3 48.2333 3
      vertex 3 46.7333 46.5
      vertex 3 46.7333 3
    endloop
  endfacet
  facet normal 0 -1 0
    outer loop
      vertex 1.5 46.7333 3
      vertex 3 46.7333 46.5
      vertex 1.5 46.7333 46.5
    endloop
  endfacet
  facet normal 0 -1 -0
    outer loop
      vertex 3 46.7333 46.5
      vertex 1.5 46.7333 3
      vertex 3 46.7333 3
    endloop
  endfacet
  facet normal 0 1 -0
    outer loop
      vertex 3 48.2333 3
      vertex 1.5 48.2333 46.5
      vertex 3 48.2333 46.5
    endloop
  endfacet
  facet normal 0 1 0
    outer loop
      vertex 1.5 48.2333 46.5
      vertex 3 48.2333 3
      vertex 1.5 48.2333 3
    endloop
  endfacet
  facet normal 1 -0 0
    outer loop
      vertex 3 49.9333 46.5
      vertex 3 51.4333 3
      vertex 3 51.4333 46.5
    endloop
  endfacet
  facet normal 1 0 0
    outer loop
      vertex 3 51.4333 3
      vertex 3 49.9333 46.5
      vertex 3 49.9333 3
    endloop
  endfacet
  facet normal 0 1 -0
    outer loop
      vertex 3 51.4333 3
      vertex 1.5 51.4333 46.5
      vertex 3 51.4333 46.5
    endloop
  endfacet
  facet normal 0 1 0
    outer loop
      vertex 1.5 51.4333 46.5
      vertex 3 51.4333 3
      vertex 1.5 51.4333 3
    endloop
  endfacet
  facet normal 0 -1 0
    outer loop
      vertex 1.5 49.9333 3
      vertex 3 49.9333 46.5
      vertex 1.5 49.9333 46.5
    endloop
  endfacet
  facet normal 0 -1 -0
    outer loop
      vertex 3 49.9333 46.5
      vertex 1.5 49.9333 3
      vertex 3 49.9333 3
    endloop
  endfacet
  facet normal -1 0 0
    outer loop
      vertex 58.5 46.7333 3
      vertex 58.5 48.2333 46.5
      vertex 58.5 48.2333 3
    endloop
  endfacet
  facet normal -1 -0 0
    outer loop
      vertex 58.5 48.2333 46.5
      vertex 58.5 46.7333 3
      vertex 58.5 46.7333 46.5
    endloop
  endfacet
  facet normal 0 1 -0
    outer loop
      vertex 60 48.2333 3
      vertex 58.5 48.2333 46.5
      vertex 60 48.2333 46.5
    endloop
  endfacet
  facet normal 0 1 0
    outer loop
      vertex 58.5 48.2333 46.5
      vertex 60 48.2333 3
      vertex 58.5 48.2333 3
    endloop
  endfacet
  facet normal 0 -1 0
    outer loop
      vertex 58.5 46.7333 3
      vertex 60 46.7333 46.5
      vertex 58.5 46.7333 46.5
    endloop
  endfacet
  facet normal 0 -1 -0
    outer loop
      vertex 60 46.7333 46.5
      vertex 58.5 46.7333 3
      vertex 60 46.7333 3
    endloop
  endfacet
  facet normal -1 0 0
    outer loop
      vertex 58.5 49.9333 3
      vertex 58.5 51.4333 46.5
      vertex 58.5 51.4333 3
    endloop
  endfacet
  facet normal -1 -0 0
    outer loop
      vertex 58.5 51.4333 46.5
      vertex 58.5 49.9333 3
      vertex 58.5 49.9333 46.5
    endloop
  endfacet
  facet normal 0 1 -0
    outer loop
      vertex 60 51.4333 3
      vertex 58.5 51.4333 46.5
      vertex 60 51.4333 46.5
    endloop
  endfacet
  facet normal 0 1 0
    outer loop
      vertex 58.5 51.4333 46.5
      vertex 60 51.4333 3
      vertex 58.5 51.4333 3
    endloop
  endfacet
  facet normal 0 -1 0
    outer loop
      vertex 58.5 49.9333 3
      vertex 60 49.9333 46.5
      vertex 58.5 49.9333 46.5
    endloop
  endfacet
  facet normal 0 -1 -0
    outer loop
      vertex 60 49.9333 46.5
      vertex 58.5 49.9333 3
      vertex 60 49.9333 3
    endloop
  endfacet
  facet normal 1 -0 0
    outer loop
      vertex 3 34.65 46.5
      vertex 3 36.15 3
      vertex 3 36.15 46.5
    endloop
  endfacet
  facet normal 1 0 0
    outer loop
      vertex 3 36.15 3
      vertex 3 34.65 46.5
      vertex 3 34.65 3
    endloop
  endfacet
  facet normal 0 1 -0
    outer loop
      vertex 3 36.15 3
      vertex 1.5 36.15 46.5
      vertex 3 36.15 46.5
    endloop
  endfacet
  facet normal 0 1 0
    outer loop
      vertex 1.5 36.15 46.5
      vertex 3 36.15 3
      vertex 1.5 36.15 3
    endloop
  endfacet
  facet normal 0 -1 0
    outer loop
      vertex 1.5 34.65 3
      vertex 3 34.65 46.5
      vertex 1.5 34.65 46.5
    endloop
  endfacet
  facet normal 0 -1 -0
    outer loop
      vertex 3 34.65 46.5
      vertex 1.5 34.65 3
      vertex 3 34.65 3
    endloop
  endfacet
  facet normal 1 -0 0
    outer loop
      vertex 3 37.85 46.5
      vertex 3 39.35 3
      vertex 3 39.35 46.5
    endloop
  endfacet
  facet normal 1 0 0
    outer loop
      vertex 3 39.35 3
      vertex 3 37.85 46.5
      vertex 3 37.85 3
    endloop
  endfacet
  facet normal 0 1 -0
    outer loop
      vertex 3 39.35 3
      vertex 1.5 39.35 46.5
      vertex 3 39.35 46.5
    endloop
  endfacet
  facet normal 0 1 0
    outer loop
      vertex 1.5 39.35 46.5
      vertex 3 39.35 3
      vertex 1.5 39.35 3
    endloop
  endfacet
  facet normal 0 -1 0
    outer loop
      vertex 1.5 37.85 3
      vertex 3 37.85 46.5
      vertex 1.5 37.85 46.5
    endloop
  endfacet
  facet normal 0 -1 -0
    outer loop
      vertex 3 37.85 46.5
      vertex 1.5 37.85 3
      vertex 3 37.85 3
    endloop
  endfacet
  facet normal -1 0 0
    outer loop
      vertex 58.5 34.65 3
      vertex 58.5 36.15 46.5
      vertex 58.5 36.15 3
    endloop
  endfacet
  facet normal -1 -0 0
    outer loop
      vertex 58.5 36.15 46.5
      vertex 58.5 34.65 3
      vertex 58.5 34.65 46.5
    endloop
  endfacet
  facet normal 0 1 -0
    outer loop
      vertex 60 36.15 3
      vertex 58.5 36.15 46.5
      vertex 60 36.15 46.5
    endloop
  endfacet
  facet normal 0 1 0
    outer loop
      vertex 58.5 36.15 46.5
      vertex 60 36.15 3
      vertex 58.5 36.15 3
    endloop
  endfacet
  facet normal 0 -1 0
    outer loop
      vertex 58.5 34.65 3
      vertex 60 34.65 46.5
      vertex 58.5 34.65 46.5
    endloop
  endfacet
  facet normal 0 -1 -0
    outer loop
      vertex 60 34.65 46.5
      vertex 58.5 34.65 3
      vertex 60 34.65 3
    endloop
  endfacet
  facet normal -1 0 0
    outer loop
      vertex 58.5 37.85 3
      vertex 58.5 39.35 46.5
      vertex 58.5 39.35 3
    endloop
  endfacet
  facet normal -1 -0 0
    outer loop
      vertex 58.5 39.35 46.5
      vertex 58.5 37.85 3
      vertex 58.5 37.85 46.5
    endloop
  endfacet
  facet normal 0 1 -0
    outer loop
      vertex 60 39.35 3
      vertex 58.5 39.35 46.5
      vertex 60 39.35 46.5
    endloop
  endfacet
  facet normal 0 1 0
    outer loop
      vertex 58.5 39.35 46.5
      vertex 60 39.35 3
      vertex 58.5 39.35 3
    endloop
  endfacet
  facet normal 0 -1 0
    outer loop
      vertex 58.5 37.85 3
      vertex 60 37.85 46.5
      vertex 58.5 37.85 46.5
    endloop
  endfacet
  facet normal 0 -1 -0
    outer loop
      vertex 60 37.85 46.5
      vertex 58.5 37.85 3
      vertex 60 37.85 3
    endloop
  endfacet
endsolid OpenSCAD_Model
