solid OpenSCAD_Model
  facet normal -1 0 0
    outer loop
      vertex 0 1.5 0
      vertex 0 0 0
      vertex 0 1.5 1.5
    endloop
  endfacet
  facet normal -1 0 0
    outer loop
      vertex 0 1.5 1.5
      vertex 0 75.5 15.1667
      vertex 0 75.5 1.5
    endloop
  endfacet
  facet normal -1 0 0
    outer loop
      vertex 0 1.5 1.5
      vertex 0 0 15.1667
      vertex 0 75.5 15.1667
    endloop
  endfacet
  facet normal -1 0 0
    outer loop
      vertex 0 0 15.1667
      vertex 0 1.5 1.5
      vertex 0 0 0
    endloop
  endfacet
  facet normal -0 0 1
    outer loop
      vertex 58.5 24.0667 15.1667
      vertex 60 22.5667 15.1667
      vertex 60 24.0667 15.1667
    endloop
  endfacet
  facet normal 0 0 1
    outer loop
      vertex 60 22.5667 15.1667
      vertex 58.5 24.0667 15.1667
      vertex 58.5 22.5667 15.1667
    endloop
  endfacet
  facet normal -0 0 1
    outer loop
      vertex 58.5 27.2667 15.1667
      vertex 60 25.7667 15.1667
      vertex 60 27.2667 15.1667
    endloop
  endfacet
  facet normal 0 0 1
    outer loop
      vertex 60 25.7667 15.1667
      vertex 58.5 27.2667 15.1667
      vertex 58.5 25.7667 15.1667
    endloop
  endfacet
  facet normal -0 0 1
    outer loop
      vertex 58.5 36.15 15.1667
      vertex 60 34.65 15.1667
      vertex 60 36.15 15.1667
    endloop
  endfacet
  facet normal 0 0 1
    outer loop
      vertex 60 34.65 15.1667
      vertex 58.5 36.15 15.1667
      vertex 58.5 34.65 15.1667
    endloop
  endfacet
  facet normal -0 0 1
    outer loop
      vertex 58.5 39.35 15.1667
      vertex 60 37.85 15.1667
      vertex 60 39.35 15.1667
    endloop
  endfacet
  facet normal 0 0 1
    outer loop
      vertex 60 37.85 15.1667
      vertex 58.5 39.35 15.1667
      vertex 58.5 37.85 15.1667
    endloop
  endfacet
  facet normal -0 0 1
    outer loop
      vertex 58.5 48.2333 15.1667
      vertex 60 46.7333 15.1667
      vertex 60 48.2333 15.1667
    endloop
  endfacet
  facet normal 0 0 1
    outer loop
      vertex 60 46.7333 15.1667
      vertex 58.5 48.2333 15.1667
      vertex 58.5 46.7333 15.1667
    endloop
  endfacet
  facet normal -0 0 1
    outer loop
      vertex 58.5 51.4333 15.1667
      vertex 60 49.9333 15.1667
      vertex 60 51.4333 15.1667
    endloop
  endfacet
  facet normal 0 0 1
    outer loop
      vertex 60 49.9333 15.1667
      vertex 58.5 51.4333 15.1667
      vertex 58.5 49.9333 15.1667
    endloop
  endfacet
  facet normal 0 0 1
    outer loop
      vertex 60 51.4333 15.1667
      vertex 61.5 75.5 15.1667
      vertex 60 74 15.1667
    endloop
  endfacet
  facet normal 0 0 1
    outer loop
      vertex 61.5 75.5 15.1667
      vertex 1.5 74 15.1667
      vertex 60 74 15.1667
    endloop
  endfacet
  facet normal 0 0 1
    outer loop
      vertex 0 75.5 15.1667
      vertex 1.5 51.4333 15.1667
      vertex 1.5 74 15.1667
    endloop
  endfacet
  facet normal 0 0 1
    outer loop
      vertex 1.5 51.4333 15.1667
      vertex 0 75.5 15.1667
      vertex 1.5 49.9333 15.1667
    endloop
  endfacet
  facet normal 0 0 1
    outer loop
      vertex 1.5 49.9333 15.1667
      vertex 0 75.5 15.1667
      vertex 1.5 48.2333 15.1667
    endloop
  endfacet
  facet normal 0 0 1
    outer loop
      vertex 1.5 48.2333 15.1667
      vertex 0 75.5 15.1667
      vertex 1.5 46.7333 15.1667
    endloop
  endfacet
  facet normal 0 0 1
    outer loop
      vertex 1.5 46.7333 15.1667
      vertex 0 75.5 15.1667
      vertex 1.5 39.35 15.1667
    endloop
  endfacet
  facet normal 0 0 1
    outer loop
      vertex 1.5 39.35 15.1667
      vertex 0 75.5 15.1667
      vertex 1.5 37.85 15.1667
    endloop
  endfacet
  facet normal 0 0 1
    outer loop
      vertex 1.5 37.85 15.1667
      vertex 0 75.5 15.1667
      vertex 1.5 36.15 15.1667
    endloop
  endfacet
  facet normal 0 0 1
    outer loop
      vertex 1.5 36.15 15.1667
      vertex 0 75.5 15.1667
      vertex 1.5 34.65 15.1667
    endloop
  endfacet
  facet normal 0 0 1
    outer loop
      vertex 0 0 15.1667
      vertex 1.5 34.65 15.1667
      vertex 0 75.5 15.1667
    endloop
  endfacet
  facet normal 0 0 1
    outer loop
      vertex 1.5 34.65 15.1667
      vertex 0 0 15.1667
      vertex 1.5 27.2667 15.1667
    endloop
  endfacet
  facet normal 0 0 1
    outer loop
      vertex 1.5 27.2667 15.1667
      vertex 0 0 15.1667
      vertex 1.5 25.7667 15.1667
    endloop
  endfacet
  facet normal 0 0 1
    outer loop
      vertex 1.5 25.7667 15.1667
      vertex 0 0 15.1667
      vertex 1.5 24.0667 15.1667
    endloop
  endfacet
  facet normal 0 0 1
    outer loop
      vertex 1.5 24.0667 15.1667
      vertex 0 0 15.1667
      vertex 1.5 22.5667 15.1667
    endloop
  endfacet
  facet normal -0 0 1
    outer loop
      vertex 0 75.5 15.1667
      vertex 1.5 74 15.1667
      vertex 61.5 75.5 15.1667
    endloop
  endfacet
  facet normal 0 0 1
    outer loop
      vertex 60 49.9333 15.1667
      vertex 61.5 75.5 15.1667
      vertex 60 51.4333 15.1667
    endloop
  endfacet
  facet normal 0 0 1
    outer loop
      vertex 60 48.2333 15.1667
      vertex 61.5 75.5 15.1667
      vertex 60 49.9333 15.1667
    endloop
  endfacet
  facet normal 0 0 1
    outer loop
      vertex 60 46.7333 15.1667
      vertex 61.5 75.5 15.1667
      vertex 60 48.2333 15.1667
    endloop
  endfacet
  facet normal 0 0 1
    outer loop
      vertex 60 39.35 15.1667
      vertex 61.5 75.5 15.1667
      vertex 60 46.7333 15.1667
    endloop
  endfacet
  facet normal 0 0 1
    outer loop
      vertex 61.5 75.5 15.1667
      vertex 60 39.35 15.1667
      vertex 61.5 0 15.1667
    endloop
  endfacet
  facet normal -0 0 1
    outer loop
      vertex 60 37.85 15.1667
      vertex 61.5 0 15.1667
      vertex 60 39.35 15.1667
    endloop
  endfacet
  facet normal -0 0 1
    outer loop
      vertex 60 36.15 15.1667
      vertex 61.5 0 15.1667
      vertex 60 37.85 15.1667
    endloop
  endfacet
  facet normal -0 0 1
    outer loop
      vertex 60 34.65 15.1667
      vertex 61.5 0 15.1667
      vertex 60 36.15 15.1667
    endloop
  endfacet
  facet normal -0 0 1
    outer loop
      vertex 60 27.2667 15.1667
      vertex 61.5 0 15.1667
      vertex 60 34.65 15.1667
    endloop
  endfacet
  facet normal -0 0 1
    outer loop
      vertex 60 25.7667 15.1667
      vertex 61.5 0 15.1667
      vertex 60 27.2667 15.1667
    endloop
  endfacet
  facet normal -0 0 1
    outer loop
      vertex 60 24.0667 15.1667
      vertex 61.5 0 15.1667
      vertex 60 25.7667 15.1667
    endloop
  endfacet
  facet normal -0 0 1
    outer loop
      vertex 60 22.5667 15.1667
      vertex 61.5 0 15.1667
      vertex 60 24.0667 15.1667
    endloop
  endfacet
  facet normal -0 0 1
    outer loop
      vertex 60 1.5 15.1667
      vertex 61.5 0 15.1667
      vertex 60 22.5667 15.1667
    endloop
  endfacet
  facet normal -0 0 1
    outer loop
      vertex 1.5 1.5 15.1667
      vertex 61.5 0 15.1667
      vertex 60 1.5 15.1667
    endloop
  endfacet
  facet normal 0 0 1
    outer loop
      vertex 1.5 1.5 15.1667
      vertex 0 0 15.1667
      vertex 61.5 0 15.1667
    endloop
  endfacet
  facet normal 0 0 1
    outer loop
      vertex 1.5 22.5667 15.1667
      vertex 0 0 15.1667
      vertex 1.5 1.5 15.1667
    endloop
  endfacet
  facet normal -0 0 1
    outer loop
      vertex 1.5 51.4333 15.1667
      vertex 3 49.9333 15.1667
      vertex 3 51.4333 15.1667
    endloop
  endfacet
  facet normal 0 0 1
    outer loop
      vertex 3 49.9333 15.1667
      vertex 1.5 51.4333 15.1667
      vertex 1.5 49.9333 15.1667
    endloop
  endfacet
  facet normal -0 0 1
    outer loop
      vertex 1.5 48.2333 15.1667
      vertex 3 46.7333 15.1667
      vertex 3 48.2333 15.1667
    endloop
  endfacet
  facet normal 0 0 1
    outer loop
      vertex 3 46.7333 15.1667
      vertex 1.5 48.2333 15.1667
      vertex 1.5 46.7333 15.1667
    endloop
  endfacet
  facet normal -0 0 1
    outer loop
      vertex 1.5 39.35 15.1667
      vertex 3 37.85 15.1667
      vertex 3 39.35 15.1667
    endloop
  endfacet
  facet normal 0 0 1
    outer loop
      vertex 3 37.85 15.1667
      vertex 1.5 39.35 15.1667
      vertex 1.5 37.85 15.1667
    endloop
  endfacet
  facet normal -0 0 1
    outer loop
      vertex 1.5 36.15 15.1667
      vertex 3 34.65 15.1667
      vertex 3 36.15 15.1667
    endloop
  endfacet
  facet normal 0 0 1
    outer loop
      vertex 3 34.65 15.1667
      vertex 1.5 36.15 15.1667
      vertex 1.5 34.65 15.1667
    endloop
  endfacet
  facet normal -0 0 1
    outer loop
      vertex 1.5 27.2667 15.1667
      vertex 3 25.7667 15.1667
      vertex 3 27.2667 15.1667
    endloop
  endfacet
  facet normal 0 0 1
    outer loop
      vertex 3 25.7667 15.1667
      vertex 1.5 27.2667 15.1667
      vertex 1.5 25.7667 15.1667
    endloop
  endfacet
  facet normal -0 0 1
    outer loop
      vertex 1.5 24.0667 15.1667
      vertex 3 22.5667 15.1667
      vertex 3 24.0667 15.1667
    endloop
  endfacet
  facet normal 0 0 1
    outer loop
      vertex 3 22.5667 15.1667
      vertex 1.5 24.0667 15.1667
      vertex 1.5 22.5667 15.1667
    endloop
  endfacet
  facet normal 1 0 0
    outer loop
      vertex 61.5 75.5 15.1667
      vertex 61.5 1.5 1.5
      vertex 61.5 75.5 1.5
    endloop
  endfacet
  facet normal 1 -0 0
    outer loop
      vertex 61.5 0 15.1667
      vertex 61.5 1.5 1.5
      vertex 61.5 75.5 15.1667
    endloop
  endfacet
  facet normal 1 0 0
    outer loop
      vertex 61.5 0 0
      vertex 61.5 1.5 1.5
      vertex 61.5 0 15.1667
    endloop
  endfacet
  facet normal 1 0 0
    outer loop
      vertex 61.5 1.5 1.5
      vertex 61.5 0 0
      vertex 61.5 1.5 0
    endloop
  endfacet
  facet normal 0 0 -1
    outer loop
      vertex 61.5 0 0
      vertex 56 1.5 0
      vertex 61.5 1.5 0
    endloop
  endfacet
  facet normal 0 0 -1
    outer loop
      vertex 56 1.5 0
      vertex 5.5 1.5 0
      vertex 56 75.5 0
    endloop
  endfacet
  facet normal 0 0 -1
    outer loop
      vertex 61.5 0 0
      vertex 5.5 1.5 0
      vertex 56 1.5 0
    endloop
  endfacet
  facet normal 0 0 -1
    outer loop
      vertex 0 0 0
      vertex 5.5 1.5 0
      vertex 61.5 0 0
    endloop
  endfacet
  facet normal -0 0 -1
    outer loop
      vertex 5.5 1.5 0
      vertex 0 0 0
      vertex 0 1.5 0
    endloop
  endfacet
  facet normal -0 0 -1
    outer loop
      vertex 56 75.5 0
      vertex 5.5 1.5 0
      vertex 5.5 75.5 0
    endloop
  endfacet
  facet normal 0 -1 0
    outer loop
      vertex 0 0 15.1667
      vertex 13.5 0 10.5833
      vertex 61.5 0 15.1667
    endloop
  endfacet
  facet normal 0 -1 0
    outer loop
      vertex 0 0 15.1667
      vertex 7.5 0 8.58333
      vertex 13.5 0 10.5833
    endloop
  endfacet
  facet normal 0 -1 0
    outer loop
      vertex 0 0 15.1667
      vertex 7.19098 0 8.53439
      vertex 7.5 0 8.58333
    endloop
  endfacet
  facet normal 0 -1 0
    outer loop
      vertex 0 0 15.1667
      vertex 6.91221 0 8.39235
      vertex 7.19098 0 8.53439
    endloop
  endfacet
  facet normal 0 -1 0
    outer loop
      vertex 0 0 15.1667
      vertex 6.69098 0 8.17112
      vertex 6.91221 0 8.39235
    endloop
  endfacet
  facet normal 0 -1 0
    outer loop
      vertex 0 0 15.1667
      vertex 6.54894 0 7.89235
      vertex 6.69098 0 8.17112
    endloop
  endfacet
  facet normal 0 -1 0
    outer loop
      vertex 0 0 15.1667
      vertex 6.5 0 7.58333
      vertex 6.54894 0 7.89235
    endloop
  endfacet
  facet normal 0 -1 0
    outer loop
      vertex 0 0 0
      vertex 6.5 0 7.58333
      vertex 0 0 15.1667
    endloop
  endfacet
  facet normal 0 -1 -0
    outer loop
      vertex 6.5 0 7.58333
      vertex 0 0 0
      vertex 6.54894 0 7.27432
    endloop
  endfacet
  facet normal 0 -1 0
    outer loop
      vertex 0 0 0
      vertex 7.5 0 6.58333
      vertex 7.19098 0 6.63228
    endloop
  endfacet
  facet normal 0 -1 0
    outer loop
      vertex 61.5 0 0
      vertex 13.5 0 4.58333
      vertex 0 0 0
    endloop
  endfacet
  facet normal 0 -1 -0
    outer loop
      vertex 7.5 0 6.58333
      vertex 0 0 0
      vertex 13.5 0 4.58333
    endloop
  endfacet
  facet normal 0 -1 -0
    outer loop
      vertex 6.91221 0 6.77432
      vertex 0 0 0
      vertex 7.19098 0 6.63228
    endloop
  endfacet
  facet normal 0 -1 -0
    outer loop
      vertex 6.69098 0 6.99555
      vertex 0 0 0
      vertex 6.91221 0 6.77432
    endloop
  endfacet
  facet normal 0 -1 -0
    outer loop
      vertex 6.54894 0 7.27432
      vertex 0 0 0
      vertex 6.69098 0 6.99555
    endloop
  endfacet
  facet normal 0 -1 0
    outer loop
      vertex 51.5 0 10.5833
      vertex 61.5 0 15.1667
      vertex 13.5 0 10.5833
    endloop
  endfacet
  facet normal 0 -1 0
    outer loop
      vertex 51.5 0 4.58333
      vertex 61.5 0 15.1667
      vertex 51.5 0 10.5833
    endloop
  endfacet
  facet normal 0 -1 0
    outer loop
      vertex 51.5 0 4.58333
      vertex 61.5 0 0
      vertex 61.5 0 15.1667
    endloop
  endfacet
  facet normal 0 -1 0
    outer loop
      vertex 13.5 0 4.58333
      vertex 61.5 0 0
      vertex 51.5 0 4.58333
    endloop
  endfacet
  facet normal 0 -1 0
    outer loop
      vertex 7.80902 0 8.53439
      vertex 13.5 0 10.5833
      vertex 7.5 0 8.58333
    endloop
  endfacet
  facet normal 0 -1 0
    outer loop
      vertex 8.08778 0 8.39235
      vertex 13.5 0 10.5833
      vertex 7.80902 0 8.53439
    endloop
  endfacet
  facet normal 0 -1 0
    outer loop
      vertex 8.30902 0 8.17112
      vertex 13.5 0 10.5833
      vertex 8.08778 0 8.39235
    endloop
  endfacet
  facet normal 0 -1 0
    outer loop
      vertex 8.45106 0 7.89235
      vertex 13.5 0 10.5833
      vertex 8.30902 0 8.17112
    endloop
  endfacet
  facet normal 0 -1 0
    outer loop
      vertex 8.5 0 7.58333
      vertex 13.5 0 10.5833
      vertex 8.45106 0 7.89235
    endloop
  endfacet
  facet normal 0 -1 0
    outer loop
      vertex 13.5 0 4.58333
      vertex 8.5 0 7.58333
      vertex 8.45106 0 7.27432
    endloop
  endfacet
  facet normal 0 -1 0
    outer loop
      vertex 13.5 0 4.58333
      vertex 8.45106 0 7.27432
      vertex 8.30902 0 6.99555
    endloop
  endfacet
  facet normal 0 -1 0
    outer loop
      vertex 13.5 0 4.58333
      vertex 8.30902 0 6.99555
      vertex 8.08778 0 6.77432
    endloop
  endfacet
  facet normal 0 -1 0
    outer loop
      vertex 8.5 0 7.58333
      vertex 13.5 0 4.58333
      vertex 13.5 0 10.5833
    endloop
  endfacet
  facet normal 0 -1 0
    outer loop
      vertex 7.80902 0 6.63228
      vertex 13.5 0 4.58333
      vertex 8.08778 0 6.77432
    endloop
  endfacet
  facet normal 0 -1 0
    outer loop
      vertex 13.5 0 4.58333
      vertex 7.80902 0 6.63228
      vertex 7.5 0 6.58333
    endloop
  endfacet
  facet normal 0 1 -0
    outer loop
      vertex 56 75.5 0
      vertex 5.5 75.5 1.5
      vertex 56 75.5 1.5
    endloop
  endfacet
  facet normal 0 1 0
    outer loop
      vertex 5.5 75.5 1.5
      vertex 56 75.5 0
      vertex 5.5 75.5 0
    endloop
  endfacet
  facet normal 0 1 0
    outer loop
      vertex 56 75.5 1.5
      vertex 61.5 75.5 15.1667
      vertex 61.5 75.5 1.5
    endloop
  endfacet
  facet normal 0 1 0
    outer loop
      vertex 61.5 75.5 15.1667
      vertex 56 75.5 1.5
      vertex 0 75.5 15.1667
    endloop
  endfacet
  facet normal 0 1 -0
    outer loop
      vertex 5.5 75.5 1.5
      vertex 0 75.5 15.1667
      vertex 56 75.5 1.5
    endloop
  endfacet
  facet normal 0 1 0
    outer loop
      vertex 0 75.5 15.1667
      vertex 5.5 75.5 1.5
      vertex 0 75.5 1.5
    endloop
  endfacet
  facet normal 1 -0 0
    outer loop
      vertex 1.5 1.5 15.1667
      vertex 1.5 22.5667 3
      vertex 1.5 22.5667 15.1667
    endloop
  endfacet
  facet normal 1 0 0
    outer loop
      vertex 1.5 22.5667 3
      vertex 1.5 1.5 15.1667
      vertex 1.5 1.5 3
    endloop
  endfacet
  facet normal 1 -0 0
    outer loop
      vertex 1.5 24.0667 15.1667
      vertex 1.5 25.7667 3
      vertex 1.5 25.7667 15.1667
    endloop
  endfacet
  facet normal 1 0 0
    outer loop
      vertex 1.5 25.7667 3
      vertex 1.5 24.0667 15.1667
      vertex 1.5 24.0667 3
    endloop
  endfacet
  facet normal 1 -0 0
    outer loop
      vertex 1.5 27.2667 15.1667
      vertex 1.5 34.65 3
      vertex 1.5 34.65 15.1667
    endloop
  endfacet
  facet normal 1 0 0
    outer loop
      vertex 1.5 34.65 3
      vertex 1.5 27.2667 15.1667
      vertex 1.5 27.2667 3
    endloop
  endfacet
  facet normal 1 -0 0
    outer loop
      vertex 1.5 48.2333 15.1667
      vertex 1.5 49.9333 3
      vertex 1.5 49.9333 15.1667
    endloop
  endfacet
  facet normal 1 0 0
    outer loop
      vertex 1.5 49.9333 3
      vertex 1.5 48.2333 15.1667
      vertex 1.5 48.2333 3
    endloop
  endfacet
  facet normal 1 -0 0
    outer loop
      vertex 1.5 51.4333 15.1667
      vertex 1.5 74 3
      vertex 1.5 74 15.1667
    endloop
  endfacet
  facet normal 1 0 0
    outer loop
      vertex 1.5 74 3
      vertex 1.5 51.4333 15.1667
      vertex 1.5 51.4333 3
    endloop
  endfacet
  facet normal 1 -0 0
    outer loop
      vertex 1.5 39.35 15.1667
      vertex 1.5 46.7333 3
      vertex 1.5 46.7333 15.1667
    endloop
  endfacet
  facet normal 1 0 0
    outer loop
      vertex 1.5 46.7333 3
      vertex 1.5 39.35 15.1667
      vertex 1.5 39.35 3
    endloop
  endfacet
  facet normal 1 -0 0
    outer loop
      vertex 1.5 36.15 15.1667
      vertex 1.5 37.85 3
      vertex 1.5 37.85 15.1667
    endloop
  endfacet
  facet normal 1 0 0
    outer loop
      vertex 1.5 37.85 3
      vertex 1.5 36.15 15.1667
      vertex 1.5 36.15 3
    endloop
  endfacet
  facet normal -1 0 0
    outer loop
      vertex 60 36.15 3
      vertex 60 37.85 15.1667
      vertex 60 37.85 3
    endloop
  endfacet
  facet normal -1 -0 0
    outer loop
      vertex 60 37.85 15.1667
      vertex 60 36.15 3
      vertex 60 36.15 15.1667
    endloop
  endfacet
  facet normal -1 0 0
    outer loop
      vertex 60 39.35 3
      vertex 60 46.7333 15.1667
      vertex 60 46.7333 3
    endloop
  endfacet
  facet normal -1 -0 0
    outer loop
      vertex 60 46.7333 15.1667
      vertex 60 39.35 3
      vertex 60 39.35 15.1667
    endloop
  endfacet
  facet normal -1 0 0
    outer loop
      vertex 60 27.2667 3
      vertex 60 34.65 15.1667
      vertex 60 34.65 3
    endloop
  endfacet
  facet normal -1 -0 0
    outer loop
      vertex 60 34.65 15.1667
      vertex 60 27.2667 3
      vertex 60 27.2667 15.1667
    endloop
  endfacet
  facet normal -1 0 0
    outer loop
      vertex 60 48.2333 3
      vertex 60 49.9333 15.1667
      vertex 60 49.9333 3
    endloop
  endfacet
  facet normal -1 -0 0
    outer loop
      vertex 60 49.9333 15.1667
      vertex 60 48.2333 3
      vertex 60 48.2333 15.1667
    endloop
  endfacet
  facet normal -1 0 0
    outer loop
      vertex 60 51.4333 3
      vertex 60 74 15.1667
      vertex 60 74 3
    endloop
  endfacet
  facet normal -1 -0 0
    outer loop
      vertex 60 74 15.1667
      vertex 60 51.4333 3
      vertex 60 51.4333 15.1667
    endloop
  endfacet
  facet normal -1 0 0
    outer loop
      vertex 60 1.5 3
      vertex 60 22.5667 15.1667
      vertex 60 22.5667 3
    endloop
  endfacet
  facet normal -1 -0 0
    outer loop
      vertex 60 22.5667 15.1667
      vertex 60 1.5 3
      vertex 60 1.5 15.1667
    endloop
  endfacet
  facet normal -1 0 0
    outer loop
      vertex 60 24.0667 3
      vertex 60 25.7667 15.1667
      vertex 60 25.7667 3
    endloop
  endfacet
  facet normal -1 -0 0
    outer loop
      vertex 60 25.7667 15.1667
      vertex 60 24.0667 3
      vertex 60 24.0667 15.1667
    endloop
  endfacet
  facet normal 0 -1 0
    outer loop
      vertex 1.5 74 3
      vertex 60 74 15.1667
      vertex 1.5 74 15.1667
    endloop
  endfacet
  facet normal 0 -1 -0
    outer loop
      vertex 60 74 15.1667
      vertex 1.5 74 3
      vertex 60 74 3
    endloop
  endfacet
  facet normal 0 1 -0
    outer loop
      vertex 8.08778 1.5 8.39235
      vertex 1.5 1.5 15.1667
      vertex 60 1.5 15.1667
    endloop
  endfacet
  facet normal 0 1 0
    outer loop
      vertex 1.5 1.5 15.1667
      vertex 7.80902 1.5 8.53439
      vertex 7.5 1.5 8.58333
    endloop
  endfacet
  facet normal 0 1 0
    outer loop
      vertex 1.5 1.5 15.1667
      vertex 8.08778 1.5 8.39235
      vertex 7.80902 1.5 8.53439
    endloop
  endfacet
  facet normal 0 1 0
    outer loop
      vertex 60 1.5 15.1667
      vertex 8.30902 1.5 8.17112
      vertex 8.08778 1.5 8.39235
    endloop
  endfacet
  facet normal 0 1 0
    outer loop
      vertex 60 1.5 15.1667
      vertex 8.45106 1.5 7.89235
      vertex 8.30902 1.5 8.17112
    endloop
  endfacet
  facet normal 0 1 0
    outer loop
      vertex 60 1.5 15.1667
      vertex 8.5 1.5 7.58333
      vertex 8.45106 1.5 7.89235
    endloop
  endfacet
  facet normal 0 1 -0
    outer loop
      vertex 60 1.5 3
      vertex 8.5 1.5 7.58333
      vertex 60 1.5 15.1667
    endloop
  endfacet
  facet normal 0 1 0
    outer loop
      vertex 8.5 1.5 7.58333
      vertex 60 1.5 3
      vertex 8.45106 1.5 7.27432
    endloop
  endfacet
  facet normal 0 1 0
    outer loop
      vertex 8.45106 1.5 7.27432
      vertex 60 1.5 3
      vertex 8.30902 1.5 6.99555
    endloop
  endfacet
  facet normal 0 1 0
    outer loop
      vertex 8.30902 1.5 6.99555
      vertex 60 1.5 3
      vertex 8.08778 1.5 6.77432
    endloop
  endfacet
  facet normal 0 1 0
    outer loop
      vertex 1.5 1.5 3
      vertex 7.80902 1.5 6.63228
      vertex 60 1.5 3
    endloop
  endfacet
  facet normal 0 1 0
    outer loop
      vertex 8.08778 1.5 6.77432
      vertex 60 1.5 3
      vertex 7.80902 1.5 6.63228
    endloop
  endfacet
  facet normal 0 1 -0
    outer loop
      vertex 7.19098 1.5 8.53439
      vertex 1.5 1.5 15.1667
      vertex 7.5 1.5 8.58333
    endloop
  endfacet
  facet normal 0 1 -0
    outer loop
      vertex 6.91221 1.5 8.39235
      vertex 1.5 1.5 15.1667
      vertex 7.19098 1.5 8.53439
    endloop
  endfacet
  facet normal 0 1 -0
    outer loop
      vertex 6.69098 1.5 8.17112
      vertex 1.5 1.5 15.1667
      vertex 6.91221 1.5 8.39235
    endloop
  endfacet
  facet normal 0 1 -0
    outer loop
      vertex 6.54894 1.5 7.89235
      vertex 1.5 1.5 15.1667
      vertex 6.69098 1.5 8.17112
    endloop
  endfacet
  facet normal 0 1 0
    outer loop
      vertex 1.5 1.5 3
      vertex 6.54894 1.5 7.89235
      vertex 6.5 1.5 7.58333
    endloop
  endfacet
  facet normal 0 1 0
    outer loop
      vertex 1.5 1.5 3
      vertex 6.5 1.5 7.58333
      vertex 6.54894 1.5 7.27432
    endloop
  endfacet
  facet normal 0 1 0
    outer loop
      vertex 1.5 1.5 3
      vertex 6.54894 1.5 7.27432
      vertex 6.69098 1.5 6.99555
    endloop
  endfacet
  facet normal 0 1 0
    outer loop
      vertex 6.54894 1.5 7.89235
      vertex 1.5 1.5 3
      vertex 1.5 1.5 15.1667
    endloop
  endfacet
  facet normal 0 1 0
    outer loop
      vertex 6.91221 1.5 6.77432
      vertex 1.5 1.5 3
      vertex 6.69098 1.5 6.99555
    endloop
  endfacet
  facet normal 0 1 0
    outer loop
      vertex 7.19098 1.5 6.63228
      vertex 1.5 1.5 3
      vertex 6.91221 1.5 6.77432
    endloop
  endfacet
  facet normal 0 1 0
    outer loop
      vertex 7.5 1.5 6.58333
      vertex 1.5 1.5 3
      vertex 7.19098 1.5 6.63228
    endloop
  endfacet
  facet normal 0 1 0
    outer loop
      vertex 7.80902 1.5 6.63228
      vertex 1.5 1.5 3
      vertex 7.5 1.5 6.58333
    endloop
  endfacet
  facet normal -0 0 1
    outer loop
      vertex 1.5 25.7667 3
      vertex 3 24.0667 3
      vertex 3 25.7667 3
    endloop
  endfacet
  facet normal 0 0 1
    outer loop
      vertex 3 24.0667 3
      vertex 1.5 25.7667 3
      vertex 1.5 24.0667 3
    endloop
  endfacet
  facet normal -0 0 1
    outer loop
      vertex 1.5 34.65 3
      vertex 3 27.2667 3
      vertex 3 34.65 3
    endloop
  endfacet
  facet normal 0 0 1
    outer loop
      vertex 3 27.2667 3
      vertex 1.5 34.65 3
      vertex 1.5 27.2667 3
    endloop
  endfacet
  facet normal -0 0 1
    outer loop
      vertex 1.5 37.85 3
      vertex 3 36.15 3
      vertex 3 37.85 3
    endloop
  endfacet
  facet normal 0 0 1
    outer loop
      vertex 3 36.15 3
      vertex 1.5 37.85 3
      vertex 1.5 36.15 3
    endloop
  endfacet
  facet normal -0 0 1
    outer loop
      vertex 1.5 46.7333 3
      vertex 3 39.35 3
      vertex 3 46.7333 3
    endloop
  endfacet
  facet normal 0 0 1
    outer loop
      vertex 3 39.35 3
      vertex 1.5 46.7333 3
      vertex 1.5 39.35 3
    endloop
  endfacet
  facet normal -0 0 1
    outer loop
      vertex 1.5 49.9333 3
      vertex 3 48.2333 3
      vertex 3 49.9333 3
    endloop
  endfacet
  facet normal 0 0 1
    outer loop
      vertex 3 48.2333 3
      vertex 1.5 49.9333 3
      vertex 1.5 48.2333 3
    endloop
  endfacet
  facet normal 0 0 1
    outer loop
      vertex 60 74 3
      vertex 58.5 51.4333 3
      vertex 60 51.4333 3
    endloop
  endfacet
  facet normal 0 0 1
    outer loop
      vertex 3 49.9333 3
      vertex 58.5 49.9333 3
      vertex 58.5 51.4333 3
    endloop
  endfacet
  facet normal 0 0 1
    outer loop
      vertex 58.5 49.9333 3
      vertex 3 49.9333 3
      vertex 58.5 48.2333 3
    endloop
  endfacet
  facet normal 0 0 1
    outer loop
      vertex 58.5 48.2333 3
      vertex 3 48.2333 3
      vertex 58.5 46.7333 3
    endloop
  endfacet
  facet normal 0 0 1
    outer loop
      vertex 58.5 46.7333 3
      vertex 3 46.7333 3
      vertex 58.5 39.35 3
    endloop
  endfacet
  facet normal 0 0 1
    outer loop
      vertex 3 39.35 3
      vertex 58.5 39.35 3
      vertex 3 46.7333 3
    endloop
  endfacet
  facet normal 0 0 1
    outer loop
      vertex 58.5 39.35 3
      vertex 3 39.35 3
      vertex 58.5 37.85 3
    endloop
  endfacet
  facet normal 0 0 1
    outer loop
      vertex 58.5 37.85 3
      vertex 3 37.85 3
      vertex 58.5 36.15 3
    endloop
  endfacet
  facet normal 0 0 1
    outer loop
      vertex 3 36.15 3
      vertex 58.5 36.15 3
      vertex 3 37.85 3
    endloop
  endfacet
  facet normal 0 0 1
    outer loop
      vertex 3 34.65 3
      vertex 58.5 34.65 3
      vertex 3 36.15 3
    endloop
  endfacet
  facet normal 0 0 1
    outer loop
      vertex 58.5 34.65 3
      vertex 3 34.65 3
      vertex 58.5 27.2667 3
    endloop
  endfacet
  facet normal 0 0 1
    outer loop
      vertex 3 49.9333 3
      vertex 58.5 51.4333 3
      vertex 3 51.4333 3
    endloop
  endfacet
  facet normal 0 0 1
    outer loop
      vertex 60 74 3
      vertex 3 51.4333 3
      vertex 58.5 51.4333 3
    endloop
  endfacet
  facet normal -0 0 1
    outer loop
      vertex 1.5 74 3
      vertex 3 51.4333 3
      vertex 60 74 3
    endloop
  endfacet
  facet normal 0 0 1
    outer loop
      vertex 3 51.4333 3
      vertex 1.5 74 3
      vertex 1.5 51.4333 3
    endloop
  endfacet
  facet normal -0 0 1
    outer loop
      vertex 58.5 49.9333 3
      vertex 60 48.2333 3
      vertex 60 49.9333 3
    endloop
  endfacet
  facet normal 0 0 1
    outer loop
      vertex 60 48.2333 3
      vertex 58.5 49.9333 3
      vertex 58.5 48.2333 3
    endloop
  endfacet
  facet normal -0 0 1
    outer loop
      vertex 58.5 46.7333 3
      vertex 60 39.35 3
      vertex 60 46.7333 3
    endloop
  endfacet
  facet normal 0 0 1
    outer loop
      vertex 60 39.35 3
      vertex 58.5 46.7333 3
      vertex 58.5 39.35 3
    endloop
  endfacet
  facet normal -0 0 1
    outer loop
      vertex 58.5 37.85 3
      vertex 60 36.15 3
      vertex 60 37.85 3
    endloop
  endfacet
  facet normal 0 0 1
    outer loop
      vertex 60 36.15 3
      vertex 58.5 37.85 3
      vertex 58.5 36.15 3
    endloop
  endfacet
  facet normal -0 0 1
    outer loop
      vertex 58.5 34.65 3
      vertex 60 27.2667 3
      vertex 60 34.65 3
    endloop
  endfacet
  facet normal 0 0 1
    outer loop
      vertex 60 27.2667 3
      vertex 58.5 34.65 3
      vertex 58.5 27.2667 3
    endloop
  endfacet
  facet normal -0 0 1
    outer loop
      vertex 58.5 25.7667 3
      vertex 60 24.0667 3
      vertex 60 25.7667 3
    endloop
  endfacet
  facet normal 0 0 1
    outer loop
      vertex 60 24.0667 3
      vertex 58.5 25.7667 3
      vertex 58.5 24.0667 3
    endloop
  endfacet
  facet normal -0 0 1
    outer loop
      vertex 58.5 22.5667 3
      vertex 60 1.5 3
      vertex 60 22.5667 3
    endloop
  endfacet
  facet normal 0 0 1
    outer loop
      vertex 58.5 48.2333 3
      vertex 3 49.9333 3
      vertex 3 48.2333 3
    endloop
  endfacet
  facet normal 0 0 1
    outer loop
      vertex 58.5 46.7333 3
      vertex 3 48.2333 3
      vertex 3 46.7333 3
    endloop
  endfacet
  facet normal 0 0 1
    outer loop
      vertex 3 37.85 3
      vertex 58.5 37.85 3
      vertex 3 39.35 3
    endloop
  endfacet
  facet normal 0 0 1
    outer loop
      vertex 58.5 36.15 3
      vertex 3 36.15 3
      vertex 58.5 34.65 3
    endloop
  endfacet
  facet normal 0 0 1
    outer loop
      vertex 3 27.2667 3
      vertex 58.5 27.2667 3
      vertex 3 34.65 3
    endloop
  endfacet
  facet normal 0 0 1
    outer loop
      vertex 58.5 27.2667 3
      vertex 3 27.2667 3
      vertex 58.5 25.7667 3
    endloop
  endfacet
  facet normal 0 0 1
    outer loop
      vertex 3 25.7667 3
      vertex 58.5 25.7667 3
      vertex 3 27.2667 3
    endloop
  endfacet
  facet normal 0 0 1
    outer loop
      vertex 58.5 25.7667 3
      vertex 3 25.7667 3
      vertex 58.5 24.0667 3
    endloop
  endfacet
  facet normal 0 0 1
    outer loop
      vertex 3 24.0667 3
      vertex 58.5 24.0667 3
      vertex 3 25.7667 3
    endloop
  endfacet
  facet normal 0 0 1
    outer loop
      vertex 58.5 24.0667 3
      vertex 3 24.0667 3
      vertex 58.5 22.5667 3
    endloop
  endfacet
  facet normal 0 0 1
    outer loop
      vertex 3 22.5667 3
      vertex 58.5 22.5667 3
      vertex 3 24.0667 3
    endloop
  endfacet
  facet normal 0 0 1
    outer loop
      vertex 58.5 22.5667 3
      vertex 3 22.5667 3
      vertex 60 1.5 3
    endloop
  endfacet
  facet normal 0 0 1
    outer loop
      vertex 1.5 1.5 3
      vertex 3 22.5667 3
      vertex 1.5 22.5667 3
    endloop
  endfacet
  facet normal 0 0 1
    outer loop
      vertex 3 22.5667 3
      vertex 1.5 1.5 3
      vertex 60 1.5 3
    endloop
  endfacet
  facet normal 0 0 -1
    outer loop
      vertex 1.5 22.5667 1.5
      vertex 3 24.0667 1.5
      vertex 3 22.5667 1.5
    endloop
  endfacet
  facet normal -0 0 -1
    outer loop
      vertex 3 24.0667 1.5
      vertex 1.5 22.5667 1.5
      vertex 1.5 24.0667 1.5
    endloop
  endfacet
  facet normal 0 0 -1
    outer loop
      vertex 1.5 25.7667 1.5
      vertex 3 27.2667 1.5
      vertex 3 25.7667 1.5
    endloop
  endfacet
  facet normal -0 0 -1
    outer loop
      vertex 3 27.2667 1.5
      vertex 1.5 25.7667 1.5
      vertex 1.5 27.2667 1.5
    endloop
  endfacet
  facet normal 0 0 -1
    outer loop
      vertex 1.5 49.9333 1.5
      vertex 3 51.4333 1.5
      vertex 3 49.9333 1.5
    endloop
  endfacet
  facet normal -0 0 -1
    outer loop
      vertex 3 51.4333 1.5
      vertex 1.5 49.9333 1.5
      vertex 1.5 51.4333 1.5
    endloop
  endfacet
  facet normal 0 0 -1
    outer loop
      vertex 1.5 46.7333 1.5
      vertex 3 48.2333 1.5
      vertex 3 46.7333 1.5
    endloop
  endfacet
  facet normal -0 0 -1
    outer loop
      vertex 3 48.2333 1.5
      vertex 1.5 46.7333 1.5
      vertex 1.5 48.2333 1.5
    endloop
  endfacet
  facet normal 0 0 -1
    outer loop
      vertex 1.5 37.85 1.5
      vertex 3 39.35 1.5
      vertex 3 37.85 1.5
    endloop
  endfacet
  facet normal -0 0 -1
    outer loop
      vertex 3 39.35 1.5
      vertex 1.5 37.85 1.5
      vertex 1.5 39.35 1.5
    endloop
  endfacet
  facet normal 0 0 -1
    outer loop
      vertex 1.5 34.65 1.5
      vertex 3 36.15 1.5
      vertex 3 34.65 1.5
    endloop
  endfacet
  facet normal -0 0 -1
    outer loop
      vertex 3 36.15 1.5
      vertex 1.5 34.65 1.5
      vertex 1.5 36.15 1.5
    endloop
  endfacet
  facet normal 0 0 -1
    outer loop
      vertex 1.5 48.2333 1.5
      vertex 3 49.9333 1.5
      vertex 3 48.2333 1.5
    endloop
  endfacet
  facet normal -0 0 -1
    outer loop
      vertex 3 49.9333 1.5
      vertex 1.5 48.2333 1.5
      vertex 1.5 49.9333 1.5
    endloop
  endfacet
  facet normal 0 0 -1
    outer loop
      vertex 1.5 39.35 1.5
      vertex 3 46.7333 1.5
      vertex 3 39.35 1.5
    endloop
  endfacet
  facet normal -0 0 -1
    outer loop
      vertex 3 46.7333 1.5
      vertex 1.5 39.35 1.5
      vertex 1.5 46.7333 1.5
    endloop
  endfacet
  facet normal 0 0 -1
    outer loop
      vertex 1.5 36.15 1.5
      vertex 3 37.85 1.5
      vertex 3 36.15 1.5
    endloop
  endfacet
  facet normal -0 0 -1
    outer loop
      vertex 3 37.85 1.5
      vertex 1.5 36.15 1.5
      vertex 1.5 37.85 1.5
    endloop
  endfacet
  facet normal 0 0 -1
    outer loop
      vertex 1.5 27.2667 1.5
      vertex 3 34.65 1.5
      vertex 3 27.2667 1.5
    endloop
  endfacet
  facet normal -0 0 -1
    outer loop
      vertex 3 34.65 1.5
      vertex 1.5 27.2667 1.5
      vertex 1.5 34.65 1.5
    endloop
  endfacet
  facet normal 0 0 -1
    outer loop
      vertex 1.5 24.0667 1.5
      vertex 3 25.7667 1.5
      vertex 3 24.0667 1.5
    endloop
  endfacet
  facet normal -0 0 -1
    outer loop
      vertex 3 25.7667 1.5
      vertex 1.5 24.0667 1.5
      vertex 1.5 25.7667 1.5
    endloop
  endfacet
  facet normal 0 0 -1
    outer loop
      vertex 3 24.0667 1.5
      vertex 5.5 1.5 1.5
      vertex 3 22.5667 1.5
    endloop
  endfacet
  facet normal 0 0 -1
    outer loop
      vertex 0 1.5 1.5
      vertex 3 22.5667 1.5
      vertex 5.5 1.5 1.5
    endloop
  endfacet
  facet normal 0 0 0
    outer loop
      vertex 1.5 22.5667 1.5
      vertex 1.5 25.7667 1.5
      vertex 1.5 24.0667 1.5
    endloop
  endfacet
  facet normal 0 0 -1
    outer loop
      vertex 0 1.5 1.5
      vertex 1.5 25.7667 1.5
      vertex 1.5 22.5667 1.5
    endloop
  endfacet
  facet normal -0 0 -1
    outer loop
      vertex 1.5 25.7667 1.5
      vertex 0 1.5 1.5
      vertex 1.5 27.2667 1.5
    endloop
  endfacet
  facet normal -0 0 -1
    outer loop
      vertex 1.5 27.2667 1.5
      vertex 0 1.5 1.5
      vertex 1.5 34.65 1.5
    endloop
  endfacet
  facet normal -0 0 -1
    outer loop
      vertex 1.5 34.65 1.5
      vertex 0 1.5 1.5
      vertex 1.5 36.15 1.5
    endloop
  endfacet
  facet normal -0 0 -1
    outer loop
      vertex 1.5 36.15 1.5
      vertex 0 1.5 1.5
      vertex 1.5 37.85 1.5
    endloop
  endfacet
  facet normal -0 0 -1
    outer loop
      vertex 1.5 37.85 1.5
      vertex 0 1.5 1.5
      vertex 1.5 39.35 1.5
    endloop
  endfacet
  facet normal 0 0 -1
    outer loop
      vertex 0 75.5 1.5
      vertex 1.5 39.35 1.5
      vertex 0 1.5 1.5
    endloop
  endfacet
  facet normal 0 0 -1
    outer loop
      vertex 1.5 39.35 1.5
      vertex 0 75.5 1.5
      vertex 1.5 46.7333 1.5
    endloop
  endfacet
  facet normal 0 0 -1
    outer loop
      vertex 1.5 46.7333 1.5
      vertex 0 75.5 1.5
      vertex 1.5 48.2333 1.5
    endloop
  endfacet
  facet normal 0 0 -1
    outer loop
      vertex 1.5 48.2333 1.5
      vertex 0 75.5 1.5
      vertex 1.5 49.9333 1.5
    endloop
  endfacet
  facet normal -0 0 -1
    outer loop
      vertex 3 22.5667 1.5
      vertex 0 1.5 1.5
      vertex 1.5 22.5667 1.5
    endloop
  endfacet
  facet normal 0 0 -1
    outer loop
      vertex 3 25.7667 1.5
      vertex 5.5 1.5 1.5
      vertex 3 24.0667 1.5
    endloop
  endfacet
  facet normal 0 0 -1
    outer loop
      vertex 3 27.2667 1.5
      vertex 5.5 1.5 1.5
      vertex 3 25.7667 1.5
    endloop
  endfacet
  facet normal 0 0 -1
    outer loop
      vertex 3 34.65 1.5
      vertex 5.5 1.5 1.5
      vertex 3 27.2667 1.5
    endloop
  endfacet
  facet normal 0 0 -1
    outer loop
      vertex 3 36.15 1.5
      vertex 5.5 1.5 1.5
      vertex 3 34.65 1.5
    endloop
  endfacet
  facet normal 0 0 -1
    outer loop
      vertex 5.5 1.5 1.5
      vertex 3 36.15 1.5
      vertex 5.5 75.5 1.5
    endloop
  endfacet
  facet normal 0 0 -1
    outer loop
      vertex 3 37.85 1.5
      vertex 5.5 75.5 1.5
      vertex 3 36.15 1.5
    endloop
  endfacet
  facet normal 0 0 -1
    outer loop
      vertex 3 39.35 1.5
      vertex 5.5 75.5 1.5
      vertex 3 37.85 1.5
    endloop
  endfacet
  facet normal 0 0 -1
    outer loop
      vertex 3 46.7333 1.5
      vertex 5.5 75.5 1.5
      vertex 3 39.35 1.5
    endloop
  endfacet
  facet normal 0 0 -1
    outer loop
      vertex 3 48.2333 1.5
      vertex 5.5 75.5 1.5
      vertex 3 46.7333 1.5
    endloop
  endfacet
  facet normal 0 0 -1
    outer loop
      vertex 3 49.9333 1.5
      vertex 5.5 75.5 1.5
      vertex 3 48.2333 1.5
    endloop
  endfacet
  facet normal 0 0 -1
    outer loop
      vertex 3 51.4333 1.5
      vertex 5.5 75.5 1.5
      vertex 3 49.9333 1.5
    endloop
  endfacet
  facet normal 0 0 -1
    outer loop
      vertex 0 75.5 1.5
      vertex 3 51.4333 1.5
      vertex 1.5 51.4333 1.5
    endloop
  endfacet
  facet normal 0 0 -1
    outer loop
      vertex 3 51.4333 1.5
      vertex 0 75.5 1.5
      vertex 5.5 75.5 1.5
    endloop
  endfacet
  facet normal 0 0 -1
    outer loop
      vertex 1.5 49.9333 1.5
      vertex 0 75.5 1.5
      vertex 1.5 51.4333 1.5
    endloop
  endfacet
  facet normal -1 0 0
    outer loop
      vertex 5.5 1.5 0
      vertex 5.5 75.5 1.5
      vertex 5.5 75.5 0
    endloop
  endfacet
  facet normal -1 -0 0
    outer loop
      vertex 5.5 75.5 1.5
      vertex 5.5 1.5 0
      vertex 5.5 1.5 1.5
    endloop
  endfacet
  facet normal 0 1 -0
    outer loop
      vertex 5.5 1.5 0
      vertex 0 1.5 1.5
      vertex 5.5 1.5 1.5
    endloop
  endfacet
  facet normal 0 1 0
    outer loop
      vertex 0 1.5 1.5
      vertex 5.5 1.5 0
      vertex 0 1.5 0
    endloop
  endfacet
  facet normal 1 -0 0
    outer loop
      vertex 56 1.5 1.5
      vertex 56 75.5 0
      vertex 56 75.5 1.5
    endloop
  endfacet
  facet normal 1 0 0
    outer loop
      vertex 56 75.5 0
      vertex 56 1.5 1.5
      vertex 56 1.5 0
    endloop
  endfacet
  facet normal 0 0 -1
    outer loop
      vertex 58.5 37.85 1.5
      vertex 60 39.35 1.5
      vertex 60 37.85 1.5
    endloop
  endfacet
  facet normal -0 0 -1
    outer loop
      vertex 60 39.35 1.5
      vertex 58.5 37.85 1.5
      vertex 58.5 39.35 1.5
    endloop
  endfacet
  facet normal 0 0 -1
    outer loop
      vertex 58.5 34.65 1.5
      vertex 60 36.15 1.5
      vertex 60 34.65 1.5
    endloop
  endfacet
  facet normal -0 0 -1
    outer loop
      vertex 60 36.15 1.5
      vertex 58.5 34.65 1.5
      vertex 58.5 36.15 1.5
    endloop
  endfacet
  facet normal 0 0 -1
    outer loop
      vertex 58.5 49.9333 1.5
      vertex 60 51.4333 1.5
      vertex 60 49.9333 1.5
    endloop
  endfacet
  facet normal -0 0 -1
    outer loop
      vertex 60 51.4333 1.5
      vertex 58.5 49.9333 1.5
      vertex 58.5 51.4333 1.5
    endloop
  endfacet
  facet normal 0 0 -1
    outer loop
      vertex 58.5 46.7333 1.5
      vertex 60 48.2333 1.5
      vertex 60 46.7333 1.5
    endloop
  endfacet
  facet normal -0 0 -1
    outer loop
      vertex 60 48.2333 1.5
      vertex 58.5 46.7333 1.5
      vertex 58.5 48.2333 1.5
    endloop
  endfacet
  facet normal 0 0 -1
    outer loop
      vertex 58.5 22.5667 1.5
      vertex 60 24.0667 1.5
      vertex 60 22.5667 1.5
    endloop
  endfacet
  facet normal -0 0 -1
    outer loop
      vertex 60 24.0667 1.5
      vertex 58.5 22.5667 1.5
      vertex 58.5 24.0667 1.5
    endloop
  endfacet
  facet normal 0 0 -1
    outer loop
      vertex 58.5 25.7667 1.5
      vertex 60 27.2667 1.5
      vertex 60 25.7667 1.5
    endloop
  endfacet
  facet normal -0 0 -1
    outer loop
      vertex 60 27.2667 1.5
      vertex 58.5 25.7667 1.5
      vertex 58.5 27.2667 1.5
    endloop
  endfacet
  facet normal 0 0 -1
    outer loop
      vertex 58.5 48.2333 1.5
      vertex 60 49.9333 1.5
      vertex 60 48.2333 1.5
    endloop
  endfacet
  facet normal -0 0 -1
    outer loop
      vertex 60 49.9333 1.5
      vertex 58.5 48.2333 1.5
      vertex 58.5 49.9333 1.5
    endloop
  endfacet
  facet normal 0 0 -1
    outer loop
      vertex 58.5 39.35 1.5
      vertex 60 46.7333 1.5
      vertex 60 39.35 1.5
    endloop
  endfacet
  facet normal -0 0 -1
    outer loop
      vertex 60 46.7333 1.5
      vertex 58.5 39.35 1.5
      vertex 58.5 46.7333 1.5
    endloop
  endfacet
  facet normal 0 0 -1
    outer loop
      vertex 58.5 36.15 1.5
      vertex 60 37.85 1.5
      vertex 60 36.15 1.5
    endloop
  endfacet
  facet normal -0 0 -1
    outer loop
      vertex 60 37.85 1.5
      vertex 58.5 36.15 1.5
      vertex 58.5 37.85 1.5
    endloop
  endfacet
  facet normal 0 0 -1
    outer loop
      vertex 58.5 27.2667 1.5
      vertex 60 34.65 1.5
      vertex 60 27.2667 1.5
    endloop
  endfacet
  facet normal -0 0 -1
    outer loop
      vertex 60 34.65 1.5
      vertex 58.5 27.2667 1.5
      vertex 58.5 34.65 1.5
    endloop
  endfacet
  facet normal 0 0 -1
    outer loop
      vertex 58.5 24.0667 1.5
      vertex 60 25.7667 1.5
      vertex 60 24.0667 1.5
    endloop
  endfacet
  facet normal -0 0 -1
    outer loop
      vertex 60 25.7667 1.5
      vertex 58.5 24.0667 1.5
      vertex 58.5 25.7667 1.5
    endloop
  endfacet
  facet normal 0 0 -1
    outer loop
      vertex 60 24.0667 1.5
      vertex 61.5 1.5 1.5
      vertex 60 22.5667 1.5
    endloop
  endfacet
  facet normal 0 0 -1
    outer loop
      vertex 61.5 1.5 1.5
      vertex 58.5 22.5667 1.5
      vertex 60 22.5667 1.5
    endloop
  endfacet
  facet normal 0 0 -1
    outer loop
      vertex 56 1.5 1.5
      vertex 58.5 24.0667 1.5
      vertex 58.5 22.5667 1.5
    endloop
  endfacet
  facet normal -0 0 -1
    outer loop
      vertex 58.5 24.0667 1.5
      vertex 56 1.5 1.5
      vertex 58.5 25.7667 1.5
    endloop
  endfacet
  facet normal -0 0 -1
    outer loop
      vertex 58.5 25.7667 1.5
      vertex 56 1.5 1.5
      vertex 58.5 27.2667 1.5
    endloop
  endfacet
  facet normal -0 0 -1
    outer loop
      vertex 58.5 27.2667 1.5
      vertex 56 1.5 1.5
      vertex 58.5 34.65 1.5
    endloop
  endfacet
  facet normal -0 0 -1
    outer loop
      vertex 58.5 34.65 1.5
      vertex 56 1.5 1.5
      vertex 58.5 36.15 1.5
    endloop
  endfacet
  facet normal -0 0 -1
    outer loop
      vertex 58.5 36.15 1.5
      vertex 56 1.5 1.5
      vertex 58.5 37.85 1.5
    endloop
  endfacet
  facet normal -0 0 -1
    outer loop
      vertex 58.5 37.85 1.5
      vertex 56 1.5 1.5
      vertex 58.5 39.35 1.5
    endloop
  endfacet
  facet normal 0 0 -1
    outer loop
      vertex 56 75.5 1.5
      vertex 58.5 39.35 1.5
      vertex 56 1.5 1.5
    endloop
  endfacet
  facet normal 0 0 -1
    outer loop
      vertex 58.5 39.35 1.5
      vertex 56 75.5 1.5
      vertex 58.5 46.7333 1.5
    endloop
  endfacet
  facet normal 0 0 -1
    outer loop
      vertex 58.5 46.7333 1.5
      vertex 56 75.5 1.5
      vertex 58.5 48.2333 1.5
    endloop
  endfacet
  facet normal 0 0 -1
    outer loop
      vertex 58.5 48.2333 1.5
      vertex 56 75.5 1.5
      vertex 58.5 49.9333 1.5
    endloop
  endfacet
  facet normal 0 0 -1
    outer loop
      vertex 56 1.5 1.5
      vertex 58.5 22.5667 1.5
      vertex 61.5 1.5 1.5
    endloop
  endfacet
  facet normal 0 0 -1
    outer loop
      vertex 60 25.7667 1.5
      vertex 61.5 1.5 1.5
      vertex 60 24.0667 1.5
    endloop
  endfacet
  facet normal 0 0 -1
    outer loop
      vertex 60 27.2667 1.5
      vertex 61.5 1.5 1.5
      vertex 60 25.7667 1.5
    endloop
  endfacet
  facet normal 0 0 -1
    outer loop
      vertex 60 34.65 1.5
      vertex 61.5 1.5 1.5
      vertex 60 27.2667 1.5
    endloop
  endfacet
  facet normal 0 0 -1
    outer loop
      vertex 61.5 1.5 1.5
      vertex 60 34.65 1.5
      vertex 61.5 75.5 1.5
    endloop
  endfacet
  facet normal 0 0 -1
    outer loop
      vertex 60 36.15 1.5
      vertex 61.5 75.5 1.5
      vertex 60 34.65 1.5
    endloop
  endfacet
  facet normal 0 0 -1
    outer loop
      vertex 60 37.85 1.5
      vertex 61.5 75.5 1.5
      vertex 60 36.15 1.5
    endloop
  endfacet
  facet normal 0 0 -1
    outer loop
      vertex 60 39.35 1.5
      vertex 61.5 75.5 1.5
      vertex 60 37.85 1.5
    endloop
  endfacet
  facet normal 0 0 -1
    outer loop
      vertex 60 46.7333 1.5
      vertex 61.5 75.5 1.5
      vertex 60 39.35 1.5
    endloop
  endfacet
  facet normal 0 0 -1
    outer loop
      vertex 60 48.2333 1.5
      vertex 61.5 75.5 1.5
      vertex 60 46.7333 1.5
    endloop
  endfacet
  facet normal 0 0 -1
    outer loop
      vertex 60 49.9333 1.5
      vertex 61.5 75.5 1.5
      vertex 60 48.2333 1.5
    endloop
  endfacet
  facet normal 0 0 -1
    outer loop
      vertex 60 51.4333 1.5
      vertex 61.5 75.5 1.5
      vertex 60 49.9333 1.5
    endloop
  endfacet
  facet normal 0 0 -1
    outer loop
      vertex 58.5 51.4333 1.5
      vertex 61.5 75.5 1.5
      vertex 60 51.4333 1.5
    endloop
  endfacet
  facet normal 0 0 -1
    outer loop
      vertex 58.5 51.4333 1.5
      vertex 56 75.5 1.5
      vertex 61.5 75.5 1.5
    endloop
  endfacet
  facet normal 0 0 -1
    outer loop
      vertex 58.5 49.9333 1.5
      vertex 56 75.5 1.5
      vertex 58.5 51.4333 1.5
    endloop
  endfacet
  facet normal 0 1 -0
    outer loop
      vertex 61.5 1.5 0
      vertex 56 1.5 1.5
      vertex 61.5 1.5 1.5
    endloop
  endfacet
  facet normal 0 1 0
    outer loop
      vertex 56 1.5 1.5
      vertex 61.5 1.5 0
      vertex 56 1.5 0
    endloop
  endfacet
  facet normal 1 -0 0
    outer loop
      vertex 13.5 0 10.5833
      vertex 13.5 0.2 4.58333
      vertex 13.5 0.2 10.5833
    endloop
  endfacet
  facet normal 1 0 0
    outer loop
      vertex 13.5 0.2 4.58333
      vertex 13.5 0 10.5833
      vertex 13.5 0 4.58333
    endloop
  endfacet
  facet normal 0 0 -1
    outer loop
      vertex 13.5 0 10.5833
      vertex 51.5 0.2 10.5833
      vertex 51.5 0 10.5833
    endloop
  endfacet
  facet normal -0 0 -1
    outer loop
      vertex 51.5 0.2 10.5833
      vertex 13.5 0 10.5833
      vertex 13.5 0.2 10.5833
    endloop
  endfacet
  facet normal -1 0 0
    outer loop
      vertex 51.5 0 4.58333
      vertex 51.5 0.2 10.5833
      vertex 51.5 0.2 4.58333
    endloop
  endfacet
  facet normal -1 -0 0
    outer loop
      vertex 51.5 0.2 10.5833
      vertex 51.5 0 4.58333
      vertex 51.5 0 10.5833
    endloop
  endfacet
  facet normal 0 -1 0
    outer loop
      vertex 13.5 0.2 4.58333
      vertex 51.5 0.2 10.5833
      vertex 13.5 0.2 10.5833
    endloop
  endfacet
  facet normal 0 -1 -0
    outer loop
      vertex 51.5 0.2 10.5833
      vertex 13.5 0.2 4.58333
      vertex 51.5 0.2 4.58333
    endloop
  endfacet
  facet normal -0 0 1
    outer loop
      vertex 13.5 0.2 4.58333
      vertex 51.5 0 4.58333
      vertex 51.5 0.2 4.58333
    endloop
  endfacet
  facet normal 0 0 1
    outer loop
      vertex 51.5 0 4.58333
      vertex 13.5 0.2 4.58333
      vertex 13.5 0 4.58333
    endloop
  endfacet
  facet normal -0.98769 0 -0.156422
    outer loop
      vertex 8.5 0 7.58333
      vertex 8.45106 1.5 7.89235
      vertex 8.5 1.5 7.58333
    endloop
  endfacet
  facet normal -0.98769 -0 -0.156422
    outer loop
      vertex 8.45106 1.5 7.89235
      vertex 8.5 0 7.58333
      vertex 8.45106 0 7.89235
    endloop
  endfacet
  facet normal -0.891007 0 -0.453989
    outer loop
      vertex 8.45106 0 7.89235
      vertex 8.30902 1.5 8.17112
      vertex 8.45106 1.5 7.89235
    endloop
  endfacet
  facet normal -0.891007 -0 -0.453989
    outer loop
      vertex 8.30902 1.5 8.17112
      vertex 8.45106 0 7.89235
      vertex 8.30902 0 8.17112
    endloop
  endfacet
  facet normal 0.156422 0 -0.98769
    outer loop
      vertex 7.19098 0 8.53439
      vertex 7.5 1.5 8.58333
      vertex 7.5 0 8.58333
    endloop
  endfacet
  facet normal 0.156422 0 -0.98769
    outer loop
      vertex 7.5 1.5 8.58333
      vertex 7.19098 0 8.53439
      vertex 7.19098 1.5 8.53439
    endloop
  endfacet
  facet normal -0.454002 0 0.891
    outer loop
      vertex 7.80902 1.5 6.63228
      vertex 8.08778 0 6.77432
      vertex 8.08778 1.5 6.77432
    endloop
  endfacet
  facet normal -0.454002 0 0.891
    outer loop
      vertex 8.08778 0 6.77432
      vertex 7.80902 1.5 6.63228
      vertex 7.80902 0 6.63228
    endloop
  endfacet
  facet normal -0.707091 0 -0.707123
    outer loop
      vertex 8.30902 0 8.17112
      vertex 8.08778 1.5 8.39235
      vertex 8.30902 1.5 8.17112
    endloop
  endfacet
  facet normal -0.707091 -0 -0.707123
    outer loop
      vertex 8.08778 1.5 8.39235
      vertex 8.30902 0 8.17112
      vertex 8.08778 0 8.39235
    endloop
  endfacet
  facet normal 0.891007 0 -0.453989
    outer loop
      vertex 6.69098 0 8.17112
      vertex 6.54894 1.5 7.89235
      vertex 6.69098 1.5 8.17112
    endloop
  endfacet
  facet normal 0.891007 0 -0.453989
    outer loop
      vertex 6.54894 1.5 7.89235
      vertex 6.69098 0 8.17112
      vertex 6.54894 0 7.89235
    endloop
  endfacet
  facet normal 0.453989 0 -0.891007
    outer loop
      vertex 6.91221 0 8.39235
      vertex 7.19098 1.5 8.53439
      vertex 7.19098 0 8.53439
    endloop
  endfacet
  facet normal 0.453989 0 -0.891007
    outer loop
      vertex 7.19098 1.5 8.53439
      vertex 6.91221 0 8.39235
      vertex 6.91221 1.5 8.39235
    endloop
  endfacet
  facet normal -0.156422 0 -0.98769
    outer loop
      vertex 7.5 0 8.58333
      vertex 7.80902 1.5 8.53439
      vertex 7.80902 0 8.53439
    endloop
  endfacet
  facet normal -0.156422 0 -0.98769
    outer loop
      vertex 7.80902 1.5 8.53439
      vertex 7.5 0 8.58333
      vertex 7.5 1.5 8.58333
    endloop
  endfacet
  facet normal -0.454002 0 -0.891
    outer loop
      vertex 7.80902 0 8.53439
      vertex 8.08778 1.5 8.39235
      vertex 8.08778 0 8.39235
    endloop
  endfacet
  facet normal -0.454002 0 -0.891
    outer loop
      vertex 8.08778 1.5 8.39235
      vertex 7.80902 0 8.53439
      vertex 7.80902 1.5 8.53439
    endloop
  endfacet
  facet normal 0.98769 0 -0.156422
    outer loop
      vertex 6.54894 0 7.89235
      vertex 6.5 1.5 7.58333
      vertex 6.54894 1.5 7.89235
    endloop
  endfacet
  facet normal 0.98769 0 -0.156422
    outer loop
      vertex 6.5 1.5 7.58333
      vertex 6.54894 0 7.89235
      vertex 6.5 0 7.58333
    endloop
  endfacet
  facet normal 0.98769 -0 0.156427
    outer loop
      vertex 6.5 0 7.58333
      vertex 6.54894 1.5 7.27432
      vertex 6.5 1.5 7.58333
    endloop
  endfacet
  facet normal 0.98769 0 0.156427
    outer loop
      vertex 6.54894 1.5 7.27432
      vertex 6.5 0 7.58333
      vertex 6.54894 0 7.27432
    endloop
  endfacet
  facet normal 0.707107 -0 0.707107
    outer loop
      vertex 6.69098 0 6.99555
      vertex 6.91221 1.5 6.77432
      vertex 6.69098 1.5 6.99555
    endloop
  endfacet
  facet normal 0.707107 0 0.707107
    outer loop
      vertex 6.91221 1.5 6.77432
      vertex 6.69098 0 6.99555
      vertex 6.91221 0 6.77432
    endloop
  endfacet
  facet normal 0.891007 -0 0.453989
    outer loop
      vertex 6.54894 0 7.27432
      vertex 6.69098 1.5 6.99555
      vertex 6.54894 1.5 7.27432
    endloop
  endfacet
  facet normal 0.891007 0 0.453989
    outer loop
      vertex 6.69098 1.5 6.99555
      vertex 6.54894 0 7.27432
      vertex 6.69098 0 6.99555
    endloop
  endfacet
  facet normal -0.156453 0 0.987685
    outer loop
      vertex 7.5 1.5 6.58333
      vertex 7.80902 0 6.63228
      vertex 7.80902 1.5 6.63228
    endloop
  endfacet
  facet normal -0.156453 0 0.987685
    outer loop
      vertex 7.80902 0 6.63228
      vertex 7.5 1.5 6.58333
      vertex 7.5 0 6.58333
    endloop
  endfacet
  facet normal -0.707091 0 0.707123
    outer loop
      vertex 8.08778 0 6.77432
      vertex 8.30902 1.5 6.99555
      vertex 8.08778 1.5 6.77432
    endloop
  endfacet
  facet normal -0.707091 0 0.707123
    outer loop
      vertex 8.30902 1.5 6.99555
      vertex 8.08778 0 6.77432
      vertex 8.30902 0 6.99555
    endloop
  endfacet
  facet normal -0.98769 0 0.156427
    outer loop
      vertex 8.45106 0 7.27432
      vertex 8.5 1.5 7.58333
      vertex 8.45106 1.5 7.27432
    endloop
  endfacet
  facet normal -0.98769 0 0.156427
    outer loop
      vertex 8.5 1.5 7.58333
      vertex 8.45106 0 7.27432
      vertex 8.5 0 7.58333
    endloop
  endfacet
  facet normal 0.707107 0 -0.707107
    outer loop
      vertex 6.91221 0 8.39235
      vertex 6.69098 1.5 8.17112
      vertex 6.91221 1.5 8.39235
    endloop
  endfacet
  facet normal 0.707107 0 -0.707107
    outer loop
      vertex 6.69098 1.5 8.17112
      vertex 6.91221 0 8.39235
      vertex 6.69098 0 8.17112
    endloop
  endfacet
  facet normal 0.453989 0 0.891007
    outer loop
      vertex 6.91221 1.5 6.77432
      vertex 7.19098 0 6.63228
      vertex 7.19098 1.5 6.63228
    endloop
  endfacet
  facet normal 0.453989 0 0.891007
    outer loop
      vertex 7.19098 0 6.63228
      vertex 6.91221 1.5 6.77432
      vertex 6.91221 0 6.77432
    endloop
  endfacet
  facet normal 0.156453 0 0.987685
    outer loop
      vertex 7.19098 1.5 6.63228
      vertex 7.5 0 6.58333
      vertex 7.5 1.5 6.58333
    endloop
  endfacet
  facet normal 0.156453 0 0.987685
    outer loop
      vertex 7.5 0 6.58333
      vertex 7.19098 1.5 6.63228
      vertex 7.19098 0 6.63228
    endloop
  endfacet
  facet normal -0.891007 0 0.453989
    outer loop
      vertex 8.30902 0 6.99555
      vertex 8.45106 1.5 7.27432
      vertex 8.30902 1.5 6.99555
    endloop
  endfacet
  facet normal -0.891007 0 0.453989
    outer loop
      vertex 8.45106 1.5 7.27432
      vertex 8.30902 0 6.99555
      vertex 8.45106 0 7.27432
    endloop
  endfacet
  facet normal 1 -0 0
    outer loop
      vertex 3 22.5667 15.1667
      vertex 3 24.0667 3
      vertex 3 24.0667 15.1667
    endloop
  endfacet
  facet normal 1 0 0
    outer loop
      vertex 3 24.0667 3
      vertex 3 22.5667 15.1667
      vertex 3 22.5667 3
    endloop
  endfacet
  facet normal 0 -1 0
    outer loop
      vertex 1.5 22.5667 3
      vertex 3 22.5667 15.1667
      vertex 1.5 22.5667 15.1667
    endloop
  endfacet
  facet normal 0 -1 -0
    outer loop
      vertex 3 22.5667 15.1667
      vertex 1.5 22.5667 3
      vertex 3 22.5667 3
    endloop
  endfacet
  facet normal 0 1 -0
    outer loop
      vertex 3 24.0667 3
      vertex 1.5 24.0667 15.1667
      vertex 3 24.0667 15.1667
    endloop
  endfacet
  facet normal 0 1 0
    outer loop
      vertex 1.5 24.0667 15.1667
      vertex 3 24.0667 3
      vertex 1.5 24.0667 3
    endloop
  endfacet
  facet normal 1 -0 0
    outer loop
      vertex 3 25.7667 15.1667
      vertex 3 27.2667 3
      vertex 3 27.2667 15.1667
    endloop
  endfacet
  facet normal 1 0 0
    outer loop
      vertex 3 27.2667 3
      vertex 3 25.7667 15.1667
      vertex 3 25.7667 3
    endloop
  endfacet
  facet normal 0 1 -0
    outer loop
      vertex 3 27.2667 3
      vertex 1.5 27.2667 15.1667
      vertex 3 27.2667 15.1667
    endloop
  endfacet
  facet normal 0 1 0
    outer loop
      vertex 1.5 27.2667 15.1667
      vertex 3 27.2667 3
      vertex 1.5 27.2667 3
    endloop
  endfacet
  facet normal 0 -1 0
    outer loop
      vertex 1.5 25.7667 3
      vertex 3 25.7667 15.1667
      vertex 1.5 25.7667 15.1667
    endloop
  endfacet
  facet normal 0 -1 -0
    outer loop
      vertex 3 25.7667 15.1667
      vertex 1.5 25.7667 3
      vertex 3 25.7667 3
    endloop
  endfacet
  facet normal -1 0 0
    outer loop
      vertex 58.5 22.5667 3
      vertex 58.5 24.0667 15.1667
      vertex 58.5 24.0667 3
    endloop
  endfacet
  facet normal -1 -0 0
    outer loop
      vertex 58.5 24.0667 15.1667
      vertex 58.5 22.5667 3
      vertex 58.5 22.5667 15.1667
    endloop
  endfacet
  facet normal 0 1 -0
    outer loop
      vertex 60 24.0667 3
      vertex 58.5 24.0667 15.1667
      vertex 60 24.0667 15.1667
    endloop
  endfacet
  facet normal 0 1 0
    outer loop
      vertex 58.5 24.0667 15.1667
      vertex 60 24.0667 3
      vertex 58.5 24.0667 3
    endloop
  endfacet
  facet normal 0 -1 0
    outer loop
      vertex 58.5 22.5667 3
      vertex 60 22.5667 15.1667
      vertex 58.5 22.5667 15.1667
    endloop
  endfacet
  facet normal 0 -1 -0
    outer loop
      vertex 60 22.5667 15.1667
      vertex 58.5 22.5667 3
      vertex 60 22.5667 3
    endloop
  endfacet
  facet normal -1 0 0
    outer loop
      vertex 58.5 25.7667 3
      vertex 58.5 27.2667 15.1667
      vertex 58.5 27.2667 3
    endloop
  endfacet
  facet normal -1 -0 0
    outer loop
      vertex 58.5 27.2667 15.1667
      vertex 58.5 25.7667 3
      vertex 58.5 25.7667 15.1667
    endloop
  endfacet
  facet normal 0 -1 0
    outer loop
      vertex 58.5 25.7667 3
      vertex 60 25.7667 15.1667
      vertex 58.5 25.7667 15.1667
    endloop
  endfacet
  facet normal 0 -1 -0
    outer loop
      vertex 60 25.7667 15.1667
      vertex 58.5 25.7667 3
      vertex 60 25.7667 3
    endloop
  endfacet
  facet normal 0 1 -0
    outer loop
      vertex 60 27.2667 3
      vertex 58.5 27.2667 15.1667
      vertex 60 27.2667 15.1667
    endloop
  endfacet
  facet normal 0 1 0
    outer loop
      vertex 58.5 27.2667 15.1667
      vertex 60 27.2667 3
      vertex 58.5 27.2667 3
    endloop
  endfacet
  facet normal 1 -0 0
    outer loop
      vertex 3 46.7333 15.1667
      vertex 3 48.2333 3
      vertex 3 48.2333 15.1667
    endloop
  endfacet
  facet normal 1 0 0
    outer loop
      vertex 3 48.2333 3
      vertex 3 46.7333 15.1667
      vertex 3 46.7333 3
    endloop
  endfacet
  facet normal 0 -1 0
    outer loop
      vertex 1.5 46.7333 3
      vertex 3 46.7333 15.1667
      vertex 1.5 46.7333 15.1667
    endloop
  endfacet
  facet normal 0 -1 -0
    outer loop
      vertex 3 46.7333 15.1667
      vertex 1.5 46.7333 3
      vertex 3 46.7333 3
    endloop
  endfacet
  facet normal 0 1 -0
    outer loop
      vertex 3 48.2333 3
      vertex 1.5 48.2333 15.1667
      vertex 3 48.2333 15.1667
    endloop
  endfacet
  facet normal 0 1 0
    outer loop
      vertex 1.5 48.2333 15.1667
      vertex 3 48.2333 3
      vertex 1.5 48.2333 3
    endloop
  endfacet
  facet normal 1 -0 0
    outer loop
      vertex 3 49.9333 15.1667
      vertex 3 51.4333 3
      vertex 3 51.4333 15.1667
    endloop
  endfacet
  facet normal 1 0 0
    outer loop
      vertex 3 51.4333 3
      vertex 3 49.9333 15.1667
      vertex 3 49.9333 3
    endloop
  endfacet
  facet normal 0 -1 0
    outer loop
      vertex 1.5 49.9333 3
      vertex 3 49.9333 15.1667
      vertex 1.5 49.9333 15.1667
    endloop
  endfacet
  facet normal 0 -1 -0
    outer loop
      vertex 3 49.9333 15.1667
      vertex 1.5 49.9333 3
      vertex 3 49.9333 3
    endloop
  endfacet
  facet normal 0 1 -0
    outer loop
      vertex 3 51.4333 3
      vertex 1.5 51.4333 15.1667
      vertex 3 51.4333 15.1667
    endloop
  endfacet
  facet normal 0 1 0
    outer loop
      vertex 1.5 51.4333 15.1667
      vertex 3 51.4333 3
      vertex 1.5 51.4333 3
    endloop
  endfacet
  facet normal -1 0 0
    outer loop
      vertex 58.5 46.7333 3
      vertex 58.5 48.2333 15.1667
      vertex 58.5 48.2333 3
    endloop
  endfacet
  facet normal -1 -0 0
    outer loop
      vertex 58.5 48.2333 15.1667
      vertex 58.5 46.7333 3
      vertex 58.5 46.7333 15.1667
    endloop
  endfacet
  facet normal 0 -1 0
    outer loop
      vertex 58.5 46.7333 3
      vertex 60 46.7333 15.1667
      vertex 58.5 46.7333 15.1667
    endloop
  endfacet
  facet normal 0 -1 -0
    outer loop
      vertex 60 46.7333 15.1667
      vertex 58.5 46.7333 3
      vertex 60 46.7333 3
    endloop
  endfacet
  facet normal 0 1 -0
    outer loop
      vertex 60 48.2333 3
      vertex 58.5 48.2333 15.1667
      vertex 60 48.2333 15.1667
    endloop
  endfacet
  facet normal 0 1 0
    outer loop
      vertex 58.5 48.2333 15.1667
      vertex 60 48.2333 3
      vertex 58.5 48.2333 3
    endloop
  endfacet
  facet normal -1 0 0
    outer loop
      vertex 58.5 49.9333 3
      vertex 58.5 51.4333 15.1667
      vertex 58.5 51.4333 3
    endloop
  endfacet
  facet normal -1 -0 0
    outer loop
      vertex 58.5 51.4333 15.1667
      vertex 58.5 49.9333 3
      vertex 58.5 49.9333 15.1667
    endloop
  endfacet
  facet normal 0 1 -0
    outer loop
      vertex 60 51.4333 3
      vertex 58.5 51.4333 15.1667
      vertex 60 51.4333 15.1667
    endloop
  endfacet
  facet normal 0 1 0
    outer loop
      vertex 58.5 51.4333 15.1667
      vertex 60 51.4333 3
      vertex 58.5 51.4333 3
    endloop
  endfacet
  facet normal 0 -1 0
    outer loop
      vertex 58.5 49.9333 3
      vertex 60 49.9333 15.1667
      vertex 58.5 49.9333 15.1667
    endloop
  endfacet
  facet normal 0 -1 -0
    outer loop
      vertex 60 49.9333 15.1667
      vertex 58.5 49.9333 3
      vertex 60 49.9333 3
    endloop
  endfacet
  facet normal 1 -0 0
    outer loop
      vertex 3 34.65 15.1667
      vertex 3 36.15 3
      vertex 3 36.15 15.1667
    endloop
  endfacet
  facet normal 1 0 0
    outer loop
      vertex 3 36.15 3
      vertex 3 34.65 15.1667
      vertex 3 34.65 3
    endloop
  endfacet
  facet normal 0 1 -0
    outer loop
      vertex 3 36.15 3
      vertex 1.5 36.15 15.1667
      vertex 3 36.15 15.1667
    endloop
  endfacet
  facet normal 0 1 0
    outer loop
      vertex 1.5 36.15 15.1667
      vertex 3 36.15 3
      vertex 1.5 36.15 3
    endloop
  endfacet
  facet normal 0 -1 0
    outer loop
      vertex 1.5 34.65 3
      vertex 3 34.65 15.1667
      vertex 1.5 34.65 15.1667
    endloop
  endfacet
  facet normal 0 -1 -0
    outer loop
      vertex 3 34.65 15.1667
      vertex 1.5 34.65 3
      vertex 3 34.65 3
    endloop
  endfacet
  facet normal 1 -0 0
    outer loop
      vertex 3 37.85 15.1667
      vertex 3 39.35 3
      vertex 3 39.35 15.1667
    endloop
  endfacet
  facet normal 1 0 0
    outer loop
      vertex 3 39.35 3
      vertex 3 37.85 15.1667
      vertex 3 37.85 3
    endloop
  endfacet
  facet normal 0 1 -0
    outer loop
      vertex 3 39.35 3
      vertex 1.5 39.35 15.1667
      vertex 3 39.35 15.1667
    endloop
  endfacet
  facet normal 0 1 0
    outer loop
      vertex 1.5 39.35 15.1667
      vertex 3 39.35 3
      vertex 1.5 39.35 3
    endloop
  endfacet
  facet normal 0 -1 0
    outer loop
      vertex 1.5 37.85 3
      vertex 3 37.85 15.1667
      vertex 1.5 37.85 15.1667
    endloop
  endfacet
  facet normal 0 -1 -0
    outer loop
      vertex 3 37.85 15.1667
      vertex 1.5 37.85 3
      vertex 3 37.85 3
    endloop
  endfacet
  facet normal -1 0 0
    outer loop
      vertex 58.5 34.65 3
      vertex 58.5 36.15 15.1667
      vertex 58.5 36.15 3
    endloop
  endfacet
  facet normal -1 -0 0
    outer loop
      vertex 58.5 36.15 15.1667
      vertex 58.5 34.65 3
      vertex 58.5 34.65 15.1667
    endloop
  endfacet
  facet normal 0 -1 0
    outer loop
      vertex 58.5 34.65 3
      vertex 60 34.65 15.1667
      vertex 58.5 34.65 15.1667
    endloop
  endfacet
  facet normal 0 -1 -0
    outer loop
      vertex 60 34.65 15.1667
      vertex 58.5 34.65 3
      vertex 60 34.65 3
    endloop
  endfacet
  facet normal 0 1 -0
    outer loop
      vertex 60 36.15 3
      vertex 58.5 36.15 15.1667
      vertex 60 36.15 15.1667
    endloop
  endfacet
  facet normal 0 1 0
    outer loop
      vertex 58.5 36.15 15.1667
      vertex 60 36.15 3
      vertex 58.5 36.15 3
    endloop
  endfacet
  facet normal -1 0 0
    outer loop
      vertex 58.5 37.85 3
      vertex 58.5 39.35 15.1667
      vertex 58.5 39.35 3
    endloop
  endfacet
  facet normal -1 -0 0
    outer loop
      vertex 58.5 39.35 15.1667
      vertex 58.5 37.85 3
      vertex 58.5 37.85 15.1667
    endloop
  endfacet
  facet normal 0 1 -0
    outer loop
      vertex 60 39.35 3
      vertex 58.5 39.35 15.1667
      vertex 60 39.35 15.1667
    endloop
  endfacet
  facet normal 0 1 0
    outer loop
      vertex 58.5 39.35 15.1667
      vertex 60 39.35 3
      vertex 58.5 39.35 3
    endloop
  endfacet
  facet normal 0 -1 0
    outer loop
      vertex 58.5 37.85 3
      vertex 60 37.85 15.1667
      vertex 58.5 37.85 15.1667
    endloop
  endfacet
  facet normal 0 -1 -0
    outer loop
      vertex 60 37.85 15.1667
      vertex 58.5 37.85 3
      vertex 60 37.85 3
    endloop
  endfacet
endsolid OpenSCAD_Model
