solid OpenSCAD_Model
  facet normal -1 0 0
    outer loop
      vertex 0 20 0
      vertex 0 4 4
      vertex 0 20 4
    endloop
  endfacet
  facet normal -1 -0 0
    outer loop
      vertex 0 4 4
      vertex 0 0 0
      vertex 0 4 89
    endloop
  endfacet
  facet normal -1 0 0
    outer loop
      vertex 0 0 0
      vertex 0 4 4
      vertex 0 20 0
    endloop
  endfacet
  facet normal -1 0 0
    outer loop
      vertex 0 4 89
      vertex 0 20 93
      vertex 0 20 89
    endloop
  endfacet
  facet normal -1 0 0
    outer loop
      vertex 0 4 89
      vertex 0 0 93
      vertex 0 20 93
    endloop
  endfacet
  facet normal -1 0 0
    outer loop
      vertex 0 0 93
      vertex 0 4 89
      vertex 0 0 0
    endloop
  endfacet
  facet normal 0 0 -1
    outer loop
      vertex 115 4 89
      vertex 135 20 89
      vertex 135 4 89
    endloop
  endfacet
  facet normal -0 0 -1
    outer loop
      vertex 135 20 89
      vertex 115 4 89
      vertex 115 20 89
    endloop
  endfacet
  facet normal 0 0 -1
    outer loop
      vertex 0 4 89
      vertex 20 20 89
      vertex 20 4 89
    endloop
  endfacet
  facet normal -0 0 -1
    outer loop
      vertex 20 20 89
      vertex 0 4 89
      vertex 0 20 89
    endloop
  endfacet
  facet normal 0 0 -1
    outer loop
      vertex 24 4 89
      vertex 111 20 89
      vertex 111 4 89
    endloop
  endfacet
  facet normal -0 0 -1
    outer loop
      vertex 111 20 89
      vertex 24 4 89
      vertex 24 20 89
    endloop
  endfacet
  facet normal 1 0 0
    outer loop
      vertex 135 20 93
      vertex 135 4 89
      vertex 135 20 89
    endloop
  endfacet
  facet normal 1 0 0
    outer loop
      vertex 135 4 89
      vertex 135 0 93
      vertex 135 4 4
    endloop
  endfacet
  facet normal 1 -0 0
    outer loop
      vertex 135 0 93
      vertex 135 4 89
      vertex 135 20 93
    endloop
  endfacet
  facet normal 1 -0 0
    outer loop
      vertex 135 4 4
      vertex 135 20 0
      vertex 135 20 4
    endloop
  endfacet
  facet normal 1 0 0
    outer loop
      vertex 135 4 4
      vertex 135 0 0
      vertex 135 20 0
    endloop
  endfacet
  facet normal 1 0 0
    outer loop
      vertex 135 0 0
      vertex 135 4 4
      vertex 135 0 93
    endloop
  endfacet
  facet normal -0 0 1
    outer loop
      vertex 115 20 4
      vertex 135 4 4
      vertex 135 20 4
    endloop
  endfacet
  facet normal 0 0 1
    outer loop
      vertex 135 4 4
      vertex 115 20 4
      vertex 115 4 4
    endloop
  endfacet
  facet normal -0 0 1
    outer loop
      vertex 0 20 4
      vertex 20 4 4
      vertex 20 20 4
    endloop
  endfacet
  facet normal 0 0 1
    outer loop
      vertex 20 4 4
      vertex 0 20 4
      vertex 0 4 4
    endloop
  endfacet
  facet normal -0 0 1
    outer loop
      vertex 24 20 4
      vertex 111 4 4
      vertex 111 20 4
    endloop
  endfacet
  facet normal 0 0 1
    outer loop
      vertex 111 4 4
      vertex 24 20 4
      vertex 24 4 4
    endloop
  endfacet
  facet normal 0 -1 0
    outer loop
      vertex 0 0 93
      vertex 67.5 0 84
      vertex 135 0 93
    endloop
  endfacet
  facet normal 0 -1 0
    outer loop
      vertex 0 0 93
      vertex 65.1454 0 83.926
      vertex 67.5 0 84
    endloop
  endfacet
  facet normal 0 -1 0
    outer loop
      vertex 0 0 93
      vertex 62.8 0 83.7043
      vertex 65.1454 0 83.926
    endloop
  endfacet
  facet normal 0 -1 0
    outer loop
      vertex 0 0 93
      vertex 60.4732 0 83.3358
      vertex 62.8 0 83.7043
    endloop
  endfacet
  facet normal 0 -1 0
    outer loop
      vertex 0 0 93
      vertex 58.1741 0 82.8219
      vertex 60.4732 0 83.3358
    endloop
  endfacet
  facet normal 0 -1 0
    outer loop
      vertex 0 0 93
      vertex 55.9119 0 82.1646
      vertex 58.1741 0 82.8219
    endloop
  endfacet
  facet normal 0 -1 0
    outer loop
      vertex 0 0 93
      vertex 53.6953 0 81.3666
      vertex 55.9119 0 82.1646
    endloop
  endfacet
  facet normal 0 -1 0
    outer loop
      vertex 0 0 93
      vertex 51.5333 0 80.431
      vertex 53.6953 0 81.3666
    endloop
  endfacet
  facet normal 0 -1 0
    outer loop
      vertex 0 0 93
      vertex 49.4342 0 79.3615
      vertex 51.5333 0 80.431
    endloop
  endfacet
  facet normal 0 -1 0
    outer loop
      vertex 0 0 93
      vertex 47.4065 0 78.1623
      vertex 49.4342 0 79.3615
    endloop
  endfacet
  facet normal 0 -1 0
    outer loop
      vertex 0 0 93
      vertex 45.4581 0 76.8381
      vertex 47.4065 0 78.1623
    endloop
  endfacet
  facet normal 0 -1 0
    outer loop
      vertex 0 0 93
      vertex 43.5966 0 75.3942
      vertex 45.4581 0 76.8381
    endloop
  endfacet
  facet normal 0 -1 0
    outer loop
      vertex 0 0 93
      vertex 41.8295 0 73.8363
      vertex 43.5966 0 75.3942
    endloop
  endfacet
  facet normal 0 -1 0
    outer loop
      vertex 0 0 93
      vertex 40.1637 0 72.1705
      vertex 41.8295 0 73.8363
    endloop
  endfacet
  facet normal 0 -1 0
    outer loop
      vertex 0 0 93
      vertex 38.6058 0 70.4034
      vertex 40.1637 0 72.1705
    endloop
  endfacet
  facet normal 0 -1 0
    outer loop
      vertex 0 0 93
      vertex 37.1619 0 68.5419
      vertex 38.6058 0 70.4034
    endloop
  endfacet
  facet normal 0 -1 0
    outer loop
      vertex 0 0 93
      vertex 35.8377 0 66.5935
      vertex 37.1619 0 68.5419
    endloop
  endfacet
  facet normal 0 -1 0
    outer loop
      vertex 0 0 93
      vertex 34.6385 0 64.5658
      vertex 35.8377 0 66.5935
    endloop
  endfacet
  facet normal 0 -1 0
    outer loop
      vertex 0 0 93
      vertex 33.569 0 62.4667
      vertex 34.6385 0 64.5658
    endloop
  endfacet
  facet normal 0 -1 0
    outer loop
      vertex 0 0 93
      vertex 32.6334 0 60.3047
      vertex 33.569 0 62.4667
    endloop
  endfacet
  facet normal 0 -1 0
    outer loop
      vertex 0 0 93
      vertex 31.8354 0 58.0881
      vertex 32.6334 0 60.3047
    endloop
  endfacet
  facet normal 0 -1 0
    outer loop
      vertex 0 0 93
      vertex 31.1781 0 55.8259
      vertex 31.8354 0 58.0881
    endloop
  endfacet
  facet normal 0 -1 0
    outer loop
      vertex 0 0 93
      vertex 30.6642 0 53.5268
      vertex 31.1781 0 55.8259
    endloop
  endfacet
  facet normal 0 -1 0
    outer loop
      vertex 0 0 93
      vertex 30.2957 0 51.2
      vertex 30.6642 0 53.5268
    endloop
  endfacet
  facet normal 0 -1 0
    outer loop
      vertex 0 0 93
      vertex 30.074 0 48.8546
      vertex 30.2957 0 51.2
    endloop
  endfacet
  facet normal 0 -1 0
    outer loop
      vertex 0 0 93
      vertex 30 0 46.5
      vertex 30.074 0 48.8546
    endloop
  endfacet
  facet normal 0 -1 0
    outer loop
      vertex 0 0 0
      vertex 30 0 46.5
      vertex 0 0 93
    endloop
  endfacet
  facet normal 0 -1 -0
    outer loop
      vertex 30 0 46.5
      vertex 0 0 0
      vertex 30.074 0 44.1454
    endloop
  endfacet
  facet normal 0 -1 -0
    outer loop
      vertex 30.074 0 44.1454
      vertex 0 0 0
      vertex 30.2957 0 41.8
    endloop
  endfacet
  facet normal 0 -1 -0
    outer loop
      vertex 30.2957 0 41.8
      vertex 0 0 0
      vertex 30.6642 0 39.4732
    endloop
  endfacet
  facet normal 0 -1 -0
    outer loop
      vertex 30.6642 0 39.4732
      vertex 0 0 0
      vertex 31.1781 0 37.1741
    endloop
  endfacet
  facet normal 0 -1 -0
    outer loop
      vertex 31.1781 0 37.1741
      vertex 0 0 0
      vertex 31.8354 0 34.9119
    endloop
  endfacet
  facet normal 0 -1 -0
    outer loop
      vertex 31.8354 0 34.9119
      vertex 0 0 0
      vertex 32.6334 0 32.6953
    endloop
  endfacet
  facet normal 0 -1 -0
    outer loop
      vertex 32.6334 0 32.6953
      vertex 0 0 0
      vertex 33.569 0 30.5333
    endloop
  endfacet
  facet normal 0 -1 -0
    outer loop
      vertex 65.1454 0 9.074
      vertex 0 0 0
      vertex 67.5 0 9
    endloop
  endfacet
  facet normal 0 -1 -0
    outer loop
      vertex 62.8 0 9.2957
      vertex 0 0 0
      vertex 65.1454 0 9.074
    endloop
  endfacet
  facet normal 0 -1 -0
    outer loop
      vertex 60.4732 0 9.66423
      vertex 0 0 0
      vertex 62.8 0 9.2957
    endloop
  endfacet
  facet normal 0 -1 -0
    outer loop
      vertex 58.1741 0 10.1781
      vertex 0 0 0
      vertex 60.4732 0 9.66423
    endloop
  endfacet
  facet normal 0 -1 -0
    outer loop
      vertex 55.9119 0 10.8354
      vertex 0 0 0
      vertex 58.1741 0 10.1781
    endloop
  endfacet
  facet normal 0 -1 -0
    outer loop
      vertex 53.6953 0 11.6334
      vertex 0 0 0
      vertex 55.9119 0 10.8354
    endloop
  endfacet
  facet normal 0 -1 -0
    outer loop
      vertex 51.5333 0 12.569
      vertex 0 0 0
      vertex 53.6953 0 11.6334
    endloop
  endfacet
  facet normal 0 -1 -0
    outer loop
      vertex 49.4342 0 13.6385
      vertex 0 0 0
      vertex 51.5333 0 12.569
    endloop
  endfacet
  facet normal 0 -1 -0
    outer loop
      vertex 47.4065 0 14.8377
      vertex 0 0 0
      vertex 49.4342 0 13.6385
    endloop
  endfacet
  facet normal 0 -1 -0
    outer loop
      vertex 45.4581 0 16.1619
      vertex 0 0 0
      vertex 47.4065 0 14.8377
    endloop
  endfacet
  facet normal 0 -1 -0
    outer loop
      vertex 43.5966 0 17.6058
      vertex 0 0 0
      vertex 45.4581 0 16.1619
    endloop
  endfacet
  facet normal 0 -1 -0
    outer loop
      vertex 41.8295 0 19.1637
      vertex 0 0 0
      vertex 43.5966 0 17.6058
    endloop
  endfacet
  facet normal 0 -1 -0
    outer loop
      vertex 40.1637 0 20.8295
      vertex 0 0 0
      vertex 41.8295 0 19.1637
    endloop
  endfacet
  facet normal 0 -1 -0
    outer loop
      vertex 38.6058 0 22.5966
      vertex 0 0 0
      vertex 40.1637 0 20.8295
    endloop
  endfacet
  facet normal 0 -1 -0
    outer loop
      vertex 37.1619 0 24.4581
      vertex 0 0 0
      vertex 38.6058 0 22.5966
    endloop
  endfacet
  facet normal 0 -1 -0
    outer loop
      vertex 35.8377 0 26.4065
      vertex 0 0 0
      vertex 37.1619 0 24.4581
    endloop
  endfacet
  facet normal 0 -1 -0
    outer loop
      vertex 34.6385 0 28.4342
      vertex 0 0 0
      vertex 35.8377 0 26.4065
    endloop
  endfacet
  facet normal 0 -1 -0
    outer loop
      vertex 33.569 0 30.5333
      vertex 0 0 0
      vertex 34.6385 0 28.4342
    endloop
  endfacet
  facet normal 0 -1 0
    outer loop
      vertex 69.8546 0 83.926
      vertex 135 0 93
      vertex 67.5 0 84
    endloop
  endfacet
  facet normal 0 -1 0
    outer loop
      vertex 72.2 0 83.7043
      vertex 135 0 93
      vertex 69.8546 0 83.926
    endloop
  endfacet
  facet normal 0 -1 0
    outer loop
      vertex 74.5268 0 83.3358
      vertex 135 0 93
      vertex 72.2 0 83.7043
    endloop
  endfacet
  facet normal 0 -1 0
    outer loop
      vertex 76.8259 0 82.8219
      vertex 135 0 93
      vertex 74.5268 0 83.3358
    endloop
  endfacet
  facet normal 0 -1 0
    outer loop
      vertex 79.0881 0 82.1646
      vertex 135 0 93
      vertex 76.8259 0 82.8219
    endloop
  endfacet
  facet normal 0 -1 0
    outer loop
      vertex 81.3047 0 81.3666
      vertex 135 0 93
      vertex 79.0881 0 82.1646
    endloop
  endfacet
  facet normal 0 -1 0
    outer loop
      vertex 83.4667 0 80.431
      vertex 135 0 93
      vertex 81.3047 0 81.3666
    endloop
  endfacet
  facet normal 0 -1 0
    outer loop
      vertex 85.5658 0 79.3615
      vertex 135 0 93
      vertex 83.4667 0 80.431
    endloop
  endfacet
  facet normal 0 -1 0
    outer loop
      vertex 87.5935 0 78.1623
      vertex 135 0 93
      vertex 85.5658 0 79.3615
    endloop
  endfacet
  facet normal 0 -1 0
    outer loop
      vertex 89.5419 0 76.8381
      vertex 135 0 93
      vertex 87.5935 0 78.1623
    endloop
  endfacet
  facet normal 0 -1 0
    outer loop
      vertex 91.4034 0 75.3942
      vertex 135 0 93
      vertex 89.5419 0 76.8381
    endloop
  endfacet
  facet normal 0 -1 0
    outer loop
      vertex 93.1705 0 73.8363
      vertex 135 0 93
      vertex 91.4034 0 75.3942
    endloop
  endfacet
  facet normal 0 -1 0
    outer loop
      vertex 94.8363 0 72.1705
      vertex 135 0 93
      vertex 93.1705 0 73.8363
    endloop
  endfacet
  facet normal 0 -1 0
    outer loop
      vertex 96.3942 0 70.4034
      vertex 135 0 93
      vertex 94.8363 0 72.1705
    endloop
  endfacet
  facet normal 0 -1 0
    outer loop
      vertex 97.8381 0 68.5419
      vertex 135 0 93
      vertex 96.3942 0 70.4034
    endloop
  endfacet
  facet normal 0 -1 0
    outer loop
      vertex 99.1623 0 66.5935
      vertex 135 0 93
      vertex 97.8381 0 68.5419
    endloop
  endfacet
  facet normal 0 -1 0
    outer loop
      vertex 100.361 0 64.5658
      vertex 135 0 93
      vertex 99.1623 0 66.5935
    endloop
  endfacet
  facet normal 0 -1 0
    outer loop
      vertex 101.431 0 62.4667
      vertex 135 0 93
      vertex 100.361 0 64.5658
    endloop
  endfacet
  facet normal 0 -1 0
    outer loop
      vertex 102.367 0 60.3047
      vertex 135 0 93
      vertex 101.431 0 62.4667
    endloop
  endfacet
  facet normal 0 -1 0
    outer loop
      vertex 103.165 0 58.0881
      vertex 135 0 93
      vertex 102.367 0 60.3047
    endloop
  endfacet
  facet normal 0 -1 0
    outer loop
      vertex 103.822 0 55.8259
      vertex 135 0 93
      vertex 103.165 0 58.0881
    endloop
  endfacet
  facet normal 0 -1 0
    outer loop
      vertex 104.336 0 53.5268
      vertex 135 0 93
      vertex 103.822 0 55.8259
    endloop
  endfacet
  facet normal 0 -1 0
    outer loop
      vertex 104.704 0 51.2
      vertex 135 0 93
      vertex 104.336 0 53.5268
    endloop
  endfacet
  facet normal 0 -1 0
    outer loop
      vertex 104.926 0 48.8546
      vertex 135 0 93
      vertex 104.704 0 51.2
    endloop
  endfacet
  facet normal 0 -1 0
    outer loop
      vertex 105 0 46.5
      vertex 135 0 93
      vertex 104.926 0 48.8546
    endloop
  endfacet
  facet normal 0 -1 0
    outer loop
      vertex 135 0 0
      vertex 105 0 46.5
      vertex 104.926 0 44.1454
    endloop
  endfacet
  facet normal 0 -1 0
    outer loop
      vertex 135 0 0
      vertex 104.926 0 44.1454
      vertex 104.704 0 41.8
    endloop
  endfacet
  facet normal 0 -1 0
    outer loop
      vertex 135 0 0
      vertex 104.704 0 41.8
      vertex 104.336 0 39.4732
    endloop
  endfacet
  facet normal 0 -1 0
    outer loop
      vertex 135 0 0
      vertex 104.336 0 39.4732
      vertex 103.822 0 37.1741
    endloop
  endfacet
  facet normal 0 -1 0
    outer loop
      vertex 135 0 0
      vertex 103.822 0 37.1741
      vertex 103.165 0 34.9119
    endloop
  endfacet
  facet normal 0 -1 0
    outer loop
      vertex 135 0 0
      vertex 103.165 0 34.9119
      vertex 102.367 0 32.6953
    endloop
  endfacet
  facet normal 0 -1 0
    outer loop
      vertex 135 0 0
      vertex 102.367 0 32.6953
      vertex 101.431 0 30.5333
    endloop
  endfacet
  facet normal 0 -1 0
    outer loop
      vertex 135 0 0
      vertex 101.431 0 30.5333
      vertex 100.361 0 28.4342
    endloop
  endfacet
  facet normal 0 -1 0
    outer loop
      vertex 135 0 0
      vertex 67.5 0 9
      vertex 0 0 0
    endloop
  endfacet
  facet normal 0 -1 0
    outer loop
      vertex 67.5 0 9
      vertex 135 0 0
      vertex 69.8546 0 9.074
    endloop
  endfacet
  facet normal 0 -1 0
    outer loop
      vertex 105 0 46.5
      vertex 135 0 0
      vertex 135 0 93
    endloop
  endfacet
  facet normal 0 -1 0
    outer loop
      vertex 99.1623 0 26.4065
      vertex 135 0 0
      vertex 100.361 0 28.4342
    endloop
  endfacet
  facet normal 0 -1 0
    outer loop
      vertex 97.8381 0 24.4581
      vertex 135 0 0
      vertex 99.1623 0 26.4065
    endloop
  endfacet
  facet normal 0 -1 0
    outer loop
      vertex 96.3942 0 22.5966
      vertex 135 0 0
      vertex 97.8381 0 24.4581
    endloop
  endfacet
  facet normal 0 -1 0
    outer loop
      vertex 94.8363 0 20.8295
      vertex 135 0 0
      vertex 96.3942 0 22.5966
    endloop
  endfacet
  facet normal 0 -1 0
    outer loop
      vertex 93.1705 0 19.1637
      vertex 135 0 0
      vertex 94.8363 0 20.8295
    endloop
  endfacet
  facet normal 0 -1 0
    outer loop
      vertex 91.4034 0 17.6058
      vertex 135 0 0
      vertex 93.1705 0 19.1637
    endloop
  endfacet
  facet normal 0 -1 0
    outer loop
      vertex 89.5419 0 16.1619
      vertex 135 0 0
      vertex 91.4034 0 17.6058
    endloop
  endfacet
  facet normal 0 -1 0
    outer loop
      vertex 87.5935 0 14.8377
      vertex 135 0 0
      vertex 89.5419 0 16.1619
    endloop
  endfacet
  facet normal 0 -1 0
    outer loop
      vertex 85.5658 0 13.6385
      vertex 135 0 0
      vertex 87.5935 0 14.8377
    endloop
  endfacet
  facet normal 0 -1 0
    outer loop
      vertex 83.4667 0 12.569
      vertex 135 0 0
      vertex 85.5658 0 13.6385
    endloop
  endfacet
  facet normal 0 -1 0
    outer loop
      vertex 81.3047 0 11.6334
      vertex 135 0 0
      vertex 83.4667 0 12.569
    endloop
  endfacet
  facet normal 0 -1 0
    outer loop
      vertex 79.0881 0 10.8354
      vertex 135 0 0
      vertex 81.3047 0 11.6334
    endloop
  endfacet
  facet normal 0 -1 0
    outer loop
      vertex 76.8259 0 10.1781
      vertex 135 0 0
      vertex 79.0881 0 10.8354
    endloop
  endfacet
  facet normal 0 -1 0
    outer loop
      vertex 74.5268 0 9.66423
      vertex 135 0 0
      vertex 76.8259 0 10.1781
    endloop
  endfacet
  facet normal 0 -1 0
    outer loop
      vertex 72.2 0 9.2957
      vertex 135 0 0
      vertex 74.5268 0 9.66423
    endloop
  endfacet
  facet normal 0 -1 0
    outer loop
      vertex 69.8546 0 9.074
      vertex 135 0 0
      vertex 72.2 0 9.2957
    endloop
  endfacet
  facet normal 0 1 0
    outer loop
      vertex 135 4 89
      vertex 115 4 73
      vertex 115 4 89
    endloop
  endfacet
  facet normal 0 1 0
    outer loop
      vertex 103.165 4 58.0881
      vertex 111 4 73
      vertex 115 4 73
    endloop
  endfacet
  facet normal 0 1 0
    outer loop
      vertex 111 4 73
      vertex 96.3942 4 70.4034
      vertex 94.8363 4 72.1705
    endloop
  endfacet
  facet normal 0 1 0
    outer loop
      vertex 111 4 73
      vertex 97.8381 4 68.5419
      vertex 96.3942 4 70.4034
    endloop
  endfacet
  facet normal 0 1 0
    outer loop
      vertex 111 4 73
      vertex 99.1623 4 66.5935
      vertex 97.8381 4 68.5419
    endloop
  endfacet
  facet normal 0 1 0
    outer loop
      vertex 111 4 73
      vertex 100.361 4 64.5658
      vertex 99.1623 4 66.5935
    endloop
  endfacet
  facet normal 0 1 0
    outer loop
      vertex 111 4 73
      vertex 101.431 4 62.4667
      vertex 100.361 4 64.5658
    endloop
  endfacet
  facet normal 0 1 0
    outer loop
      vertex 111 4 73
      vertex 102.367 4 60.3047
      vertex 101.431 4 62.4667
    endloop
  endfacet
  facet normal 0 1 0
    outer loop
      vertex 115 4 20
      vertex 115 4 73
      vertex 135 4 89
    endloop
  endfacet
  facet normal 0 1 0
    outer loop
      vertex 111 4 73
      vertex 103.165 4 58.0881
      vertex 102.367 4 60.3047
    endloop
  endfacet
  facet normal 0 1 0
    outer loop
      vertex 115 4 73
      vertex 103.822 4 55.8259
      vertex 103.165 4 58.0881
    endloop
  endfacet
  facet normal 0 1 0
    outer loop
      vertex 115 4 73
      vertex 104.336 4 53.5268
      vertex 103.822 4 55.8259
    endloop
  endfacet
  facet normal 0 1 0
    outer loop
      vertex 115 4 73
      vertex 104.704 4 51.2
      vertex 104.336 4 53.5268
    endloop
  endfacet
  facet normal 0 1 0
    outer loop
      vertex 115 4 73
      vertex 104.926 4 48.8546
      vertex 104.704 4 51.2
    endloop
  endfacet
  facet normal 0 1 0
    outer loop
      vertex 115 4 73
      vertex 105 4 46.5
      vertex 104.926 4 48.8546
    endloop
  endfacet
  facet normal 0 1 0
    outer loop
      vertex 115 4 73
      vertex 115 4 20
      vertex 105 4 46.5
    endloop
  endfacet
  facet normal 0 1 0
    outer loop
      vertex 105 4 46.5
      vertex 115 4 20
      vertex 104.926 4 44.1454
    endloop
  endfacet
  facet normal 0 1 0
    outer loop
      vertex 104.926 4 44.1454
      vertex 115 4 20
      vertex 104.704 4 41.8
    endloop
  endfacet
  facet normal 0 1 0
    outer loop
      vertex 104.704 4 41.8
      vertex 115 4 20
      vertex 104.336 4 39.4732
    endloop
  endfacet
  facet normal 0 1 0
    outer loop
      vertex 104.336 4 39.4732
      vertex 115 4 20
      vertex 103.822 4 37.1741
    endloop
  endfacet
  facet normal 0 1 0
    outer loop
      vertex 103.822 4 37.1741
      vertex 115 4 20
      vertex 103.165 4 34.9119
    endloop
  endfacet
  facet normal 0 1 -0
    outer loop
      vertex 111 4 20
      vertex 103.165 4 34.9119
      vertex 115 4 20
    endloop
  endfacet
  facet normal 0 1 0
    outer loop
      vertex 103.165 4 34.9119
      vertex 111 4 20
      vertex 102.367 4 32.6953
    endloop
  endfacet
  facet normal 0 1 0
    outer loop
      vertex 97.8381 4 24.4581
      vertex 111 4 20
      vertex 96.3942 4 22.5966
    endloop
  endfacet
  facet normal 0 1 0
    outer loop
      vertex 99.1623 4 26.4065
      vertex 111 4 20
      vertex 97.8381 4 24.4581
    endloop
  endfacet
  facet normal 0 1 0
    outer loop
      vertex 100.361 4 28.4342
      vertex 111 4 20
      vertex 99.1623 4 26.4065
    endloop
  endfacet
  facet normal 0 1 0
    outer loop
      vertex 101.431 4 30.5333
      vertex 111 4 20
      vertex 100.361 4 28.4342
    endloop
  endfacet
  facet normal 0 1 0
    outer loop
      vertex 102.367 4 32.6953
      vertex 111 4 20
      vertex 101.431 4 30.5333
    endloop
  endfacet
  facet normal 0 1 -0
    outer loop
      vertex 135 4 4
      vertex 115 4 20
      vertex 135 4 89
    endloop
  endfacet
  facet normal 0 1 0
    outer loop
      vertex 115 4 20
      vertex 135 4 4
      vertex 115 4 4
    endloop
  endfacet
  facet normal 0 1 0
    outer loop
      vertex 111 4 89
      vertex 67.5 4 84
      vertex 24 4 89
    endloop
  endfacet
  facet normal 0 1 0
    outer loop
      vertex 111 4 89
      vertex 69.8546 4 83.926
      vertex 67.5 4 84
    endloop
  endfacet
  facet normal 0 1 0
    outer loop
      vertex 111 4 89
      vertex 72.2 4 83.7043
      vertex 69.8546 4 83.926
    endloop
  endfacet
  facet normal 0 1 0
    outer loop
      vertex 111 4 89
      vertex 74.5268 4 83.3358
      vertex 72.2 4 83.7043
    endloop
  endfacet
  facet normal 0 1 0
    outer loop
      vertex 111 4 89
      vertex 76.8259 4 82.8219
      vertex 74.5268 4 83.3358
    endloop
  endfacet
  facet normal 0 1 0
    outer loop
      vertex 111 4 89
      vertex 79.0881 4 82.1646
      vertex 76.8259 4 82.8219
    endloop
  endfacet
  facet normal 0 1 0
    outer loop
      vertex 111 4 89
      vertex 81.3047 4 81.3666
      vertex 79.0881 4 82.1646
    endloop
  endfacet
  facet normal 0 1 0
    outer loop
      vertex 111 4 89
      vertex 83.4667 4 80.431
      vertex 81.3047 4 81.3666
    endloop
  endfacet
  facet normal 0 1 0
    outer loop
      vertex 111 4 89
      vertex 85.5658 4 79.3615
      vertex 83.4667 4 80.431
    endloop
  endfacet
  facet normal 0 1 0
    outer loop
      vertex 111 4 89
      vertex 87.5935 4 78.1623
      vertex 85.5658 4 79.3615
    endloop
  endfacet
  facet normal 0 1 0
    outer loop
      vertex 111 4 89
      vertex 89.5419 4 76.8381
      vertex 87.5935 4 78.1623
    endloop
  endfacet
  facet normal 0 1 0
    outer loop
      vertex 111 4 89
      vertex 91.4034 4 75.3942
      vertex 89.5419 4 76.8381
    endloop
  endfacet
  facet normal 0 1 0
    outer loop
      vertex 111 4 89
      vertex 93.1705 4 73.8363
      vertex 91.4034 4 75.3942
    endloop
  endfacet
  facet normal 0 1 0
    outer loop
      vertex 94.8363 4 72.1705
      vertex 111 4 89
      vertex 111 4 73
    endloop
  endfacet
  facet normal 0 1 0
    outer loop
      vertex 111 4 89
      vertex 94.8363 4 72.1705
      vertex 93.1705 4 73.8363
    endloop
  endfacet
  facet normal 0 1 -0
    outer loop
      vertex 65.1454 4 83.926
      vertex 24 4 89
      vertex 67.5 4 84
    endloop
  endfacet
  facet normal 0 1 -0
    outer loop
      vertex 62.8 4 83.7043
      vertex 24 4 89
      vertex 65.1454 4 83.926
    endloop
  endfacet
  facet normal 0 1 -0
    outer loop
      vertex 60.4732 4 83.3358
      vertex 24 4 89
      vertex 62.8 4 83.7043
    endloop
  endfacet
  facet normal 0 1 -0
    outer loop
      vertex 58.1741 4 82.8219
      vertex 24 4 89
      vertex 60.4732 4 83.3358
    endloop
  endfacet
  facet normal 0 1 -0
    outer loop
      vertex 55.9119 4 82.1646
      vertex 24 4 89
      vertex 58.1741 4 82.8219
    endloop
  endfacet
  facet normal 0 1 -0
    outer loop
      vertex 53.6953 4 81.3666
      vertex 24 4 89
      vertex 55.9119 4 82.1646
    endloop
  endfacet
  facet normal 0 1 -0
    outer loop
      vertex 51.5333 4 80.431
      vertex 24 4 89
      vertex 53.6953 4 81.3666
    endloop
  endfacet
  facet normal 0 1 -0
    outer loop
      vertex 49.4342 4 79.3615
      vertex 24 4 89
      vertex 51.5333 4 80.431
    endloop
  endfacet
  facet normal 0 1 -0
    outer loop
      vertex 47.4065 4 78.1623
      vertex 24 4 89
      vertex 49.4342 4 79.3615
    endloop
  endfacet
  facet normal 0 1 -0
    outer loop
      vertex 45.4581 4 76.8381
      vertex 24 4 89
      vertex 47.4065 4 78.1623
    endloop
  endfacet
  facet normal 0 1 -0
    outer loop
      vertex 43.5966 4 75.3942
      vertex 24 4 89
      vertex 45.4581 4 76.8381
    endloop
  endfacet
  facet normal 0 1 -0
    outer loop
      vertex 41.8295 4 73.8363
      vertex 24 4 89
      vertex 43.5966 4 75.3942
    endloop
  endfacet
  facet normal 0 1 -0
    outer loop
      vertex 40.1637 4 72.1705
      vertex 24 4 89
      vertex 41.8295 4 73.8363
    endloop
  endfacet
  facet normal 0 1 -0
    outer loop
      vertex 38.6058 4 70.4034
      vertex 24 4 73
      vertex 40.1637 4 72.1705
    endloop
  endfacet
  facet normal 0 1 0
    outer loop
      vertex 24 4 89
      vertex 40.1637 4 72.1705
      vertex 24 4 73
    endloop
  endfacet
  facet normal 0 1 -0
    outer loop
      vertex 20 4 73
      vertex 0 4 89
      vertex 20 4 89
    endloop
  endfacet
  facet normal 0 1 -0
    outer loop
      vertex 37.1619 4 68.5419
      vertex 24 4 73
      vertex 38.6058 4 70.4034
    endloop
  endfacet
  facet normal 0 1 -0
    outer loop
      vertex 35.8377 4 66.5935
      vertex 24 4 73
      vertex 37.1619 4 68.5419
    endloop
  endfacet
  facet normal 0 1 -0
    outer loop
      vertex 34.6385 4 64.5658
      vertex 24 4 73
      vertex 35.8377 4 66.5935
    endloop
  endfacet
  facet normal 0 1 -0
    outer loop
      vertex 33.569 4 62.4667
      vertex 24 4 73
      vertex 34.6385 4 64.5658
    endloop
  endfacet
  facet normal 0 1 -0
    outer loop
      vertex 32.6334 4 60.3047
      vertex 24 4 73
      vertex 33.569 4 62.4667
    endloop
  endfacet
  facet normal 0 1 -0
    outer loop
      vertex 31.8354 4 58.0881
      vertex 24 4 73
      vertex 32.6334 4 60.3047
    endloop
  endfacet
  facet normal 0 1 0
    outer loop
      vertex 24 4 73
      vertex 31.8354 4 58.0881
      vertex 20 4 73
    endloop
  endfacet
  facet normal 0 1 -0
    outer loop
      vertex 31.1781 4 55.8259
      vertex 20 4 73
      vertex 31.8354 4 58.0881
    endloop
  endfacet
  facet normal 0 1 -0
    outer loop
      vertex 30.6642 4 53.5268
      vertex 20 4 73
      vertex 31.1781 4 55.8259
    endloop
  endfacet
  facet normal 0 1 -0
    outer loop
      vertex 30.2957 4 51.2
      vertex 20 4 73
      vertex 30.6642 4 53.5268
    endloop
  endfacet
  facet normal 0 1 -0
    outer loop
      vertex 30.074 4 48.8546
      vertex 20 4 73
      vertex 30.2957 4 51.2
    endloop
  endfacet
  facet normal 0 1 -0
    outer loop
      vertex 30 4 46.5
      vertex 20 4 73
      vertex 30.074 4 48.8546
    endloop
  endfacet
  facet normal 0 1 0
    outer loop
      vertex 20 4 20
      vertex 20 4 73
      vertex 30 4 46.5
    endloop
  endfacet
  facet normal 0 1 0
    outer loop
      vertex 20 4 20
      vertex 30 4 46.5
      vertex 30.074 4 44.1454
    endloop
  endfacet
  facet normal 0 1 0
    outer loop
      vertex 20 4 20
      vertex 30.074 4 44.1454
      vertex 30.2957 4 41.8
    endloop
  endfacet
  facet normal 0 1 0
    outer loop
      vertex 20 4 20
      vertex 30.2957 4 41.8
      vertex 30.6642 4 39.4732
    endloop
  endfacet
  facet normal 0 1 0
    outer loop
      vertex 20 4 20
      vertex 30.6642 4 39.4732
      vertex 31.1781 4 37.1741
    endloop
  endfacet
  facet normal 0 1 0
    outer loop
      vertex 20 4 20
      vertex 31.1781 4 37.1741
      vertex 31.8354 4 34.9119
    endloop
  endfacet
  facet normal 0 1 0
    outer loop
      vertex 24 4 20
      vertex 31.8354 4 34.9119
      vertex 32.6334 4 32.6953
    endloop
  endfacet
  facet normal 0 1 0
    outer loop
      vertex 24 4 20
      vertex 32.6334 4 32.6953
      vertex 33.569 4 30.5333
    endloop
  endfacet
  facet normal 0 1 0
    outer loop
      vertex 24 4 20
      vertex 33.569 4 30.5333
      vertex 34.6385 4 28.4342
    endloop
  endfacet
  facet normal 0 1 0
    outer loop
      vertex 24 4 20
      vertex 38.6058 4 22.5966
      vertex 40.1637 4 20.8295
    endloop
  endfacet
  facet normal 0 1 0
    outer loop
      vertex 24 4 20
      vertex 37.1619 4 24.4581
      vertex 38.6058 4 22.5966
    endloop
  endfacet
  facet normal 0 1 0
    outer loop
      vertex 24 4 20
      vertex 35.8377 4 26.4065
      vertex 37.1619 4 24.4581
    endloop
  endfacet
  facet normal 0 1 0
    outer loop
      vertex 24 4 20
      vertex 34.6385 4 28.4342
      vertex 35.8377 4 26.4065
    endloop
  endfacet
  facet normal 0 1 0
    outer loop
      vertex 31.8354 4 34.9119
      vertex 24 4 20
      vertex 20 4 20
    endloop
  endfacet
  facet normal 0 1 0
    outer loop
      vertex 20 4 73
      vertex 20 4 20
      vertex 0 4 89
    endloop
  endfacet
  facet normal 0 1 0
    outer loop
      vertex 0 4 4
      vertex 20 4 20
      vertex 20 4 4
    endloop
  endfacet
  facet normal 0 1 0
    outer loop
      vertex 20 4 20
      vertex 0 4 4
      vertex 0 4 89
    endloop
  endfacet
  facet normal 0 1 0
    outer loop
      vertex 24 4 4
      vertex 40.1637 4 20.8295
      vertex 41.8295 4 19.1637
    endloop
  endfacet
  facet normal 0 1 0
    outer loop
      vertex 24 4 4
      vertex 41.8295 4 19.1637
      vertex 43.5966 4 17.6058
    endloop
  endfacet
  facet normal 0 1 0
    outer loop
      vertex 24 4 4
      vertex 43.5966 4 17.6058
      vertex 45.4581 4 16.1619
    endloop
  endfacet
  facet normal 0 1 0
    outer loop
      vertex 24 4 4
      vertex 45.4581 4 16.1619
      vertex 47.4065 4 14.8377
    endloop
  endfacet
  facet normal 0 1 0
    outer loop
      vertex 24 4 4
      vertex 47.4065 4 14.8377
      vertex 49.4342 4 13.6385
    endloop
  endfacet
  facet normal 0 1 0
    outer loop
      vertex 24 4 4
      vertex 49.4342 4 13.6385
      vertex 51.5333 4 12.569
    endloop
  endfacet
  facet normal 0 1 0
    outer loop
      vertex 24 4 4
      vertex 51.5333 4 12.569
      vertex 53.6953 4 11.6334
    endloop
  endfacet
  facet normal 0 1 0
    outer loop
      vertex 24 4 4
      vertex 53.6953 4 11.6334
      vertex 55.9119 4 10.8354
    endloop
  endfacet
  facet normal 0 1 0
    outer loop
      vertex 24 4 4
      vertex 55.9119 4 10.8354
      vertex 58.1741 4 10.1781
    endloop
  endfacet
  facet normal 0 1 0
    outer loop
      vertex 24 4 4
      vertex 67.5 4 9
      vertex 111 4 4
    endloop
  endfacet
  facet normal 0 1 0
    outer loop
      vertex 67.5 4 9
      vertex 24 4 4
      vertex 65.1454 4 9.074
    endloop
  endfacet
  facet normal 0 1 0
    outer loop
      vertex 40.1637 4 20.8295
      vertex 24 4 4
      vertex 24 4 20
    endloop
  endfacet
  facet normal 0 1 0
    outer loop
      vertex 60.4732 4 9.66423
      vertex 24 4 4
      vertex 58.1741 4 10.1781
    endloop
  endfacet
  facet normal 0 1 0
    outer loop
      vertex 62.8 4 9.2957
      vertex 24 4 4
      vertex 60.4732 4 9.66423
    endloop
  endfacet
  facet normal 0 1 0
    outer loop
      vertex 65.1454 4 9.074
      vertex 24 4 4
      vertex 62.8 4 9.2957
    endloop
  endfacet
  facet normal 0 1 0
    outer loop
      vertex 96.3942 4 22.5966
      vertex 111 4 20
      vertex 94.8363 4 20.8295
    endloop
  endfacet
  facet normal 0 1 -0
    outer loop
      vertex 111 4 4
      vertex 94.8363 4 20.8295
      vertex 111 4 20
    endloop
  endfacet
  facet normal 0 1 0
    outer loop
      vertex 94.8363 4 20.8295
      vertex 111 4 4
      vertex 93.1705 4 19.1637
    endloop
  endfacet
  facet normal 0 1 0
    outer loop
      vertex 93.1705 4 19.1637
      vertex 111 4 4
      vertex 91.4034 4 17.6058
    endloop
  endfacet
  facet normal 0 1 0
    outer loop
      vertex 91.4034 4 17.6058
      vertex 111 4 4
      vertex 89.5419 4 16.1619
    endloop
  endfacet
  facet normal 0 1 0
    outer loop
      vertex 89.5419 4 16.1619
      vertex 111 4 4
      vertex 87.5935 4 14.8377
    endloop
  endfacet
  facet normal 0 1 0
    outer loop
      vertex 87.5935 4 14.8377
      vertex 111 4 4
      vertex 85.5658 4 13.6385
    endloop
  endfacet
  facet normal 0 1 0
    outer loop
      vertex 85.5658 4 13.6385
      vertex 111 4 4
      vertex 83.4667 4 12.569
    endloop
  endfacet
  facet normal 0 1 0
    outer loop
      vertex 83.4667 4 12.569
      vertex 111 4 4
      vertex 81.3047 4 11.6334
    endloop
  endfacet
  facet normal 0 1 0
    outer loop
      vertex 81.3047 4 11.6334
      vertex 111 4 4
      vertex 79.0881 4 10.8354
    endloop
  endfacet
  facet normal 0 1 0
    outer loop
      vertex 69.8546 4 9.074
      vertex 111 4 4
      vertex 67.5 4 9
    endloop
  endfacet
  facet normal 0 1 0
    outer loop
      vertex 72.2 4 9.2957
      vertex 111 4 4
      vertex 69.8546 4 9.074
    endloop
  endfacet
  facet normal 0 1 0
    outer loop
      vertex 74.5268 4 9.66423
      vertex 111 4 4
      vertex 72.2 4 9.2957
    endloop
  endfacet
  facet normal 0 1 0
    outer loop
      vertex 76.8259 4 10.1781
      vertex 111 4 4
      vertex 74.5268 4 9.66423
    endloop
  endfacet
  facet normal 0 1 0
    outer loop
      vertex 79.0881 4 10.8354
      vertex 111 4 4
      vertex 76.8259 4 10.1781
    endloop
  endfacet
  facet normal 0 0 -1
    outer loop
      vertex 0 0 0
      vertex 135 20 0
      vertex 135 0 0
    endloop
  endfacet
  facet normal -0 0 -1
    outer loop
      vertex 135 20 0
      vertex 0 0 0
      vertex 0 20 0
    endloop
  endfacet
  facet normal 0 1 -0
    outer loop
      vertex 135 20 0
      vertex 115 20 4
      vertex 135 20 4
    endloop
  endfacet
  facet normal 0 1 0
    outer loop
      vertex 115 20 4
      vertex 135 20 0
      vertex 111 20 4
    endloop
  endfacet
  facet normal 0 1 0
    outer loop
      vertex 111 20 4
      vertex 135 20 0
      vertex 24 20 4
    endloop
  endfacet
  facet normal 0 1 0
    outer loop
      vertex 0 20 0
      vertex 24 20 4
      vertex 135 20 0
    endloop
  endfacet
  facet normal 0 1 0
    outer loop
      vertex 24 20 4
      vertex 0 20 0
      vertex 20 20 4
    endloop
  endfacet
  facet normal 0 1 0
    outer loop
      vertex 20 20 4
      vertex 0 20 0
      vertex 0 20 4
    endloop
  endfacet
  facet normal -0 0 1
    outer loop
      vertex 0 20 93
      vertex 135 0 93
      vertex 135 20 93
    endloop
  endfacet
  facet normal 0 0 1
    outer loop
      vertex 135 0 93
      vertex 0 20 93
      vertex 0 0 93
    endloop
  endfacet
  facet normal 0 1 0
    outer loop
      vertex 115 20 89
      vertex 135 20 93
      vertex 135 20 89
    endloop
  endfacet
  facet normal 0 1 0
    outer loop
      vertex 111 20 89
      vertex 135 20 93
      vertex 115 20 89
    endloop
  endfacet
  facet normal 0 1 0
    outer loop
      vertex 135 20 93
      vertex 111 20 89
      vertex 0 20 93
    endloop
  endfacet
  facet normal 0 1 -0
    outer loop
      vertex 24 20 89
      vertex 0 20 93
      vertex 111 20 89
    endloop
  endfacet
  facet normal 0 1 -0
    outer loop
      vertex 20 20 89
      vertex 0 20 93
      vertex 24 20 89
    endloop
  endfacet
  facet normal 0 1 0
    outer loop
      vertex 0 20 93
      vertex 20 20 89
      vertex 0 20 89
    endloop
  endfacet
  facet normal -1 -0 0
    outer loop
      vertex 20 20 89
      vertex 20 4 73
      vertex 20 4 89
    endloop
  endfacet
  facet normal 0 0.707107 -0.707107
    outer loop
      vertex 24 4 73
      vertex 20 20 89
      vertex 24 20 89
    endloop
  endfacet
  facet normal 0 0.707107 -0.707107
    outer loop
      vertex 20 20 89
      vertex 24 4 73
      vertex 20 4 73
    endloop
  endfacet
  facet normal 1 -0 0
    outer loop
      vertex 24 4 89
      vertex 24 4 73
      vertex 24 20 89
    endloop
  endfacet
  facet normal -1 0 0
    outer loop
      vertex 20 20 4
      vertex 20 4 4
      vertex 20 4 20
    endloop
  endfacet
  facet normal 0 0.707107 0.707107
    outer loop
      vertex 24 20 4
      vertex 20 4 20
      vertex 24 4 20
    endloop
  endfacet
  facet normal 0 0.707107 0.707107
    outer loop
      vertex 20 4 20
      vertex 24 20 4
      vertex 20 20 4
    endloop
  endfacet
  facet normal 1 0 0
    outer loop
      vertex 24 4 20
      vertex 24 4 4
      vertex 24 20 4
    endloop
  endfacet
  facet normal -1 -0 0
    outer loop
      vertex 111 20 89
      vertex 111 4 73
      vertex 111 4 89
    endloop
  endfacet
  facet normal 0 0.707107 -0.707107
    outer loop
      vertex 115 4 73
      vertex 111 20 89
      vertex 115 20 89
    endloop
  endfacet
  facet normal 0 0.707107 -0.707107
    outer loop
      vertex 111 20 89
      vertex 115 4 73
      vertex 111 4 73
    endloop
  endfacet
  facet normal 1 -0 0
    outer loop
      vertex 115 4 89
      vertex 115 4 73
      vertex 115 20 89
    endloop
  endfacet
  facet normal -1 0 0
    outer loop
      vertex 111 20 4
      vertex 111 4 4
      vertex 111 4 20
    endloop
  endfacet
  facet normal 0 0.707107 0.707107
    outer loop
      vertex 115 20 4
      vertex 111 4 20
      vertex 115 4 20
    endloop
  endfacet
  facet normal 0 0.707107 0.707107
    outer loop
      vertex 111 4 20
      vertex 115 20 4
      vertex 111 20 4
    endloop
  endfacet
  facet normal 1 0 0
    outer loop
      vertex 115 4 20
      vertex 115 4 4
      vertex 115 20 4
    endloop
  endfacet
  facet normal -0.999507 0 -0.0314123
    outer loop
      vertex 105 0 46.5
      vertex 104.926 4 48.8546
      vertex 105 4 46.5
    endloop
  endfacet
  facet normal -0.999507 -0 -0.0314123
    outer loop
      vertex 104.926 4 48.8546
      vertex 105 0 46.5
      vertex 104.926 0 48.8546
    endloop
  endfacet
  facet normal -0.6129 0 -0.790161
    outer loop
      vertex 89.5419 0 76.8381
      vertex 91.4034 4 75.3942
      vertex 91.4034 0 75.3942
    endloop
  endfacet
  facet normal -0.6129 0 -0.790161
    outer loop
      vertex 91.4034 4 75.3942
      vertex 89.5419 0 76.8381
      vertex 89.5419 4 76.8381
    endloop
  endfacet
  facet normal 0.397155 0 -0.917752
    outer loop
      vertex 51.5333 0 80.431
      vertex 53.6953 4 81.3666
      vertex 53.6953 0 81.3666
    endloop
  endfacet
  facet normal 0.397155 0 -0.917752
    outer loop
      vertex 53.6953 4 81.3666
      vertex 51.5333 0 80.431
      vertex 51.5333 4 80.431
    endloop
  endfacet
  facet normal 0.940884 0 -0.338728
    outer loop
      vertex 32.6334 0 60.3047
      vertex 31.8354 4 58.0881
      vertex 32.6334 4 60.3047
    endloop
  endfacet
  facet normal 0.940884 0 -0.338728
    outer loop
      vertex 31.8354 4 58.0881
      vertex 32.6334 0 60.3047
      vertex 31.8354 0 58.0881
    endloop
  endfacet
  facet normal -0.91769 0 -0.397298
    outer loop
      vertex 102.367 0 60.3047
      vertex 101.431 4 62.4667
      vertex 102.367 4 60.3047
    endloop
  endfacet
  facet normal -0.91769 -0 -0.397298
    outer loop
      vertex 101.431 4 62.4667
      vertex 102.367 0 60.3047
      vertex 101.431 0 62.4667
    endloop
  endfacet
  facet normal -0.338728 0 -0.940884
    outer loop
      vertex 79.0881 0 82.1646
      vertex 81.3047 4 81.3666
      vertex 81.3047 0 81.3666
    endloop
  endfacet
  facet normal -0.338728 0 -0.940884
    outer loop
      vertex 81.3047 4 81.3666
      vertex 79.0881 0 82.1646
      vertex 79.0881 4 82.1646
    endloop
  endfacet
  facet normal 0.218139 0 -0.975918
    outer loop
      vertex 58.1741 0 82.8219
      vertex 60.4732 4 83.3358
      vertex 60.4732 0 83.3358
    endloop
  endfacet
  facet normal 0.218139 0 -0.975918
    outer loop
      vertex 60.4732 4 83.3358
      vertex 58.1741 0 82.8219
      vertex 58.1741 4 82.8219
    endloop
  endfacet
  facet normal -0.99555 0 -0.0942322
    outer loop
      vertex 104.926 0 48.8546
      vertex 104.704 4 51.2
      vertex 104.926 4 48.8546
    endloop
  endfacet
  facet normal -0.99555 -0 -0.0942322
    outer loop
      vertex 104.704 4 51.2
      vertex 104.926 0 48.8546
      vertex 104.704 0 51.2
    endloop
  endfacet
  facet normal -0.975909 0 -0.21818
    outer loop
      vertex 104.336 0 53.5268
      vertex 103.822 4 55.8259
      vertex 104.336 4 53.5268
    endloop
  endfacet
  facet normal -0.975909 -0 -0.21818
    outer loop
      vertex 103.822 4 55.8259
      vertex 104.336 0 53.5268
      vertex 103.822 0 55.8259
    endloop
  endfacet
  facet normal -0.790161 0 -0.6129
    outer loop
      vertex 97.8381 0 68.5419
      vertex 96.3942 4 70.4034
      vertex 97.8381 4 68.5419
    endloop
  endfacet
  facet normal -0.790161 -0 -0.6129
    outer loop
      vertex 96.3942 4 70.4034
      vertex 97.8381 0 68.5419
      vertex 96.3942 0 70.4034
    endloop
  endfacet
  facet normal -0.890928 0 -0.454144
    outer loop
      vertex 101.431 0 62.4667
      vertex 100.361 4 64.5658
      vertex 101.431 4 62.4667
    endloop
  endfacet
  facet normal -0.890928 -0 -0.454144
    outer loop
      vertex 100.361 4 64.5658
      vertex 101.431 0 62.4667
      vertex 100.361 0 64.5658
    endloop
  endfacet
  facet normal -0.509048 0 -0.860738
    outer loop
      vertex 85.5658 0 79.3615
      vertex 87.5935 4 78.1623
      vertex 87.5935 0 78.1623
    endloop
  endfacet
  facet normal -0.509048 0 -0.860738
    outer loop
      vertex 87.5935 4 78.1623
      vertex 85.5658 0 79.3615
      vertex 85.5658 4 79.3615
    endloop
  endfacet
  facet normal 0.0314123 0 -0.999507
    outer loop
      vertex 65.1454 0 83.926
      vertex 67.5 4 84
      vertex 67.5 0 84
    endloop
  endfacet
  facet normal 0.0314123 0 -0.999507
    outer loop
      vertex 67.5 4 84
      vertex 65.1454 0 83.926
      vertex 65.1454 4 83.926
    endloop
  endfacet
  facet normal -0.279019 0 -0.960286
    outer loop
      vertex 76.8259 0 82.8219
      vertex 79.0881 4 82.1646
      vertex 79.0881 0 82.1646
    endloop
  endfacet
  facet normal -0.279019 0 -0.960286
    outer loop
      vertex 79.0881 4 82.1646
      vertex 76.8259 0 82.8219
      vertex 76.8259 4 82.8219
    endloop
  endfacet
  facet normal -0.156422 0 -0.98769
    outer loop
      vertex 72.2 0 83.7043
      vertex 74.5268 4 83.3358
      vertex 74.5268 0 83.3358
    endloop
  endfacet
  facet normal -0.156422 0 -0.98769
    outer loop
      vertex 74.5268 4 83.3358
      vertex 72.2 0 83.7043
      vertex 72.2 4 83.7043
    endloop
  endfacet
  facet normal 0.960286 0 -0.279019
    outer loop
      vertex 31.8354 0 58.0881
      vertex 31.1781 4 55.8259
      vertex 31.8354 4 58.0881
    endloop
  endfacet
  facet normal 0.960286 0 -0.279019
    outer loop
      vertex 31.1781 4 55.8259
      vertex 31.8354 0 58.0881
      vertex 31.1781 0 55.8259
    endloop
  endfacet
  facet normal 0.98769 0 -0.156422
    outer loop
      vertex 30.6642 0 53.5268
      vertex 30.2957 4 51.2
      vertex 30.6642 4 53.5268
    endloop
  endfacet
  facet normal 0.98769 0 -0.156422
    outer loop
      vertex 30.2957 4 51.2
      vertex 30.6642 0 53.5268
      vertex 30.2957 0 51.2
    endloop
  endfacet
  facet normal 0.860738 0 -0.509048
    outer loop
      vertex 35.8377 0 66.5935
      vertex 34.6385 4 64.5658
      vertex 35.8377 4 66.5935
    endloop
  endfacet
  facet normal 0.860738 0 -0.509048
    outer loop
      vertex 34.6385 4 64.5658
      vertex 35.8377 0 66.5935
      vertex 34.6385 0 64.5658
    endloop
  endfacet
  facet normal 0.790161 0 -0.6129
    outer loop
      vertex 38.6058 0 70.4034
      vertex 37.1619 4 68.5419
      vertex 38.6058 4 70.4034
    endloop
  endfacet
  facet normal 0.790161 0 -0.6129
    outer loop
      vertex 37.1619 4 68.5419
      vertex 38.6058 0 70.4034
      vertex 37.1619 0 68.5419
    endloop
  endfacet
  facet normal 0.156422 0 -0.98769
    outer loop
      vertex 60.4732 0 83.3358
      vertex 62.8 4 83.7043
      vertex 62.8 0 83.7043
    endloop
  endfacet
  facet normal 0.156422 0 -0.98769
    outer loop
      vertex 62.8 4 83.7043
      vertex 60.4732 0 83.3358
      vertex 60.4732 4 83.3358
    endloop
  endfacet
  facet normal 0.6129 0 -0.790161
    outer loop
      vertex 43.5966 0 75.3942
      vertex 45.4581 4 76.8381
      vertex 45.4581 0 76.8381
    endloop
  endfacet
  facet normal 0.6129 0 -0.790161
    outer loop
      vertex 45.4581 4 76.8381
      vertex 43.5966 0 75.3942
      vertex 43.5966 4 75.3942
    endloop
  endfacet
  facet normal 0.509048 0 -0.860738
    outer loop
      vertex 47.4065 0 78.1623
      vertex 49.4342 4 79.3615
      vertex 49.4342 0 79.3615
    endloop
  endfacet
  facet normal 0.509048 0 -0.860738
    outer loop
      vertex 49.4342 4 79.3615
      vertex 47.4065 0 78.1623
      vertex 47.4065 4 78.1623
    endloop
  endfacet
  facet normal -0.790161 0 0.6129
    outer loop
      vertex 96.3942 0 22.5966
      vertex 97.8381 4 24.4581
      vertex 96.3942 4 22.5966
    endloop
  endfacet
  facet normal -0.790161 0 0.6129
    outer loop
      vertex 97.8381 4 24.4581
      vertex 96.3942 0 22.5966
      vertex 97.8381 0 24.4581
    endloop
  endfacet
  facet normal -0.094106 0 0.995562
    outer loop
      vertex 69.8546 4 9.074
      vertex 72.2 0 9.2957
      vertex 72.2 4 9.2957
    endloop
  endfacet
  facet normal -0.094106 0 0.995562
    outer loop
      vertex 72.2 0 9.2957
      vertex 69.8546 4 9.074
      vertex 69.8546 0 9.074
    endloop
  endfacet
  facet normal -0.66131 0 0.750113
    outer loop
      vertex 91.4034 4 17.6058
      vertex 93.1705 0 19.1637
      vertex 93.1705 4 19.1637
    endloop
  endfacet
  facet normal -0.66131 0 0.750113
    outer loop
      vertex 93.1705 0 19.1637
      vertex 91.4034 4 17.6058
      vertex 91.4034 0 17.6058
    endloop
  endfacet
  facet normal 0.279019 0 0.960286
    outer loop
      vertex 55.9119 4 10.8354
      vertex 58.1741 0 10.1781
      vertex 58.1741 4 10.1781
    endloop
  endfacet
  facet normal 0.279019 0 0.960286
    outer loop
      vertex 58.1741 0 10.1781
      vertex 55.9119 4 10.8354
      vertex 55.9119 0 10.8354
    endloop
  endfacet
  facet normal 0.6129 0 0.790161
    outer loop
      vertex 43.5966 4 17.6058
      vertex 45.4581 0 16.1619
      vertex 45.4581 4 16.1619
    endloop
  endfacet
  facet normal 0.6129 0 0.790161
    outer loop
      vertex 45.4581 0 16.1619
      vertex 43.5966 4 17.6058
      vertex 43.5966 0 17.6058
    endloop
  endfacet
  facet normal 0.790161 -0 0.6129
    outer loop
      vertex 37.1619 0 24.4581
      vertex 38.6058 4 22.5966
      vertex 37.1619 4 24.4581
    endloop
  endfacet
  facet normal 0.790161 0 0.6129
    outer loop
      vertex 38.6058 4 22.5966
      vertex 37.1619 0 24.4581
      vertex 38.6058 0 22.5966
    endloop
  endfacet
  facet normal -0.987723 0 -0.156215
    outer loop
      vertex 104.704 0 51.2
      vertex 104.336 4 53.5268
      vertex 104.704 4 51.2
    endloop
  endfacet
  facet normal -0.987723 -0 -0.156215
    outer loop
      vertex 104.336 4 53.5268
      vertex 104.704 0 51.2
      vertex 104.336 0 53.5268
    endloop
  endfacet
  facet normal -0.860831 0 -0.508891
    outer loop
      vertex 100.361 0 64.5658
      vertex 99.1623 4 66.5935
      vertex 100.361 4 64.5658
    endloop
  endfacet
  facet normal -0.860831 -0 -0.508891
    outer loop
      vertex 99.1623 4 66.5935
      vertex 100.361 0 64.5658
      vertex 99.1623 0 66.5935
    endloop
  endfacet
  facet normal -0.750113 0 -0.66131
    outer loop
      vertex 96.3942 0 70.4034
      vertex 94.8363 4 72.1705
      vertex 96.3942 4 70.4034
    endloop
  endfacet
  facet normal -0.750113 -0 -0.66131
    outer loop
      vertex 94.8363 4 72.1705
      vertex 96.3942 0 70.4034
      vertex 94.8363 0 72.1705
    endloop
  endfacet
  facet normal -0.562103 0 -0.827067
    outer loop
      vertex 87.5935 0 78.1623
      vertex 89.5419 4 76.8381
      vertex 89.5419 0 76.8381
    endloop
  endfacet
  facet normal -0.562103 0 -0.827067
    outer loop
      vertex 89.5419 4 76.8381
      vertex 87.5935 0 78.1623
      vertex 87.5935 4 78.1623
    endloop
  endfacet
  facet normal -0.218139 0 -0.975918
    outer loop
      vertex 74.5268 0 83.3358
      vertex 76.8259 4 82.8219
      vertex 76.8259 0 82.8219
    endloop
  endfacet
  facet normal -0.218139 0 -0.975918
    outer loop
      vertex 76.8259 4 82.8219
      vertex 74.5268 0 83.3358
      vertex 74.5268 4 83.3358
    endloop
  endfacet
  facet normal -0.0314123 0 -0.999507
    outer loop
      vertex 67.5 0 84
      vertex 69.8546 4 83.926
      vertex 69.8546 0 83.926
    endloop
  endfacet
  facet normal -0.0314123 0 -0.999507
    outer loop
      vertex 69.8546 4 83.926
      vertex 67.5 0 84
      vertex 67.5 4 84
    endloop
  endfacet
  facet normal 0.995562 0 -0.094106
    outer loop
      vertex 30.2957 0 51.2
      vertex 30.074 4 48.8546
      vertex 30.2957 4 51.2
    endloop
  endfacet
  facet normal 0.995562 0 -0.094106
    outer loop
      vertex 30.074 4 48.8546
      vertex 30.2957 0 51.2
      vertex 30.074 0 48.8546
    endloop
  endfacet
  facet normal 0.975918 0 -0.218139
    outer loop
      vertex 31.1781 0 55.8259
      vertex 30.6642 4 53.5268
      vertex 31.1781 4 55.8259
    endloop
  endfacet
  facet normal 0.975918 0 -0.218139
    outer loop
      vertex 30.6642 4 53.5268
      vertex 31.1781 0 55.8259
      vertex 30.6642 0 53.5268
    endloop
  endfacet
  facet normal 0.917752 0 -0.397155
    outer loop
      vertex 33.569 0 62.4667
      vertex 32.6334 4 60.3047
      vertex 33.569 4 62.4667
    endloop
  endfacet
  facet normal 0.917752 0 -0.397155
    outer loop
      vertex 32.6334 4 60.3047
      vertex 33.569 0 62.4667
      vertex 32.6334 0 60.3047
    endloop
  endfacet
  facet normal 0.338728 0 -0.940884
    outer loop
      vertex 53.6953 0 81.3666
      vertex 55.9119 4 82.1646
      vertex 55.9119 0 82.1646
    endloop
  endfacet
  facet normal 0.338728 0 -0.940884
    outer loop
      vertex 55.9119 4 82.1646
      vertex 53.6953 0 81.3666
      vertex 53.6953 4 81.3666
    endloop
  endfacet
  facet normal 0.094106 0 -0.995562
    outer loop
      vertex 62.8 0 83.7043
      vertex 65.1454 4 83.926
      vertex 65.1454 0 83.926
    endloop
  endfacet
  facet normal 0.094106 0 -0.995562
    outer loop
      vertex 65.1454 4 83.926
      vertex 62.8 0 83.7043
      vertex 62.8 4 83.7043
    endloop
  endfacet
  facet normal 0.453975 0 -0.891014
    outer loop
      vertex 49.4342 0 79.3615
      vertex 51.5333 4 80.431
      vertex 51.5333 0 80.431
    endloop
  endfacet
  facet normal 0.453975 0 -0.891014
    outer loop
      vertex 51.5333 4 80.431
      vertex 49.4342 0 79.3615
      vertex 49.4342 4 79.3615
    endloop
  endfacet
  facet normal 0.66131 0 -0.750113
    outer loop
      vertex 41.8295 0 73.8363
      vertex 43.5966 4 75.3942
      vertex 43.5966 0 75.3942
    endloop
  endfacet
  facet normal 0.66131 0 -0.750113
    outer loop
      vertex 43.5966 4 75.3942
      vertex 41.8295 0 73.8363
      vertex 41.8295 4 73.8363
    endloop
  endfacet
  facet normal -0.987723 0 0.156215
    outer loop
      vertex 104.336 0 39.4732
      vertex 104.704 4 41.8
      vertex 104.336 4 39.4732
    endloop
  endfacet
  facet normal -0.987723 0 0.156215
    outer loop
      vertex 104.704 4 41.8
      vertex 104.336 0 39.4732
      vertex 104.704 0 41.8
    endloop
  endfacet
  facet normal -0.975909 0 0.21818
    outer loop
      vertex 103.822 0 37.1741
      vertex 104.336 4 39.4732
      vertex 103.822 4 37.1741
    endloop
  endfacet
  facet normal -0.975909 0 0.21818
    outer loop
      vertex 104.336 4 39.4732
      vertex 103.822 0 37.1741
      vertex 104.336 0 39.4732
    endloop
  endfacet
  facet normal -0.96032 0 0.278901
    outer loop
      vertex 103.165 0 34.9119
      vertex 103.822 4 37.1741
      vertex 103.165 4 34.9119
    endloop
  endfacet
  facet normal -0.96032 0 0.278901
    outer loop
      vertex 103.822 4 37.1741
      vertex 103.165 0 34.9119
      vertex 103.822 0 37.1741
    endloop
  endfacet
  facet normal -0.218127 0 0.97592
    outer loop
      vertex 74.5268 4 9.66423
      vertex 76.8259 0 10.1781
      vertex 76.8259 4 10.1781
    endloop
  endfacet
  facet normal -0.218127 0 0.97592
    outer loop
      vertex 76.8259 0 10.1781
      vertex 74.5268 4 9.66423
      vertex 74.5268 0 9.66423
    endloop
  endfacet
  facet normal -0.397155 0 0.917752
    outer loop
      vertex 81.3047 4 11.6334
      vertex 83.4667 0 12.569
      vertex 83.4667 4 12.569
    endloop
  endfacet
  facet normal -0.397155 0 0.917752
    outer loop
      vertex 83.4667 0 12.569
      vertex 81.3047 4 11.6334
      vertex 81.3047 0 11.6334
    endloop
  endfacet
  facet normal -0.562103 0 0.827067
    outer loop
      vertex 87.5935 4 14.8377
      vertex 89.5419 0 16.1619
      vertex 89.5419 4 16.1619
    endloop
  endfacet
  facet normal -0.562103 0 0.827067
    outer loop
      vertex 89.5419 0 16.1619
      vertex 87.5935 4 14.8377
      vertex 87.5935 0 14.8377
    endloop
  endfacet
  facet normal -0.6129 0 0.790161
    outer loop
      vertex 89.5419 4 16.1619
      vertex 91.4034 0 17.6058
      vertex 91.4034 4 17.6058
    endloop
  endfacet
  facet normal -0.6129 0 0.790161
    outer loop
      vertex 91.4034 0 17.6058
      vertex 89.5419 4 16.1619
      vertex 89.5419 0 16.1619
    endloop
  endfacet
  facet normal -0.453975 0 0.891014
    outer loop
      vertex 83.4667 4 12.569
      vertex 85.5658 0 13.6385
      vertex 85.5658 4 13.6385
    endloop
  endfacet
  facet normal -0.453975 0 0.891014
    outer loop
      vertex 85.5658 0 13.6385
      vertex 83.4667 4 12.569
      vertex 83.4667 0 12.569
    endloop
  endfacet
  facet normal 0.094106 0 0.995562
    outer loop
      vertex 62.8 4 9.2957
      vertex 65.1454 0 9.074
      vertex 65.1454 4 9.074
    endloop
  endfacet
  facet normal 0.094106 0 0.995562
    outer loop
      vertex 65.1454 0 9.074
      vertex 62.8 4 9.2957
      vertex 62.8 0 9.2957
    endloop
  endfacet
  facet normal 0.156435 0 0.987688
    outer loop
      vertex 60.4732 4 9.66423
      vertex 62.8 0 9.2957
      vertex 62.8 4 9.2957
    endloop
  endfacet
  facet normal 0.156435 0 0.987688
    outer loop
      vertex 62.8 0 9.2957
      vertex 60.4732 4 9.66423
      vertex 60.4732 0 9.66423
    endloop
  endfacet
  facet normal 0.397155 0 0.917752
    outer loop
      vertex 51.5333 4 12.569
      vertex 53.6953 0 11.6334
      vertex 53.6953 4 11.6334
    endloop
  endfacet
  facet normal 0.397155 0 0.917752
    outer loop
      vertex 53.6953 0 11.6334
      vertex 51.5333 4 12.569
      vertex 51.5333 0 12.569
    endloop
  endfacet
  facet normal 0.338728 0 0.940884
    outer loop
      vertex 53.6953 4 11.6334
      vertex 55.9119 0 10.8354
      vertex 55.9119 4 10.8354
    endloop
  endfacet
  facet normal 0.338728 0 0.940884
    outer loop
      vertex 55.9119 0 10.8354
      vertex 53.6953 4 11.6334
      vertex 53.6953 0 11.6334
    endloop
  endfacet
  facet normal 0.509048 0 0.860738
    outer loop
      vertex 47.4065 4 14.8377
      vertex 49.4342 0 13.6385
      vertex 49.4342 4 13.6385
    endloop
  endfacet
  facet normal 0.509048 0 0.860738
    outer loop
      vertex 49.4342 0 13.6385
      vertex 47.4065 4 14.8377
      vertex 47.4065 0 14.8377
    endloop
  endfacet
  facet normal 0.917752 -0 0.397155
    outer loop
      vertex 32.6334 0 32.6953
      vertex 33.569 4 30.5333
      vertex 32.6334 4 32.6953
    endloop
  endfacet
  facet normal 0.917752 0 0.397155
    outer loop
      vertex 33.569 4 30.5333
      vertex 32.6334 0 32.6953
      vertex 33.569 0 30.5333
    endloop
  endfacet
  facet normal 0.940884 -0 0.338728
    outer loop
      vertex 31.8354 0 34.9119
      vertex 32.6334 4 32.6953
      vertex 31.8354 4 34.9119
    endloop
  endfacet
  facet normal 0.940884 0 0.338728
    outer loop
      vertex 32.6334 4 32.6953
      vertex 31.8354 0 34.9119
      vertex 32.6334 0 32.6953
    endloop
  endfacet
  facet normal 0.975918 -0 0.218139
    outer loop
      vertex 30.6642 0 39.4732
      vertex 31.1781 4 37.1741
      vertex 30.6642 4 39.4732
    endloop
  endfacet
  facet normal 0.975918 0 0.218139
    outer loop
      vertex 31.1781 4 37.1741
      vertex 30.6642 0 39.4732
      vertex 31.1781 0 37.1741
    endloop
  endfacet
  facet normal 0.750113 -0 0.66131
    outer loop
      vertex 38.6058 0 22.5966
      vertex 40.1637 4 20.8295
      vertex 38.6058 4 22.5966
    endloop
  endfacet
  facet normal 0.750113 0 0.66131
    outer loop
      vertex 40.1637 4 20.8295
      vertex 38.6058 0 22.5966
      vertex 40.1637 0 20.8295
    endloop
  endfacet
  facet normal -0.96032 0 -0.278901
    outer loop
      vertex 103.822 0 55.8259
      vertex 103.165 4 58.0881
      vertex 103.822 4 55.8259
    endloop
  endfacet
  facet normal -0.96032 -0 -0.278901
    outer loop
      vertex 103.165 4 58.0881
      vertex 103.822 0 55.8259
      vertex 103.165 0 58.0881
    endloop
  endfacet
  facet normal -0.940884 0 -0.338728
    outer loop
      vertex 103.165 0 58.0881
      vertex 102.367 4 60.3047
      vertex 103.165 4 58.0881
    endloop
  endfacet
  facet normal -0.940884 -0 -0.338728
    outer loop
      vertex 102.367 4 60.3047
      vertex 103.165 0 58.0881
      vertex 102.367 0 60.3047
    endloop
  endfacet
  facet normal -0.827067 0 -0.562103
    outer loop
      vertex 99.1623 0 66.5935
      vertex 97.8381 4 68.5419
      vertex 99.1623 4 66.5935
    endloop
  endfacet
  facet normal -0.827067 -0 -0.562103
    outer loop
      vertex 97.8381 4 68.5419
      vertex 99.1623 0 66.5935
      vertex 97.8381 0 68.5419
    endloop
  endfacet
  facet normal -0.707107 0 -0.707107
    outer loop
      vertex 94.8363 0 72.1705
      vertex 93.1705 4 73.8363
      vertex 94.8363 4 72.1705
    endloop
  endfacet
  facet normal -0.707107 -0 -0.707107
    outer loop
      vertex 93.1705 4 73.8363
      vertex 94.8363 0 72.1705
      vertex 93.1705 0 73.8363
    endloop
  endfacet
  facet normal -0.66131 0 -0.750113
    outer loop
      vertex 91.4034 0 75.3942
      vertex 93.1705 4 73.8363
      vertex 93.1705 0 73.8363
    endloop
  endfacet
  facet normal -0.66131 0 -0.750113
    outer loop
      vertex 93.1705 4 73.8363
      vertex 91.4034 0 75.3942
      vertex 91.4034 4 75.3942
    endloop
  endfacet
  facet normal -0.453975 0 -0.891014
    outer loop
      vertex 83.4667 0 80.431
      vertex 85.5658 4 79.3615
      vertex 85.5658 0 79.3615
    endloop
  endfacet
  facet normal -0.453975 0 -0.891014
    outer loop
      vertex 85.5658 4 79.3615
      vertex 83.4667 0 80.431
      vertex 83.4667 4 80.431
    endloop
  endfacet
  facet normal -0.397155 0 -0.917752
    outer loop
      vertex 81.3047 0 81.3666
      vertex 83.4667 4 80.431
      vertex 83.4667 0 80.431
    endloop
  endfacet
  facet normal -0.397155 0 -0.917752
    outer loop
      vertex 83.4667 4 80.431
      vertex 81.3047 0 81.3666
      vertex 81.3047 4 81.3666
    endloop
  endfacet
  facet normal -0.094106 0 -0.995562
    outer loop
      vertex 69.8546 0 83.926
      vertex 72.2 4 83.7043
      vertex 72.2 0 83.7043
    endloop
  endfacet
  facet normal -0.094106 0 -0.995562
    outer loop
      vertex 72.2 4 83.7043
      vertex 69.8546 0 83.926
      vertex 69.8546 4 83.926
    endloop
  endfacet
  facet normal 0.999507 0 -0.0314123
    outer loop
      vertex 30.074 0 48.8546
      vertex 30 4 46.5
      vertex 30.074 4 48.8546
    endloop
  endfacet
  facet normal 0.999507 0 -0.0314123
    outer loop
      vertex 30 4 46.5
      vertex 30.074 0 48.8546
      vertex 30 0 46.5
    endloop
  endfacet
  facet normal 0.999507 -0 0.0314123
    outer loop
      vertex 30 0 46.5
      vertex 30.074 4 44.1454
      vertex 30 4 46.5
    endloop
  endfacet
  facet normal 0.999507 0 0.0314123
    outer loop
      vertex 30.074 4 44.1454
      vertex 30 0 46.5
      vertex 30.074 0 44.1454
    endloop
  endfacet
  facet normal 0.891014 0 -0.453975
    outer loop
      vertex 34.6385 0 64.5658
      vertex 33.569 4 62.4667
      vertex 34.6385 4 64.5658
    endloop
  endfacet
  facet normal 0.891014 0 -0.453975
    outer loop
      vertex 33.569 4 62.4667
      vertex 34.6385 0 64.5658
      vertex 33.569 0 62.4667
    endloop
  endfacet
  facet normal 0.827067 0 -0.562103
    outer loop
      vertex 37.1619 0 68.5419
      vertex 35.8377 4 66.5935
      vertex 37.1619 4 68.5419
    endloop
  endfacet
  facet normal 0.827067 0 -0.562103
    outer loop
      vertex 35.8377 4 66.5935
      vertex 37.1619 0 68.5419
      vertex 35.8377 0 66.5935
    endloop
  endfacet
  facet normal 0.279019 0 -0.960286
    outer loop
      vertex 55.9119 0 82.1646
      vertex 58.1741 4 82.8219
      vertex 58.1741 0 82.8219
    endloop
  endfacet
  facet normal 0.279019 0 -0.960286
    outer loop
      vertex 58.1741 4 82.8219
      vertex 55.9119 0 82.1646
      vertex 55.9119 4 82.1646
    endloop
  endfacet
  facet normal 0.562103 0 -0.827067
    outer loop
      vertex 45.4581 0 76.8381
      vertex 47.4065 4 78.1623
      vertex 47.4065 0 78.1623
    endloop
  endfacet
  facet normal 0.562103 0 -0.827067
    outer loop
      vertex 47.4065 4 78.1623
      vertex 45.4581 0 76.8381
      vertex 45.4581 4 76.8381
    endloop
  endfacet
  facet normal 0.707107 0 -0.707107
    outer loop
      vertex 40.1637 0 72.1705
      vertex 41.8295 4 73.8363
      vertex 41.8295 0 73.8363
    endloop
  endfacet
  facet normal 0.707107 0 -0.707107
    outer loop
      vertex 41.8295 4 73.8363
      vertex 40.1637 0 72.1705
      vertex 40.1637 4 72.1705
    endloop
  endfacet
  facet normal 0.750113 0 -0.66131
    outer loop
      vertex 40.1637 0 72.1705
      vertex 38.6058 4 70.4034
      vertex 40.1637 4 72.1705
    endloop
  endfacet
  facet normal 0.750113 0 -0.66131
    outer loop
      vertex 38.6058 4 70.4034
      vertex 40.1637 0 72.1705
      vertex 38.6058 0 70.4034
    endloop
  endfacet
  facet normal -0.99555 0 0.0942322
    outer loop
      vertex 104.704 0 41.8
      vertex 104.926 4 44.1454
      vertex 104.704 4 41.8
    endloop
  endfacet
  facet normal -0.99555 0 0.0942322
    outer loop
      vertex 104.926 4 44.1454
      vertex 104.704 0 41.8
      vertex 104.926 0 44.1454
    endloop
  endfacet
  facet normal -0.999507 0 0.0314123
    outer loop
      vertex 104.926 0 44.1454
      vertex 105 4 46.5
      vertex 104.926 4 44.1454
    endloop
  endfacet
  facet normal -0.999507 0 0.0314123
    outer loop
      vertex 105 4 46.5
      vertex 104.926 0 44.1454
      vertex 105 0 46.5
    endloop
  endfacet
  facet normal -0.940884 0 0.338728
    outer loop
      vertex 102.367 0 32.6953
      vertex 103.165 4 34.9119
      vertex 102.367 4 32.6953
    endloop
  endfacet
  facet normal -0.940884 0 0.338728
    outer loop
      vertex 103.165 4 34.9119
      vertex 102.367 0 32.6953
      vertex 103.165 0 34.9119
    endloop
  endfacet
  facet normal -0.890928 0 0.454144
    outer loop
      vertex 100.361 0 28.4342
      vertex 101.431 4 30.5333
      vertex 100.361 4 28.4342
    endloop
  endfacet
  facet normal -0.890928 0 0.454144
    outer loop
      vertex 101.431 4 30.5333
      vertex 100.361 0 28.4342
      vertex 101.431 0 30.5333
    endloop
  endfacet
  facet normal -0.91769 0 0.397298
    outer loop
      vertex 101.431 0 30.5333
      vertex 102.367 4 32.6953
      vertex 101.431 4 30.5333
    endloop
  endfacet
  facet normal -0.91769 0 0.397298
    outer loop
      vertex 102.367 4 32.6953
      vertex 101.431 0 30.5333
      vertex 102.367 0 32.6953
    endloop
  endfacet
  facet normal -0.860831 0 0.508891
    outer loop
      vertex 99.1623 0 26.4065
      vertex 100.361 4 28.4342
      vertex 99.1623 4 26.4065
    endloop
  endfacet
  facet normal -0.860831 0 0.508891
    outer loop
      vertex 100.361 4 28.4342
      vertex 99.1623 0 26.4065
      vertex 100.361 0 28.4342
    endloop
  endfacet
  facet normal -0.156435 0 0.987688
    outer loop
      vertex 72.2 4 9.2957
      vertex 74.5268 0 9.66423
      vertex 74.5268 4 9.66423
    endloop
  endfacet
  facet normal -0.156435 0 0.987688
    outer loop
      vertex 74.5268 0 9.66423
      vertex 72.2 4 9.2957
      vertex 72.2 0 9.2957
    endloop
  endfacet
  facet normal -0.279019 0 0.960286
    outer loop
      vertex 76.8259 4 10.1781
      vertex 79.0881 0 10.8354
      vertex 79.0881 4 10.8354
    endloop
  endfacet
  facet normal -0.279019 0 0.960286
    outer loop
      vertex 79.0881 0 10.8354
      vertex 76.8259 4 10.1781
      vertex 76.8259 0 10.1781
    endloop
  endfacet
  facet normal -0.338728 0 0.940884
    outer loop
      vertex 79.0881 4 10.8354
      vertex 81.3047 0 11.6334
      vertex 81.3047 4 11.6334
    endloop
  endfacet
  facet normal -0.338728 0 0.940884
    outer loop
      vertex 81.3047 0 11.6334
      vertex 79.0881 4 10.8354
      vertex 79.0881 0 10.8354
    endloop
  endfacet
  facet normal -0.707107 0 0.707107
    outer loop
      vertex 93.1705 0 19.1637
      vertex 94.8363 4 20.8295
      vertex 93.1705 4 19.1637
    endloop
  endfacet
  facet normal -0.707107 0 0.707107
    outer loop
      vertex 94.8363 4 20.8295
      vertex 93.1705 0 19.1637
      vertex 94.8363 0 20.8295
    endloop
  endfacet
  facet normal -0.750113 0 0.66131
    outer loop
      vertex 94.8363 0 20.8295
      vertex 96.3942 4 22.5966
      vertex 94.8363 4 20.8295
    endloop
  endfacet
  facet normal -0.750113 0 0.66131
    outer loop
      vertex 96.3942 4 22.5966
      vertex 94.8363 0 20.8295
      vertex 96.3942 0 22.5966
    endloop
  endfacet
  facet normal -0.509048 0 0.860738
    outer loop
      vertex 85.5658 4 13.6385
      vertex 87.5935 0 14.8377
      vertex 87.5935 4 14.8377
    endloop
  endfacet
  facet normal -0.509048 0 0.860738
    outer loop
      vertex 87.5935 0 14.8377
      vertex 85.5658 4 13.6385
      vertex 85.5658 0 13.6385
    endloop
  endfacet
  facet normal 0.0314123 0 0.999507
    outer loop
      vertex 65.1454 4 9.074
      vertex 67.5 0 9
      vertex 67.5 4 9
    endloop
  endfacet
  facet normal 0.0314123 0 0.999507
    outer loop
      vertex 67.5 0 9
      vertex 65.1454 4 9.074
      vertex 65.1454 0 9.074
    endloop
  endfacet
  facet normal -0.0314123 0 0.999507
    outer loop
      vertex 67.5 4 9
      vertex 69.8546 0 9.074
      vertex 69.8546 4 9.074
    endloop
  endfacet
  facet normal -0.0314123 0 0.999507
    outer loop
      vertex 69.8546 0 9.074
      vertex 67.5 4 9
      vertex 67.5 0 9
    endloop
  endfacet
  facet normal 0.218127 0 0.97592
    outer loop
      vertex 58.1741 4 10.1781
      vertex 60.4732 0 9.66423
      vertex 60.4732 4 9.66423
    endloop
  endfacet
  facet normal 0.218127 0 0.97592
    outer loop
      vertex 60.4732 0 9.66423
      vertex 58.1741 4 10.1781
      vertex 58.1741 0 10.1781
    endloop
  endfacet
  facet normal 0.453975 0 0.891014
    outer loop
      vertex 49.4342 4 13.6385
      vertex 51.5333 0 12.569
      vertex 51.5333 4 12.569
    endloop
  endfacet
  facet normal 0.453975 0 0.891014
    outer loop
      vertex 51.5333 0 12.569
      vertex 49.4342 4 13.6385
      vertex 49.4342 0 13.6385
    endloop
  endfacet
  facet normal 0.562103 0 0.827067
    outer loop
      vertex 45.4581 4 16.1619
      vertex 47.4065 0 14.8377
      vertex 47.4065 4 14.8377
    endloop
  endfacet
  facet normal 0.562103 0 0.827067
    outer loop
      vertex 47.4065 0 14.8377
      vertex 45.4581 4 16.1619
      vertex 45.4581 0 16.1619
    endloop
  endfacet
  facet normal 0.960286 -0 0.279019
    outer loop
      vertex 31.1781 0 37.1741
      vertex 31.8354 4 34.9119
      vertex 31.1781 4 37.1741
    endloop
  endfacet
  facet normal 0.960286 0 0.279019
    outer loop
      vertex 31.8354 4 34.9119
      vertex 31.1781 0 37.1741
      vertex 31.8354 0 34.9119
    endloop
  endfacet
  facet normal 0.995562 -0 0.094106
    outer loop
      vertex 30.074 0 44.1454
      vertex 30.2957 4 41.8
      vertex 30.074 4 44.1454
    endloop
  endfacet
  facet normal 0.995562 0 0.094106
    outer loop
      vertex 30.2957 4 41.8
      vertex 30.074 0 44.1454
      vertex 30.2957 0 41.8
    endloop
  endfacet
  facet normal 0.98769 -0 0.156422
    outer loop
      vertex 30.2957 0 41.8
      vertex 30.6642 4 39.4732
      vertex 30.2957 4 41.8
    endloop
  endfacet
  facet normal 0.98769 0 0.156422
    outer loop
      vertex 30.6642 4 39.4732
      vertex 30.2957 0 41.8
      vertex 30.6642 0 39.4732
    endloop
  endfacet
  facet normal 0.827067 -0 0.562103
    outer loop
      vertex 35.8377 0 26.4065
      vertex 37.1619 4 24.4581
      vertex 35.8377 4 26.4065
    endloop
  endfacet
  facet normal 0.827067 0 0.562103
    outer loop
      vertex 37.1619 4 24.4581
      vertex 35.8377 0 26.4065
      vertex 37.1619 0 24.4581
    endloop
  endfacet
  facet normal 0.891014 -0 0.453975
    outer loop
      vertex 33.569 0 30.5333
      vertex 34.6385 4 28.4342
      vertex 33.569 4 30.5333
    endloop
  endfacet
  facet normal 0.891014 0 0.453975
    outer loop
      vertex 34.6385 4 28.4342
      vertex 33.569 0 30.5333
      vertex 34.6385 0 28.4342
    endloop
  endfacet
  facet normal 0.860738 -0 0.509048
    outer loop
      vertex 34.6385 0 28.4342
      vertex 35.8377 4 26.4065
      vertex 34.6385 4 28.4342
    endloop
  endfacet
  facet normal 0.860738 0 0.509048
    outer loop
      vertex 35.8377 4 26.4065
      vertex 34.6385 0 28.4342
      vertex 35.8377 0 26.4065
    endloop
  endfacet
  facet normal 0.707107 -0 0.707107
    outer loop
      vertex 40.1637 0 20.8295
      vertex 41.8295 4 19.1637
      vertex 40.1637 4 20.8295
    endloop
  endfacet
  facet normal 0.707107 0 0.707107
    outer loop
      vertex 41.8295 4 19.1637
      vertex 40.1637 0 20.8295
      vertex 41.8295 0 19.1637
    endloop
  endfacet
  facet normal 0.66131 0 0.750113
    outer loop
      vertex 41.8295 4 19.1637
      vertex 43.5966 0 17.6058
      vertex 43.5966 4 17.6058
    endloop
  endfacet
  facet normal 0.66131 0 0.750113
    outer loop
      vertex 43.5966 0 17.6058
      vertex 41.8295 4 19.1637
      vertex 41.8295 0 19.1637
    endloop
  endfacet
  facet normal -0.827067 0 0.562103
    outer loop
      vertex 97.8381 0 24.4581
      vertex 99.1623 4 26.4065
      vertex 97.8381 4 24.4581
    endloop
  endfacet
  facet normal -0.827067 0 0.562103
    outer loop
      vertex 99.1623 4 26.4065
      vertex 97.8381 0 24.4581
      vertex 99.1623 0 26.4065
    endloop
  endfacet
endsolid OpenSCAD_Model
