solid OpenSCAD_Model
  facet normal -1 0 0
    outer loop
      vertex 0 0 0
      vertex 0 36 1.72794
      vertex 0 36 0
    endloop
  endfacet
  facet normal -1 -0 0
    outer loop
      vertex 0 36 1.72794
      vertex 0 0 0
      vertex 0 0 1.72794
    endloop
  endfacet
  facet normal 0 0 1
    outer loop
      vertex 154 30 4
      vertex 152 28 4
      vertex 154 6.24243 4
    endloop
  endfacet
  facet normal -0 0 1
    outer loop
      vertex 6.24243 30 4
      vertex 152 28 4
      vertex 154 30 4
    endloop
  endfacet
  facet normal 0 0 1
    outer loop
      vertex 6.24243 6.24243 4
      vertex 8 28 4
      vertex 6.24243 30 4
    endloop
  endfacet
  facet normal 0 0 1
    outer loop
      vertex 152 28 4
      vertex 6.24243 30 4
      vertex 8 28 4
    endloop
  endfacet
  facet normal -0 0 1
    outer loop
      vertex 152 8 4
      vertex 154 6.24243 4
      vertex 152 28 4
    endloop
  endfacet
  facet normal 0 0 1
    outer loop
      vertex 6.24243 6.24243 4
      vertex 152 8 4
      vertex 8 8 4
    endloop
  endfacet
  facet normal 0 0 1
    outer loop
      vertex 152 8 4
      vertex 6.24243 6.24243 4
      vertex 154 6.24243 4
    endloop
  endfacet
  facet normal 0 0 1
    outer loop
      vertex 8 28 4
      vertex 6.24243 6.24243 4
      vertex 8 8 4
    endloop
  endfacet
  facet normal 1 -0 0
    outer loop
      vertex 160 0.242431 1.81618
      vertex 160 36 0
      vertex 160 36 1.81618
    endloop
  endfacet
  facet normal 1 0 0
    outer loop
      vertex 160 0 0
      vertex 160 0.242431 1.81618
      vertex 160 0 1.72794
    endloop
  endfacet
  facet normal 1 0 0
    outer loop
      vertex 160 0.242431 1.81618
      vertex 160 0 0
      vertex 160 36 0
    endloop
  endfacet
  facet normal 0 1 -0
    outer loop
      vertex 160 36 0
      vertex 0.242431 36 1.81618
      vertex 160 36 1.81618
    endloop
  endfacet
  facet normal 0 1 0
    outer loop
      vertex 0 36 0
      vertex 0.242431 36 1.81618
      vertex 160 36 0
    endloop
  endfacet
  facet normal 0 1 0
    outer loop
      vertex 0.242431 36 1.81618
      vertex 0 36 0
      vertex 0 36 1.72794
    endloop
  endfacet
  facet normal 0 0 -1
    outer loop
      vertex 160 0 0
      vertex 152 8 0
      vertex 160 36 0
    endloop
  endfacet
  facet normal 0 0 -1
    outer loop
      vertex 160 0 0
      vertex 8 8 0
      vertex 152 8 0
    endloop
  endfacet
  facet normal -0 0 -1
    outer loop
      vertex 8 8 0
      vertex 0 0 0
      vertex 8 28 0
    endloop
  endfacet
  facet normal 0 0 -1
    outer loop
      vertex 0 0 0
      vertex 8 8 0
      vertex 160 0 0
    endloop
  endfacet
  facet normal 0 0 -1
    outer loop
      vertex 152 28 0
      vertex 160 36 0
      vertex 152 8 0
    endloop
  endfacet
  facet normal 0 0 -1
    outer loop
      vertex 8 28 0
      vertex 160 36 0
      vertex 152 28 0
    endloop
  endfacet
  facet normal 0 0 -1
    outer loop
      vertex 8 28 0
      vertex 0 36 0
      vertex 160 36 0
    endloop
  endfacet
  facet normal 0 0 -1
    outer loop
      vertex 0 36 0
      vertex 8 28 0
      vertex 0 0 0
    endloop
  endfacet
  facet normal 0 -1 0
    outer loop
      vertex 0 0 0
      vertex 160 0 1.72794
      vertex 0 0 1.72794
    endloop
  endfacet
  facet normal 0 -1 -0
    outer loop
      vertex 160 0 1.72794
      vertex 0 0 0
      vertex 160 0 0
    endloop
  endfacet
  facet normal 1 -0 0
    outer loop
      vertex 8 8 4
      vertex 8 28 0
      vertex 8 28 4
    endloop
  endfacet
  facet normal 1 0 0
    outer loop
      vertex 8 28 0
      vertex 8 8 4
      vertex 8 8 0
    endloop
  endfacet
  facet normal -1 0 0
    outer loop
      vertex 152 8 0
      vertex 152 28 4
      vertex 152 28 0
    endloop
  endfacet
  facet normal -1 -0 0
    outer loop
      vertex 152 28 4
      vertex 152 8 0
      vertex 152 8 4
    endloop
  endfacet
  facet normal 0 1 -0
    outer loop
      vertex 152 8 0
      vertex 8 8 4
      vertex 152 8 4
    endloop
  endfacet
  facet normal 0 1 0
    outer loop
      vertex 8 8 4
      vertex 152 8 0
      vertex 8 8 0
    endloop
  endfacet
  facet normal 0 -1 0
    outer loop
      vertex 8 28 0
      vertex 152 28 4
      vertex 8 28 4
    endloop
  endfacet
  facet normal 0 -1 -0
    outer loop
      vertex 152 28 4
      vertex 8 28 0
      vertex 152 28 0
    endloop
  endfacet
  facet normal -9.20276e-06 -0.342028 0.93969
    outer loop
      vertex 154 6.24243 4
      vertex 160 0 1.72794
      vertex 160 0.242431 1.81618
    endloop
  endfacet
  facet normal 0 -0.34202 0.939693
    outer loop
      vertex 6.24243 6.24243 4
      vertex 160 0 1.72794
      vertex 154 6.24243 4
    endloop
  endfacet
  facet normal 0 -0.34202 0.939693
    outer loop
      vertex 160 0 1.72794
      vertex 6.24243 6.24243 4
      vertex 0 0 1.72794
    endloop
  endfacet
  facet normal 0 0.34202 0.939693
    outer loop
      vertex 160 36 1.81618
      vertex 6.24243 30 4
      vertex 154 30 4
    endloop
  endfacet
  facet normal 0 0.34202 0.939693
    outer loop
      vertex 6.24243 30 4
      vertex 160 36 1.81618
      vertex 0.242431 36 1.81618
    endloop
  endfacet
  facet normal -0.342028 -9.20276e-06 0.93969
    outer loop
      vertex 0 36 1.72794
      vertex 6.24243 30 4
      vertex 0.242431 36 1.81618
    endloop
  endfacet
  facet normal -0.34202 0 0.939693
    outer loop
      vertex 6.24243 30 4
      vertex 0 36 1.72794
      vertex 6.24243 6.24243 4
    endloop
  endfacet
  facet normal -0.34202 0 0.939693
    outer loop
      vertex 6.24243 6.24243 4
      vertex 0 36 1.72794
      vertex 0 0 1.72794
    endloop
  endfacet
  facet normal 0.34202 0 0.939693
    outer loop
      vertex 154 30 4
      vertex 160 0.242431 1.81618
      vertex 160 36 1.81618
    endloop
  endfacet
  facet normal 0.34202 0 0.939693
    outer loop
      vertex 160 0.242431 1.81618
      vertex 154 30 4
      vertex 154 6.24243 4
    endloop
  endfacet
endsolid OpenSCAD_Model
