solid OpenSCAD_Model
  facet normal -1 0 0
    outer loop
      vertex 0 0 0
      vertex 0 7 24
      vertex 0 7 0
    endloop
  endfacet
  facet normal -1 -0 0
    outer loop
      vertex 0 7 24
      vertex 0 0 0
      vertex 0 0 24
    endloop
  endfacet
  facet normal -0 0 1
    outer loop
      vertex 0 7 24
      vertex 34 0 24
      vertex 34 7 24
    endloop
  endfacet
  facet normal 0 0 1
    outer loop
      vertex 34 0 24
      vertex 0 7 24
      vertex 0 0 24
    endloop
  endfacet
  facet normal 1 -0 0
    outer loop
      vertex 34 0 24
      vertex 34 7 0
      vertex 34 7 24
    endloop
  endfacet
  facet normal 1 0 0
    outer loop
      vertex 34 7 0
      vertex 34 0 24
      vertex 34 0 0
    endloop
  endfacet
  facet normal 0 1 -0
    outer loop
      vertex 34 7 0
      vertex 0 7 24
      vertex 34 7 24
    endloop
  endfacet
  facet normal 0 1 0
    outer loop
      vertex 0 7 24
      vertex 34 7 0
      vertex 0 7 0
    endloop
  endfacet
  facet normal 0 0 -1
    outer loop
      vertex 0 0 0
      vertex 34 7 0
      vertex 34 0 0
    endloop
  endfacet
  facet normal -0 0 -1
    outer loop
      vertex 34 7 0
      vertex 0 0 0
      vertex 0 7 0
    endloop
  endfacet
  facet normal 0 -1 0
    outer loop
      vertex 0 0 24
      vertex 2 0 22.1
      vertex 34 0 24
    endloop
  endfacet
  facet normal 0 -1 0
    outer loop
      vertex 0 0 24
      vertex 1 0 2.4
      vertex 2 0 22.1
    endloop
  endfacet
  facet normal 0 -1 0
    outer loop
      vertex 0 0 0
      vertex 1 0 2.4
      vertex 0 0 24
    endloop
  endfacet
  facet normal 0 -1 -0
    outer loop
      vertex 1 0 1.8
      vertex 0 0 0
      vertex 33 0 1.8
    endloop
  endfacet
  facet normal 0 -1 -0
    outer loop
      vertex 1 0 2.4
      vertex 0 0 0
      vertex 1 0 1.8
    endloop
  endfacet
  facet normal 0 -1 0
    outer loop
      vertex 32 0 22.1
      vertex 34 0 24
      vertex 2 0 22.1
    endloop
  endfacet
  facet normal 0 -1 0
    outer loop
      vertex 33 0 2.4
      vertex 32 0 22.1
      vertex 32 0 2.4
    endloop
  endfacet
  facet normal 0 -1 0
    outer loop
      vertex 32 0 22.1
      vertex 33 0 2.4
      vertex 34 0 24
    endloop
  endfacet
  facet normal 0 -1 0
    outer loop
      vertex 34 0 0
      vertex 33 0 2.4
      vertex 33 0 1.8
    endloop
  endfacet
  facet normal 0 -1 0
    outer loop
      vertex 33 0 2.4
      vertex 34 0 0
      vertex 34 0 24
    endloop
  endfacet
  facet normal 0 -1 0
    outer loop
      vertex 34 0 0
      vertex 33 0 1.8
      vertex 0 0 0
    endloop
  endfacet
  facet normal 0 -1 -0
    outer loop
      vertex 2 0 22.1
      vertex 1 0 2.4
      vertex 2 0 2.4
    endloop
  endfacet
  facet normal 0 -1 0
    outer loop
      vertex 4.2 0 2.4
      vertex 29.8 0 19.9
      vertex 4.2 0 19.9
    endloop
  endfacet
  facet normal 0 -1 -0
    outer loop
      vertex 29.8 0 19.9
      vertex 4.2 0 2.4
      vertex 29.8 0 2.4
    endloop
  endfacet
  facet normal 1 -0 0
    outer loop
      vertex 2 0 22.1
      vertex 2 5 2.4
      vertex 2 5 22.1
    endloop
  endfacet
  facet normal 1 0 0
    outer loop
      vertex 2 5 2.4
      vertex 2 0 22.1
      vertex 2 0 2.4
    endloop
  endfacet
  facet normal 0 0 -1
    outer loop
      vertex 2 0 22.1
      vertex 32 5 22.1
      vertex 32 0 22.1
    endloop
  endfacet
  facet normal -0 0 -1
    outer loop
      vertex 32 5 22.1
      vertex 2 0 22.1
      vertex 2 5 22.1
    endloop
  endfacet
  facet normal -1 0 0
    outer loop
      vertex 4.2 0 2.4
      vertex 4.2 5 19.9
      vertex 4.2 5 2.4
    endloop
  endfacet
  facet normal -1 -0 0
    outer loop
      vertex 4.2 5 19.9
      vertex 4.2 0 2.4
      vertex 4.2 0 19.9
    endloop
  endfacet
  facet normal 0 -1 0
    outer loop
      vertex 1 5 1.8
      vertex 2 5 2.4
      vertex 1 5 2.4
    endloop
  endfacet
  facet normal 0 -1 -0
    outer loop
      vertex 2 5 2.4
      vertex 1 5 1.8
      vertex 4.2 5 2.4
    endloop
  endfacet
  facet normal 0 -1 -0
    outer loop
      vertex 4.2 5 2.4
      vertex 1 5 1.8
      vertex 29.8 5 2.4
    endloop
  endfacet
  facet normal 0 -1 0
    outer loop
      vertex 33 5 1.8
      vertex 29.8 5 2.4
      vertex 1 5 1.8
    endloop
  endfacet
  facet normal 0 -1 0
    outer loop
      vertex 29.8 5 2.4
      vertex 33 5 1.8
      vertex 32 5 2.4
    endloop
  endfacet
  facet normal 0 -1 0
    outer loop
      vertex 32 5 2.4
      vertex 33 5 1.8
      vertex 33 5 2.4
    endloop
  endfacet
  facet normal 0 -1 0
    outer loop
      vertex 2 5 22.1
      vertex 4.2 5 19.9
      vertex 32 5 22.1
    endloop
  endfacet
  facet normal 0 -1 0
    outer loop
      vertex 2 5 2.4
      vertex 4.2 5 19.9
      vertex 2 5 22.1
    endloop
  endfacet
  facet normal 0 -1 -0
    outer loop
      vertex 4.2 5 19.9
      vertex 2 5 2.4
      vertex 4.2 5 2.4
    endloop
  endfacet
  facet normal 0 -1 0
    outer loop
      vertex 29.8 5 19.9
      vertex 32 5 22.1
      vertex 4.2 5 19.9
    endloop
  endfacet
  facet normal 0 -1 0
    outer loop
      vertex 32 5 2.4
      vertex 29.8 5 19.9
      vertex 29.8 5 2.4
    endloop
  endfacet
  facet normal 0 -1 0
    outer loop
      vertex 29.8 5 19.9
      vertex 32 5 2.4
      vertex 32 5 22.1
    endloop
  endfacet
  facet normal -0 0 1
    outer loop
      vertex 4.2 5 19.9
      vertex 29.8 0 19.9
      vertex 29.8 5 19.9
    endloop
  endfacet
  facet normal 0 0 1
    outer loop
      vertex 29.8 0 19.9
      vertex 4.2 5 19.9
      vertex 4.2 0 19.9
    endloop
  endfacet
  facet normal 1 -0 0
    outer loop
      vertex 29.8 0 19.9
      vertex 29.8 5 2.4
      vertex 29.8 5 19.9
    endloop
  endfacet
  facet normal 1 0 0
    outer loop
      vertex 29.8 5 2.4
      vertex 29.8 0 19.9
      vertex 29.8 0 2.4
    endloop
  endfacet
  facet normal -1 0 0
    outer loop
      vertex 32 0 2.4
      vertex 32 5 22.1
      vertex 32 5 2.4
    endloop
  endfacet
  facet normal -1 -0 0
    outer loop
      vertex 32 5 22.1
      vertex 32 0 2.4
      vertex 32 0 22.1
    endloop
  endfacet
  facet normal 1 -0 0
    outer loop
      vertex 1 0 2.4
      vertex 1 5 1.8
      vertex 1 5 2.4
    endloop
  endfacet
  facet normal 1 0 0
    outer loop
      vertex 1 5 1.8
      vertex 1 0 2.4
      vertex 1 0 1.8
    endloop
  endfacet
  facet normal 0 0 -1
    outer loop
      vertex 32 0 2.4
      vertex 33 5 2.4
      vertex 33 0 2.4
    endloop
  endfacet
  facet normal -0 0 -1
    outer loop
      vertex 33 5 2.4
      vertex 32 0 2.4
      vertex 32 5 2.4
    endloop
  endfacet
  facet normal 0 0 -1
    outer loop
      vertex 1 0 2.4
      vertex 2 5 2.4
      vertex 2 0 2.4
    endloop
  endfacet
  facet normal -0 0 -1
    outer loop
      vertex 2 5 2.4
      vertex 1 0 2.4
      vertex 1 5 2.4
    endloop
  endfacet
  facet normal 0 0 -1
    outer loop
      vertex 4.2 0 2.4
      vertex 29.8 5 2.4
      vertex 29.8 0 2.4
    endloop
  endfacet
  facet normal -0 0 -1
    outer loop
      vertex 29.8 5 2.4
      vertex 4.2 0 2.4
      vertex 4.2 5 2.4
    endloop
  endfacet
  facet normal -1 0 0
    outer loop
      vertex 33 0 1.8
      vertex 33 5 2.4
      vertex 33 5 1.8
    endloop
  endfacet
  facet normal -1 -0 0
    outer loop
      vertex 33 5 2.4
      vertex 33 0 1.8
      vertex 33 0 2.4
    endloop
  endfacet
  facet normal -0 0 1
    outer loop
      vertex 1 5 1.8
      vertex 33 0 1.8
      vertex 33 5 1.8
    endloop
  endfacet
  facet normal 0 0 1
    outer loop
      vertex 33 0 1.8
      vertex 1 5 1.8
      vertex 1 0 1.8
    endloop
  endfacet
endsolid OpenSCAD_Model
