solid OpenSCAD_Model
  facet normal -1 0 0
    outer loop
      vertex 0 0 0
      vertex 0 7 24
      vertex 0 7 0
    endloop
  endfacet
  facet normal -1 -0 0
    outer loop
      vertex 0 7 24
      vertex 0 0 0
      vertex 0 0 24
    endloop
  endfacet
  facet normal -0 0 1
    outer loop
      vertex 0 7 24
      vertex 34 0 24
      vertex 34 7 24
    endloop
  endfacet
  facet normal 0 0 1
    outer loop
      vertex 34 0 24
      vertex 0 7 24
      vertex 0 0 24
    endloop
  endfacet
  facet normal 1 -0 0
    outer loop
      vertex 34 0 24
      vertex 34 7 0
      vertex 34 7 24
    endloop
  endfacet
  facet normal 1 0 0
    outer loop
      vertex 34 7 0
      vertex 34 0 24
      vertex 34 0 0
    endloop
  endfacet
  facet normal 0 0 -1
    outer loop
      vertex 0 0 0
      vertex 34 7 0
      vertex 34 0 0
    endloop
  endfacet
  facet normal -0 0 -1
    outer loop
      vertex 34 7 0
      vertex 0 0 0
      vertex 0 7 0
    endloop
  endfacet
  facet normal 0 -1 0
    outer loop
      vertex 0 0 24
      vertex 2 0 22
      vertex 34 0 24
    endloop
  endfacet
  facet normal 0 -1 0
    outer loop
      vertex 0 0 24
      vertex 2 0 2
      vertex 2 0 22
    endloop
  endfacet
  facet normal 0 -1 -0
    outer loop
      vertex 2 0 2
      vertex 0 0 0
      vertex 32 0 2
    endloop
  endfacet
  facet normal 0 -1 0
    outer loop
      vertex 0 0 0
      vertex 2 0 2
      vertex 0 0 24
    endloop
  endfacet
  facet normal 0 -1 0
    outer loop
      vertex 32 0 22
      vertex 34 0 24
      vertex 2 0 22
    endloop
  endfacet
  facet normal 0 -1 0
    outer loop
      vertex 32 0 2
      vertex 34 0 24
      vertex 32 0 22
    endloop
  endfacet
  facet normal 0 -1 0
    outer loop
      vertex 32 0 2
      vertex 34 0 0
      vertex 34 0 24
    endloop
  endfacet
  facet normal 0 -1 0
    outer loop
      vertex 34 0 0
      vertex 32 0 2
      vertex 0 0 0
    endloop
  endfacet
  facet normal 0 -1 0
    outer loop
      vertex 4.2 0 2.6
      vertex 29.8 0 19.8
      vertex 4.2 0 19.8
    endloop
  endfacet
  facet normal 0 -1 -0
    outer loop
      vertex 29.8 0 19.8
      vertex 4.2 0 2.6
      vertex 29.8 0 2.6
    endloop
  endfacet
  facet normal 0 1 -0
    outer loop
      vertex 34 7 0
      vertex 0 7 24
      vertex 34 7 24
    endloop
  endfacet
  facet normal 0 1 0
    outer loop
      vertex 0 7 24
      vertex 34 7 0
      vertex 0 7 0
    endloop
  endfacet
  facet normal 1 -0 0
    outer loop
      vertex 2 0 22
      vertex 2 5 2
      vertex 2 5 22
    endloop
  endfacet
  facet normal 1 0 0
    outer loop
      vertex 2 5 2
      vertex 2 0 22
      vertex 2 0 2
    endloop
  endfacet
  facet normal 0 0 -1
    outer loop
      vertex 2 0 22
      vertex 32 5 22
      vertex 32 0 22
    endloop
  endfacet
  facet normal -0 0 -1
    outer loop
      vertex 32 5 22
      vertex 2 0 22
      vertex 2 5 22
    endloop
  endfacet
  facet normal -1 0 0
    outer loop
      vertex 4.2 0 2.6
      vertex 4.2 5 19.8
      vertex 4.2 5 2.6
    endloop
  endfacet
  facet normal -1 -0 0
    outer loop
      vertex 4.2 5 19.8
      vertex 4.2 0 2.6
      vertex 4.2 0 19.8
    endloop
  endfacet
  facet normal -0 0 1
    outer loop
      vertex 2 5 2
      vertex 32 0 2
      vertex 32 5 2
    endloop
  endfacet
  facet normal 0 0 1
    outer loop
      vertex 32 0 2
      vertex 2 5 2
      vertex 2 0 2
    endloop
  endfacet
  facet normal 0 -1 0
    outer loop
      vertex 2 5 22
      vertex 4.2 5 19.8
      vertex 32 5 22
    endloop
  endfacet
  facet normal 0 -1 0
    outer loop
      vertex 2 5 2
      vertex 4.2 5 19.8
      vertex 2 5 22
    endloop
  endfacet
  facet normal 0 -1 -0
    outer loop
      vertex 4.2 5 2.6
      vertex 2 5 2
      vertex 29.8 5 2.6
    endloop
  endfacet
  facet normal 0 -1 -0
    outer loop
      vertex 4.2 5 19.8
      vertex 2 5 2
      vertex 4.2 5 2.6
    endloop
  endfacet
  facet normal 0 -1 0
    outer loop
      vertex 29.8 5 19.8
      vertex 32 5 22
      vertex 4.2 5 19.8
    endloop
  endfacet
  facet normal 0 -1 0
    outer loop
      vertex 32 5 2
      vertex 29.8 5 19.8
      vertex 29.8 5 2.6
    endloop
  endfacet
  facet normal 0 -1 0
    outer loop
      vertex 29.8 5 19.8
      vertex 32 5 2
      vertex 32 5 22
    endloop
  endfacet
  facet normal 0 -1 0
    outer loop
      vertex 32 5 2
      vertex 29.8 5 2.6
      vertex 2 5 2
    endloop
  endfacet
  facet normal -0 0 1
    outer loop
      vertex 4.2 5 19.8
      vertex 29.8 0 19.8
      vertex 29.8 5 19.8
    endloop
  endfacet
  facet normal 0 0 1
    outer loop
      vertex 29.8 0 19.8
      vertex 4.2 5 19.8
      vertex 4.2 0 19.8
    endloop
  endfacet
  facet normal 1 -0 0
    outer loop
      vertex 29.8 0 19.8
      vertex 29.8 5 2.6
      vertex 29.8 5 19.8
    endloop
  endfacet
  facet normal 1 0 0
    outer loop
      vertex 29.8 5 2.6
      vertex 29.8 0 19.8
      vertex 29.8 0 2.6
    endloop
  endfacet
  facet normal -1 0 0
    outer loop
      vertex 32 0 2
      vertex 32 5 22
      vertex 32 5 2
    endloop
  endfacet
  facet normal -1 -0 0
    outer loop
      vertex 32 5 22
      vertex 32 0 2
      vertex 32 0 22
    endloop
  endfacet
  facet normal 0 0 -1
    outer loop
      vertex 4.2 0 2.6
      vertex 29.8 5 2.6
      vertex 29.8 0 2.6
    endloop
  endfacet
  facet normal -0 0 -1
    outer loop
      vertex 29.8 5 2.6
      vertex 4.2 0 2.6
      vertex 4.2 5 2.6
    endloop
  endfacet
endsolid OpenSCAD_Model
