solid OpenSCAD_Model
  facet normal -0 0 1
    outer loop
      vertex 0 25.8 0.4
      vertex 162 0 0.4
      vertex 162 25.8 0.4
    endloop
  endfacet
  facet normal 0 0 1
    outer loop
      vertex 162 0 0.4
      vertex 0 25.8 0.4
      vertex 0 0 0.4
    endloop
  endfacet
  facet normal 0 0 -1
    outer loop
      vertex 0 0 0
      vertex 162 25.8 0
      vertex 162 0 0
    endloop
  endfacet
  facet normal -0 0 -1
    outer loop
      vertex 162 25.8 0
      vertex 0 0 0
      vertex 0 25.8 0
    endloop
  endfacet
  facet normal 0 -1 0
    outer loop
      vertex 0 0 0
      vertex 162 0 0.4
      vertex 0 0 0.4
    endloop
  endfacet
  facet normal 0 -1 -0
    outer loop
      vertex 162 0 0.4
      vertex 0 0 0
      vertex 162 0 0
    endloop
  endfacet
  facet normal 1 -0 0
    outer loop
      vertex 162 0 0.4
      vertex 162 25.8 0
      vertex 162 25.8 0.4
    endloop
  endfacet
  facet normal 1 0 0
    outer loop
      vertex 162 25.8 0
      vertex 162 0 0.4
      vertex 162 0 0
    endloop
  endfacet
  facet normal 0 1 -0
    outer loop
      vertex 162 25.8 0
      vertex 0 25.8 0.4
      vertex 162 25.8 0.4
    endloop
  endfacet
  facet normal 0 1 0
    outer loop
      vertex 0 25.8 0.4
      vertex 162 25.8 0
      vertex 0 25.8 0
    endloop
  endfacet
  facet normal -1 0 0
    outer loop
      vertex 0 0 0
      vertex 0 25.8 0.4
      vertex 0 25.8 0
    endloop
  endfacet
  facet normal -1 -0 0
    outer loop
      vertex 0 25.8 0.4
      vertex 0 0 0
      vertex 0 0 0.4
    endloop
  endfacet
endsolid OpenSCAD_Model
