solid OpenSCAD_Model
  facet normal -1 0 0
    outer loop
      vertex 0 9.7 0
      vertex 0 11 7
      vertex 0 11 0
    endloop
  endfacet
  facet normal -1 -0 0
    outer loop
      vertex 0 11 7
      vertex 0 9.7 0
      vertex 0 9.7 7
    endloop
  endfacet
  facet normal -1 0 0
    outer loop
      vertex 0 0 0
      vertex 0 1.3 7
      vertex 0 1.3 0
    endloop
  endfacet
  facet normal -1 -0 0
    outer loop
      vertex 0 1.3 7
      vertex 0 0 0
      vertex 0 0 7
    endloop
  endfacet
  facet normal -1 0 0
    outer loop
      vertex 0 2.7 0
      vertex 0 8.3 2
      vertex 0 8.3 0
    endloop
  endfacet
  facet normal -1 -0 0
    outer loop
      vertex 0 8.3 2
      vertex 0 2.7 0
      vertex 0 2.7 2
    endloop
  endfacet
  facet normal -0 0 1
    outer loop
      vertex 0 8.3 2
      vertex 11 2.7 2
      vertex 11 8.3 2
    endloop
  endfacet
  facet normal 0 0 1
    outer loop
      vertex 11 2.7 2
      vertex 0 8.3 2
      vertex 0 2.7 2
    endloop
  endfacet
  facet normal 0 0 1
    outer loop
      vertex 11 8.3 2
      vertex 200 8.5 2
      vertex 11 8.5 2
    endloop
  endfacet
  facet normal 0 0 1
    outer loop
      vertex 200 8.5 2
      vertex 11 8.3 2
      vertex 200 2.5 2
    endloop
  endfacet
  facet normal -0 0 1
    outer loop
      vertex 11 2.7 2
      vertex 200 2.5 2
      vertex 11 8.3 2
    endloop
  endfacet
  facet normal 0 0 1
    outer loop
      vertex 200 2.5 2
      vertex 11 2.7 2
      vertex 11 2.5 2
    endloop
  endfacet
  facet normal 1 0 0
    outer loop
      vertex 200 2.5 7
      vertex 200 0 7
      vertex 200 2.5 2
    endloop
  endfacet
  facet normal 1 0 0
    outer loop
      vertex 200 8.5 2
      vertex 200 11 7
      vertex 200 8.5 7
    endloop
  endfacet
  facet normal 1 0 0
    outer loop
      vertex 200 11 7
      vertex 200 8.5 2
      vertex 200 11 0
    endloop
  endfacet
  facet normal 1 -0 0
    outer loop
      vertex 200 2.5 2
      vertex 200 11 0
      vertex 200 8.5 2
    endloop
  endfacet
  facet normal 1 0 0
    outer loop
      vertex 200 2.5 2
      vertex 200 0 0
      vertex 200 11 0
    endloop
  endfacet
  facet normal 1 0 0
    outer loop
      vertex 200 0 0
      vertex 200 2.5 2
      vertex 200 0 7
    endloop
  endfacet
  facet normal 0 0 -1
    outer loop
      vertex 0 2.7 0
      vertex 11 8.3 0
      vertex 11 2.7 0
    endloop
  endfacet
  facet normal -0 0 -1
    outer loop
      vertex 11 8.3 0
      vertex 0 2.7 0
      vertex 0 8.3 0
    endloop
  endfacet
  facet normal 0 0 -1
    outer loop
      vertex 11 2.7 0
      vertex 200 0 0
      vertex 11 1.3 0
    endloop
  endfacet
  facet normal 0 0 -1
    outer loop
      vertex 0 0 0
      vertex 11 1.3 0
      vertex 200 0 0
    endloop
  endfacet
  facet normal -0 0 -1
    outer loop
      vertex 11 1.3 0
      vertex 0 0 0
      vertex 0 1.3 0
    endloop
  endfacet
  facet normal 0 0 -1
    outer loop
      vertex 200 0 0
      vertex 11 2.7 0
      vertex 200 11 0
    endloop
  endfacet
  facet normal 0 0 -1
    outer loop
      vertex 11 8.3 0
      vertex 200 11 0
      vertex 11 2.7 0
    endloop
  endfacet
  facet normal 0 0 -1
    outer loop
      vertex 11 9.7 0
      vertex 200 11 0
      vertex 11 8.3 0
    endloop
  endfacet
  facet normal 0 0 -1
    outer loop
      vertex 0 11 0
      vertex 11 9.7 0
      vertex 0 9.7 0
    endloop
  endfacet
  facet normal 0 0 -1
    outer loop
      vertex 11 9.7 0
      vertex 0 11 0
      vertex 200 11 0
    endloop
  endfacet
  facet normal 0 -1 0
    outer loop
      vertex 0 0 0
      vertex 200 0 7
      vertex 0 0 7
    endloop
  endfacet
  facet normal 0 -1 -0
    outer loop
      vertex 200 0 7
      vertex 0 0 0
      vertex 200 0 0
    endloop
  endfacet
  facet normal 0 1 -0
    outer loop
      vertex 200 11 0
      vertex 0 11 7
      vertex 200 11 7
    endloop
  endfacet
  facet normal 0 1 0
    outer loop
      vertex 0 11 7
      vertex 200 11 0
      vertex 0 11 0
    endloop
  endfacet
  facet normal -0 0 1
    outer loop
      vertex 11 2.5 7
      vertex 200 0 7
      vertex 200 2.5 7
    endloop
  endfacet
  facet normal -0 0 1
    outer loop
      vertex 11 1.3 7
      vertex 200 0 7
      vertex 11 2.5 7
    endloop
  endfacet
  facet normal 0 0 1
    outer loop
      vertex 0 0 7
      vertex 11 1.3 7
      vertex 0 1.3 7
    endloop
  endfacet
  facet normal 0 0 1
    outer loop
      vertex 11 1.3 7
      vertex 0 0 7
      vertex 200 0 7
    endloop
  endfacet
  facet normal 0 1 -0
    outer loop
      vertex 200 2.5 2
      vertex 11 2.5 7
      vertex 200 2.5 7
    endloop
  endfacet
  facet normal 0 1 0
    outer loop
      vertex 11 2.5 7
      vertex 200 2.5 2
      vertex 11 2.5 2
    endloop
  endfacet
  facet normal 0 0 1
    outer loop
      vertex 200 11 7
      vertex 11 9.7 7
      vertex 200 8.5 7
    endloop
  endfacet
  facet normal -0 0 1
    outer loop
      vertex 0 11 7
      vertex 11 9.7 7
      vertex 200 11 7
    endloop
  endfacet
  facet normal 0 0 1
    outer loop
      vertex 11 9.7 7
      vertex 0 11 7
      vertex 0 9.7 7
    endloop
  endfacet
  facet normal 0 0 1
    outer loop
      vertex 200 8.5 7
      vertex 11 9.7 7
      vertex 11 8.5 7
    endloop
  endfacet
  facet normal 0 -1 0
    outer loop
      vertex 11 8.5 2
      vertex 200 8.5 7
      vertex 11 8.5 7
    endloop
  endfacet
  facet normal 0 -1 -0
    outer loop
      vertex 200 8.5 7
      vertex 11 8.5 2
      vertex 200 8.5 2
    endloop
  endfacet
  facet normal -1 0 0
    outer loop
      vertex 11 2.7 0
      vertex 11 2.5 2
      vertex 11 2.7 2
    endloop
  endfacet
  facet normal -1 0 0
    outer loop
      vertex 11 1.3 0
      vertex 11 2.5 2
      vertex 11 2.7 0
    endloop
  endfacet
  facet normal -1 0 0
    outer loop
      vertex 11 1.3 7
      vertex 11 2.5 2
      vertex 11 1.3 0
    endloop
  endfacet
  facet normal -1 0 0
    outer loop
      vertex 11 2.5 2
      vertex 11 1.3 7
      vertex 11 2.5 7
    endloop
  endfacet
  facet normal 0 -1 0
    outer loop
      vertex 0 2.7 0
      vertex 11 2.7 2
      vertex 0 2.7 2
    endloop
  endfacet
  facet normal 0 -1 -0
    outer loop
      vertex 11 2.7 2
      vertex 0 2.7 0
      vertex 11 2.7 0
    endloop
  endfacet
  facet normal 0 1 -0
    outer loop
      vertex 11 1.3 0
      vertex 0 1.3 7
      vertex 11 1.3 7
    endloop
  endfacet
  facet normal 0 1 0
    outer loop
      vertex 0 1.3 7
      vertex 11 1.3 0
      vertex 0 1.3 0
    endloop
  endfacet
  facet normal -1 0 0
    outer loop
      vertex 11 9.7 0
      vertex 11 8.5 2
      vertex 11 9.7 7
    endloop
  endfacet
  facet normal -1 0 0
    outer loop
      vertex 11 8.3 0
      vertex 11 8.5 2
      vertex 11 9.7 0
    endloop
  endfacet
  facet normal -1 -0 0
    outer loop
      vertex 11 8.5 2
      vertex 11 8.3 0
      vertex 11 8.3 2
    endloop
  endfacet
  facet normal -1 -0 0
    outer loop
      vertex 11 9.7 7
      vertex 11 8.5 2
      vertex 11 8.5 7
    endloop
  endfacet
  facet normal 0 -1 0
    outer loop
      vertex 0 9.7 0
      vertex 11 9.7 7
      vertex 0 9.7 7
    endloop
  endfacet
  facet normal 0 -1 -0
    outer loop
      vertex 11 9.7 7
      vertex 0 9.7 0
      vertex 11 9.7 0
    endloop
  endfacet
  facet normal 0 1 -0
    outer loop
      vertex 11 8.3 0
      vertex 0 8.3 2
      vertex 11 8.3 2
    endloop
  endfacet
  facet normal 0 1 0
    outer loop
      vertex 0 8.3 2
      vertex 11 8.3 0
      vertex 0 8.3 0
    endloop
  endfacet
endsolid OpenSCAD_Model
