solid OpenSCAD_Model
  facet normal 1 0 0
    outer loop
      vertex 20 2.5 12
      vertex 20 1.5 9.8
      vertex 20 2.5 9.8
    endloop
  endfacet
  facet normal 1 -0 0
    outer loop
      vertex 20 0 12
      vertex 20 1.5 9.8
      vertex 20 2.5 12
    endloop
  endfacet
  facet normal 1 0 0
    outer loop
      vertex 20 0 0
      vertex 20 1.5 9.8
      vertex 20 0 12
    endloop
  endfacet
  facet normal 1 0 0
    outer loop
      vertex 20 1.5 9.8
      vertex 20 0 0
      vertex 20 1.5 0
    endloop
  endfacet
  facet normal 1 0 0
    outer loop
      vertex 20 11 12
      vertex 20 9.5 9.8
      vertex 20 11 0
    endloop
  endfacet
  facet normal 1 -0 0
    outer loop
      vertex 20 8.5 12
      vertex 20 9.5 9.8
      vertex 20 11 12
    endloop
  endfacet
  facet normal 1 0 0
    outer loop
      vertex 20 9.5 9.8
      vertex 20 8.5 12
      vertex 20 8.5 9.8
    endloop
  endfacet
  facet normal 1 0 0
    outer loop
      vertex 20 11 0
      vertex 20 9.5 9.8
      vertex 20 9.5 0
    endloop
  endfacet
  facet normal 1 -0 0
    outer loop
      vertex 20 2.5 2
      vertex 20 8.5 0
      vertex 20 8.5 2
    endloop
  endfacet
  facet normal 1 0 0
    outer loop
      vertex 20 8.5 0
      vertex 20 2.5 2
      vertex 20 2.5 0
    endloop
  endfacet
  facet normal -0 0 1
    outer loop
      vertex 20 2.5 9.8
      vertex 30 1.5 9.8
      vertex 30 2.5 9.8
    endloop
  endfacet
  facet normal 0 0 1
    outer loop
      vertex 30 1.5 9.8
      vertex 20 2.5 9.8
      vertex 20 1.5 9.8
    endloop
  endfacet
  facet normal 1 -0 0
    outer loop
      vertex 30 1.5 9.8
      vertex 30 2.5 0
      vertex 30 2.5 9.8
    endloop
  endfacet
  facet normal 1 0 0
    outer loop
      vertex 30 2.5 0
      vertex 30 1.5 9.8
      vertex 30 1.5 0
    endloop
  endfacet
  facet normal 0 1 0
    outer loop
      vertex 30 2.5 9.8
      vertex 20 2.5 2
      vertex 20 2.5 9.8
    endloop
  endfacet
  facet normal 0 1 -0
    outer loop
      vertex 30 2.5 0
      vertex 20 2.5 2
      vertex 30 2.5 9.8
    endloop
  endfacet
  facet normal 0 1 0
    outer loop
      vertex 20 2.5 2
      vertex 30 2.5 0
      vertex 20 2.5 0
    endloop
  endfacet
  facet normal 0 1 0
    outer loop
      vertex 20 2.5 12
      vertex 11 2.5 10
      vertex 0 2.5 12
    endloop
  endfacet
  facet normal 0 1 -0
    outer loop
      vertex 20 2.5 9.8
      vertex 11 2.5 10
      vertex 20 2.5 12
    endloop
  endfacet
  facet normal 0 1 0
    outer loop
      vertex 11 2.5 2
      vertex 20 2.5 9.8
      vertex 20 2.5 2
    endloop
  endfacet
  facet normal 0 1 0
    outer loop
      vertex 20 2.5 9.8
      vertex 11 2.5 2
      vertex 11 2.5 10
    endloop
  endfacet
  facet normal 0 1 0
    outer loop
      vertex 0 2.5 12
      vertex 11 2.5 10
      vertex 0 2.5 10
    endloop
  endfacet
  facet normal 0 0 -1
    outer loop
      vertex 0 2.7 0
      vertex 11 8.3 0
      vertex 11 2.7 0
    endloop
  endfacet
  facet normal -0 0 -1
    outer loop
      vertex 11 8.3 0
      vertex 0 2.7 0
      vertex 0 8.3 0
    endloop
  endfacet
  facet normal 0 0 -1
    outer loop
      vertex 11 1.3 0
      vertex 20 1.5 0
      vertex 20 0 0
    endloop
  endfacet
  facet normal -0 0 -1
    outer loop
      vertex 20 1.5 0
      vertex 11 1.3 0
      vertex 20 2.5 0
    endloop
  endfacet
  facet normal 0 0 -1
    outer loop
      vertex 20 2.5 0
      vertex 11 2.7 0
      vertex 20 8.5 0
    endloop
  endfacet
  facet normal 0 0 -1
    outer loop
      vertex 11 8.3 0
      vertex 20 8.5 0
      vertex 11 2.7 0
    endloop
  endfacet
  facet normal -0 0 -1
    outer loop
      vertex 20 2.5 0
      vertex 11 1.3 0
      vertex 11 2.7 0
    endloop
  endfacet
  facet normal 0 0 -1
    outer loop
      vertex 0 0 0
      vertex 11 1.3 0
      vertex 20 0 0
    endloop
  endfacet
  facet normal -0 0 -1
    outer loop
      vertex 11 1.3 0
      vertex 0 0 0
      vertex 0 1.3 0
    endloop
  endfacet
  facet normal 0 0 -1
    outer loop
      vertex 20 1.5 0
      vertex 30 2.5 0
      vertex 30 1.5 0
    endloop
  endfacet
  facet normal -0 0 -1
    outer loop
      vertex 30 2.5 0
      vertex 20 1.5 0
      vertex 20 2.5 0
    endloop
  endfacet
  facet normal 0 0 -1
    outer loop
      vertex 20 8.5 0
      vertex 30 9.5 0
      vertex 30 8.5 0
    endloop
  endfacet
  facet normal -0 0 -1
    outer loop
      vertex 30 9.5 0
      vertex 20 8.5 0
      vertex 20 9.5 0
    endloop
  endfacet
  facet normal -0 0 -1
    outer loop
      vertex 20 8.5 0
      vertex 11 8.3 0
      vertex 20 9.5 0
    endloop
  endfacet
  facet normal 0 0 -1
    outer loop
      vertex 11 9.7 0
      vertex 20 9.5 0
      vertex 11 8.3 0
    endloop
  endfacet
  facet normal 0 0 -1
    outer loop
      vertex 20 9.5 0
      vertex 11 9.7 0
      vertex 20 11 0
    endloop
  endfacet
  facet normal 0 0 -1
    outer loop
      vertex 0 11 0
      vertex 11 9.7 0
      vertex 0 9.7 0
    endloop
  endfacet
  facet normal 0 0 -1
    outer loop
      vertex 11 9.7 0
      vertex 0 11 0
      vertex 20 11 0
    endloop
  endfacet
  facet normal 0 -1 0
    outer loop
      vertex 20 1.5 0
      vertex 30 1.5 9.8
      vertex 20 1.5 9.8
    endloop
  endfacet
  facet normal 0 -1 -0
    outer loop
      vertex 30 1.5 9.8
      vertex 20 1.5 0
      vertex 30 1.5 0
    endloop
  endfacet
  facet normal -0 0 1
    outer loop
      vertex 20 9.5 9.8
      vertex 30 8.5 9.8
      vertex 30 9.5 9.8
    endloop
  endfacet
  facet normal 0 0 1
    outer loop
      vertex 30 8.5 9.8
      vertex 20 9.5 9.8
      vertex 20 8.5 9.8
    endloop
  endfacet
  facet normal 1 -0 0
    outer loop
      vertex 30 8.5 9.8
      vertex 30 9.5 0
      vertex 30 9.5 9.8
    endloop
  endfacet
  facet normal 1 0 0
    outer loop
      vertex 30 9.5 0
      vertex 30 8.5 9.8
      vertex 30 8.5 0
    endloop
  endfacet
  facet normal 0 1 -0
    outer loop
      vertex 30 9.5 0
      vertex 20 9.5 9.8
      vertex 30 9.5 9.8
    endloop
  endfacet
  facet normal 0 1 0
    outer loop
      vertex 20 9.5 9.8
      vertex 30 9.5 0
      vertex 20 9.5 0
    endloop
  endfacet
  facet normal 0 -1 0
    outer loop
      vertex 11 8.5 10
      vertex 0 8.5 12
      vertex 0 8.5 10
    endloop
  endfacet
  facet normal 0 -1 0
    outer loop
      vertex 0 8.5 12
      vertex 11 8.5 10
      vertex 20 8.5 12
    endloop
  endfacet
  facet normal 0 -1 0
    outer loop
      vertex 11 8.5 10
      vertex 20 8.5 9.8
      vertex 20 8.5 12
    endloop
  endfacet
  facet normal 0 -1 0
    outer loop
      vertex 11 8.5 2
      vertex 20 8.5 9.8
      vertex 11 8.5 10
    endloop
  endfacet
  facet normal 0 -1 0
    outer loop
      vertex 20 8.5 2
      vertex 20 8.5 9.8
      vertex 11 8.5 2
    endloop
  endfacet
  facet normal 0 -1 0
    outer loop
      vertex 20 8.5 9.8
      vertex 20 8.5 2
      vertex 30 8.5 9.8
    endloop
  endfacet
  facet normal 0 -1 0
    outer loop
      vertex 30 8.5 0
      vertex 20 8.5 2
      vertex 20 8.5 0
    endloop
  endfacet
  facet normal 0 -1 0
    outer loop
      vertex 20 8.5 2
      vertex 30 8.5 0
      vertex 30 8.5 9.8
    endloop
  endfacet
  facet normal -1 0 0
    outer loop
      vertex 0 1.3 0
      vertex 0 0 0
      vertex 0 1.3 10
    endloop
  endfacet
  facet normal -1 0 0
    outer loop
      vertex 0 1.3 10
      vertex 0 2.5 12
      vertex 0 2.5 10
    endloop
  endfacet
  facet normal -1 0 0
    outer loop
      vertex 0 1.3 10
      vertex 0 0 12
      vertex 0 2.5 12
    endloop
  endfacet
  facet normal -1 0 0
    outer loop
      vertex 0 0 12
      vertex 0 1.3 10
      vertex 0 0 0
    endloop
  endfacet
  facet normal -1 0 0
    outer loop
      vertex 0 9.7 10
      vertex 0 11 0
      vertex 0 9.7 0
    endloop
  endfacet
  facet normal -1 0 0
    outer loop
      vertex 0 11 0
      vertex 0 9.7 10
      vertex 0 11 12
    endloop
  endfacet
  facet normal -1 0 0
    outer loop
      vertex 0 8.5 12
      vertex 0 9.7 10
      vertex 0 8.5 10
    endloop
  endfacet
  facet normal -1 0 0
    outer loop
      vertex 0 9.7 10
      vertex 0 8.5 12
      vertex 0 11 12
    endloop
  endfacet
  facet normal -1 0 0
    outer loop
      vertex 0 2.7 0
      vertex 0 8.3 2
      vertex 0 8.3 0
    endloop
  endfacet
  facet normal -1 -0 0
    outer loop
      vertex 0 8.3 2
      vertex 0 2.7 0
      vertex 0 2.7 2
    endloop
  endfacet
  facet normal -0 0 1
    outer loop
      vertex 0 8.3 2
      vertex 11 2.7 2
      vertex 11 8.3 2
    endloop
  endfacet
  facet normal 0 0 1
    outer loop
      vertex 11 2.7 2
      vertex 0 8.3 2
      vertex 0 2.7 2
    endloop
  endfacet
  facet normal 0 0 1
    outer loop
      vertex 11 8.3 2
      vertex 20 8.5 2
      vertex 11 8.5 2
    endloop
  endfacet
  facet normal 0 0 1
    outer loop
      vertex 20 8.5 2
      vertex 11 8.3 2
      vertex 20 2.5 2
    endloop
  endfacet
  facet normal -0 0 1
    outer loop
      vertex 11 2.7 2
      vertex 20 2.5 2
      vertex 11 8.3 2
    endloop
  endfacet
  facet normal 0 0 1
    outer loop
      vertex 20 2.5 2
      vertex 11 2.7 2
      vertex 11 2.5 2
    endloop
  endfacet
  facet normal 0 -1 0
    outer loop
      vertex 0 0 0
      vertex 20 0 12
      vertex 0 0 12
    endloop
  endfacet
  facet normal 0 -1 -0
    outer loop
      vertex 20 0 12
      vertex 0 0 0
      vertex 20 0 0
    endloop
  endfacet
  facet normal 0 1 -0
    outer loop
      vertex 20 11 0
      vertex 0 11 12
      vertex 20 11 12
    endloop
  endfacet
  facet normal 0 1 0
    outer loop
      vertex 0 11 12
      vertex 20 11 0
      vertex 0 11 0
    endloop
  endfacet
  facet normal -0 0 1
    outer loop
      vertex 0 2.5 12
      vertex 20 0 12
      vertex 20 2.5 12
    endloop
  endfacet
  facet normal 0 0 1
    outer loop
      vertex 20 0 12
      vertex 0 2.5 12
      vertex 0 0 12
    endloop
  endfacet
  facet normal -0 0 1
    outer loop
      vertex 0 11 12
      vertex 20 8.5 12
      vertex 20 11 12
    endloop
  endfacet
  facet normal 0 0 1
    outer loop
      vertex 20 8.5 12
      vertex 0 11 12
      vertex 0 8.5 12
    endloop
  endfacet
  facet normal 0 0 -1
    outer loop
      vertex 0 1.3 10
      vertex 11 2.5 10
      vertex 11 1.3 10
    endloop
  endfacet
  facet normal -0 0 -1
    outer loop
      vertex 11 2.5 10
      vertex 0 1.3 10
      vertex 0 2.5 10
    endloop
  endfacet
  facet normal -1 0 0
    outer loop
      vertex 11 2.7 0
      vertex 11 2.5 2
      vertex 11 2.7 2
    endloop
  endfacet
  facet normal -1 0 0
    outer loop
      vertex 11 1.3 0
      vertex 11 2.5 2
      vertex 11 2.7 0
    endloop
  endfacet
  facet normal -1 0 0
    outer loop
      vertex 11 1.3 10
      vertex 11 2.5 2
      vertex 11 1.3 0
    endloop
  endfacet
  facet normal -1 0 0
    outer loop
      vertex 11 2.5 2
      vertex 11 1.3 10
      vertex 11 2.5 10
    endloop
  endfacet
  facet normal 0 -1 0
    outer loop
      vertex 0 2.7 0
      vertex 11 2.7 2
      vertex 0 2.7 2
    endloop
  endfacet
  facet normal 0 -1 -0
    outer loop
      vertex 11 2.7 2
      vertex 0 2.7 0
      vertex 11 2.7 0
    endloop
  endfacet
  facet normal 0 1 -0
    outer loop
      vertex 11 1.3 0
      vertex 0 1.3 10
      vertex 11 1.3 10
    endloop
  endfacet
  facet normal 0 1 0
    outer loop
      vertex 0 1.3 10
      vertex 11 1.3 0
      vertex 0 1.3 0
    endloop
  endfacet
  facet normal 0 0 -1
    outer loop
      vertex 0 8.5 10
      vertex 11 9.7 10
      vertex 11 8.5 10
    endloop
  endfacet
  facet normal -0 0 -1
    outer loop
      vertex 11 9.7 10
      vertex 0 8.5 10
      vertex 0 9.7 10
    endloop
  endfacet
  facet normal -1 0 0
    outer loop
      vertex 11 9.7 0
      vertex 11 8.5 2
      vertex 11 9.7 10
    endloop
  endfacet
  facet normal -1 0 0
    outer loop
      vertex 11 8.3 0
      vertex 11 8.5 2
      vertex 11 9.7 0
    endloop
  endfacet
  facet normal -1 -0 0
    outer loop
      vertex 11 8.5 2
      vertex 11 8.3 0
      vertex 11 8.3 2
    endloop
  endfacet
  facet normal -1 -0 0
    outer loop
      vertex 11 9.7 10
      vertex 11 8.5 2
      vertex 11 8.5 10
    endloop
  endfacet
  facet normal 0 1 -0
    outer loop
      vertex 11 8.3 0
      vertex 0 8.3 2
      vertex 11 8.3 2
    endloop
  endfacet
  facet normal 0 1 0
    outer loop
      vertex 0 8.3 2
      vertex 11 8.3 0
      vertex 0 8.3 0
    endloop
  endfacet
  facet normal 0 -1 0
    outer loop
      vertex 0 9.7 0
      vertex 11 9.7 10
      vertex 0 9.7 10
    endloop
  endfacet
  facet normal 0 -1 -0
    outer loop
      vertex 11 9.7 10
      vertex 0 9.7 0
      vertex 11 9.7 0
    endloop
  endfacet
endsolid OpenSCAD_Model
