solid OpenSCAD_Model
  facet normal -1 0 0
    outer loop
      vertex 0 0 0
      vertex 0 1.5 6.3
      vertex 0 1.5 0
    endloop
  endfacet
  facet normal -1 -0 0
    outer loop
      vertex 0 1.5 6.3
      vertex 0 0 0
      vertex 0 1.5 8.3
    endloop
  endfacet
  facet normal -1 0 0
    outer loop
      vertex 0 0 45
      vertex 0 1.5 8.3
      vertex 0 0 0
    endloop
  endfacet
  facet normal -1 0 0
    outer loop
      vertex 0 6.5 6.3
      vertex 0 8.5 8.3
      vertex 0 8.5 0
    endloop
  endfacet
  facet normal -1 -0 0
    outer loop
      vertex 0 8.5 8.3
      vertex 0 7.39803 8.23721
      vertex 0 7.4 8.3
    endloop
  endfacet
  facet normal -1 0 0
    outer loop
      vertex 0 8.5 8.3
      vertex 0 7.39211 8.17467
      vertex 0 7.39803 8.23721
    endloop
  endfacet
  facet normal -1 0 0
    outer loop
      vertex 0 8.5 8.3
      vertex 0 7.38229 8.11262
      vertex 0 7.39211 8.17467
    endloop
  endfacet
  facet normal -1 0 0
    outer loop
      vertex 0 8.5 8.3
      vertex 0 7.36858 8.05131
      vertex 0 7.38229 8.11262
    endloop
  endfacet
  facet normal -1 0 0
    outer loop
      vertex 0 8.5 8.3
      vertex 0 7.35106 7.99098
      vertex 0 7.36858 8.05131
    endloop
  endfacet
  facet normal -1 0 0
    outer loop
      vertex 0 8.5 8.3
      vertex 0 7.32978 7.93188
      vertex 0 7.35106 7.99098
    endloop
  endfacet
  facet normal -1 0 0
    outer loop
      vertex 0 8.5 8.3
      vertex 0 7.30483 7.87422
      vertex 0 7.32978 7.93188
    endloop
  endfacet
  facet normal -1 0 0
    outer loop
      vertex 0 8.5 8.3
      vertex 0 7.27631 7.81825
      vertex 0 7.30483 7.87422
    endloop
  endfacet
  facet normal -1 0 0
    outer loop
      vertex 0 8.5 8.3
      vertex 0 7.24433 7.76417
      vertex 0 7.27631 7.81825
    endloop
  endfacet
  facet normal -1 0 0
    outer loop
      vertex 0 8.5 8.3
      vertex 0 7.20902 7.71221
      vertex 0 7.24433 7.76417
    endloop
  endfacet
  facet normal -1 0 -0
    outer loop
      vertex 0 7.12897 7.61545
      vertex 0 8.5 8.3
      vertex 0 6.5 6.3
    endloop
  endfacet
  facet normal -1 0 0
    outer loop
      vertex 0 8.5 8.3
      vertex 0 7.17051 7.66258
      vertex 0 7.20902 7.71221
    endloop
  endfacet
  facet normal -1 0 0
    outer loop
      vertex 0 8.5 8.3
      vertex 0 7.12897 7.61545
      vertex 0 7.17051 7.66258
    endloop
  endfacet
  facet normal -1 0 0
    outer loop
      vertex 0 7.12897 7.61545
      vertex 0 6.5 6.3
      vertex 0 7.08455 7.57103
    endloop
  endfacet
  facet normal -1 0 0
    outer loop
      vertex 0 7.08455 7.57103
      vertex 0 6.5 6.3
      vertex 0 7.03742 7.52949
    endloop
  endfacet
  facet normal -1 0 0
    outer loop
      vertex 0 7.03742 7.52949
      vertex 0 6.5 6.3
      vertex 0 6.98778 7.49098
    endloop
  endfacet
  facet normal -1 0 0
    outer loop
      vertex 0 6.98778 7.49098
      vertex 0 6.5 6.3
      vertex 0 6.93583 7.45567
    endloop
  endfacet
  facet normal -1 0 0
    outer loop
      vertex 0 6.93583 7.45567
      vertex 0 6.5 6.3
      vertex 0 6.88175 7.42369
    endloop
  endfacet
  facet normal -1 0 0
    outer loop
      vertex 0 6.88175 7.42369
      vertex 0 6.5 6.3
      vertex 0 6.82578 7.39517
    endloop
  endfacet
  facet normal -1 0 0
    outer loop
      vertex 0 6.82578 7.39517
      vertex 0 6.5 6.3
      vertex 0 6.76812 7.37022
    endloop
  endfacet
  facet normal -1 0 0
    outer loop
      vertex 0 6.76812 7.37022
      vertex 0 6.5 6.3
      vertex 0 6.70902 7.34894
    endloop
  endfacet
  facet normal -1 0 0
    outer loop
      vertex 0 6.70902 7.34894
      vertex 0 6.5 6.3
      vertex 0 6.64869 7.33142
    endloop
  endfacet
  facet normal -1 0 0
    outer loop
      vertex 0 6.64869 7.33142
      vertex 0 6.5 6.3
      vertex 0 6.58738 7.31771
    endloop
  endfacet
  facet normal -1 0 0
    outer loop
      vertex 0 6.5 6.3
      vertex 0 8.5 0
      vertex 0 6.5 0
    endloop
  endfacet
  facet normal -1 0 0
    outer loop
      vertex 0 6.58738 7.31771
      vertex 0 6.5 6.3
      vertex 0 6.52533 7.30789
    endloop
  endfacet
  facet normal -1 0 0
    outer loop
      vertex 0 6.5 6.3
      vertex 0 6.46279 7.30197
      vertex 0 6.52533 7.30789
    endloop
  endfacet
  facet normal -1 0 0
    outer loop
      vertex 0 6.5 6.3
      vertex 0 6.4 7.3
      vertex 0 6.46279 7.30197
    endloop
  endfacet
  facet normal -1 0 0
    outer loop
      vertex 0 6.5 6.3
      vertex 0 6.33721 7.30197
      vertex 0 6.4 7.3
    endloop
  endfacet
  facet normal -1 0 0
    outer loop
      vertex 0 6.5 6.3
      vertex 0 6.27467 7.30789
      vertex 0 6.33721 7.30197
    endloop
  endfacet
  facet normal -1 0 0
    outer loop
      vertex 0 6.5 6.3
      vertex 0 6.21262 7.31771
      vertex 0 6.27467 7.30789
    endloop
  endfacet
  facet normal -1 0 0
    outer loop
      vertex 0 6.5 6.3
      vertex 0 6.15131 7.33142
      vertex 0 6.21262 7.31771
    endloop
  endfacet
  facet normal -1 0 0
    outer loop
      vertex 0 6.5 6.3
      vertex 0 6.09098 7.34894
      vertex 0 6.15131 7.33142
    endloop
  endfacet
  facet normal -1 0 0
    outer loop
      vertex 0 6.5 6.3
      vertex 0 6.03187 7.37022
      vertex 0 6.09098 7.34894
    endloop
  endfacet
  facet normal -1 0 0
    outer loop
      vertex 0 6.5 6.3
      vertex 0 5.97422 7.39517
      vertex 0 6.03187 7.37022
    endloop
  endfacet
  facet normal -1 0 0
    outer loop
      vertex 0 6.5 6.3
      vertex 0 5.91825 7.42369
      vertex 0 5.97422 7.39517
    endloop
  endfacet
  facet normal -1 0 0
    outer loop
      vertex 0 6.5 6.3
      vertex 0 5.86417 7.45567
      vertex 0 5.91825 7.42369
    endloop
  endfacet
  facet normal -1 0 0
    outer loop
      vertex 0 6.5 6.3
      vertex 0 5.81221 7.49098
      vertex 0 5.86417 7.45567
    endloop
  endfacet
  facet normal -1 0 0
    outer loop
      vertex 0 6.5 6.3
      vertex 0 5.76258 7.52949
      vertex 0 5.81221 7.49098
    endloop
  endfacet
  facet normal -1 0 0
    outer loop
      vertex 0 6.5 6.3
      vertex 0 5.71545 7.57103
      vertex 0 5.76258 7.52949
    endloop
  endfacet
  facet normal -1 0 0
    outer loop
      vertex 0 1.5 6.3
      vertex 0 5.71545 7.57103
      vertex 0 6.5 6.3
    endloop
  endfacet
  facet normal -1 -0 0
    outer loop
      vertex 0 5.71545 7.57103
      vertex 0 1.5 6.3
      vertex 0 5.67103 7.61545
    endloop
  endfacet
  facet normal -1 -0 0
    outer loop
      vertex 0 5.67103 7.61545
      vertex 0 1.5 6.3
      vertex 0 5.62949 7.66258
    endloop
  endfacet
  facet normal -1 -0 0
    outer loop
      vertex 0 5.62949 7.66258
      vertex 0 1.5 6.3
      vertex 0 5.59098 7.71221
    endloop
  endfacet
  facet normal -1 -0 0
    outer loop
      vertex 0 5.59098 7.71221
      vertex 0 1.5 6.3
      vertex 0 5.55567 7.76417
    endloop
  endfacet
  facet normal -1 0 0
    outer loop
      vertex 0 1.5 6.3
      vertex 0 5.52369 7.81825
      vertex 0 5.55567 7.76417
    endloop
  endfacet
  facet normal -1 0 0
    outer loop
      vertex 0 1.5 6.3
      vertex 0 5.49517 7.87422
      vertex 0 5.52369 7.81825
    endloop
  endfacet
  facet normal -1 0 0
    outer loop
      vertex 0 1.5 6.3
      vertex 0 5.47022 7.93188
      vertex 0 5.49517 7.87422
    endloop
  endfacet
  facet normal -1 0 0
    outer loop
      vertex 0 1.5 6.3
      vertex 0 5.44894 7.99098
      vertex 0 5.47022 7.93188
    endloop
  endfacet
  facet normal -1 0 0
    outer loop
      vertex 0 1.5 8.3
      vertex 0 5.44894 7.99098
      vertex 0 1.5 6.3
    endloop
  endfacet
  facet normal -1 0 0
    outer loop
      vertex 0 5.44894 7.99098
      vertex 0 1.5 8.3
      vertex 0 5.43142 8.05131
    endloop
  endfacet
  facet normal -1 0 0
    outer loop
      vertex 0 5.43142 8.05131
      vertex 0 1.5 8.3
      vertex 0 5.41771 8.11262
    endloop
  endfacet
  facet normal -1 0 0
    outer loop
      vertex 0 5.41771 8.11262
      vertex 0 1.5 8.3
      vertex 0 5.40788 8.17467
    endloop
  endfacet
  facet normal -1 0 0
    outer loop
      vertex 0 5.40788 8.17467
      vertex 0 1.5 8.3
      vertex 0 5.40197 8.23721
    endloop
  endfacet
  facet normal -1 0 0
    outer loop
      vertex 0 5.40197 8.23721
      vertex 0 1.5 8.3
      vertex 0 5.4 8.3
    endloop
  endfacet
  facet normal -1 0 0
    outer loop
      vertex 0 7.39803 42.0628
      vertex 0 8.5 42
      vertex 0 7.4 42
    endloop
  endfacet
  facet normal -1 0 0
    outer loop
      vertex 0 7.39211 42.1253
      vertex 0 8.5 42
      vertex 0 7.39803 42.0628
    endloop
  endfacet
  facet normal -1 0 0
    outer loop
      vertex 0 7.38229 42.1874
      vertex 0 8.5 42
      vertex 0 7.39211 42.1253
    endloop
  endfacet
  facet normal -1 0 0
    outer loop
      vertex 0 7.36858 42.2487
      vertex 0 8.5 42
      vertex 0 7.38229 42.1874
    endloop
  endfacet
  facet normal -1 0 0
    outer loop
      vertex 0 7.35106 42.309
      vertex 0 8.5 42
      vertex 0 7.36858 42.2487
    endloop
  endfacet
  facet normal -1 0 0
    outer loop
      vertex 0 7.32978 42.3681
      vertex 0 8.5 42
      vertex 0 7.35106 42.309
    endloop
  endfacet
  facet normal -1 0 0
    outer loop
      vertex 0 7.30483 42.4258
      vertex 0 8.5 42
      vertex 0 7.32978 42.3681
    endloop
  endfacet
  facet normal -1 0 0
    outer loop
      vertex 0 7.27631 42.4818
      vertex 0 8.5 42
      vertex 0 7.30483 42.4258
    endloop
  endfacet
  facet normal -1 0 0
    outer loop
      vertex 0 7.24433 42.5358
      vertex 0 8.5 42
      vertex 0 7.27631 42.4818
    endloop
  endfacet
  facet normal -1 0 0
    outer loop
      vertex 0 7.20902 42.5878
      vertex 0 8.5 42
      vertex 0 7.24433 42.5358
    endloop
  endfacet
  facet normal -1 0 0
    outer loop
      vertex 0 8.5 42
      vertex 0 7.20902 42.5878
      vertex 0 8.5 45
    endloop
  endfacet
  facet normal -1 0 0
    outer loop
      vertex 0 7.17051 42.6374
      vertex 0 8.5 45
      vertex 0 7.20902 42.5878
    endloop
  endfacet
  facet normal -1 0 0
    outer loop
      vertex 0 7.12897 42.6845
      vertex 0 8.5 45
      vertex 0 7.17051 42.6374
    endloop
  endfacet
  facet normal -1 0 0
    outer loop
      vertex 0 7.08455 42.729
      vertex 0 8.5 45
      vertex 0 7.12897 42.6845
    endloop
  endfacet
  facet normal -1 0 0
    outer loop
      vertex 0 7.03742 42.7705
      vertex 0 8.5 45
      vertex 0 7.08455 42.729
    endloop
  endfacet
  facet normal -1 0 0
    outer loop
      vertex 0 6.98778 42.809
      vertex 0 8.5 45
      vertex 0 7.03742 42.7705
    endloop
  endfacet
  facet normal -1 0 0
    outer loop
      vertex 0 6.93583 42.8443
      vertex 0 8.5 45
      vertex 0 6.98778 42.809
    endloop
  endfacet
  facet normal -1 0 0
    outer loop
      vertex 0 6.88175 42.8763
      vertex 0 8.5 45
      vertex 0 6.93583 42.8443
    endloop
  endfacet
  facet normal -1 0 0
    outer loop
      vertex 0 6.82578 42.9048
      vertex 0 8.5 45
      vertex 0 6.88175 42.8763
    endloop
  endfacet
  facet normal -1 0 0
    outer loop
      vertex 0 6.76812 42.9298
      vertex 0 8.5 45
      vertex 0 6.82578 42.9048
    endloop
  endfacet
  facet normal -1 0 0
    outer loop
      vertex 0 6.70902 42.9511
      vertex 0 8.5 45
      vertex 0 6.76812 42.9298
    endloop
  endfacet
  facet normal -1 0 0
    outer loop
      vertex 0 6.64869 42.9686
      vertex 0 8.5 45
      vertex 0 6.70902 42.9511
    endloop
  endfacet
  facet normal -1 0 0
    outer loop
      vertex 0 6.58738 42.9823
      vertex 0 8.5 45
      vertex 0 6.64869 42.9686
    endloop
  endfacet
  facet normal -1 0 0
    outer loop
      vertex 0 6.52533 42.9921
      vertex 0 8.5 45
      vertex 0 6.58738 42.9823
    endloop
  endfacet
  facet normal -1 0 0
    outer loop
      vertex 0 6.46279 42.998
      vertex 0 8.5 45
      vertex 0 6.52533 42.9921
    endloop
  endfacet
  facet normal -1 0 0
    outer loop
      vertex 0 6.4 43
      vertex 0 8.5 45
      vertex 0 6.46279 42.998
    endloop
  endfacet
  facet normal -1 0 0
    outer loop
      vertex 0 6.33721 42.998
      vertex 0 8.5 45
      vertex 0 6.4 43
    endloop
  endfacet
  facet normal -1 0 0
    outer loop
      vertex 0 6.27467 42.9921
      vertex 0 8.5 45
      vertex 0 6.33721 42.998
    endloop
  endfacet
  facet normal -1 0 0
    outer loop
      vertex 0 6.21262 42.9823
      vertex 0 8.5 45
      vertex 0 6.27467 42.9921
    endloop
  endfacet
  facet normal -1 0 0
    outer loop
      vertex 0 6.15131 42.9686
      vertex 0 8.5 45
      vertex 0 6.21262 42.9823
    endloop
  endfacet
  facet normal -1 0 0
    outer loop
      vertex 0 6.09098 42.9511
      vertex 0 8.5 45
      vertex 0 6.15131 42.9686
    endloop
  endfacet
  facet normal -1 0 0
    outer loop
      vertex 0 6.03187 42.9298
      vertex 0 8.5 45
      vertex 0 6.09098 42.9511
    endloop
  endfacet
  facet normal -1 0 0
    outer loop
      vertex 0 0 45
      vertex 0 6.03187 42.9298
      vertex 0 5.97422 42.9048
    endloop
  endfacet
  facet normal -1 0 0
    outer loop
      vertex 0 0 45
      vertex 0 5.97422 42.9048
      vertex 0 5.91825 42.8763
    endloop
  endfacet
  facet normal -1 0 0
    outer loop
      vertex 0 0 45
      vertex 0 5.91825 42.8763
      vertex 0 5.86417 42.8443
    endloop
  endfacet
  facet normal -1 0 0
    outer loop
      vertex 0 0 45
      vertex 0 5.86417 42.8443
      vertex 0 5.81221 42.809
    endloop
  endfacet
  facet normal -1 0 0
    outer loop
      vertex 0 0 45
      vertex 0 5.81221 42.809
      vertex 0 5.76258 42.7705
    endloop
  endfacet
  facet normal -1 0 0
    outer loop
      vertex 0 1.5 42
      vertex 0 5.40197 42.0628
      vertex 0 5.4 42
    endloop
  endfacet
  facet normal -1 0 0
    outer loop
      vertex 0 1.5 42
      vertex 0 5.40788 42.1253
      vertex 0 5.40197 42.0628
    endloop
  endfacet
  facet normal -1 0 0
    outer loop
      vertex 0 1.5 42
      vertex 0 5.41771 42.1874
      vertex 0 5.40788 42.1253
    endloop
  endfacet
  facet normal -1 0 0
    outer loop
      vertex 0 1.5 42
      vertex 0 5.43142 42.2487
      vertex 0 5.41771 42.1874
    endloop
  endfacet
  facet normal -1 0 0
    outer loop
      vertex 0 1.5 42
      vertex 0 5.44894 42.309
      vertex 0 5.43142 42.2487
    endloop
  endfacet
  facet normal -1 0 0
    outer loop
      vertex 0 1.5 42
      vertex 0 5.47022 42.3681
      vertex 0 5.44894 42.309
    endloop
  endfacet
  facet normal -1 0 0
    outer loop
      vertex 0 1.5 42
      vertex 0 5.49517 42.4258
      vertex 0 5.47022 42.3681
    endloop
  endfacet
  facet normal -1 0 0
    outer loop
      vertex 0 1.5 42
      vertex 0 5.52369 42.4818
      vertex 0 5.49517 42.4258
    endloop
  endfacet
  facet normal -1 0 0
    outer loop
      vertex 0 1.5 42
      vertex 0 5.55567 42.5358
      vertex 0 5.52369 42.4818
    endloop
  endfacet
  facet normal -1 0 0
    outer loop
      vertex 0 1.5 42
      vertex 0 5.59098 42.5878
      vertex 0 5.55567 42.5358
    endloop
  endfacet
  facet normal -1 0 0
    outer loop
      vertex 0 1.5 42
      vertex 0 5.62949 42.6374
      vertex 0 5.59098 42.5878
    endloop
  endfacet
  facet normal -1 0 0
    outer loop
      vertex 0 0 45
      vertex 0 5.62949 42.6374
      vertex 0 1.5 42
    endloop
  endfacet
  facet normal -1 0 0
    outer loop
      vertex 0 5.62949 42.6374
      vertex 0 0 45
      vertex 0 5.67103 42.6845
    endloop
  endfacet
  facet normal -1 0 0
    outer loop
      vertex 0 5.67103 42.6845
      vertex 0 0 45
      vertex 0 5.71545 42.729
    endloop
  endfacet
  facet normal -1 0 0
    outer loop
      vertex 0 5.71545 42.729
      vertex 0 0 45
      vertex 0 5.76258 42.7705
    endloop
  endfacet
  facet normal -1 0 0
    outer loop
      vertex 0 6.03187 42.9298
      vertex 0 0 45
      vertex 0 8.5 45
    endloop
  endfacet
  facet normal -1 0 0
    outer loop
      vertex 0 1.5 8.3
      vertex 0 0 45
      vertex 0 1.5 42
    endloop
  endfacet
  facet normal -0 0 1
    outer loop
      vertex 0 8.5 45
      vertex 10 0 45
      vertex 10 8.5 45
    endloop
  endfacet
  facet normal 0 0 1
    outer loop
      vertex 10 0 45
      vertex 0 8.5 45
      vertex 0 0 45
    endloop
  endfacet
  facet normal 1 -0 0
    outer loop
      vertex 10 7.20902 42.5878
      vertex 10 8.5 42
      vertex 10 8.5 45
    endloop
  endfacet
  facet normal 1 0 0
    outer loop
      vertex 10 8.5 42
      vertex 10 7.39803 42.0628
      vertex 10 7.4 42
    endloop
  endfacet
  facet normal 1 0 0
    outer loop
      vertex 10 8.5 42
      vertex 10 7.39211 42.1253
      vertex 10 7.39803 42.0628
    endloop
  endfacet
  facet normal 1 0 0
    outer loop
      vertex 10 8.5 42
      vertex 10 7.38229 42.1874
      vertex 10 7.39211 42.1253
    endloop
  endfacet
  facet normal 1 0 0
    outer loop
      vertex 10 8.5 42
      vertex 10 7.36858 42.2487
      vertex 10 7.38229 42.1874
    endloop
  endfacet
  facet normal 1 0 0
    outer loop
      vertex 10 8.5 42
      vertex 10 7.35106 42.309
      vertex 10 7.36858 42.2487
    endloop
  endfacet
  facet normal 1 0 0
    outer loop
      vertex 10 8.5 42
      vertex 10 7.32978 42.3681
      vertex 10 7.35106 42.309
    endloop
  endfacet
  facet normal 1 0 0
    outer loop
      vertex 10 8.5 42
      vertex 10 7.30483 42.4258
      vertex 10 7.32978 42.3681
    endloop
  endfacet
  facet normal 1 0 0
    outer loop
      vertex 10 8.5 42
      vertex 10 7.27631 42.4818
      vertex 10 7.30483 42.4258
    endloop
  endfacet
  facet normal 1 0 0
    outer loop
      vertex 10 8.5 42
      vertex 10 7.24433 42.5358
      vertex 10 7.27631 42.4818
    endloop
  endfacet
  facet normal 1 0 0
    outer loop
      vertex 10 8.5 42
      vertex 10 7.20902 42.5878
      vertex 10 7.24433 42.5358
    endloop
  endfacet
  facet normal 1 0 0
    outer loop
      vertex 10 8.5 45
      vertex 10 7.17051 42.6374
      vertex 10 7.20902 42.5878
    endloop
  endfacet
  facet normal 1 0 0
    outer loop
      vertex 10 8.5 45
      vertex 10 7.12897 42.6845
      vertex 10 7.17051 42.6374
    endloop
  endfacet
  facet normal 1 0 0
    outer loop
      vertex 10 8.5 45
      vertex 10 7.08455 42.729
      vertex 10 7.12897 42.6845
    endloop
  endfacet
  facet normal 1 0 0
    outer loop
      vertex 10 8.5 45
      vertex 10 7.03742 42.7705
      vertex 10 7.08455 42.729
    endloop
  endfacet
  facet normal 1 0 0
    outer loop
      vertex 10 8.5 45
      vertex 10 6.98778 42.809
      vertex 10 7.03742 42.7705
    endloop
  endfacet
  facet normal 1 0 0
    outer loop
      vertex 10 8.5 45
      vertex 10 6.93583 42.8443
      vertex 10 6.98778 42.809
    endloop
  endfacet
  facet normal 1 0 0
    outer loop
      vertex 10 8.5 45
      vertex 10 6.88175 42.8763
      vertex 10 6.93583 42.8443
    endloop
  endfacet
  facet normal 1 0 0
    outer loop
      vertex 10 8.5 45
      vertex 10 6.82578 42.9048
      vertex 10 6.88175 42.8763
    endloop
  endfacet
  facet normal 1 0 0
    outer loop
      vertex 10 8.5 45
      vertex 10 6.76812 42.9298
      vertex 10 6.82578 42.9048
    endloop
  endfacet
  facet normal 1 0 0
    outer loop
      vertex 10 8.5 45
      vertex 10 6.70902 42.9511
      vertex 10 6.76812 42.9298
    endloop
  endfacet
  facet normal 1 0 0
    outer loop
      vertex 10 8.5 45
      vertex 10 6.64869 42.9686
      vertex 10 6.70902 42.9511
    endloop
  endfacet
  facet normal 1 0 0
    outer loop
      vertex 10 8.5 45
      vertex 10 6.58738 42.9823
      vertex 10 6.64869 42.9686
    endloop
  endfacet
  facet normal 1 0 0
    outer loop
      vertex 10 8.5 45
      vertex 10 6.52533 42.9921
      vertex 10 6.58738 42.9823
    endloop
  endfacet
  facet normal 1 0 0
    outer loop
      vertex 10 8.5 45
      vertex 10 6.46279 42.998
      vertex 10 6.52533 42.9921
    endloop
  endfacet
  facet normal 1 0 0
    outer loop
      vertex 10 8.5 45
      vertex 10 6.4 43
      vertex 10 6.46279 42.998
    endloop
  endfacet
  facet normal 1 0 0
    outer loop
      vertex 10 8.5 45
      vertex 10 6.33721 42.998
      vertex 10 6.4 43
    endloop
  endfacet
  facet normal 1 0 0
    outer loop
      vertex 10 8.5 45
      vertex 10 6.27467 42.9921
      vertex 10 6.33721 42.998
    endloop
  endfacet
  facet normal 1 0 0
    outer loop
      vertex 10 8.5 45
      vertex 10 6.21262 42.9823
      vertex 10 6.27467 42.9921
    endloop
  endfacet
  facet normal 1 0 0
    outer loop
      vertex 10 8.5 45
      vertex 10 6.15131 42.9686
      vertex 10 6.21262 42.9823
    endloop
  endfacet
  facet normal 1 0 0
    outer loop
      vertex 10 8.5 45
      vertex 10 6.09098 42.9511
      vertex 10 6.15131 42.9686
    endloop
  endfacet
  facet normal 1 0 0
    outer loop
      vertex 10 8.5 45
      vertex 10 6.03187 42.9298
      vertex 10 6.09098 42.9511
    endloop
  endfacet
  facet normal 1 -0 0
    outer loop
      vertex 10 0 45
      vertex 10 6.03187 42.9298
      vertex 10 8.5 45
    endloop
  endfacet
  facet normal 1 0 0
    outer loop
      vertex 10 6.03187 42.9298
      vertex 10 0 45
      vertex 10 5.97422 42.9048
    endloop
  endfacet
  facet normal 1 0 0
    outer loop
      vertex 10 5.97422 42.9048
      vertex 10 0 45
      vertex 10 5.91825 42.8763
    endloop
  endfacet
  facet normal 1 0 0
    outer loop
      vertex 10 5.91825 42.8763
      vertex 10 0 45
      vertex 10 5.86417 42.8443
    endloop
  endfacet
  facet normal 1 0 0
    outer loop
      vertex 10 5.86417 42.8443
      vertex 10 0 45
      vertex 10 5.81221 42.809
    endloop
  endfacet
  facet normal 1 0 0
    outer loop
      vertex 10 5.40197 42.0628
      vertex 10 1.5 42
      vertex 10 5.4 42
    endloop
  endfacet
  facet normal 1 0 0
    outer loop
      vertex 10 5.40788 42.1253
      vertex 10 1.5 42
      vertex 10 5.40197 42.0628
    endloop
  endfacet
  facet normal 1 0 0
    outer loop
      vertex 10 5.41771 42.1874
      vertex 10 1.5 42
      vertex 10 5.40788 42.1253
    endloop
  endfacet
  facet normal 1 0 0
    outer loop
      vertex 10 5.43142 42.2487
      vertex 10 1.5 42
      vertex 10 5.41771 42.1874
    endloop
  endfacet
  facet normal 1 0 0
    outer loop
      vertex 10 5.44894 42.309
      vertex 10 1.5 42
      vertex 10 5.43142 42.2487
    endloop
  endfacet
  facet normal 1 0 0
    outer loop
      vertex 10 5.47022 42.3681
      vertex 10 1.5 42
      vertex 10 5.44894 42.309
    endloop
  endfacet
  facet normal 1 0 0
    outer loop
      vertex 10 5.49517 42.4258
      vertex 10 1.5 42
      vertex 10 5.47022 42.3681
    endloop
  endfacet
  facet normal 1 0 0
    outer loop
      vertex 10 5.52369 42.4818
      vertex 10 1.5 42
      vertex 10 5.49517 42.4258
    endloop
  endfacet
  facet normal 1 0 0
    outer loop
      vertex 10 5.55567 42.5358
      vertex 10 1.5 42
      vertex 10 5.52369 42.4818
    endloop
  endfacet
  facet normal 1 0 0
    outer loop
      vertex 10 5.59098 42.5878
      vertex 10 1.5 42
      vertex 10 5.55567 42.5358
    endloop
  endfacet
  facet normal 1 0 0
    outer loop
      vertex 10 5.62949 42.6374
      vertex 10 1.5 42
      vertex 10 5.59098 42.5878
    endloop
  endfacet
  facet normal 1 0 0
    outer loop
      vertex 10 0 45
      vertex 10 5.62949 42.6374
      vertex 10 5.67103 42.6845
    endloop
  endfacet
  facet normal 1 0 0
    outer loop
      vertex 10 0 45
      vertex 10 5.67103 42.6845
      vertex 10 5.71545 42.729
    endloop
  endfacet
  facet normal 1 0 0
    outer loop
      vertex 10 0 45
      vertex 10 5.71545 42.729
      vertex 10 5.76258 42.7705
    endloop
  endfacet
  facet normal 1 0 0
    outer loop
      vertex 10 5.81221 42.809
      vertex 10 0 45
      vertex 10 5.76258 42.7705
    endloop
  endfacet
  facet normal 1 0 0
    outer loop
      vertex 10 0 45
      vertex 10 1.5 8.3
      vertex 10 1.5 42
    endloop
  endfacet
  facet normal 1 0 0
    outer loop
      vertex 10 0 0
      vertex 10 1.5 8.3
      vertex 10 0 45
    endloop
  endfacet
  facet normal 1 0 0
    outer loop
      vertex 10 5.62949 42.6374
      vertex 10 0 45
      vertex 10 1.5 42
    endloop
  endfacet
  facet normal 1 0 0
    outer loop
      vertex 10 1.5 8.3
      vertex 10 0 0
      vertex 10 1.5 6.3
    endloop
  endfacet
  facet normal 1 0 0
    outer loop
      vertex 10 1.5 6.3
      vertex 10 0 0
      vertex 10 1.5 0
    endloop
  endfacet
  facet normal 1 -0 0
    outer loop
      vertex 10 6.46279 7.30197
      vertex 10 6.5 6.3
      vertex 10 6.52533 7.30789
    endloop
  endfacet
  facet normal 1 -0 0
    outer loop
      vertex 10 6.4 7.3
      vertex 10 6.5 6.3
      vertex 10 6.46279 7.30197
    endloop
  endfacet
  facet normal 1 0 0
    outer loop
      vertex 10 6.33721 7.30197
      vertex 10 6.5 6.3
      vertex 10 6.4 7.3
    endloop
  endfacet
  facet normal 1 0 0
    outer loop
      vertex 10 6.27467 7.30789
      vertex 10 6.5 6.3
      vertex 10 6.33721 7.30197
    endloop
  endfacet
  facet normal 1 0 0
    outer loop
      vertex 10 6.21262 7.31771
      vertex 10 6.5 6.3
      vertex 10 6.27467 7.30789
    endloop
  endfacet
  facet normal 1 0 0
    outer loop
      vertex 10 6.15131 7.33142
      vertex 10 6.5 6.3
      vertex 10 6.21262 7.31771
    endloop
  endfacet
  facet normal 1 0 0
    outer loop
      vertex 10 6.09098 7.34894
      vertex 10 6.5 6.3
      vertex 10 6.15131 7.33142
    endloop
  endfacet
  facet normal 1 0 0
    outer loop
      vertex 10 6.03187 7.37022
      vertex 10 6.5 6.3
      vertex 10 6.09098 7.34894
    endloop
  endfacet
  facet normal 1 0 0
    outer loop
      vertex 10 5.97422 7.39517
      vertex 10 6.5 6.3
      vertex 10 6.03187 7.37022
    endloop
  endfacet
  facet normal 1 0 0
    outer loop
      vertex 10 5.91825 7.42369
      vertex 10 6.5 6.3
      vertex 10 5.97422 7.39517
    endloop
  endfacet
  facet normal 1 0 0
    outer loop
      vertex 10 5.86417 7.45567
      vertex 10 6.5 6.3
      vertex 10 5.91825 7.42369
    endloop
  endfacet
  facet normal 1 0 0
    outer loop
      vertex 10 5.81221 7.49098
      vertex 10 6.5 6.3
      vertex 10 5.86417 7.45567
    endloop
  endfacet
  facet normal 1 0 0
    outer loop
      vertex 10 5.76258 7.52949
      vertex 10 6.5 6.3
      vertex 10 5.81221 7.49098
    endloop
  endfacet
  facet normal 1 0 0
    outer loop
      vertex 10 5.71545 7.57103
      vertex 10 6.5 6.3
      vertex 10 5.76258 7.52949
    endloop
  endfacet
  facet normal 1 0 0
    outer loop
      vertex 10 1.5 6.3
      vertex 10 5.71545 7.57103
      vertex 10 5.67103 7.61545
    endloop
  endfacet
  facet normal 1 0 0
    outer loop
      vertex 10 1.5 6.3
      vertex 10 5.67103 7.61545
      vertex 10 5.62949 7.66258
    endloop
  endfacet
  facet normal 1 0 0
    outer loop
      vertex 10 1.5 6.3
      vertex 10 5.62949 7.66258
      vertex 10 5.59098 7.71221
    endloop
  endfacet
  facet normal 1 0 0
    outer loop
      vertex 10 1.5 6.3
      vertex 10 5.59098 7.71221
      vertex 10 5.55567 7.76417
    endloop
  endfacet
  facet normal 1 -0 0
    outer loop
      vertex 10 1.5 8.3
      vertex 10 5.40197 8.23721
      vertex 10 5.4 8.3
    endloop
  endfacet
  facet normal 1 0 0
    outer loop
      vertex 10 1.5 8.3
      vertex 10 5.40788 8.17467
      vertex 10 5.40197 8.23721
    endloop
  endfacet
  facet normal 1 0 0
    outer loop
      vertex 10 1.5 8.3
      vertex 10 5.41771 8.11262
      vertex 10 5.40788 8.17467
    endloop
  endfacet
  facet normal 1 0 0
    outer loop
      vertex 10 1.5 8.3
      vertex 10 5.43142 8.05131
      vertex 10 5.41771 8.11262
    endloop
  endfacet
  facet normal 1 0 0
    outer loop
      vertex 10 1.5 8.3
      vertex 10 5.44894 7.99098
      vertex 10 5.43142 8.05131
    endloop
  endfacet
  facet normal 1 0 0
    outer loop
      vertex 10 1.5 6.3
      vertex 10 5.44894 7.99098
      vertex 10 1.5 8.3
    endloop
  endfacet
  facet normal 1 0 0
    outer loop
      vertex 10 5.44894 7.99098
      vertex 10 1.5 6.3
      vertex 10 5.47022 7.93188
    endloop
  endfacet
  facet normal 1 0 0
    outer loop
      vertex 10 5.47022 7.93188
      vertex 10 1.5 6.3
      vertex 10 5.49517 7.87422
    endloop
  endfacet
  facet normal 1 0 0
    outer loop
      vertex 10 5.49517 7.87422
      vertex 10 1.5 6.3
      vertex 10 5.52369 7.81825
    endloop
  endfacet
  facet normal 1 0 0
    outer loop
      vertex 10 5.52369 7.81825
      vertex 10 1.5 6.3
      vertex 10 5.55567 7.76417
    endloop
  endfacet
  facet normal 1 0 0
    outer loop
      vertex 10 5.71545 7.57103
      vertex 10 1.5 6.3
      vertex 10 6.5 6.3
    endloop
  endfacet
  facet normal 1 0 0
    outer loop
      vertex 10 7.39803 8.23721
      vertex 10 8.5 8.3
      vertex 10 7.4 8.3
    endloop
  endfacet
  facet normal 1 0 0
    outer loop
      vertex 10 7.39211 8.17467
      vertex 10 8.5 8.3
      vertex 10 7.39803 8.23721
    endloop
  endfacet
  facet normal 1 0 0
    outer loop
      vertex 10 7.38229 8.11262
      vertex 10 8.5 8.3
      vertex 10 7.39211 8.17467
    endloop
  endfacet
  facet normal 1 0 0
    outer loop
      vertex 10 7.36858 8.05131
      vertex 10 8.5 8.3
      vertex 10 7.38229 8.11262
    endloop
  endfacet
  facet normal 1 0 0
    outer loop
      vertex 10 7.35106 7.99098
      vertex 10 8.5 8.3
      vertex 10 7.36858 8.05131
    endloop
  endfacet
  facet normal 1 0 0
    outer loop
      vertex 10 7.32978 7.93188
      vertex 10 8.5 8.3
      vertex 10 7.35106 7.99098
    endloop
  endfacet
  facet normal 1 0 0
    outer loop
      vertex 10 7.30483 7.87422
      vertex 10 8.5 8.3
      vertex 10 7.32978 7.93188
    endloop
  endfacet
  facet normal 1 0 0
    outer loop
      vertex 10 7.27631 7.81825
      vertex 10 8.5 8.3
      vertex 10 7.30483 7.87422
    endloop
  endfacet
  facet normal 1 0 0
    outer loop
      vertex 10 7.24433 7.76417
      vertex 10 8.5 8.3
      vertex 10 7.27631 7.81825
    endloop
  endfacet
  facet normal 1 0 0
    outer loop
      vertex 10 7.20902 7.71221
      vertex 10 8.5 8.3
      vertex 10 7.24433 7.76417
    endloop
  endfacet
  facet normal 1 0 0
    outer loop
      vertex 10 7.17051 7.66258
      vertex 10 8.5 8.3
      vertex 10 7.20902 7.71221
    endloop
  endfacet
  facet normal 1 0 0
    outer loop
      vertex 10 7.12897 7.61545
      vertex 10 8.5 8.3
      vertex 10 7.17051 7.66258
    endloop
  endfacet
  facet normal 1 0 0
    outer loop
      vertex 10 8.5 8.3
      vertex 10 7.12897 7.61545
      vertex 10 6.5 6.3
    endloop
  endfacet
  facet normal 1 0 0
    outer loop
      vertex 10 6.5 6.3
      vertex 10 7.12897 7.61545
      vertex 10 7.08455 7.57103
    endloop
  endfacet
  facet normal 1 0 0
    outer loop
      vertex 10 6.5 6.3
      vertex 10 7.08455 7.57103
      vertex 10 7.03742 7.52949
    endloop
  endfacet
  facet normal 1 0 0
    outer loop
      vertex 10 6.5 6.3
      vertex 10 7.03742 7.52949
      vertex 10 6.98778 7.49098
    endloop
  endfacet
  facet normal 1 0 0
    outer loop
      vertex 10 6.5 6.3
      vertex 10 6.98778 7.49098
      vertex 10 6.93583 7.45567
    endloop
  endfacet
  facet normal 1 0 0
    outer loop
      vertex 10 6.5 6.3
      vertex 10 6.93583 7.45567
      vertex 10 6.88175 7.42369
    endloop
  endfacet
  facet normal 1 0 0
    outer loop
      vertex 10 6.5 6.3
      vertex 10 6.88175 7.42369
      vertex 10 6.82578 7.39517
    endloop
  endfacet
  facet normal 1 0 0
    outer loop
      vertex 10 6.5 6.3
      vertex 10 6.82578 7.39517
      vertex 10 6.76812 7.37022
    endloop
  endfacet
  facet normal 1 0 0
    outer loop
      vertex 10 6.5 6.3
      vertex 10 6.76812 7.37022
      vertex 10 6.70902 7.34894
    endloop
  endfacet
  facet normal 1 0 0
    outer loop
      vertex 10 6.5 6.3
      vertex 10 6.70902 7.34894
      vertex 10 6.64869 7.33142
    endloop
  endfacet
  facet normal 1 0 0
    outer loop
      vertex 10 6.5 6.3
      vertex 10 6.64869 7.33142
      vertex 10 6.58738 7.31771
    endloop
  endfacet
  facet normal 1 0 0
    outer loop
      vertex 10 6.5 6.3
      vertex 10 6.58738 7.31771
      vertex 10 6.52533 7.30789
    endloop
  endfacet
  facet normal 1 0 0
    outer loop
      vertex 10 8.5 8.3
      vertex 10 6.5 6.3
      vertex 10 8.5 0
    endloop
  endfacet
  facet normal 1 0 0
    outer loop
      vertex 10 8.5 0
      vertex 10 6.5 6.3
      vertex 10 6.5 0
    endloop
  endfacet
  facet normal 0 1 -0
    outer loop
      vertex 10 8.5 42
      vertex 0 8.5 45
      vertex 10 8.5 45
    endloop
  endfacet
  facet normal 0 1 0
    outer loop
      vertex 0 8.5 45
      vertex 10 8.5 42
      vertex 0 8.5 42
    endloop
  endfacet
  facet normal 0 0 -1
    outer loop
      vertex 0 1.5 42
      vertex 10 5.4 42
      vertex 10 1.5 42
    endloop
  endfacet
  facet normal -0 0 -1
    outer loop
      vertex 10 5.4 42
      vertex 0 1.5 42
      vertex 0 5.4 42
    endloop
  endfacet
  facet normal 0 0 -1
    outer loop
      vertex 0 7.4 42
      vertex 10 8.5 42
      vertex 10 7.4 42
    endloop
  endfacet
  facet normal -0 0 -1
    outer loop
      vertex 10 8.5 42
      vertex 0 7.4 42
      vertex 0 8.5 42
    endloop
  endfacet
  facet normal 0 1 -0
    outer loop
      vertex 10 1.5 0
      vertex 0 1.5 6.3
      vertex 10 1.5 6.3
    endloop
  endfacet
  facet normal 0 1 0
    outer loop
      vertex 0 1.5 6.3
      vertex 10 1.5 0
      vertex 0 1.5 0
    endloop
  endfacet
  facet normal 0 1 -0
    outer loop
      vertex 10 1.5 8.3
      vertex 0 1.5 42
      vertex 10 1.5 42
    endloop
  endfacet
  facet normal 0 1 0
    outer loop
      vertex 0 1.5 42
      vertex 10 1.5 8.3
      vertex 0 1.5 8.3
    endloop
  endfacet
  facet normal 0 -0.0318361 -0.999493
    outer loop
      vertex 0 6.4 43
      vertex 10 6.46279 42.998
      vertex 10 6.4 43
    endloop
  endfacet
  facet normal -0 -0.0318361 -0.999493
    outer loop
      vertex 10 6.46279 42.998
      vertex 0 6.4 43
      vertex 0 6.46279 42.998
    endloop
  endfacet
  facet normal 0 -0.999508 -0.031354
    outer loop
      vertex 0 7.4 42
      vertex 10 7.39803 42.0628
      vertex 0 7.39803 42.0628
    endloop
  endfacet
  facet normal 0 -0.999508 -0.031354
    outer loop
      vertex 10 7.39803 42.0628
      vertex 0 7.4 42
      vertex 10 7.4 42
    endloop
  endfacet
  facet normal 0 -0.707743 -0.70647
    outer loop
      vertex 0 7.12897 42.6845
      vertex 10 7.08455 42.729
      vertex 0 7.08455 42.729
    endloop
  endfacet
  facet normal 0 -0.707743 -0.70647
    outer loop
      vertex 10 7.08455 42.729
      vertex 0 7.12897 42.6845
      vertex 10 7.12897 42.6845
    endloop
  endfacet
  facet normal 0 -0.509244 -0.860622
    outer loop
      vertex 0 6.88175 42.8763
      vertex 10 6.93583 42.8443
      vertex 10 6.88175 42.8763
    endloop
  endfacet
  facet normal -0 -0.509244 -0.860622
    outer loop
      vertex 10 6.93583 42.8443
      vertex 0 6.88175 42.8763
      vertex 0 6.93583 42.8443
    endloop
  endfacet
  facet normal 0 -0.562027 -0.827119
    outer loop
      vertex 0 6.93583 42.8443
      vertex 10 6.98778 42.809
      vertex 10 6.93583 42.8443
    endloop
  endfacet
  facet normal -0 -0.562027 -0.827119
    outer loop
      vertex 10 6.98778 42.809
      vertex 0 6.93583 42.8443
      vertex 0 6.98778 42.809
    endloop
  endfacet
  facet normal 0 -0.987727 -0.156191
    outer loop
      vertex 0 7.39211 42.1253
      vertex 10 7.38229 42.1874
      vertex 0 7.38229 42.1874
    endloop
  endfacet
  facet normal 0 -0.987727 -0.156191
    outer loop
      vertex 10 7.38229 42.1874
      vertex 0 7.39211 42.1253
      vertex 10 7.39211 42.1253
    endloop
  endfacet
  facet normal 0 -0.218076 -0.975932
    outer loop
      vertex 0 6.58738 42.9823
      vertex 10 6.64869 42.9686
      vertex 10 6.58738 42.9823
    endloop
  endfacet
  facet normal -0 -0.218076 -0.975932
    outer loop
      vertex 10 6.64869 42.9686
      vertex 0 6.58738 42.9823
      vertex 0 6.64869 42.9686
    endloop
  endfacet
  facet normal 0 -0.61286 -0.790191
    outer loop
      vertex 0 6.98778 42.809
      vertex 10 7.03742 42.7705
      vertex 10 6.98778 42.809
    endloop
  endfacet
  facet normal -0 -0.61286 -0.790191
    outer loop
      vertex 10 7.03742 42.7705
      vertex 0 6.98778 42.809
      vertex 0 7.03742 42.7705
    endloop
  endfacet
  facet normal 0 -0.278588 -0.960411
    outer loop
      vertex 0 6.64869 42.9686
      vertex 10 6.70902 42.9511
      vertex 10 6.64869 42.9686
    endloop
  endfacet
  facet normal -0 -0.278588 -0.960411
    outer loop
      vertex 10 6.70902 42.9511
      vertex 0 6.64869 42.9686
      vertex 0 6.70902 42.9511
    endloop
  endfacet
  facet normal 0 -0.156003 -0.987757
    outer loop
      vertex 0 6.52533 42.9921
      vertex 10 6.58738 42.9823
      vertex 10 6.52533 42.9921
    endloop
  endfacet
  facet normal -0 -0.156003 -0.987757
    outer loop
      vertex 10 6.58738 42.9823
      vertex 0 6.52533 42.9921
      vertex 0 6.58738 42.9823
    endloop
  endfacet
  facet normal 0 -0.860431 -0.509567
    outer loop
      vertex 0 7.27631 42.4818
      vertex 10 7.24433 42.5358
      vertex 0 7.24433 42.5358
    endloop
  endfacet
  facet normal 0 -0.860431 -0.509567
    outer loop
      vertex 10 7.24433 42.5358
      vertex 0 7.27631 42.4818
      vertex 10 7.27631 42.4818
    endloop
  endfacet
  facet normal 0 -0.827296 -0.561766
    outer loop
      vertex 0 7.24433 42.5358
      vertex 10 7.20902 42.5878
      vertex 0 7.20902 42.5878
    endloop
  endfacet
  facet normal 0 -0.827296 -0.561766
    outer loop
      vertex 10 7.20902 42.5878
      vertex 0 7.24433 42.5358
      vertex 10 7.24433 42.5358
    endloop
  endfacet
  facet normal 0 -0.789875 -0.613268
    outer loop
      vertex 0 7.20902 42.5878
      vertex 10 7.17051 42.6374
      vertex 0 7.17051 42.6374
    endloop
  endfacet
  facet normal 0 -0.789875 -0.613268
    outer loop
      vertex 10 7.17051 42.6374
      vertex 0 7.20902 42.5878
      vertex 10 7.20902 42.5878
    endloop
  endfacet
  facet normal 0 -0.960288 -0.279009
    outer loop
      vertex 0 7.36858 42.2487
      vertex 10 7.35106 42.309
      vertex 0 7.35106 42.309
    endloop
  endfacet
  facet normal 0 -0.960288 -0.279009
    outer loop
      vertex 10 7.35106 42.309
      vertex 0 7.36858 42.2487
      vertex 10 7.36858 42.2487
    endloop
  endfacet
  facet normal 0 -0.995544 -0.0942979
    outer loop
      vertex 0 7.39803 42.0628
      vertex 10 7.39211 42.1253
      vertex 0 7.39211 42.1253
    endloop
  endfacet
  facet normal 0 -0.995544 -0.0942979
    outer loop
      vertex 10 7.39211 42.1253
      vertex 0 7.39803 42.0628
      vertex 10 7.39803 42.0628
    endloop
  endfacet
  facet normal 0 -0.397795 -0.917474
    outer loop
      vertex 0 6.76812 42.9298
      vertex 10 6.82578 42.9048
      vertex 10 6.76812 42.9298
    endloop
  endfacet
  facet normal -0 -0.397795 -0.917474
    outer loop
      vertex 10 6.82578 42.9048
      vertex 0 6.76812 42.9298
      vertex 0 6.82578 42.9048
    endloop
  endfacet
  facet normal 0 -0.0939226 -0.99558
    outer loop
      vertex 0 6.46279 42.998
      vertex 10 6.52533 42.9921
      vertex 10 6.46279 42.998
    endloop
  endfacet
  facet normal -0 -0.0939226 -0.99558
    outer loop
      vertex 10 6.52533 42.9921
      vertex 0 6.46279 42.998
      vertex 0 6.52533 42.9921
    endloop
  endfacet
  facet normal 0 -0.917865 -0.396893
    outer loop
      vertex 0 7.32978 42.3681
      vertex 10 7.30483 42.4258
      vertex 0 7.30483 42.4258
    endloop
  endfacet
  facet normal 0 -0.917865 -0.396893
    outer loop
      vertex 10 7.30483 42.4258
      vertex 0 7.32978 42.3681
      vertex 10 7.32978 42.3681
    endloop
  endfacet
  facet normal 0 -0.97589 -0.218262
    outer loop
      vertex 0 7.38229 42.1874
      vertex 10 7.36858 42.2487
      vertex 0 7.36858 42.2487
    endloop
  endfacet
  facet normal 0 -0.97589 -0.218262
    outer loop
      vertex 10 7.36858 42.2487
      vertex 0 7.38229 42.1874
      vertex 10 7.38229 42.1874
    endloop
  endfacet
  facet normal 0 -0.660858 -0.750511
    outer loop
      vertex 0 7.03742 42.7705
      vertex 10 7.08455 42.729
      vertex 10 7.03742 42.7705
    endloop
  endfacet
  facet normal -0 -0.660858 -0.750511
    outer loop
      vertex 10 7.08455 42.729
      vertex 0 7.03742 42.7705
      vertex 0 7.08455 42.729
    endloop
  endfacet
  facet normal 0 -0.453761 -0.891123
    outer loop
      vertex 0 6.82578 42.9048
      vertex 10 6.88175 42.8763
      vertex 10 6.82578 42.9048
    endloop
  endfacet
  facet normal -0 -0.453761 -0.891123
    outer loop
      vertex 10 6.88175 42.8763
      vertex 0 6.82578 42.9048
      vertex 0 6.88175 42.8763
    endloop
  endfacet
  facet normal 0 -0.339058 -0.940766
    outer loop
      vertex 0 6.70902 42.9511
      vertex 10 6.76812 42.9298
      vertex 10 6.70902 42.9511
    endloop
  endfacet
  facet normal -0 -0.339058 -0.940766
    outer loop
      vertex 10 6.76812 42.9298
      vertex 0 6.70902 42.9511
      vertex 0 6.76812 42.9298
    endloop
  endfacet
  facet normal 0 -0.749987 -0.661453
    outer loop
      vertex 0 7.17051 42.6374
      vertex 10 7.12897 42.6845
      vertex 0 7.12897 42.6845
    endloop
  endfacet
  facet normal 0 -0.749987 -0.661453
    outer loop
      vertex 10 7.12897 42.6845
      vertex 0 7.17051 42.6374
      vertex 10 7.17051 42.6374
    endloop
  endfacet
  facet normal 0 -0.891093 -0.453821
    outer loop
      vertex 0 7.30483 42.4258
      vertex 10 7.27631 42.4818
      vertex 0 7.27631 42.4818
    endloop
  endfacet
  facet normal 0 -0.891093 -0.453821
    outer loop
      vertex 10 7.27631 42.4818
      vertex 0 7.30483 42.4258
      vertex 10 7.30483 42.4258
    endloop
  endfacet
  facet normal 0 -0.940867 -0.338776
    outer loop
      vertex 0 7.35106 42.309
      vertex 10 7.32978 42.3681
      vertex 0 7.32978 42.3681
    endloop
  endfacet
  facet normal 0 -0.940867 -0.338776
    outer loop
      vertex 10 7.32978 42.3681
      vertex 0 7.35106 42.309
      vertex 10 7.35106 42.309
    endloop
  endfacet
  facet normal 0 0.789875 -0.613268
    outer loop
      vertex 10 5.59098 42.5878
      vertex 0 5.62949 42.6374
      vertex 10 5.62949 42.6374
    endloop
  endfacet
  facet normal 0 0.789875 -0.613268
    outer loop
      vertex 0 5.62949 42.6374
      vertex 10 5.59098 42.5878
      vertex 0 5.59098 42.5878
    endloop
  endfacet
  facet normal 0 0.987702 -0.156346
    outer loop
      vertex 10 5.40788 42.1253
      vertex 0 5.41771 42.1874
      vertex 10 5.41771 42.1874
    endloop
  endfacet
  facet normal 0 0.987702 -0.156346
    outer loop
      vertex 0 5.41771 42.1874
      vertex 10 5.40788 42.1253
      vertex 0 5.40788 42.1253
    endloop
  endfacet
  facet normal 0 0.707743 -0.70647
    outer loop
      vertex 10 5.67103 42.6845
      vertex 0 5.71545 42.729
      vertex 10 5.71545 42.729
    endloop
  endfacet
  facet normal 0 0.707743 -0.70647
    outer loop
      vertex 0 5.71545 42.729
      vertex 10 5.67103 42.6845
      vertex 0 5.67103 42.6845
    endloop
  endfacet
  facet normal 0 0.561953 -0.827169
    outer loop
      vertex 0 5.81221 42.809
      vertex 10 5.86417 42.8443
      vertex 10 5.81221 42.809
    endloop
  endfacet
  facet normal 0 0.561953 -0.827169
    outer loop
      vertex 10 5.86417 42.8443
      vertex 0 5.81221 42.809
      vertex 0 5.86417 42.8443
    endloop
  endfacet
  facet normal 0 0.218076 -0.975932
    outer loop
      vertex 0 6.15131 42.9686
      vertex 10 6.21262 42.9823
      vertex 10 6.15131 42.9686
    endloop
  endfacet
  facet normal 0 0.218076 -0.975932
    outer loop
      vertex 10 6.21262 42.9823
      vertex 0 6.15131 42.9686
      vertex 0 6.21262 42.9823
    endloop
  endfacet
  facet normal 0 0.156003 -0.987757
    outer loop
      vertex 0 6.21262 42.9823
      vertex 10 6.27467 42.9921
      vertex 10 6.21262 42.9823
    endloop
  endfacet
  facet normal 0 0.156003 -0.987757
    outer loop
      vertex 10 6.27467 42.9921
      vertex 0 6.21262 42.9823
      vertex 0 6.27467 42.9921
    endloop
  endfacet
  facet normal 0 0.999508 -0.031354
    outer loop
      vertex 10 5.4 42
      vertex 0 5.40197 42.0628
      vertex 10 5.40197 42.0628
    endloop
  endfacet
  facet normal 0 0.999508 -0.031354
    outer loop
      vertex 0 5.40197 42.0628
      vertex 10 5.4 42
      vertex 0 5.4 42
    endloop
  endfacet
  facet normal 0 0.995559 -0.0941401
    outer loop
      vertex 10 5.40197 42.0628
      vertex 0 5.40788 42.1253
      vertex 10 5.40788 42.1253
    endloop
  endfacet
  facet normal 0 0.995559 -0.0941401
    outer loop
      vertex 0 5.40788 42.1253
      vertex 10 5.40197 42.0628
      vertex 0 5.40197 42.0628
    endloop
  endfacet
  facet normal 0 0.749987 -0.661453
    outer loop
      vertex 10 5.62949 42.6374
      vertex 0 5.67103 42.6845
      vertex 10 5.67103 42.6845
    endloop
  endfacet
  facet normal 0 0.749987 -0.661453
    outer loop
      vertex 0 5.67103 42.6845
      vertex 10 5.62949 42.6374
      vertex 0 5.62949 42.6374
    endloop
  endfacet
  facet normal 0 0.660858 -0.750511
    outer loop
      vertex 0 5.71545 42.729
      vertex 10 5.76258 42.7705
      vertex 10 5.71545 42.729
    endloop
  endfacet
  facet normal 0 0.660858 -0.750511
    outer loop
      vertex 10 5.76258 42.7705
      vertex 0 5.71545 42.729
      vertex 0 5.76258 42.7705
    endloop
  endfacet
  facet normal 0 0.453761 -0.891123
    outer loop
      vertex 0 5.91825 42.8763
      vertex 10 5.97422 42.9048
      vertex 10 5.91825 42.8763
    endloop
  endfacet
  facet normal 0 0.453761 -0.891123
    outer loop
      vertex 10 5.97422 42.9048
      vertex 0 5.91825 42.8763
      vertex 0 5.97422 42.9048
    endloop
  endfacet
  facet normal 0 0.339007 -0.940784
    outer loop
      vertex 0 6.03187 42.9298
      vertex 10 6.09098 42.9511
      vertex 10 6.03187 42.9298
    endloop
  endfacet
  facet normal 0 0.339007 -0.940784
    outer loop
      vertex 10 6.09098 42.9511
      vertex 0 6.03187 42.9298
      vertex 0 6.09098 42.9511
    endloop
  endfacet
  facet normal 0 0.278588 -0.960411
    outer loop
      vertex 0 6.09098 42.9511
      vertex 10 6.15131 42.9686
      vertex 10 6.09098 42.9511
    endloop
  endfacet
  facet normal 0 0.278588 -0.960411
    outer loop
      vertex 10 6.15131 42.9686
      vertex 0 6.09098 42.9511
      vertex 0 6.15131 42.9686
    endloop
  endfacet
  facet normal 0 0.0939226 -0.99558
    outer loop
      vertex 0 6.27467 42.9921
      vertex 10 6.33721 42.998
      vertex 10 6.27467 42.9921
    endloop
  endfacet
  facet normal 0 0.0939226 -0.99558
    outer loop
      vertex 10 6.33721 42.998
      vertex 0 6.27467 42.9921
      vertex 0 6.33721 42.998
    endloop
  endfacet
  facet normal 0 0.0318361 -0.999493
    outer loop
      vertex 0 6.33721 42.998
      vertex 10 6.4 43
      vertex 10 6.33721 42.998
    endloop
  endfacet
  facet normal 0 0.0318361 -0.999493
    outer loop
      vertex 10 6.4 43
      vertex 0 6.33721 42.998
      vertex 0 6.4 43
    endloop
  endfacet
  facet normal 0 0.827296 -0.561766
    outer loop
      vertex 10 5.55567 42.5358
      vertex 0 5.59098 42.5878
      vertex 10 5.59098 42.5878
    endloop
  endfacet
  facet normal 0 0.827296 -0.561766
    outer loop
      vertex 0 5.59098 42.5878
      vertex 10 5.55567 42.5358
      vertex 0 5.55567 42.5358
    endloop
  endfacet
  facet normal 0 0.97589 -0.218262
    outer loop
      vertex 10 5.41771 42.1874
      vertex 0 5.43142 42.2487
      vertex 10 5.43142 42.2487
    endloop
  endfacet
  facet normal 0 0.97589 -0.218262
    outer loop
      vertex 0 5.43142 42.2487
      vertex 10 5.41771 42.1874
      vertex 0 5.41771 42.1874
    endloop
  endfacet
  facet normal 0 0.612937 -0.790132
    outer loop
      vertex 0 5.76258 42.7705
      vertex 10 5.81221 42.809
      vertex 10 5.76258 42.7705
    endloop
  endfacet
  facet normal 0 0.612937 -0.790132
    outer loop
      vertex 10 5.81221 42.809
      vertex 0 5.76258 42.7705
      vertex 0 5.81221 42.809
    endloop
  endfacet
  facet normal 0 0.509244 -0.860622
    outer loop
      vertex 0 5.86417 42.8443
      vertex 10 5.91825 42.8763
      vertex 10 5.86417 42.8443
    endloop
  endfacet
  facet normal 0 0.509244 -0.860622
    outer loop
      vertex 10 5.91825 42.8763
      vertex 0 5.86417 42.8443
      vertex 0 5.91825 42.8763
    endloop
  endfacet
  facet normal 0 0.397853 -0.917449
    outer loop
      vertex 0 5.97422 42.9048
      vertex 10 6.03187 42.9298
      vertex 10 5.97422 42.9048
    endloop
  endfacet
  facet normal 0 0.397853 -0.917449
    outer loop
      vertex 10 6.03187 42.9298
      vertex 0 5.97422 42.9048
      vertex 0 6.03187 42.9298
    endloop
  endfacet
  facet normal 0 0.940867 -0.338776
    outer loop
      vertex 10 5.44894 42.309
      vertex 0 5.47022 42.3681
      vertex 10 5.47022 42.3681
    endloop
  endfacet
  facet normal 0 0.940867 -0.338776
    outer loop
      vertex 0 5.47022 42.3681
      vertex 10 5.44894 42.309
      vertex 0 5.44894 42.309
    endloop
  endfacet
  facet normal 0 0.917865 -0.396893
    outer loop
      vertex 10 5.47022 42.3681
      vertex 0 5.49517 42.4258
      vertex 10 5.49517 42.4258
    endloop
  endfacet
  facet normal 0 0.917865 -0.396893
    outer loop
      vertex 0 5.49517 42.4258
      vertex 10 5.47022 42.3681
      vertex 0 5.47022 42.3681
    endloop
  endfacet
  facet normal 0 0.960288 -0.279009
    outer loop
      vertex 10 5.43142 42.2487
      vertex 0 5.44894 42.309
      vertex 10 5.44894 42.309
    endloop
  endfacet
  facet normal 0 0.960288 -0.279009
    outer loop
      vertex 0 5.44894 42.309
      vertex 10 5.43142 42.2487
      vertex 0 5.43142 42.2487
    endloop
  endfacet
  facet normal 0 0.891093 -0.453821
    outer loop
      vertex 10 5.49517 42.4258
      vertex 0 5.52369 42.4818
      vertex 10 5.52369 42.4818
    endloop
  endfacet
  facet normal 0 0.891093 -0.453821
    outer loop
      vertex 0 5.52369 42.4818
      vertex 10 5.49517 42.4258
      vertex 0 5.49517 42.4258
    endloop
  endfacet
  facet normal 0 0.860431 -0.509567
    outer loop
      vertex 10 5.52369 42.4818
      vertex 0 5.55567 42.5358
      vertex 10 5.55567 42.5358
    endloop
  endfacet
  facet normal 0 0.860431 -0.509567
    outer loop
      vertex 0 5.55567 42.5358
      vertex 10 5.52369 42.4818
      vertex 0 5.52369 42.4818
    endloop
  endfacet
  facet normal -0 0 1
    outer loop
      vertex 0 5.4 8.3
      vertex 10 1.5 8.3
      vertex 10 5.4 8.3
    endloop
  endfacet
  facet normal 0 0 1
    outer loop
      vertex 10 1.5 8.3
      vertex 0 5.4 8.3
      vertex 0 1.5 8.3
    endloop
  endfacet
  facet normal -0 0 1
    outer loop
      vertex 0 8.5 8.3
      vertex 10 7.4 8.3
      vertex 10 8.5 8.3
    endloop
  endfacet
  facet normal 0 0 1
    outer loop
      vertex 10 7.4 8.3
      vertex 0 8.5 8.3
      vertex 0 7.4 8.3
    endloop
  endfacet
  facet normal 0 -1 0
    outer loop
      vertex 0 6.5 0
      vertex 10 6.5 6.3
      vertex 0 6.5 6.3
    endloop
  endfacet
  facet normal 0 -1 -0
    outer loop
      vertex 10 6.5 6.3
      vertex 0 6.5 0
      vertex 10 6.5 0
    endloop
  endfacet
  facet normal 0 0 -1
    outer loop
      vertex 0 1.5 6.3
      vertex 10 6.5 6.3
      vertex 10 1.5 6.3
    endloop
  endfacet
  facet normal -0 0 -1
    outer loop
      vertex 10 6.5 6.3
      vertex 0 1.5 6.3
      vertex 0 6.5 6.3
    endloop
  endfacet
  facet normal 0 1 -0
    outer loop
      vertex 10 8.5 0
      vertex 0 8.5 8.3
      vertex 10 8.5 8.3
    endloop
  endfacet
  facet normal 0 1 0
    outer loop
      vertex 0 8.5 8.3
      vertex 10 8.5 0
      vertex 0 8.5 0
    endloop
  endfacet
  facet normal 0 0 -1
    outer loop
      vertex 0 6.5 0
      vertex 10 8.5 0
      vertex 10 6.5 0
    endloop
  endfacet
  facet normal -0 0 -1
    outer loop
      vertex 10 8.5 0
      vertex 0 6.5 0
      vertex 0 8.5 0
    endloop
  endfacet
  facet normal 0 -0.031359 0.999508
    outer loop
      vertex 0 6.46279 7.30197
      vertex 10 6.4 7.3
      vertex 10 6.46279 7.30197
    endloop
  endfacet
  facet normal 0 -0.031359 0.999508
    outer loop
      vertex 10 6.4 7.3
      vertex 0 6.46279 7.30197
      vertex 0 6.4 7.3
    endloop
  endfacet
  facet normal 0 -0.397125 0.917765
    outer loop
      vertex 0 6.82578 7.39517
      vertex 10 6.76812 7.37022
      vertex 10 6.82578 7.39517
    endloop
  endfacet
  facet normal 0 -0.397125 0.917765
    outer loop
      vertex 10 6.76812 7.37022
      vertex 0 6.82578 7.39517
      vertex 0 6.76812 7.37022
    endloop
  endfacet
  facet normal 0 -0.278881 0.960326
    outer loop
      vertex 0 6.70902 7.34894
      vertex 10 6.64869 7.33142
      vertex 10 6.70902 7.34894
    endloop
  endfacet
  facet normal 0 -0.278881 0.960326
    outer loop
      vertex 10 6.64869 7.33142
      vertex 0 6.70902 7.34894
      vertex 0 6.64869 7.33142
    endloop
  endfacet
  facet normal 0 -0.562136 0.827045
    outer loop
      vertex 0 6.98778 7.49098
      vertex 10 6.93583 7.45567
      vertex 10 6.98778 7.49098
    endloop
  endfacet
  facet normal 0 -0.562136 0.827045
    outer loop
      vertex 10 6.93583 7.45567
      vertex 0 6.98778 7.49098
      vertex 0 6.93583 7.45567
    endloop
  endfacet
  facet normal 0 -0.987707 0.156314
    outer loop
      vertex 0 7.38229 8.11262
      vertex 10 7.39211 8.17467
      vertex 0 7.39211 8.17467
    endloop
  endfacet
  facet normal 0 -0.987707 0.156314
    outer loop
      vertex 10 7.39211 8.17467
      vertex 0 7.38229 8.11262
      vertex 10 7.38229 8.11262
    endloop
  endfacet
  facet normal 0 -0.99555 0.0942382
    outer loop
      vertex 0 7.39211 8.17467
      vertex 10 7.39803 8.23721
      vertex 0 7.39803 8.23721
    endloop
  endfacet
  facet normal 0 -0.99555 0.0942382
    outer loop
      vertex 10 7.39803 8.23721
      vertex 0 7.39211 8.17467
      vertex 10 7.39211 8.17467
    endloop
  endfacet
  facet normal 0 -0.890995 0.454014
    outer loop
      vertex 0 7.27631 7.81825
      vertex 10 7.30483 7.87422
      vertex 0 7.30483 7.87422
    endloop
  endfacet
  facet normal 0 -0.890995 0.454014
    outer loop
      vertex 10 7.30483 7.87422
      vertex 0 7.27631 7.81825
      vertex 10 7.27631 7.81825
    endloop
  endfacet
  facet normal 0 -0.917765 0.397125
    outer loop
      vertex 0 7.30483 7.87422
      vertex 10 7.32978 7.93188
      vertex 0 7.32978 7.93188
    endloop
  endfacet
  facet normal 0 -0.917765 0.397125
    outer loop
      vertex 10 7.32978 7.93188
      vertex 0 7.30483 7.87422
      vertex 10 7.30483 7.87422
    endloop
  endfacet
  facet normal -0 0.661216 0.750195
    outer loop
      vertex 0 5.76258 7.52949
      vertex 10 5.71545 7.57103
      vertex 10 5.76258 7.52949
    endloop
  endfacet
  facet normal 0 0.661216 0.750195
    outer loop
      vertex 10 5.71545 7.57103
      vertex 0 5.76258 7.52949
      vertex 0 5.71545 7.57103
    endloop
  endfacet
  facet normal 0 0.995565 0.0940804
    outer loop
      vertex 10 5.40788 8.17467
      vertex 0 5.40197 8.23721
      vertex 10 5.40197 8.23721
    endloop
  endfacet
  facet normal 0 0.995565 0.0940804
    outer loop
      vertex 0 5.40197 8.23721
      vertex 10 5.40788 8.17467
      vertex 0 5.40788 8.17467
    endloop
  endfacet
  facet normal 0 0.917765 0.397125
    outer loop
      vertex 10 5.49517 7.87422
      vertex 0 5.47022 7.93188
      vertex 10 5.47022 7.93188
    endloop
  endfacet
  facet normal 0 0.917765 0.397125
    outer loop
      vertex 0 5.47022 7.93188
      vertex 10 5.49517 7.87422
      vertex 0 5.49517 7.87422
    endloop
  endfacet
  facet normal 0 -0.0942382 0.99555
    outer loop
      vertex 0 6.52533 7.30789
      vertex 10 6.46279 7.30197
      vertex 10 6.52533 7.30789
    endloop
  endfacet
  facet normal 0 -0.0942382 0.99555
    outer loop
      vertex 10 6.46279 7.30197
      vertex 0 6.52533 7.30789
      vertex 0 6.46279 7.30197
    endloop
  endfacet
  facet normal 0 -0.218228 0.975898
    outer loop
      vertex 0 6.64869 7.33142
      vertex 10 6.58738 7.31771
      vertex 10 6.64869 7.33142
    endloop
  endfacet
  facet normal 0 -0.218228 0.975898
    outer loop
      vertex 10 6.58738 7.31771
      vertex 0 6.64869 7.33142
      vertex 0 6.58738 7.31771
    endloop
  endfacet
  facet normal 0 -0.338776 0.940867
    outer loop
      vertex 0 6.76812 7.37022
      vertex 10 6.70902 7.34894
      vertex 10 6.76812 7.37022
    endloop
  endfacet
  facet normal 0 -0.338776 0.940867
    outer loop
      vertex 10 6.70902 7.34894
      vertex 0 6.76812 7.37022
      vertex 0 6.70902 7.34894
    endloop
  endfacet
  facet normal 0 -0.661216 0.750195
    outer loop
      vertex 0 7.08455 7.57103
      vertex 10 7.03742 7.52949
      vertex 10 7.08455 7.57103
    endloop
  endfacet
  facet normal 0 -0.661216 0.750195
    outer loop
      vertex 10 7.03742 7.52949
      vertex 0 7.08455 7.57103
      vertex 0 7.03742 7.52949
    endloop
  endfacet
  facet normal 0 -0.612959 0.790114
    outer loop
      vertex 0 7.03742 7.52949
      vertex 10 6.98778 7.49098
      vertex 10 7.03742 7.52949
    endloop
  endfacet
  facet normal 0 -0.612959 0.790114
    outer loop
      vertex 10 6.98778 7.49098
      vertex 0 7.03742 7.52949
      vertex 0 6.98778 7.49098
    endloop
  endfacet
  facet normal 0 -0.707107 0.707107
    outer loop
      vertex 0 7.08455 7.57103
      vertex 10 7.12897 7.61545
      vertex 0 7.12897 7.61545
    endloop
  endfacet
  facet normal 0 -0.707107 0.707107
    outer loop
      vertex 10 7.12897 7.61545
      vertex 0 7.08455 7.57103
      vertex 10 7.08455 7.57103
    endloop
  endfacet
  facet normal 0 -0.454014 0.890995
    outer loop
      vertex 0 6.88175 7.42369
      vertex 10 6.82578 7.39517
      vertex 10 6.88175 7.42369
    endloop
  endfacet
  facet normal 0 -0.454014 0.890995
    outer loop
      vertex 10 6.82578 7.39517
      vertex 0 6.88175 7.42369
      vertex 0 6.82578 7.39517
    endloop
  endfacet
  facet normal 0 -0.960326 0.278881
    outer loop
      vertex 0 7.35106 7.99098
      vertex 10 7.36858 8.05131
      vertex 0 7.36858 8.05131
    endloop
  endfacet
  facet normal 0 -0.960326 0.278881
    outer loop
      vertex 10 7.36858 8.05131
      vertex 0 7.35106 7.99098
      vertex 10 7.35106 7.99098
    endloop
  endfacet
  facet normal 0 -0.975898 0.218228
    outer loop
      vertex 0 7.36858 8.05131
      vertex 10 7.38229 8.11262
      vertex 0 7.38229 8.11262
    endloop
  endfacet
  facet normal 0 -0.975898 0.218228
    outer loop
      vertex 10 7.38229 8.11262
      vertex 0 7.36858 8.05131
      vertex 10 7.36858 8.05131
    endloop
  endfacet
  facet normal 0 -0.999508 0.031359
    outer loop
      vertex 0 7.39803 8.23721
      vertex 10 7.4 8.3
      vertex 0 7.4 8.3
    endloop
  endfacet
  facet normal 0 -0.999508 0.031359
    outer loop
      vertex 10 7.4 8.3
      vertex 0 7.39803 8.23721
      vertex 10 7.39803 8.23721
    endloop
  endfacet
  facet normal 0 -0.940867 0.338776
    outer loop
      vertex 0 7.32978 7.93188
      vertex 10 7.35106 7.99098
      vertex 0 7.35106 7.99098
    endloop
  endfacet
  facet normal 0 -0.940867 0.338776
    outer loop
      vertex 10 7.35106 7.99098
      vertex 0 7.32978 7.93188
      vertex 10 7.32978 7.93188
    endloop
  endfacet
  facet normal 0 -0.860762 0.509008
    outer loop
      vertex 0 7.24433 7.76417
      vertex 10 7.27631 7.81825
      vertex 0 7.27631 7.81825
    endloop
  endfacet
  facet normal 0 -0.860762 0.509008
    outer loop
      vertex 10 7.27631 7.81825
      vertex 0 7.24433 7.76417
      vertex 10 7.24433 7.76417
    endloop
  endfacet
  facet normal 0 -0.790055 0.613037
    outer loop
      vertex 0 7.17051 7.66258
      vertex 10 7.20902 7.71221
      vertex 0 7.20902 7.71221
    endloop
  endfacet
  facet normal 0 -0.790055 0.613037
    outer loop
      vertex 10 7.20902 7.71221
      vertex 0 7.17051 7.66258
      vertex 10 7.17051 7.66258
    endloop
  endfacet
  facet normal -0 0.156314 0.987707
    outer loop
      vertex 0 6.27467 7.30789
      vertex 10 6.21262 7.31771
      vertex 10 6.27467 7.30789
    endloop
  endfacet
  facet normal 0 0.156314 0.987707
    outer loop
      vertex 10 6.21262 7.31771
      vertex 0 6.27467 7.30789
      vertex 0 6.21262 7.31771
    endloop
  endfacet
  facet normal -0 0.0942382 0.99555
    outer loop
      vertex 0 6.33721 7.30197
      vertex 10 6.27467 7.30789
      vertex 10 6.33721 7.30197
    endloop
  endfacet
  facet normal 0 0.0942382 0.99555
    outer loop
      vertex 10 6.27467 7.30789
      vertex 0 6.33721 7.30197
      vertex 0 6.27467 7.30789
    endloop
  endfacet
  facet normal 0 0.940867 0.338776
    outer loop
      vertex 10 5.47022 7.93188
      vertex 0 5.44894 7.99098
      vertex 10 5.44894 7.99098
    endloop
  endfacet
  facet normal 0 0.940867 0.338776
    outer loop
      vertex 0 5.44894 7.99098
      vertex 10 5.47022 7.93188
      vertex 0 5.47022 7.93188
    endloop
  endfacet
  facet normal 0 0.987683 0.156469
    outer loop
      vertex 10 5.41771 8.11262
      vertex 0 5.40788 8.17467
      vertex 10 5.40788 8.17467
    endloop
  endfacet
  facet normal 0 0.987683 0.156469
    outer loop
      vertex 0 5.40788 8.17467
      vertex 10 5.41771 8.11262
      vertex 0 5.41771 8.11262
    endloop
  endfacet
  facet normal 0 -0.156314 0.987707
    outer loop
      vertex 0 6.58738 7.31771
      vertex 10 6.52533 7.30789
      vertex 10 6.58738 7.31771
    endloop
  endfacet
  facet normal 0 -0.156314 0.987707
    outer loop
      vertex 10 6.52533 7.30789
      vertex 0 6.58738 7.31771
      vertex 0 6.52533 7.30789
    endloop
  endfacet
  facet normal 0 -0.750195 0.661216
    outer loop
      vertex 0 7.12897 7.61545
      vertex 10 7.17051 7.66258
      vertex 0 7.17051 7.66258
    endloop
  endfacet
  facet normal 0 -0.750195 0.661216
    outer loop
      vertex 10 7.17051 7.66258
      vertex 0 7.12897 7.61545
      vertex 10 7.12897 7.61545
    endloop
  endfacet
  facet normal 0 -0.509008 0.860762
    outer loop
      vertex 0 6.93583 7.45567
      vertex 10 6.88175 7.42369
      vertex 10 6.93583 7.45567
    endloop
  endfacet
  facet normal 0 -0.509008 0.860762
    outer loop
      vertex 10 6.88175 7.42369
      vertex 0 6.93583 7.45567
      vertex 0 6.88175 7.42369
    endloop
  endfacet
  facet normal 0 -0.827095 0.562062
    outer loop
      vertex 0 7.20902 7.71221
      vertex 10 7.24433 7.76417
      vertex 0 7.24433 7.76417
    endloop
  endfacet
  facet normal 0 -0.827095 0.562062
    outer loop
      vertex 10 7.24433 7.76417
      vertex 0 7.20902 7.71221
      vertex 10 7.20902 7.71221
    endloop
  endfacet
  facet normal -0 0.397183 0.917739
    outer loop
      vertex 0 6.03187 7.37022
      vertex 10 5.97422 7.39517
      vertex 10 6.03187 7.37022
    endloop
  endfacet
  facet normal 0 0.397183 0.917739
    outer loop
      vertex 10 5.97422 7.39517
      vertex 0 6.03187 7.37022
      vertex 0 5.97422 7.39517
    endloop
  endfacet
  facet normal -0 0.278881 0.960326
    outer loop
      vertex 0 6.15131 7.33142
      vertex 10 6.09098 7.34894
      vertex 10 6.15131 7.33142
    endloop
  endfacet
  facet normal 0 0.278881 0.960326
    outer loop
      vertex 10 6.09098 7.34894
      vertex 0 6.15131 7.33142
      vertex 0 6.09098 7.34894
    endloop
  endfacet
  facet normal -0 0.031359 0.999508
    outer loop
      vertex 0 6.4 7.3
      vertex 10 6.33721 7.30197
      vertex 10 6.4 7.3
    endloop
  endfacet
  facet normal 0 0.031359 0.999508
    outer loop
      vertex 10 6.33721 7.30197
      vertex 0 6.4 7.3
      vertex 0 6.33721 7.30197
    endloop
  endfacet
  facet normal 0 0.750195 0.661216
    outer loop
      vertex 10 5.67103 7.61545
      vertex 0 5.62949 7.66258
      vertex 10 5.62949 7.66258
    endloop
  endfacet
  facet normal 0 0.750195 0.661216
    outer loop
      vertex 0 5.62949 7.66258
      vertex 10 5.67103 7.61545
      vertex 0 5.67103 7.61545
    endloop
  endfacet
  facet normal 0 0.890995 0.454014
    outer loop
      vertex 10 5.52369 7.81825
      vertex 0 5.49517 7.87422
      vertex 10 5.49517 7.87422
    endloop
  endfacet
  facet normal 0 0.890995 0.454014
    outer loop
      vertex 0 5.49517 7.87422
      vertex 10 5.52369 7.81825
      vertex 0 5.52369 7.81825
    endloop
  endfacet
  facet normal -0 0.562062 0.827095
    outer loop
      vertex 0 5.86417 7.45567
      vertex 10 5.81221 7.49098
      vertex 10 5.86417 7.45567
    endloop
  endfacet
  facet normal 0 0.562062 0.827095
    outer loop
      vertex 10 5.81221 7.49098
      vertex 0 5.86417 7.45567
      vertex 0 5.81221 7.49098
    endloop
  endfacet
  facet normal -0 0.509008 0.860762
    outer loop
      vertex 0 5.91825 7.42369
      vertex 10 5.86417 7.45567
      vertex 10 5.91825 7.42369
    endloop
  endfacet
  facet normal 0 0.509008 0.860762
    outer loop
      vertex 10 5.86417 7.45567
      vertex 0 5.91825 7.42369
      vertex 0 5.86417 7.45567
    endloop
  endfacet
  facet normal -0 0.218228 0.975898
    outer loop
      vertex 0 6.21262 7.31771
      vertex 10 6.15131 7.33142
      vertex 10 6.21262 7.31771
    endloop
  endfacet
  facet normal 0 0.218228 0.975898
    outer loop
      vertex 10 6.15131 7.33142
      vertex 0 6.21262 7.31771
      vertex 0 6.15131 7.33142
    endloop
  endfacet
  facet normal 0 0.827095 0.562062
    outer loop
      vertex 10 5.59098 7.71221
      vertex 0 5.55567 7.76417
      vertex 10 5.55567 7.76417
    endloop
  endfacet
  facet normal 0 0.827095 0.562062
    outer loop
      vertex 0 5.55567 7.76417
      vertex 10 5.59098 7.71221
      vertex 0 5.59098 7.71221
    endloop
  endfacet
  facet normal 0 0.790055 0.613037
    outer loop
      vertex 10 5.62949 7.66258
      vertex 0 5.59098 7.71221
      vertex 10 5.59098 7.71221
    endloop
  endfacet
  facet normal 0 0.790055 0.613037
    outer loop
      vertex 0 5.59098 7.71221
      vertex 10 5.62949 7.66258
      vertex 0 5.62949 7.66258
    endloop
  endfacet
  facet normal -0 0.613037 0.790055
    outer loop
      vertex 0 5.81221 7.49098
      vertex 10 5.76258 7.52949
      vertex 10 5.81221 7.49098
    endloop
  endfacet
  facet normal 0 0.613037 0.790055
    outer loop
      vertex 10 5.76258 7.52949
      vertex 0 5.81221 7.49098
      vertex 0 5.76258 7.52949
    endloop
  endfacet
  facet normal 0 0.999508 0.031359
    outer loop
      vertex 10 5.40197 8.23721
      vertex 0 5.4 8.3
      vertex 10 5.4 8.3
    endloop
  endfacet
  facet normal 0 0.999508 0.031359
    outer loop
      vertex 0 5.4 8.3
      vertex 10 5.40197 8.23721
      vertex 0 5.40197 8.23721
    endloop
  endfacet
  facet normal 0 0.960326 0.278881
    outer loop
      vertex 10 5.44894 7.99098
      vertex 0 5.43142 8.05131
      vertex 10 5.43142 8.05131
    endloop
  endfacet
  facet normal 0 0.960326 0.278881
    outer loop
      vertex 0 5.43142 8.05131
      vertex 10 5.44894 7.99098
      vertex 0 5.44894 7.99098
    endloop
  endfacet
  facet normal 0 0.975898 0.218228
    outer loop
      vertex 10 5.43142 8.05131
      vertex 0 5.41771 8.11262
      vertex 10 5.41771 8.11262
    endloop
  endfacet
  facet normal 0 0.975898 0.218228
    outer loop
      vertex 0 5.41771 8.11262
      vertex 10 5.43142 8.05131
      vertex 0 5.43142 8.05131
    endloop
  endfacet
  facet normal -0 0.454014 0.890995
    outer loop
      vertex 0 5.97422 7.39517
      vertex 10 5.91825 7.42369
      vertex 10 5.97422 7.39517
    endloop
  endfacet
  facet normal 0 0.454014 0.890995
    outer loop
      vertex 10 5.91825 7.42369
      vertex 0 5.97422 7.39517
      vertex 0 5.91825 7.42369
    endloop
  endfacet
  facet normal -0 0.338725 0.940885
    outer loop
      vertex 0 6.09098 7.34894
      vertex 10 6.03187 7.37022
      vertex 10 6.09098 7.34894
    endloop
  endfacet
  facet normal 0 0.338725 0.940885
    outer loop
      vertex 10 6.03187 7.37022
      vertex 0 6.09098 7.34894
      vertex 0 6.03187 7.37022
    endloop
  endfacet
  facet normal 0 0.860762 0.509008
    outer loop
      vertex 10 5.55567 7.76417
      vertex 0 5.52369 7.81825
      vertex 10 5.52369 7.81825
    endloop
  endfacet
  facet normal 0 0.860762 0.509008
    outer loop
      vertex 0 5.52369 7.81825
      vertex 10 5.55567 7.76417
      vertex 0 5.55567 7.76417
    endloop
  endfacet
  facet normal 0 0.707107 0.707107
    outer loop
      vertex 10 5.71545 7.57103
      vertex 0 5.67103 7.61545
      vertex 10 5.67103 7.61545
    endloop
  endfacet
  facet normal 0 0.707107 0.707107
    outer loop
      vertex 0 5.67103 7.61545
      vertex 10 5.71545 7.57103
      vertex 0 5.71545 7.57103
    endloop
  endfacet
  facet normal 0 0 -1
    outer loop
      vertex 0 0 0
      vertex 10 1.5 0
      vertex 10 0 0
    endloop
  endfacet
  facet normal -0 0 -1
    outer loop
      vertex 10 1.5 0
      vertex 0 0 0
      vertex 0 1.5 0
    endloop
  endfacet
  facet normal 0 -1 0
    outer loop
      vertex 0 0 0
      vertex 10 0 45
      vertex 0 0 45
    endloop
  endfacet
  facet normal 0 -1 -0
    outer loop
      vertex 10 0 45
      vertex 0 0 0
      vertex 10 0 0
    endloop
  endfacet
endsolid OpenSCAD_Model
