solid OpenSCAD_Model
  facet normal 0 0.0628058 -0.998026
    outer loop
      vertex 65.481 33.0027 -14.9369
      vertex 67 32 -15
      vertex 65.6162 32 -15
    endloop
  endfacet
  facet normal -3.00206e-06 0.0628013 -0.998026
    outer loop
      vertex 67 32 -15
      vertex 65.481 33.0027 -14.9369
      vertex 67 35.76 -14.7634
    endloop
  endfacet
  facet normal -7.9701e-06 0.062804 -0.998026
    outer loop
      vertex 65.1831 33.9895 -14.8748
      vertex 67 35.76 -14.7634
      vertex 65.481 33.0027 -14.9369
    endloop
  endfacet
  facet normal 9.69601e-05 0.0626968 -0.998033
    outer loop
      vertex 64.9765 34.4228 -14.8476
      vertex 67 35.76 -14.7634
      vertex 65.1831 33.9895 -14.8748
    endloop
  endfacet
  facet normal -1.76945e-05 0.0628696 -0.998022
    outer loop
      vertex 64.7274 34.945 -14.8147
      vertex 67 35.76 -14.7634
      vertex 64.9765 34.4228 -14.8476
    endloop
  endfacet
  facet normal 9.49119e-06 0.0627941 -0.998027
    outer loop
      vertex 64.3934 35.4457 -14.7832
      vertex 67 35.76 -14.7634
      vertex 64.7274 34.945 -14.8147
    endloop
  endfacet
  facet normal 0 0.0628725 -0.998022
    outer loop
      vertex 67 35.76 -14.7634
      vertex 64.3934 35.4457 -14.7832
      vertex 64.1838 35.76 -14.7634
    endloop
  endfacet
  facet normal 5.50505e-06 0.0626684 -0.998034
    outer loop
      vertex 30.9215 32.6217 -14.9609
      vertex 44.822 33.3228 -14.9168
      vertex 44.7591 33.0027 -14.9369
    endloop
  endfacet
  facet normal -1.82016e-08 0.0627543 -0.998029
    outer loop
      vertex 30.9803 32.3133 -14.9803
      vertex 44.7496 32.6775 -14.9574
      vertex 44.7297 32 -15
    endloop
  endfacet
  facet normal 0 0.0627551 -0.998029
    outer loop
      vertex 30.9803 32.3133 -14.9803
      vertex 44.7297 32 -15
      vertex 31 32 -15
    endloop
  endfacet
  facet normal -4.24251e-06 0.0629134 -0.998019
    outer loop
      vertex 44.7496 32.6775 -14.9574
      vertex 30.9803 32.3133 -14.9803
      vertex 44.7591 33.0027 -14.9369
    endloop
  endfacet
  facet normal 2.37298e-06 0.0627817 -0.998027
    outer loop
      vertex 30.9215 32.6217 -14.9609
      vertex 44.7591 33.0027 -14.9369
      vertex 30.9803 32.3133 -14.9803
    endloop
  endfacet
  facet normal -4.86516e-06 0.0628732 -0.998022
    outer loop
      vertex 44.822 33.3228 -14.9168
      vertex 30.9215 32.6217 -14.9609
      vertex 44.9528 33.9895 -14.8748
    endloop
  endfacet
  facet normal -1.196e-06 0.0628357 -0.998024
    outer loop
      vertex 30.8244 32.9203 -14.9421
      vertex 44.9528 33.9895 -14.8748
      vertex 30.9215 32.6217 -14.9609
    endloop
  endfacet
  facet normal -4.50184e-06 0.0628792 -0.998021
    outer loop
      vertex 30.6908 33.2044 -14.9242
      vertex 44.9528 33.9895 -14.8748
      vertex 30.8244 32.9203 -14.9421
    endloop
  endfacet
  facet normal 1.28522e-06 0.0627745 -0.998028
    outer loop
      vertex 44.9528 33.9895 -14.8748
      vertex 30.6908 33.2044 -14.9242
      vertex 45.3076 34.945 -14.8147
    endloop
  endfacet
  facet normal -9.47531e-06 0.0628645 -0.998022
    outer loop
      vertex 30.5225 33.4695 -14.9075
      vertex 45.3076 34.945 -14.8147
      vertex 30.6908 33.2044 -14.9242
    endloop
  endfacet
  facet normal 5.34103e-06 0.0627166 -0.998031
    outer loop
      vertex 30.3224 33.7114 -14.8923
      vertex 45.3076 34.945 -14.8147
      vertex 30.5225 33.4695 -14.9075
    endloop
  endfacet
  facet normal -3.39974e-06 0.0628224 -0.998025
    outer loop
      vertex 45.3076 34.945 -14.8147
      vertex 30.3224 33.7114 -14.8923
      vertex 45.7652 35.76 -14.7634
    endloop
  endfacet
  facet normal 1.17291e-05 0.0627088 -0.998032
    outer loop
      vertex 30.0936 33.9263 -14.8788
      vertex 45.7652 35.76 -14.7634
      vertex 30.3224 33.7114 -14.8923
    endloop
  endfacet
  facet normal 6.05862e-06 0.062757 -0.998029
    outer loop
      vertex 29.8396 34.1108 -14.8672
      vertex 45.7652 35.76 -14.7634
      vertex 30.0936 33.9263 -14.8788
    endloop
  endfacet
  facet normal 1.30845e-05 0.0626895 -0.998033
    outer loop
      vertex 29.5644 34.2621 -14.8577
      vertex 45.7652 35.76 -14.7634
      vertex 29.8396 34.1108 -14.8672
    endloop
  endfacet
  facet normal -1.8599e-05 0.0630308 -0.998012
    outer loop
      vertex 29.2725 34.3776 -14.8504
      vertex 45.7652 35.76 -14.7634
      vertex 29.5644 34.2621 -14.8577
    endloop
  endfacet
  facet normal 1.22335e-05 0.0626644 -0.998035
    outer loop
      vertex 28.9685 34.4557 -14.8455
      vertex 45.7652 35.76 -14.7634
      vertex 29.2725 34.3776 -14.8504
    endloop
  endfacet
  facet normal -2.43035e-05 0.0631331 -0.998005
    outer loop
      vertex 28.657 34.4951 -14.843
      vertex 45.7652 35.76 -14.7634
      vertex 28.9685 34.4557 -14.8455
    endloop
  endfacet
  facet normal 0 0.0628056 -0.998026
    outer loop
      vertex 19.7634 35.76 -14.7634
      vertex 28.657 34.4951 -14.843
      vertex 28.343 34.4951 -14.843
    endloop
  endfacet
  facet normal 0 0.0627551 -0.998029
    outer loop
      vertex 20 32 -15
      vertex 26.0197 32.3133 -14.9803
      vertex 26 32 -15
    endloop
  endfacet
  facet normal -1.37917e-06 0.0627815 -0.998027
    outer loop
      vertex 20 32 -15
      vertex 26.0785 32.6217 -14.9609
      vertex 26.0197 32.3133 -14.9803
    endloop
  endfacet
  facet normal -7.22351e-06 0.0628384 -0.998024
    outer loop
      vertex 20 32 -15
      vertex 26.1756 32.9203 -14.9421
      vertex 26.0785 32.6217 -14.9609
    endloop
  endfacet
  facet normal -1.65983e-06 0.0628012 -0.998026
    outer loop
      vertex 19.7634 35.76 -14.7634
      vertex 26.1756 32.9203 -14.9421
      vertex 20 32 -15
    endloop
  endfacet
  facet normal 2.8094e-05 0.0628681 -0.998022
    outer loop
      vertex 26.1756 32.9203 -14.9421
      vertex 19.7634 35.76 -14.7634
      vertex 26.3092 33.2044 -14.9242
    endloop
  endfacet
  facet normal 2.32476e-05 0.0628558 -0.998023
    outer loop
      vertex 26.3092 33.2044 -14.9242
      vertex 19.7634 35.76 -14.7634
      vertex 26.4775 33.4695 -14.9075
    endloop
  endfacet
  facet normal -2.02197e-05 0.0627289 -0.998031
    outer loop
      vertex 26.4775 33.4695 -14.9075
      vertex 19.7634 35.76 -14.7634
      vertex 26.6776 33.7114 -14.8923
    endloop
  endfacet
  facet normal -2.27273e-05 0.0627204 -0.998031
    outer loop
      vertex 26.6776 33.7114 -14.8923
      vertex 19.7634 35.76 -14.7634
      vertex 26.9064 33.9263 -14.8788
    endloop
  endfacet
  facet normal -1.14035e-05 0.0627644 -0.998028
    outer loop
      vertex 26.9064 33.9263 -14.8788
      vertex 19.7634 35.76 -14.7634
      vertex 27.1604 34.1108 -14.8672
    endloop
  endfacet
  facet normal -2.38179e-05 0.0627089 -0.998032
    outer loop
      vertex 27.1604 34.1108 -14.8672
      vertex 19.7634 35.76 -14.7634
      vertex 27.4356 34.2621 -14.8577
    endloop
  endfacet
  facet normal 0 0.0628056 -0.998026
    outer loop
      vertex 28.657 34.4951 -14.843
      vertex 19.7634 35.76 -14.7634
      vertex 45.7652 35.76 -14.7634
    endloop
  endfacet
  facet normal 3.54596e-05 0.0630452 -0.998011
    outer loop
      vertex 28.0315 34.4557 -14.8455
      vertex 19.7634 35.76 -14.7634
      vertex 28.343 34.4951 -14.843
    endloop
  endfacet
  facet normal -2.00517e-05 0.0626947 -0.998033
    outer loop
      vertex 27.7275 34.3776 -14.8504
      vertex 19.7634 35.76 -14.7634
      vertex 28.0315 34.4557 -14.8455
    endloop
  endfacet
  facet normal 3.24432e-05 0.0629959 -0.998014
    outer loop
      vertex 27.4356 34.2621 -14.8577
      vertex 19.7634 35.76 -14.7634
      vertex 27.7275 34.3776 -14.8504
    endloop
  endfacet
  facet normal 0 0.53582 -0.844332
    outer loop
      vertex 16.2892 46.4526 -11.2892
      vertex 67 49.6336 -9.27051
      vertex 67 46.4526 -11.2892
    endloop
  endfacet
  facet normal 0 0.53582 -0.844332
    outer loop
      vertex 67 49.6336 -9.27051
      vertex 16.2892 46.4526 -11.2892
      vertex 14.2705 49.6336 -9.27051
    endloop
  endfacet
  facet normal 0 0.809022 -0.587778
    outer loop
      vertex 9.12272 55.1154 -4.12272
      vertex 67 57.3298 -1.0748
      vertex 67 55.1154 -4.12272
    endloop
  endfacet
  facet normal 0 0.809022 -0.587778
    outer loop
      vertex 67 57.3298 -1.0748
      vertex 9.12272 55.1154 -4.12272
      vertex 6.0748 57.3298 -1.0748
    endloop
  endfacet
  facet normal 0 0.187064 -0.982348
    outer loop
      vertex 64.1109 35.854 -14.7455
      vertex 67 35.76 -14.7634
      vertex 64.1838 35.76 -14.7634
    endloop
  endfacet
  facet normal 1.02963e-05 0.187369 -0.98229
    outer loop
      vertex 67 35.76 -14.7634
      vertex 64.1109 35.854 -14.7455
      vertex 67 39.4607 -14.0575
    endloop
  endfacet
  facet normal 1.19022e-05 0.187368 -0.98229
    outer loop
      vertex 63.2724 36.7023 -14.5837
      vertex 67 39.4607 -14.0575
      vertex 64.1109 35.854 -14.7455
    endloop
  endfacet
  facet normal -3.00186e-05 0.187423 -0.982279
    outer loop
      vertex 62.8527 37.0408 -14.5191
      vertex 67 39.4607 -14.0575
      vertex 63.2724 36.7023 -14.5837
    endloop
  endfacet
  facet normal -6.54006e-06 0.187384 -0.982287
    outer loop
      vertex 62.3126 37.4764 -14.436
      vertex 67 39.4607 -14.0575
      vertex 62.8527 37.0408 -14.5191
    endloop
  endfacet
  facet normal 2.85257e-05 0.187304 -0.982302
    outer loop
      vertex 61.7035 37.8693 -14.3611
      vertex 67 39.4607 -14.0575
      vertex 62.3126 37.4764 -14.436
    endloop
  endfacet
  facet normal -4.05749e-05 0.187526 -0.98226
    outer loop
      vertex 61.2465 38.1641 -14.3048
      vertex 67 39.4607 -14.0575
      vertex 61.7035 37.8693 -14.3611
    endloop
  endfacet
  facet normal 6.71948e-06 0.187324 -0.982298
    outer loop
      vertex 60.0909 38.7546 -14.1922
      vertex 67 39.4607 -14.0575
      vertex 61.2465 38.1641 -14.3048
    endloop
  endfacet
  facet normal 5.07926e-06 0.187339 -0.982295
    outer loop
      vertex 58.8642 39.2386 -14.0999
      vertex 67 39.4607 -14.0575
      vertex 60.0909 38.7546 -14.1922
    endloop
  endfacet
  facet normal 0 0.187519 -0.982261
    outer loop
      vertex 67 39.4607 -14.0575
      vertex 58.8642 39.2386 -14.0999
      vertex 58.0964 39.4607 -14.0575
    endloop
  endfacet
  facet normal 4.231e-06 0.18756 -0.982253
    outer loop
      vertex 19.0575 39.4607 -14.0575
      vertex 49.2716 38.9227 -14.1601
      vertex 48.8994 38.7546 -14.1922
    endloop
  endfacet
  facet normal 7.51978e-06 0.187456 -0.982273
    outer loop
      vertex 19.0575 39.4607 -14.0575
      vertex 46.612 36.9601 -14.5345
      vertex 46.3749 36.7023 -14.5837
    endloop
  endfacet
  facet normal -7.49568e-06 0.187324 -0.982298
    outer loop
      vertex 19.0575 39.4607 -14.0575
      vertex 46.1872 36.4214 -14.6373
      vertex 45.8079 35.854 -14.7455
    endloop
  endfacet
  facet normal 0 0.187369 -0.98229
    outer loop
      vertex 19.0575 39.4607 -14.0575
      vertex 45.7652 35.76 -14.7634
      vertex 19.7634 35.76 -14.7634
    endloop
  endfacet
  facet normal -4.12552e-05 0.187082 -0.982344
    outer loop
      vertex 45.7652 35.76 -14.7634
      vertex 19.0575 39.4607 -14.0575
      vertex 45.8079 35.854 -14.7455
    endloop
  endfacet
  facet normal 4.87589e-06 0.18743 -0.982278
    outer loop
      vertex 46.1872 36.4214 -14.6373
      vertex 19.0575 39.4607 -14.0575
      vertex 46.3749 36.7023 -14.5837
    endloop
  endfacet
  facet normal 2.16672e-06 0.187399 -0.982284
    outer loop
      vertex 46.612 36.9601 -14.5345
      vertex 19.0575 39.4607 -14.0575
      vertex 47.0869 37.4764 -14.436
    endloop
  endfacet
  facet normal 2.14274e-06 0.187398 -0.982284
    outer loop
      vertex 47.0869 37.4764 -14.436
      vertex 19.0575 39.4607 -14.0575
      vertex 47.9329 38.1641 -14.3048
    endloop
  endfacet
  facet normal -6.88067e-06 0.187204 -0.982321
    outer loop
      vertex 47.9329 38.1641 -14.3048
      vertex 19.0575 39.4607 -14.0575
      vertex 48.5676 38.5519 -14.2309
    endloop
  endfacet
  facet normal 3.49867e-06 0.18753 -0.982259
    outer loop
      vertex 48.5676 38.5519 -14.2309
      vertex 19.0575 39.4607 -14.0575
      vertex 48.8994 38.7546 -14.1922
    endloop
  endfacet
  facet normal -2.3506e-06 0.187203 -0.982321
    outer loop
      vertex 49.2716 38.9227 -14.1601
      vertex 19.0575 39.4607 -14.0575
      vertex 49.9712 39.2386 -14.0999
    endloop
  endfacet
  facet normal 0 0.187519 -0.982261
    outer loop
      vertex 49.9712 39.2386 -14.0999
      vertex 19.0575 39.4607 -14.0575
      vertex 50.6678 39.4607 -14.0575
    endloop
  endfacet
  facet normal 0 0.425778 -0.904828
    outer loop
      vertex 17.8933 43.0437 -12.8933
      vertex 67 46.4526 -11.2892
      vertex 67 43.0437 -12.8933
    endloop
  endfacet
  facet normal 0 0.425778 -0.904828
    outer loop
      vertex 67 46.4526 -11.2892
      vertex 17.8933 43.0437 -12.8933
      vertex 16.2892 46.4526 -11.2892
    endloop
  endfacet
  facet normal 0 0.637431 -0.770507
    outer loop
      vertex 14.2705 49.6336 -9.27051
      vertex 67 52.5364 -6.86906
      vertex 67 49.6336 -9.27051
    endloop
  endfacet
  facet normal 0 0.637431 -0.770507
    outer loop
      vertex 67 52.5364 -6.86906
      vertex 14.2705 49.6336 -9.27051
      vertex 11.8691 52.5364 -6.86906
    endloop
  endfacet
  facet normal 0 0.876299 -0.481769
    outer loop
      vertex 6.0748 57.3298 -1.0748
      vertex 67 57.9207 0
      vertex 67 57.3298 -1.0748
    endloop
  endfacet
  facet normal 0 0.876299 -0.481769
    outer loop
      vertex 67 57.9207 0
      vertex 6.0748 57.3298 -1.0748
      vertex 5 57.9207 0
    endloop
  endfacet
  facet normal -3.00206e-06 -0.0628013 -0.998026
    outer loop
      vertex 65.481 30.9973 -14.9369
      vertex 67 32 -15
      vertex 67 28.24 -14.7634
    endloop
  endfacet
  facet normal -0 -0.0628058 -0.998026
    outer loop
      vertex 67 32 -15
      vertex 65.481 30.9973 -14.9369
      vertex 65.6162 32 -15
    endloop
  endfacet
  facet normal -7.9701e-06 -0.062804 -0.998026
    outer loop
      vertex 67 28.24 -14.7634
      vertex 65.1831 30.0105 -14.8748
      vertex 65.481 30.9973 -14.9369
    endloop
  endfacet
  facet normal 9.69601e-05 -0.0626968 -0.998033
    outer loop
      vertex 67 28.24 -14.7634
      vertex 64.9765 29.5772 -14.8476
      vertex 65.1831 30.0105 -14.8748
    endloop
  endfacet
  facet normal -1.76945e-05 -0.0628696 -0.998022
    outer loop
      vertex 67 28.24 -14.7634
      vertex 64.7274 29.055 -14.8147
      vertex 64.9765 29.5772 -14.8476
    endloop
  endfacet
  facet normal 9.49119e-06 -0.0627941 -0.998027
    outer loop
      vertex 67 28.24 -14.7634
      vertex 64.3934 28.5543 -14.7832
      vertex 64.7274 29.055 -14.8147
    endloop
  endfacet
  facet normal 0 -0.0628725 -0.998022
    outer loop
      vertex 64.3934 28.5543 -14.7832
      vertex 67 28.24 -14.7634
      vertex 64.1838 28.24 -14.7634
    endloop
  endfacet
  facet normal -4.86516e-06 -0.0628732 -0.998022
    outer loop
      vertex 30.9215 31.3783 -14.9609
      vertex 44.822 30.6772 -14.9168
      vertex 44.9528 30.0105 -14.8748
    endloop
  endfacet
  facet normal -4.24251e-06 -0.0629134 -0.998019
    outer loop
      vertex 30.9803 31.6867 -14.9803
      vertex 44.7496 31.3225 -14.9574
      vertex 44.7591 30.9973 -14.9369
    endloop
  endfacet
  facet normal -1.82016e-08 -0.0627543 -0.998029
    outer loop
      vertex 44.7496 31.3225 -14.9574
      vertex 30.9803 31.6867 -14.9803
      vertex 44.7297 32 -15
    endloop
  endfacet
  facet normal 5.50505e-06 -0.0626684 -0.998034
    outer loop
      vertex 44.822 30.6772 -14.9168
      vertex 30.9215 31.3783 -14.9609
      vertex 44.7591 30.9973 -14.9369
    endloop
  endfacet
  facet normal 1.28522e-06 -0.0627745 -0.998028
    outer loop
      vertex 30.6908 30.7956 -14.9242
      vertex 44.9528 30.0105 -14.8748
      vertex 45.3076 29.055 -14.8147
    endloop
  endfacet
  facet normal -3.39974e-06 -0.0628224 -0.998025
    outer loop
      vertex 30.3224 30.2886 -14.8923
      vertex 45.3076 29.055 -14.8147
      vertex 45.7652 28.24 -14.7634
    endloop
  endfacet
  facet normal -0 -0.0627551 -0.998029
    outer loop
      vertex 44.7297 32 -15
      vertex 30.9803 31.6867 -14.9803
      vertex 31 32 -15
    endloop
  endfacet
  facet normal 2.37298e-06 -0.0627817 -0.998027
    outer loop
      vertex 44.7591 30.9973 -14.9369
      vertex 30.9215 31.3783 -14.9609
      vertex 30.9803 31.6867 -14.9803
    endloop
  endfacet
  facet normal -1.196e-06 -0.0628357 -0.998024
    outer loop
      vertex 44.9528 30.0105 -14.8748
      vertex 30.8244 31.0797 -14.9421
      vertex 30.9215 31.3783 -14.9609
    endloop
  endfacet
  facet normal -4.50184e-06 -0.0628792 -0.998021
    outer loop
      vertex 44.9528 30.0105 -14.8748
      vertex 30.6908 30.7956 -14.9242
      vertex 30.8244 31.0797 -14.9421
    endloop
  endfacet
  facet normal -9.47531e-06 -0.0628645 -0.998022
    outer loop
      vertex 45.3076 29.055 -14.8147
      vertex 30.5225 30.5305 -14.9075
      vertex 30.6908 30.7956 -14.9242
    endloop
  endfacet
  facet normal 5.34103e-06 -0.0627166 -0.998031
    outer loop
      vertex 45.3076 29.055 -14.8147
      vertex 30.3224 30.2886 -14.8923
      vertex 30.5225 30.5305 -14.9075
    endloop
  endfacet
  facet normal 1.17291e-05 -0.0627088 -0.998032
    outer loop
      vertex 45.7652 28.24 -14.7634
      vertex 30.0936 30.0737 -14.8788
      vertex 30.3224 30.2886 -14.8923
    endloop
  endfacet
  facet normal 6.05862e-06 -0.062757 -0.998029
    outer loop
      vertex 45.7652 28.24 -14.7634
      vertex 29.8396 29.8892 -14.8672
      vertex 30.0936 30.0737 -14.8788
    endloop
  endfacet
  facet normal 1.30845e-05 -0.0626895 -0.998033
    outer loop
      vertex 45.7652 28.24 -14.7634
      vertex 29.5644 29.7379 -14.8577
      vertex 29.8396 29.8892 -14.8672
    endloop
  endfacet
  facet normal -1.8599e-05 -0.0630308 -0.998012
    outer loop
      vertex 45.7652 28.24 -14.7634
      vertex 29.2725 29.6224 -14.8504
      vertex 29.5644 29.7379 -14.8577
    endloop
  endfacet
  facet normal 1.22335e-05 -0.0626644 -0.998035
    outer loop
      vertex 45.7652 28.24 -14.7634
      vertex 28.9685 29.5443 -14.8455
      vertex 29.2725 29.6224 -14.8504
    endloop
  endfacet
  facet normal -2.43035e-05 -0.0631331 -0.998005
    outer loop
      vertex 45.7652 28.24 -14.7634
      vertex 28.657 29.5049 -14.843
      vertex 28.9685 29.5443 -14.8455
    endloop
  endfacet
  facet normal 0 -0.0628056 -0.998026
    outer loop
      vertex 19.7634 28.24 -14.7634
      vertex 28.657 29.5049 -14.843
      vertex 45.7652 28.24 -14.7634
    endloop
  endfacet
  facet normal 0 -0.0627551 -0.998029
    outer loop
      vertex 26.0197 31.6867 -14.9803
      vertex 20 32 -15
      vertex 26 32 -15
    endloop
  endfacet
  facet normal -1.37917e-06 -0.0627815 -0.998027
    outer loop
      vertex 26.0785 31.3783 -14.9609
      vertex 20 32 -15
      vertex 26.0197 31.6867 -14.9803
    endloop
  endfacet
  facet normal -7.22351e-06 -0.0628384 -0.998024
    outer loop
      vertex 26.1756 31.0797 -14.9421
      vertex 20 32 -15
      vertex 26.0785 31.3783 -14.9609
    endloop
  endfacet
  facet normal 2.8094e-05 -0.0628681 -0.998022
    outer loop
      vertex 19.7634 28.24 -14.7634
      vertex 26.1756 31.0797 -14.9421
      vertex 26.3092 30.7956 -14.9242
    endloop
  endfacet
  facet normal 2.32476e-05 -0.0628558 -0.998023
    outer loop
      vertex 19.7634 28.24 -14.7634
      vertex 26.3092 30.7956 -14.9242
      vertex 26.4775 30.5305 -14.9075
    endloop
  endfacet
  facet normal -2.02197e-05 -0.0627289 -0.998031
    outer loop
      vertex 19.7634 28.24 -14.7634
      vertex 26.4775 30.5305 -14.9075
      vertex 26.6776 30.2886 -14.8923
    endloop
  endfacet
  facet normal -2.27273e-05 -0.0627204 -0.998031
    outer loop
      vertex 19.7634 28.24 -14.7634
      vertex 26.6776 30.2886 -14.8923
      vertex 26.9064 30.0737 -14.8788
    endloop
  endfacet
  facet normal -1.14035e-05 -0.0627644 -0.998028
    outer loop
      vertex 19.7634 28.24 -14.7634
      vertex 26.9064 30.0737 -14.8788
      vertex 27.1604 29.8892 -14.8672
    endloop
  endfacet
  facet normal -2.38179e-05 -0.0627089 -0.998032
    outer loop
      vertex 19.7634 28.24 -14.7634
      vertex 27.1604 29.8892 -14.8672
      vertex 27.4356 29.7379 -14.8577
    endloop
  endfacet
  facet normal 3.24432e-05 -0.0629959 -0.998014
    outer loop
      vertex 19.7634 28.24 -14.7634
      vertex 27.4356 29.7379 -14.8577
      vertex 27.7275 29.6224 -14.8504
    endloop
  endfacet
  facet normal -1.65983e-06 -0.0628012 -0.998026
    outer loop
      vertex 26.1756 31.0797 -14.9421
      vertex 19.7634 28.24 -14.7634
      vertex 20 32 -15
    endloop
  endfacet
  facet normal -2.00517e-05 -0.0626947 -0.998033
    outer loop
      vertex 28.0315 29.5443 -14.8455
      vertex 19.7634 28.24 -14.7634
      vertex 27.7275 29.6224 -14.8504
    endloop
  endfacet
  facet normal 3.54596e-05 -0.0630452 -0.998011
    outer loop
      vertex 28.343 29.5049 -14.843
      vertex 19.7634 28.24 -14.7634
      vertex 28.0315 29.5443 -14.8455
    endloop
  endfacet
  facet normal -0 -0.0628056 -0.998026
    outer loop
      vertex 28.657 29.5049 -14.843
      vertex 19.7634 28.24 -14.7634
      vertex 28.343 29.5049 -14.843
    endloop
  endfacet
  facet normal 0 -0.637431 -0.770507
    outer loop
      vertex 67 11.4636 -6.86906
      vertex 14.2705 14.3664 -9.27051
      vertex 67 14.3664 -9.27051
    endloop
  endfacet
  facet normal 0 -0.637431 -0.770507
    outer loop
      vertex 14.2705 14.3664 -9.27051
      vertex 67 11.4636 -6.86906
      vertex 11.8691 11.4636 -6.86906
    endloop
  endfacet
  facet normal 0 -0.30902 -0.951056
    outer loop
      vertex 67 20.9563 -12.8933
      vertex 58.0964 24.5393 -14.0575
      vertex 67 24.5393 -14.0575
    endloop
  endfacet
  facet normal 2.51474e-05 -0.308964 -0.951074
    outer loop
      vertex 67 20.9563 -12.8933
      vertex 57.569 24.3915 -14.0095
      vertex 58.0964 24.5393 -14.0575
    endloop
  endfacet
  facet normal -1.52472e-05 -0.309064 -0.951041
    outer loop
      vertex 67 20.9563 -12.8933
      vertex 56.2306 24.1417 -13.9283
      vertex 57.569 24.3915 -14.0095
    endloop
  endfacet
  facet normal 4.0077e-06 -0.309005 -0.95106
    outer loop
      vertex 67 20.9563 -12.8933
      vertex 54.8951 24.0158 -13.8874
      vertex 56.2306 24.1417 -13.9283
    endloop
  endfacet
  facet normal 0 -0.309019 -0.951056
    outer loop
      vertex 67 20.9563 -12.8933
      vertex 53.5837 24.0158 -13.8874
      vertex 54.8951 24.0158 -13.8874
    endloop
  endfacet
  facet normal 7.61926e-05 -0.308717 -0.951154
    outer loop
      vertex 67 20.9563 -12.8933
      vertex 52.783 24.0954 -13.9133
      vertex 53.5837 24.0158 -13.8874
    endloop
  endfacet
  facet normal -0.000164795 -0.309704 -0.950833
    outer loop
      vertex 67 20.9563 -12.8933
      vertex 52.3169 24.1417 -13.9283
      vertex 52.783 24.0954 -13.9133
    endloop
  endfacet
  facet normal 0 -0.309017 -0.951056
    outer loop
      vertex 17.8933 20.9563 -12.8933
      vertex 52.3169 24.1417 -13.9283
      vertex 67 20.9563 -12.8933
    endloop
  endfacet
  facet normal -2.5375e-05 -0.308769 -0.951137
    outer loop
      vertex 52.3169 24.1417 -13.9283
      vertex 17.8933 20.9563 -12.8933
      vertex 51.8811 24.2323 -13.9577
    endloop
  endfacet
  facet normal -1.25074e-05 -0.308917 -0.951089
    outer loop
      vertex 17.8933 20.9563 -12.8933
      vertex 50.6678 24.5393 -14.0575
      vertex 51.1147 24.3915 -14.0095
    endloop
  endfacet
  facet normal 2.93301e-05 -0.309283 -0.95097
    outer loop
      vertex 51.8811 24.2323 -13.9577
      vertex 17.8933 20.9563 -12.8933
      vertex 51.1147 24.3915 -14.0095
    endloop
  endfacet
  facet normal -0 -0.30902 -0.951056
    outer loop
      vertex 50.6678 24.5393 -14.0575
      vertex 17.8933 20.9563 -12.8933
      vertex 19.0575 24.5393 -14.0575
    endloop
  endfacet
  facet normal 1.02963e-05 -0.187369 -0.98229
    outer loop
      vertex 64.1109 28.146 -14.7455
      vertex 67 28.24 -14.7634
      vertex 67 24.5393 -14.0575
    endloop
  endfacet
  facet normal -0 -0.187064 -0.982348
    outer loop
      vertex 67 28.24 -14.7634
      vertex 64.1109 28.146 -14.7455
      vertex 64.1838 28.24 -14.7634
    endloop
  endfacet
  facet normal 1.19022e-05 -0.187368 -0.98229
    outer loop
      vertex 67 24.5393 -14.0575
      vertex 63.2724 27.2977 -14.5837
      vertex 64.1109 28.146 -14.7455
    endloop
  endfacet
  facet normal -3.00186e-05 -0.187423 -0.982279
    outer loop
      vertex 67 24.5393 -14.0575
      vertex 62.8527 26.9592 -14.5191
      vertex 63.2724 27.2977 -14.5837
    endloop
  endfacet
  facet normal -6.54006e-06 -0.187384 -0.982287
    outer loop
      vertex 67 24.5393 -14.0575
      vertex 62.3126 26.5236 -14.436
      vertex 62.8527 26.9592 -14.5191
    endloop
  endfacet
  facet normal 2.85257e-05 -0.187304 -0.982302
    outer loop
      vertex 67 24.5393 -14.0575
      vertex 61.7035 26.1307 -14.3611
      vertex 62.3126 26.5236 -14.436
    endloop
  endfacet
  facet normal -4.05749e-05 -0.187526 -0.98226
    outer loop
      vertex 67 24.5393 -14.0575
      vertex 61.2465 25.8359 -14.3048
      vertex 61.7035 26.1307 -14.3611
    endloop
  endfacet
  facet normal 6.71948e-06 -0.187324 -0.982298
    outer loop
      vertex 67 24.5393 -14.0575
      vertex 60.0909 25.2454 -14.1922
      vertex 61.2465 25.8359 -14.3048
    endloop
  endfacet
  facet normal 5.07926e-06 -0.187339 -0.982295
    outer loop
      vertex 67 24.5393 -14.0575
      vertex 58.8642 24.7614 -14.0999
      vertex 60.0909 25.2454 -14.1922
    endloop
  endfacet
  facet normal 0 -0.187519 -0.982261
    outer loop
      vertex 58.8642 24.7614 -14.0999
      vertex 67 24.5393 -14.0575
      vertex 58.0964 24.5393 -14.0575
    endloop
  endfacet
  facet normal -2.3506e-06 -0.187203 -0.982321
    outer loop
      vertex 19.0575 24.5393 -14.0575
      vertex 49.2716 25.0773 -14.1601
      vertex 49.9712 24.7614 -14.0999
    endloop
  endfacet
  facet normal 2.16672e-06 -0.187399 -0.982284
    outer loop
      vertex 19.0575 24.5393 -14.0575
      vertex 46.612 27.0399 -14.5345
      vertex 47.0869 26.5236 -14.436
    endloop
  endfacet
  facet normal 4.87589e-06 -0.18743 -0.982278
    outer loop
      vertex 19.0575 24.5393 -14.0575
      vertex 46.1872 27.5786 -14.6373
      vertex 46.3749 27.2977 -14.5837
    endloop
  endfacet
  facet normal -4.12552e-05 -0.187082 -0.982344
    outer loop
      vertex 19.0575 24.5393 -14.0575
      vertex 45.7652 28.24 -14.7634
      vertex 45.8079 28.146 -14.7455
    endloop
  endfacet
  facet normal -7.49568e-06 -0.187324 -0.982298
    outer loop
      vertex 46.1872 27.5786 -14.6373
      vertex 19.0575 24.5393 -14.0575
      vertex 45.8079 28.146 -14.7455
    endloop
  endfacet
  facet normal 7.51978e-06 -0.187456 -0.982273
    outer loop
      vertex 46.612 27.0399 -14.5345
      vertex 19.0575 24.5393 -14.0575
      vertex 46.3749 27.2977 -14.5837
    endloop
  endfacet
  facet normal 2.14274e-06 -0.187398 -0.982284
    outer loop
      vertex 19.0575 24.5393 -14.0575
      vertex 47.0869 26.5236 -14.436
      vertex 47.9329 25.8359 -14.3048
    endloop
  endfacet
  facet normal -6.88067e-06 -0.187204 -0.982321
    outer loop
      vertex 19.0575 24.5393 -14.0575
      vertex 47.9329 25.8359 -14.3048
      vertex 48.5676 25.4481 -14.2309
    endloop
  endfacet
  facet normal 3.49867e-06 -0.18753 -0.982259
    outer loop
      vertex 19.0575 24.5393 -14.0575
      vertex 48.5676 25.4481 -14.2309
      vertex 48.8994 25.2454 -14.1922
    endloop
  endfacet
  facet normal 4.231e-06 -0.18756 -0.982253
    outer loop
      vertex 49.2716 25.0773 -14.1601
      vertex 19.0575 24.5393 -14.0575
      vertex 48.8994 25.2454 -14.1922
    endloop
  endfacet
  facet normal 0 -0.187519 -0.982261
    outer loop
      vertex 19.0575 24.5393 -14.0575
      vertex 49.9712 24.7614 -14.0999
      vertex 50.6678 24.5393 -14.0575
    endloop
  endfacet
  facet normal -0 -0.187369 -0.98229
    outer loop
      vertex 45.7652 28.24 -14.7634
      vertex 19.0575 24.5393 -14.0575
      vertex 19.7634 28.24 -14.7634
    endloop
  endfacet
  facet normal 1 0 0
    outer loop
      vertex 67 57.9207 0
      vertex 67 55.1154 -4.12272
      vertex 67 57.3298 -1.0748
    endloop
  endfacet
  facet normal 1 0 0
    outer loop
      vertex 67 57.9207 0
      vertex 67 52.5364 -6.86906
      vertex 67 55.1154 -4.12272
    endloop
  endfacet
  facet normal 1 0 0
    outer loop
      vertex 67 57.9207 0
      vertex 67 49.6336 -9.27051
      vertex 67 52.5364 -6.86906
    endloop
  endfacet
  facet normal 1 0 0
    outer loop
      vertex 67 57.9207 0
      vertex 67 46.4526 -11.2892
      vertex 67 49.6336 -9.27051
    endloop
  endfacet
  facet normal 1 0 0
    outer loop
      vertex 67 57.9207 0
      vertex 67 43.0437 -12.8933
      vertex 67 46.4526 -11.2892
    endloop
  endfacet
  facet normal 1 0 0
    outer loop
      vertex 67 57.9207 0
      vertex 67 39.4607 -14.0575
      vertex 67 43.0437 -12.8933
    endloop
  endfacet
  facet normal 1 0 0
    outer loop
      vertex 67 57.9207 0
      vertex 67 35.76 -14.7634
      vertex 67 39.4607 -14.0575
    endloop
  endfacet
  facet normal 1 0 0
    outer loop
      vertex 67 57.9207 0
      vertex 67 32 -15
      vertex 67 35.76 -14.7634
    endloop
  endfacet
  facet normal 1 0 0
    outer loop
      vertex 67 57.9207 0
      vertex 67 28.24 -14.7634
      vertex 67 32 -15
    endloop
  endfacet
  facet normal 1 0 0
    outer loop
      vertex 67 57.9207 0
      vertex 67 24.5393 -14.0575
      vertex 67 28.24 -14.7634
    endloop
  endfacet
  facet normal 1 0 0
    outer loop
      vertex 67 57.9207 0
      vertex 67 20.9563 -12.8933
      vertex 67 24.5393 -14.0575
    endloop
  endfacet
  facet normal 1 0 0
    outer loop
      vertex 67 57.9207 0
      vertex 67 17.5474 -11.2892
      vertex 67 20.9563 -12.8933
    endloop
  endfacet
  facet normal 1 0 0
    outer loop
      vertex 67 57.9207 0
      vertex 67 14.3664 -9.27051
      vertex 67 17.5474 -11.2892
    endloop
  endfacet
  facet normal 1 0 0
    outer loop
      vertex 67 57.9207 0
      vertex 67 11.4636 -6.86906
      vertex 67 14.3664 -9.27051
    endloop
  endfacet
  facet normal 1 0 0
    outer loop
      vertex 67 57.9207 0
      vertex 67 8.8846 -4.12272
      vertex 67 11.4636 -6.86906
    endloop
  endfacet
  facet normal 1 -0 0
    outer loop
      vertex 67 6.07929 0
      vertex 67 8.8846 -4.12272
      vertex 67 57.9207 0
    endloop
  endfacet
  facet normal 1 0 0
    outer loop
      vertex 67 8.8846 -4.12272
      vertex 67 6.07929 0
      vertex 67 6.67016 -1.0748
    endloop
  endfacet
  facet normal 0 0.30902 -0.951056
    outer loop
      vertex 58.0964 39.4607 -14.0575
      vertex 67 43.0437 -12.8933
      vertex 67 39.4607 -14.0575
    endloop
  endfacet
  facet normal 2.51474e-05 0.308964 -0.951074
    outer loop
      vertex 57.569 39.6085 -14.0095
      vertex 67 43.0437 -12.8933
      vertex 58.0964 39.4607 -14.0575
    endloop
  endfacet
  facet normal -1.52472e-05 0.309064 -0.951041
    outer loop
      vertex 56.2306 39.8583 -13.9283
      vertex 67 43.0437 -12.8933
      vertex 57.569 39.6085 -14.0095
    endloop
  endfacet
  facet normal 4.0077e-06 0.309005 -0.95106
    outer loop
      vertex 54.8951 39.9842 -13.8874
      vertex 67 43.0437 -12.8933
      vertex 56.2306 39.8583 -13.9283
    endloop
  endfacet
  facet normal 0 0.309019 -0.951056
    outer loop
      vertex 53.5837 39.9842 -13.8874
      vertex 67 43.0437 -12.8933
      vertex 54.8951 39.9842 -13.8874
    endloop
  endfacet
  facet normal 7.61926e-05 0.308717 -0.951154
    outer loop
      vertex 52.783 39.9046 -13.9133
      vertex 67 43.0437 -12.8933
      vertex 53.5837 39.9842 -13.8874
    endloop
  endfacet
  facet normal -0.000164795 0.309704 -0.950833
    outer loop
      vertex 52.3169 39.8583 -13.9283
      vertex 67 43.0437 -12.8933
      vertex 52.783 39.9046 -13.9133
    endloop
  endfacet
  facet normal -2.5375e-05 0.308769 -0.951137
    outer loop
      vertex 17.8933 43.0437 -12.8933
      vertex 52.3169 39.8583 -13.9283
      vertex 51.8811 39.7677 -13.9577
    endloop
  endfacet
  facet normal 2.93301e-05 0.309283 -0.95097
    outer loop
      vertex 17.8933 43.0437 -12.8933
      vertex 51.8811 39.7677 -13.9577
      vertex 51.1147 39.6085 -14.0095
    endloop
  endfacet
  facet normal 0 0.30902 -0.951056
    outer loop
      vertex 17.8933 43.0437 -12.8933
      vertex 50.6678 39.4607 -14.0575
      vertex 19.0575 39.4607 -14.0575
    endloop
  endfacet
  facet normal -1.25074e-05 0.308917 -0.951089
    outer loop
      vertex 50.6678 39.4607 -14.0575
      vertex 17.8933 43.0437 -12.8933
      vertex 51.1147 39.6085 -14.0095
    endloop
  endfacet
  facet normal 0 0.309017 -0.951056
    outer loop
      vertex 52.3169 39.8583 -13.9283
      vertex 17.8933 43.0437 -12.8933
      vertex 67 43.0437 -12.8933
    endloop
  endfacet
  facet normal 0 0.728967 -0.684549
    outer loop
      vertex 11.8691 52.5364 -6.86906
      vertex 67 55.1154 -4.12272
      vertex 67 52.5364 -6.86906
    endloop
  endfacet
  facet normal 0 0.728967 -0.684549
    outer loop
      vertex 67 55.1154 -4.12272
      vertex 11.8691 52.5364 -6.86906
      vertex 9.12272 55.1154 -4.12272
    endloop
  endfacet
  facet normal 0 -0.876309 -0.48175
    outer loop
      vertex 6.0748 6.67016 -1.0748
      vertex 67 6.07929 0
      vertex 5 6.07929 0
    endloop
  endfacet
  facet normal 0 -0.876309 -0.48175
    outer loop
      vertex 67 6.07929 0
      vertex 6.0748 6.67016 -1.0748
      vertex 67 6.67016 -1.0748
    endloop
  endfacet
  facet normal 0 -0.53582 -0.844332
    outer loop
      vertex 67 14.3664 -9.27051
      vertex 16.2892 17.5474 -11.2892
      vertex 67 17.5474 -11.2892
    endloop
  endfacet
  facet normal 0 -0.53582 -0.844332
    outer loop
      vertex 16.2892 17.5474 -11.2892
      vertex 67 14.3664 -9.27051
      vertex 14.2705 14.3664 -9.27051
    endloop
  endfacet
  facet normal 0 -0.425778 -0.904828
    outer loop
      vertex 67 17.5474 -11.2892
      vertex 17.8933 20.9563 -12.8933
      vertex 67 20.9563 -12.8933
    endloop
  endfacet
  facet normal 0 -0.425778 -0.904828
    outer loop
      vertex 17.8933 20.9563 -12.8933
      vertex 67 17.5474 -11.2892
      vertex 16.2892 17.5474 -11.2892
    endloop
  endfacet
  facet normal 0 -0.728967 -0.684549
    outer loop
      vertex 11.8691 11.4636 -6.86906
      vertex 67 8.8846 -4.12272
      vertex 9.12272 8.8846 -4.12272
    endloop
  endfacet
  facet normal 0 -0.728967 -0.684549
    outer loop
      vertex 67 8.8846 -4.12272
      vertex 11.8691 11.4636 -6.86906
      vertex 67 11.4636 -6.86906
    endloop
  endfacet
  facet normal 0 -0.809017 -0.587785
    outer loop
      vertex 9.12272 8.8846 -4.12272
      vertex 67 6.67016 -1.0748
      vertex 6.0748 6.67016 -1.0748
    endloop
  endfacet
  facet normal 0 -0.809017 -0.587785
    outer loop
      vertex 67 6.67016 -1.0748
      vertex 9.12272 8.8846 -4.12272
      vertex 67 8.8846 -4.12272
    endloop
  endfacet
  facet normal -0.764534 0.0627744 -0.64152
    outer loop
      vertex 88.1987 33.0027 -66.7062
      vertex 44.7496 32.6775 -14.9574
      vertex 44.7591 33.0027 -14.9369
    endloop
  endfacet
  facet normal -0.764535 0.0627393 -0.641521
    outer loop
      vertex 44.7496 32.6775 -14.9574
      vertex 88.1987 33.0027 -66.7062
      vertex 88.1504 32 -66.7467
    endloop
  endfacet
  facet normal -0.764532 0.062794 -0.64152
    outer loop
      vertex 88.1504 32 -66.7467
      vertex 44.7297 32 -15
      vertex 44.7496 32.6775 -14.9574
    endloop
  endfacet
  facet normal 0 1 -0
    outer loop
      vertex 93.894 39.9842 -61.9273
      vertex 54.8951 39.9842 -13.8874
      vertex 94.6636 39.9842 -61.2816
    endloop
  endfacet
  facet normal 0 1 0
    outer loop
      vertex 54.8951 39.9842 -13.8874
      vertex 93.894 39.9842 -61.9273
      vertex 53.5837 39.9842 -13.8874
    endloop
  endfacet
  facet normal 0.282039 0.929756 0.236659
    outer loop
      vertex 96.1725 39.6085 -60.0154
      vertex 58.8642 39.2386 -14.0999
      vertex 96.8881 39.2386 -59.415
    endloop
  endfacet
  facet normal 0.28202 0.929766 0.236643
    outer loop
      vertex 58.8642 39.2386 -14.0999
      vertex 96.1725 39.6085 -60.0154
      vertex 58.0964 39.4607 -14.0575
    endloop
  endfacet
  facet normal 0.282093 0.929729 0.236704
    outer loop
      vertex 58.0964 39.4607 -14.0575
      vertex 96.1725 39.6085 -60.0154
      vertex 57.569 39.6085 -14.0095
    endloop
  endfacet
  facet normal 0.642783 1.19123e-05 -0.766048
    outer loop
      vertex 93.1304 39.8583 -62.568
      vertex 88.5808 34.945 -66.3856
      vertex 88.9084 35.854 -66.1107
    endloop
  endfacet
  facet normal -0.0959611 -0.992123 -0.0805208
    outer loop
      vertex 93.1304 24.1417 -62.568
      vertex 52.783 24.0954 -13.9133
      vertex 52.3169 24.1417 -13.9283
    endloop
  endfacet
  facet normal -0.0959936 -0.992118 -0.0805477
    outer loop
      vertex 52.783 24.0954 -13.9133
      vertex 93.1304 24.1417 -62.568
      vertex 93.894 24.0158 -61.9273
    endloop
  endfacet
  facet normal 0.64274 0.000160098 -0.766084
    outer loop
      vertex 96.8881 24.7614 -59.415
      vertex 95.4271 24.1417 -60.6409
      vertex 98.1851 25.8359 -58.3266
    endloop
  endfacet
  facet normal -0.190407 0.968617 -0.15977
    outer loop
      vertex 92.385 39.6085 -63.1935
      vertex 51.1147 39.6085 -14.0095
      vertex 51.8811 39.7677 -13.9577
    endloop
  endfacet
  facet normal -0.190477 0.968593 -0.159829
    outer loop
      vertex 92.385 39.6085 -63.1935
      vertex 52.3169 39.8583 -13.9283
      vertex 93.1304 39.8583 -62.568
    endloop
  endfacet
  facet normal -0.19057 0.968563 -0.159905
    outer loop
      vertex 52.3169 39.8583 -13.9283
      vertex 92.385 39.6085 -63.1935
      vertex 51.8811 39.7677 -13.9577
    endloop
  endfacet
  facet normal 0.524399 0.728962 0.440023
    outer loop
      vertex 98.1851 38.1641 -58.3266
      vertex 61.7035 37.8693 -14.3611
      vertex 98.7461 37.4764 -57.8559
    endloop
  endfacet
  facet normal 0.524426 0.728929 0.440045
    outer loop
      vertex 61.7035 37.8693 -14.3611
      vertex 98.1851 38.1641 -58.3266
      vertex 61.2465 38.1641 -14.3048
    endloop
  endfacet
  facet normal 0.590271 0.637388 0.495294
    outer loop
      vertex 98.7461 37.4764 -57.8559
      vertex 62.3126 37.4764 -14.436
      vertex 62.8527 37.0408 -14.5191
    endloop
  endfacet
  facet normal -0.590254 -0.637414 -0.495282
    outer loop
      vertex 47.0869 26.5236 -14.436
      vertex 46.612 27.0399 -14.5345
      vertex 89.8114 26.5236 -65.353
    endloop
  endfacet
  facet normal -0.64678 -0.535854 -0.542712
    outer loop
      vertex 89.3208 27.2977 -65.7646
      vertex 46.1872 27.5786 -14.6373
      vertex 88.9084 28.146 -66.1107
    endloop
  endfacet
  facet normal -0.646818 -0.535774 -0.542745
    outer loop
      vertex 46.1872 27.5786 -14.6373
      vertex 89.3208 27.2977 -65.7646
      vertex 46.3749 27.2977 -14.5837
    endloop
  endfacet
  facet normal 0.728551 -0.309018 0.611327
    outer loop
      vertex 64.9765 29.5772 -14.8476
      vertex 64.7274 29.055 -14.8147
      vertex 99.9768 29.055 -56.8233
    endloop
  endfacet
  facet normal -0.450298 0.808991 -0.377844
    outer loop
      vertex 90.3724 38.1641 -64.8823
      vertex 47.9329 38.1641 -14.3048
      vertex 48.5676 38.5519 -14.2309
    endloop
  endfacet
  facet normal -0.5244 0.728962 -0.440023
    outer loop
      vertex 89.8114 37.4764 -65.353
      vertex 47.9329 38.1641 -14.3048
      vertex 90.3724 38.1641 -64.8823
    endloop
  endfacet
  facet normal -0.524362 0.729006 -0.439993
    outer loop
      vertex 47.9329 38.1641 -14.3048
      vertex 89.8114 37.4764 -65.353
      vertex 47.0869 37.4764 -14.436
    endloop
  endfacet
  facet normal 0.642818 5.63634e-05 -0.766019
    outer loop
      vertex 99.9768 34.945 -56.8233
      vertex 95.4271 39.8583 -60.6409
      vertex 98.1851 38.1641 -58.3266
    endloop
  endfacet
  facet normal 0.693138 0.425779 0.581612
    outer loop
      vertex 99.9768 34.945 -56.8233
      vertex 64.3934 35.4457 -14.7832
      vertex 64.7274 34.945 -14.8147
    endloop
  endfacet
  facet normal 0.642097 0.000303418 -0.766623
    outer loop
      vertex 100.359 30.9973 -56.5027
      vertex 100.215 30.0105 -56.6237
      vertex 100.407 32 -56.4621
    endloop
  endfacet
  facet normal 0.190477 0.968593 0.159829
    outer loop
      vertex 95.4271 39.8583 -60.6409
      vertex 57.569 39.6085 -14.0095
      vertex 96.1725 39.6085 -60.0154
    endloop
  endfacet
  facet normal 0.190476 0.968594 0.159828
    outer loop
      vertex 57.569 39.6085 -14.0095
      vertex 95.4271 39.8583 -60.6409
      vertex 56.2306 39.8583 -13.9283
    endloop
  endfacet
  facet normal -0.728534 -0.30909 -0.611311
    outer loop
      vertex 88.5808 29.055 -66.3856
      vertex 44.9528 30.0105 -14.8748
      vertex 88.3429 30.0105 -66.5852
    endloop
  endfacet
  facet normal -0.728559 -0.308984 -0.611335
    outer loop
      vertex 44.9528 30.0105 -14.8748
      vertex 88.5808 29.055 -66.3856
      vertex 45.3076 29.055 -14.8147
    endloop
  endfacet
  facet normal -0.764532 -0.062794 -0.64152
    outer loop
      vertex 44.7496 31.3225 -14.9574
      vertex 44.7297 32 -15
      vertex 88.1504 32 -66.7467
    endloop
  endfacet
  facet normal 0.642791 0 -0.766042
    outer loop
      vertex 88.5808 29.055 -66.3856
      vertex 93.1304 39.8583 -62.568
      vertex 93.1304 24.1417 -62.568
    endloop
  endfacet
  facet normal 0.642791 0 -0.766042
    outer loop
      vertex 93.1304 39.8583 -62.568
      vertex 88.5808 29.055 -66.3856
      vertex 88.5808 34.945 -66.3856
    endloop
  endfacet
  facet normal -0.752473 0.187404 -0.631399
    outer loop
      vertex 88.3429 33.9895 -66.5852
      vertex 44.822 33.3228 -14.9168
      vertex 44.9528 33.9895 -14.8748
    endloop
  endfacet
  facet normal -0.646818 0.535774 -0.542745
    outer loop
      vertex 89.3208 36.7023 -65.7646
      vertex 46.1872 36.4214 -14.6373
      vertex 46.3749 36.7023 -14.5837
    endloop
  endfacet
  facet normal -0.64678 0.535854 -0.542712
    outer loop
      vertex 46.1872 36.4214 -14.6373
      vertex 89.3208 36.7023 -65.7646
      vertex 88.9084 35.854 -66.1107
    endloop
  endfacet
  facet normal 0.642779 -2.00778e-05 -0.766052
    outer loop
      vertex 90.995 25.2454 -64.3598
      vertex 88.9084 28.146 -66.1107
      vertex 93.1304 24.1417 -62.568
    endloop
  endfacet
  facet normal -0.0960227 0.992113 -0.0805727
    outer loop
      vertex 93.894 39.9842 -61.9273
      vertex 52.783 39.9046 -13.9133
      vertex 53.5837 39.9842 -13.8874
    endloop
  endfacet
  facet normal 0.642946 -0.000184424 -0.765912
    outer loop
      vertex 90.995 38.7546 -64.3598
      vertex 88.9084 35.854 -66.1107
      vertex 90.3724 38.1641 -64.8823
    endloop
  endfacet
  facet normal 0.64278 0 -0.766051
    outer loop
      vertex 93.1304 24.1417 -62.568
      vertex 99.9768 34.945 -56.8233
      vertex 99.9768 29.055 -56.8233
    endloop
  endfacet
  facet normal 0.64278 0 -0.766051
    outer loop
      vertex 99.9768 34.945 -56.8233
      vertex 93.1304 24.1417 -62.568
      vertex 93.1304 39.8583 -62.568
    endloop
  endfacet
  facet normal 0.642783 -1.19123e-05 -0.766048
    outer loop
      vertex 88.9084 28.146 -66.1107
      vertex 88.5808 29.055 -66.3856
      vertex 93.1304 24.1417 -62.568
    endloop
  endfacet
  facet normal 0.764535 0.0627156 0.641524
    outer loop
      vertex 65.6162 32 -15
      vertex 100.359 33.0027 -56.5027
      vertex 65.481 33.0027 -14.9369
    endloop
  endfacet
  facet normal 0.764543 0.0625752 0.641528
    outer loop
      vertex 100.359 33.0027 -56.5027
      vertex 65.6162 32 -15
      vertex 100.407 32 -56.4621
    endloop
  endfacet
  facet normal 0.642707 -7.31212e-05 -0.766112
    outer loop
      vertex 99.6491 35.854 -57.0982
      vertex 98.1851 38.1641 -58.3266
      vertex 98.7461 37.4764 -57.8559
    endloop
  endfacet
  facet normal 0.369051 0.876302 0.30967
    outer loop
      vertex 96.8881 39.2386 -59.415
      vertex 60.0909 38.7546 -14.1922
      vertex 97.5625 38.7546 -58.8491
    endloop
  endfacet
  facet normal 0.36905 0.876303 0.30967
    outer loop
      vertex 60.0909 38.7546 -14.1922
      vertex 96.8881 39.2386 -59.415
      vertex 58.8642 39.2386 -14.0999
    endloop
  endfacet
  facet normal 0.6468 0.535811 0.542731
    outer loop
      vertex 99.6491 35.854 -57.0982
      vertex 63.2724 36.7023 -14.5837
      vertex 64.1109 35.854 -14.7455
    endloop
  endfacet
  facet normal 0.646801 0.535808 0.542732
    outer loop
      vertex 63.2724 36.7023 -14.5837
      vertex 99.6491 35.854 -57.0982
      vertex 99.2367 36.7023 -57.4442
    endloop
  endfacet
  facet normal 0.450255 0.809032 0.377808
    outer loop
      vertex 97.5625 38.7546 -58.8491
      vertex 61.2465 38.1641 -14.3048
      vertex 98.1851 38.1641 -58.3266
    endloop
  endfacet
  facet normal 0.45023 0.809055 0.377788
    outer loop
      vertex 61.2465 38.1641 -14.3048
      vertex 97.5625 38.7546 -58.8491
      vertex 60.0909 38.7546 -14.1922
    endloop
  endfacet
  facet normal 0.64276 5.69187e-06 -0.766068
    outer loop
      vertex 88.3429 30.0105 -66.5852
      vertex 88.1504 32 -66.7467
      vertex 88.5808 29.055 -66.3856
    endloop
  endfacet
  facet normal -0.646779 -0.535856 -0.542712
    outer loop
      vertex 46.1872 27.5786 -14.6373
      vertex 45.8079 28.146 -14.7455
      vertex 88.9084 28.146 -66.1107
    endloop
  endfacet
  facet normal 0.642534 0.000260271 -0.766257
    outer loop
      vertex 90.3724 38.1641 -64.8823
      vertex 88.9084 35.854 -66.1107
      vertex 89.3208 36.7023 -65.7646
    endloop
  endfacet
  facet normal -0.728534 0.30909 -0.611311
    outer loop
      vertex 44.9528 33.9895 -14.8748
      vertex 88.5808 34.945 -66.3856
      vertex 88.3429 33.9895 -66.5852
    endloop
  endfacet
  facet normal -0.728559 0.308984 -0.611335
    outer loop
      vertex 88.5808 34.945 -66.3856
      vertex 44.9528 33.9895 -14.8748
      vertex 45.3076 34.945 -14.8147
    endloop
  endfacet
  facet normal -0.450298 -0.808991 -0.377844
    outer loop
      vertex 48.5676 25.4481 -14.2309
      vertex 47.9329 25.8359 -14.3048
      vertex 90.3724 25.8359 -64.8823
    endloop
  endfacet
  facet normal 0.642861 0.000140888 -0.765983
    outer loop
      vertex 89.8114 26.5236 -65.353
      vertex 89.3208 27.2977 -65.7646
      vertex 90.3724 25.8359 -64.8823
    endloop
  endfacet
  facet normal 0.642853 0.000225024 -0.76599
    outer loop
      vertex 92.385 24.3915 -63.1935
      vertex 90.995 25.2454 -64.3598
      vertex 93.1304 24.1417 -62.568
    endloop
  endfacet
  facet normal -0.19057 -0.968563 -0.159905
    outer loop
      vertex 92.385 24.3915 -63.1935
      vertex 52.3169 24.1417 -13.9283
      vertex 51.8811 24.2323 -13.9577
    endloop
  endfacet
  facet normal -0.190477 -0.968593 -0.159829
    outer loop
      vertex 52.3169 24.1417 -13.9283
      vertex 92.385 24.3915 -63.1935
      vertex 93.1304 24.1417 -62.568
    endloop
  endfacet
  facet normal 0.64289 -0.000124261 -0.765959
    outer loop
      vertex 99.6491 28.146 -57.0982
      vertex 98.1851 25.8359 -58.3266
      vertex 99.9768 29.055 -56.8233
    endloop
  endfacet
  facet normal 0.642646 0.000353134 -0.766163
    outer loop
      vertex 97.5625 25.2454 -58.8491
      vertex 96.8881 24.7614 -59.415
      vertex 98.1851 25.8359 -58.3266
    endloop
  endfacet
  facet normal 0.642779 2.00778e-05 -0.766052
    outer loop
      vertex 93.1304 39.8583 -62.568
      vertex 88.9084 35.854 -66.1107
      vertex 90.995 38.7546 -64.3598
    endloop
  endfacet
  facet normal 0.642853 -0.000225024 -0.76599
    outer loop
      vertex 93.1304 39.8583 -62.568
      vertex 90.995 38.7546 -64.3598
      vertex 92.385 39.6085 -63.1935
    endloop
  endfacet
  facet normal -0.590254 0.637414 -0.495282
    outer loop
      vertex 89.8114 37.4764 -65.353
      vertex 46.612 36.9601 -14.5345
      vertex 47.0869 37.4764 -14.436
    endloop
  endfacet
  facet normal -0.282039 0.929756 -0.236659
    outer loop
      vertex 91.6694 39.2386 -63.7939
      vertex 51.1147 39.6085 -14.0095
      vertex 92.385 39.6085 -63.1935
    endloop
  endfacet
  facet normal -0.282066 0.929742 -0.236681
    outer loop
      vertex 51.1147 39.6085 -14.0095
      vertex 91.6694 39.2386 -63.7939
      vertex 50.6678 39.4607 -14.0575
    endloop
  endfacet
  facet normal -0.282034 0.929759 -0.236655
    outer loop
      vertex 50.6678 39.4607 -14.0575
      vertex 91.6694 39.2386 -63.7939
      vertex 49.9712 39.2386 -14.0999
    endloop
  endfacet
  facet normal 0.642776 -0.000100329 -0.766054
    outer loop
      vertex 95.4271 39.8583 -60.6409
      vertex 93.1304 39.8583 -62.568
      vertex 93.894 39.9842 -61.9273
    endloop
  endfacet
  facet normal -0.0959936 0.992118 -0.0805477
    outer loop
      vertex 93.1304 39.8583 -62.568
      vertex 52.783 39.9046 -13.9133
      vertex 93.894 39.9842 -61.9273
    endloop
  endfacet
  facet normal -0.0959611 0.992123 -0.0805208
    outer loop
      vertex 52.783 39.9046 -13.9133
      vertex 93.1304 39.8583 -62.568
      vertex 52.3169 39.8583 -13.9283
    endloop
  endfacet
  facet normal 0.642776 -1.05258e-05 -0.766054
    outer loop
      vertex 99.9768 34.945 -56.8233
      vertex 93.1304 39.8583 -62.568
      vertex 95.4271 39.8583 -60.6409
    endloop
  endfacet
  facet normal 0.728552 0.309002 0.611335
    outer loop
      vertex 100.215 33.9895 -56.6237
      vertex 64.9765 34.4228 -14.8476
      vertex 65.1831 33.9895 -14.8748
    endloop
  endfacet
  facet normal 0.72848 0.309297 0.611271
    outer loop
      vertex 64.9765 34.4228 -14.8476
      vertex 100.215 33.9895 -56.6237
      vertex 99.9768 34.945 -56.8233
    endloop
  endfacet
  facet normal 0.764535 -0.0627156 0.641524
    outer loop
      vertex 100.359 30.9973 -56.5027
      vertex 65.6162 32 -15
      vertex 65.481 30.9973 -14.9369
    endloop
  endfacet
  facet normal 0.764543 -0.0625752 0.641528
    outer loop
      vertex 65.6162 32 -15
      vertex 100.359 30.9973 -56.5027
      vertex 100.407 32 -56.4621
    endloop
  endfacet
  facet normal 0.642646 -0.000353134 -0.766163
    outer loop
      vertex 98.1851 38.1641 -58.3266
      vertex 96.8881 39.2386 -59.415
      vertex 97.5625 38.7546 -58.8491
    endloop
  endfacet
  facet normal -0.752473 -0.187404 -0.631399
    outer loop
      vertex 44.9528 30.0105 -14.8748
      vertex 44.822 30.6772 -14.9168
      vertex 88.3429 30.0105 -66.5852
    endloop
  endfacet
  facet normal -0.752476 -0.18738 -0.631402
    outer loop
      vertex 88.3429 30.0105 -66.5852
      vertex 44.7591 30.9973 -14.9369
      vertex 88.1987 30.9973 -66.7062
    endloop
  endfacet
  facet normal -0.752459 -0.187505 -0.631385
    outer loop
      vertex 44.7591 30.9973 -14.9369
      vertex 88.3429 30.0105 -66.5852
      vertex 44.822 30.6772 -14.9168
    endloop
  endfacet
  facet normal -0.693162 -0.42571 -0.581633
    outer loop
      vertex 88.9084 28.146 -66.1107
      vertex 45.3076 29.055 -14.8147
      vertex 88.5808 29.055 -66.3856
    endloop
  endfacet
  facet normal -0.693136 -0.425786 -0.581609
    outer loop
      vertex 45.3076 29.055 -14.8147
      vertex 88.9084 28.146 -66.1107
      vertex 45.7652 28.24 -14.7634
    endloop
  endfacet
  facet normal -0.693186 -0.425645 -0.581652
    outer loop
      vertex 45.7652 28.24 -14.7634
      vertex 88.9084 28.146 -66.1107
      vertex 45.8079 28.146 -14.7455
    endloop
  endfacet
  facet normal 0.642927 -3.31889e-05 -0.765928
    outer loop
      vertex 88.3429 33.9895 -66.5852
      vertex 88.1504 32 -66.7467
      vertex 88.1987 33.0027 -66.7062
    endloop
  endfacet
  facet normal -0.752476 0.18738 -0.631402
    outer loop
      vertex 44.7591 33.0027 -14.9369
      vertex 88.3429 33.9895 -66.5852
      vertex 88.1987 33.0027 -66.7062
    endloop
  endfacet
  facet normal -0.752459 0.187505 -0.631385
    outer loop
      vertex 88.3429 33.9895 -66.5852
      vertex 44.7591 33.0027 -14.9369
      vertex 44.822 33.3228 -14.9168
    endloop
  endfacet
  facet normal 0.642946 0.000184424 -0.765912
    outer loop
      vertex 90.3724 25.8359 -64.8823
      vertex 88.9084 28.146 -66.1107
      vertex 90.995 25.2454 -64.3598
    endloop
  endfacet
  facet normal -0.190407 -0.968617 -0.15977
    outer loop
      vertex 51.8811 24.2323 -13.9577
      vertex 51.1147 24.3915 -14.0095
      vertex 92.385 24.3915 -63.1935
    endloop
  endfacet
  facet normal 0.642534 -0.000260271 -0.766257
    outer loop
      vertex 89.3208 27.2977 -65.7646
      vertex 88.9084 28.146 -66.1107
      vertex 90.3724 25.8359 -64.8823
    endloop
  endfacet
  facet normal -0.590266 -0.637395 -0.495292
    outer loop
      vertex 89.3208 27.2977 -65.7646
      vertex 46.612 27.0399 -14.5345
      vertex 46.3749 27.2977 -14.5837
    endloop
  endfacet
  facet normal -0.590247 -0.637425 -0.495276
    outer loop
      vertex 46.612 27.0399 -14.5345
      vertex 89.3208 27.2977 -65.7646
      vertex 89.8114 26.5236 -65.353
    endloop
  endfacet
  facet normal -0.450209 -0.809074 -0.377772
    outer loop
      vertex 90.3724 25.8359 -64.8823
      vertex 48.8994 25.2454 -14.1922
      vertex 48.5676 25.4481 -14.2309
    endloop
  endfacet
  facet normal -0.450254 -0.809032 -0.377808
    outer loop
      vertex 48.8994 25.2454 -14.1922
      vertex 90.3724 25.8359 -64.8823
      vertex 90.995 25.2454 -64.3598
    endloop
  endfacet
  facet normal -0.524362 -0.729006 -0.439993
    outer loop
      vertex 89.8114 26.5236 -65.353
      vertex 47.9329 25.8359 -14.3048
      vertex 47.0869 26.5236 -14.436
    endloop
  endfacet
  facet normal -0.5244 -0.728962 -0.440023
    outer loop
      vertex 47.9329 25.8359 -14.3048
      vertex 89.8114 26.5236 -65.353
      vertex 90.3724 25.8359 -64.8823
    endloop
  endfacet
  facet normal -0.369061 -0.876295 -0.309679
    outer loop
      vertex 90.995 25.2454 -64.3598
      vertex 49.2716 25.0773 -14.1601
      vertex 48.8994 25.2454 -14.1922
    endloop
  endfacet
  facet normal -0.369051 -0.876302 -0.30967
    outer loop
      vertex 49.2716 25.0773 -14.1601
      vertex 90.995 25.2454 -64.3598
      vertex 91.6694 24.7614 -63.7939
    endloop
  endfacet
  facet normal 0.642634 -0.000381782 -0.766173
    outer loop
      vertex 91.6694 24.7614 -63.7939
      vertex 90.995 25.2454 -64.3598
      vertex 92.385 24.3915 -63.1935
    endloop
  endfacet
  facet normal 0.728552 -0.309002 0.611335
    outer loop
      vertex 64.9765 29.5772 -14.8476
      vertex 100.215 30.0105 -56.6237
      vertex 65.1831 30.0105 -14.8748
    endloop
  endfacet
  facet normal 0.72848 -0.309297 0.611271
    outer loop
      vertex 100.215 30.0105 -56.6237
      vertex 64.9765 29.5772 -14.8476
      vertex 99.9768 29.055 -56.8233
    endloop
  endfacet
  facet normal 0.45023 -0.809055 0.377788
    outer loop
      vertex 97.5625 25.2454 -58.8491
      vertex 61.2465 25.8359 -14.3048
      vertex 60.0909 25.2454 -14.1922
    endloop
  endfacet
  facet normal 0.450255 -0.809032 0.377808
    outer loop
      vertex 61.2465 25.8359 -14.3048
      vertex 97.5625 25.2454 -58.8491
      vertex 98.1851 25.8359 -58.3266
    endloop
  endfacet
  facet normal 0.642776 1.05258e-05 -0.766054
    outer loop
      vertex 95.4271 24.1417 -60.6409
      vertex 93.1304 24.1417 -62.568
      vertex 99.9768 29.055 -56.8233
    endloop
  endfacet
  facet normal 0.642818 -5.63634e-05 -0.766019
    outer loop
      vertex 98.1851 25.8359 -58.3266
      vertex 95.4271 24.1417 -60.6409
      vertex 99.9768 29.055 -56.8233
    endloop
  endfacet
  facet normal 0.590288 -0.637362 0.495308
    outer loop
      vertex 98.7461 26.5236 -57.8559
      vertex 63.2724 27.2977 -14.5837
      vertex 62.8527 26.9592 -14.5191
    endloop
  endfacet
  facet normal 0.590222 -0.637463 0.495256
    outer loop
      vertex 63.2724 27.2977 -14.5837
      vertex 98.7461 26.5236 -57.8559
      vertex 99.2367 27.2977 -57.4442
    endloop
  endfacet
  facet normal 0.642707 7.31212e-05 -0.766112
    outer loop
      vertex 98.7461 26.5236 -57.8559
      vertex 98.1851 25.8359 -58.3266
      vertex 99.6491 28.146 -57.0982
    endloop
  endfacet
  facet normal 0.642776 0.000100329 -0.766054
    outer loop
      vertex 93.894 24.0158 -61.9273
      vertex 93.1304 24.1417 -62.568
      vertex 95.4271 24.1417 -60.6409
    endloop
  endfacet
  facet normal -0.369044 0.876307 -0.309665
    outer loop
      vertex 91.6694 39.2386 -63.7939
      vertex 49.2716 38.9227 -14.1601
      vertex 49.9712 39.2386 -14.0999
    endloop
  endfacet
  facet normal 0.642861 -0.000140888 -0.765983
    outer loop
      vertex 90.3724 38.1641 -64.8823
      vertex 89.3208 36.7023 -65.7646
      vertex 89.8114 37.4764 -65.353
    endloop
  endfacet
  facet normal -0.590247 0.637425 -0.495276
    outer loop
      vertex 89.3208 36.7023 -65.7646
      vertex 46.612 36.9601 -14.5345
      vertex 89.8114 37.4764 -65.353
    endloop
  endfacet
  facet normal -0.590266 0.637395 -0.495292
    outer loop
      vertex 46.612 36.9601 -14.5345
      vertex 89.3208 36.7023 -65.7646
      vertex 46.3749 36.7023 -14.5837
    endloop
  endfacet
  facet normal 0.642634 0.000381782 -0.766173
    outer loop
      vertex 92.385 39.6085 -63.1935
      vertex 90.995 38.7546 -64.3598
      vertex 91.6694 39.2386 -63.7939
    endloop
  endfacet
  facet normal 0.0960006 0.992116 0.080554
    outer loop
      vertex 94.6636 39.9842 -61.2816
      vertex 56.2306 39.8583 -13.9283
      vertex 95.4271 39.8583 -60.6409
    endloop
  endfacet
  facet normal 0.0959955 0.992117 0.0805499
    outer loop
      vertex 56.2306 39.8583 -13.9283
      vertex 94.6636 39.9842 -61.2816
      vertex 54.8951 39.9842 -13.8874
    endloop
  endfacet
  facet normal 0.642746 -0.000717671 -0.766079
    outer loop
      vertex 95.4271 39.8583 -60.6409
      vertex 93.894 39.9842 -61.9273
      vertex 94.6636 39.9842 -61.2816
    endloop
  endfacet
  facet normal 0.642271 0 -0.766478
    outer loop
      vertex 99.9768 29.055 -56.8233
      vertex 100.215 33.9895 -56.6237
      vertex 100.215 30.0105 -56.6237
    endloop
  endfacet
  facet normal 0.642271 0 -0.766478
    outer loop
      vertex 100.215 33.9895 -56.6237
      vertex 99.9768 29.055 -56.8233
      vertex 99.9768 34.945 -56.8233
    endloop
  endfacet
  facet normal 0.643939 0 -0.765077
    outer loop
      vertex 100.407 32 -56.4621
      vertex 100.215 30.0105 -56.6237
      vertex 100.215 33.9895 -56.6237
    endloop
  endfacet
  facet normal 0.692845 0.42662 0.581345
    outer loop
      vertex 99.9768 34.945 -56.8233
      vertex 64.1109 35.854 -14.7455
      vertex 64.1838 35.76 -14.7634
    endloop
  endfacet
  facet normal 0.69319 0.425631 0.581658
    outer loop
      vertex 99.9768 34.945 -56.8233
      vertex 64.1838 35.76 -14.7634
      vertex 64.3934 35.4457 -14.7832
    endloop
  endfacet
  facet normal 0.69314 0.425773 0.581614
    outer loop
      vertex 64.1109 35.854 -14.7455
      vertex 99.9768 34.945 -56.8233
      vertex 99.6491 35.854 -57.0982
    endloop
  endfacet
  facet normal 0.728551 0.309018 0.611327
    outer loop
      vertex 99.9768 34.945 -56.8233
      vertex 64.7274 34.945 -14.8147
      vertex 64.9765 34.4228 -14.8476
    endloop
  endfacet
  facet normal 0.524356 0.729016 0.439985
    outer loop
      vertex 98.7461 37.4764 -57.8559
      vertex 61.7035 37.8693 -14.3611
      vertex 62.3126 37.4764 -14.436
    endloop
  endfacet
  facet normal 0.64289 0.000124261 -0.765959
    outer loop
      vertex 99.9768 34.945 -56.8233
      vertex 98.1851 38.1641 -58.3266
      vertex 99.6491 35.854 -57.0982
    endloop
  endfacet
  facet normal -0.764535 -0.0627393 -0.641521
    outer loop
      vertex 88.1987 30.9973 -66.7062
      vertex 44.7496 31.3225 -14.9574
      vertex 88.1504 32 -66.7467
    endloop
  endfacet
  facet normal -0.764534 -0.0627744 -0.64152
    outer loop
      vertex 44.7496 31.3225 -14.9574
      vertex 88.1987 30.9973 -66.7062
      vertex 44.7591 30.9973 -14.9369
    endloop
  endfacet
  facet normal 0.642927 3.31889e-05 -0.765928
    outer loop
      vertex 88.1987 30.9973 -66.7062
      vertex 88.1504 32 -66.7467
      vertex 88.3429 30.0105 -66.5852
    endloop
  endfacet
  facet normal -0.693186 0.425645 -0.581652
    outer loop
      vertex 88.9084 35.854 -66.1107
      vertex 45.7652 35.76 -14.7634
      vertex 45.8079 35.854 -14.7455
    endloop
  endfacet
  facet normal -0.693162 0.42571 -0.581633
    outer loop
      vertex 45.3076 34.945 -14.8147
      vertex 88.9084 35.854 -66.1107
      vertex 88.5808 34.945 -66.3856
    endloop
  endfacet
  facet normal -0.693136 0.425786 -0.581609
    outer loop
      vertex 88.9084 35.854 -66.1107
      vertex 45.3076 34.945 -14.8147
      vertex 45.7652 35.76 -14.7634
    endloop
  endfacet
  facet normal -0.646779 0.535856 -0.542712
    outer loop
      vertex 88.9084 35.854 -66.1107
      vertex 45.8079 35.854 -14.7455
      vertex 46.1872 36.4214 -14.6373
    endloop
  endfacet
  facet normal -0.369044 -0.876307 -0.309665
    outer loop
      vertex 49.9712 24.7614 -14.0999
      vertex 49.2716 25.0773 -14.1601
      vertex 91.6694 24.7614 -63.7939
    endloop
  endfacet
  facet normal 0.693138 -0.425779 0.581612
    outer loop
      vertex 64.7274 29.055 -14.8147
      vertex 64.3934 28.5543 -14.7832
      vertex 99.9768 29.055 -56.8233
    endloop
  endfacet
  facet normal 0.28202 -0.929766 0.236643
    outer loop
      vertex 96.1725 24.3915 -60.0154
      vertex 58.8642 24.7614 -14.0999
      vertex 58.0964 24.5393 -14.0575
    endloop
  endfacet
  facet normal 0.282093 -0.929729 0.236704
    outer loop
      vertex 96.1725 24.3915 -60.0154
      vertex 58.0964 24.5393 -14.0575
      vertex 57.569 24.3915 -14.0095
    endloop
  endfacet
  facet normal 0.282039 -0.929756 0.236659
    outer loop
      vertex 58.8642 24.7614 -14.0999
      vertex 96.1725 24.3915 -60.0154
      vertex 96.8881 24.7614 -59.415
    endloop
  endfacet
  facet normal -0.0960227 -0.992113 -0.0805727
    outer loop
      vertex 53.5837 24.0158 -13.8874
      vertex 52.783 24.0954 -13.9133
      vertex 93.894 24.0158 -61.9273
    endloop
  endfacet
  facet normal 0 -1 0
    outer loop
      vertex 93.894 24.0158 -61.9273
      vertex 54.8951 24.0158 -13.8874
      vertex 53.5837 24.0158 -13.8874
    endloop
  endfacet
  facet normal 0 -1 0
    outer loop
      vertex 54.8951 24.0158 -13.8874
      vertex 93.894 24.0158 -61.9273
      vertex 94.6636 24.0158 -61.2816
    endloop
  endfacet
  facet normal 0.524356 -0.729016 0.439985
    outer loop
      vertex 62.3126 26.5236 -14.436
      vertex 61.7035 26.1307 -14.3611
      vertex 98.7461 26.5236 -57.8559
    endloop
  endfacet
  facet normal 0.590271 -0.637388 0.495294
    outer loop
      vertex 62.8527 26.9592 -14.5191
      vertex 62.3126 26.5236 -14.436
      vertex 98.7461 26.5236 -57.8559
    endloop
  endfacet
  facet normal 0.524426 -0.728929 0.440045
    outer loop
      vertex 98.1851 25.8359 -58.3266
      vertex 61.7035 26.1307 -14.3611
      vertex 61.2465 25.8359 -14.3048
    endloop
  endfacet
  facet normal 0.524399 -0.728962 0.440023
    outer loop
      vertex 61.7035 26.1307 -14.3611
      vertex 98.1851 25.8359 -58.3266
      vertex 98.7461 26.5236 -57.8559
    endloop
  endfacet
  facet normal 0.69319 -0.425631 0.581658
    outer loop
      vertex 64.1838 28.24 -14.7634
      vertex 99.9768 29.055 -56.8233
      vertex 64.3934 28.5543 -14.7832
    endloop
  endfacet
  facet normal 0.692845 -0.42662 0.581345
    outer loop
      vertex 64.1109 28.146 -14.7455
      vertex 99.9768 29.055 -56.8233
      vertex 64.1838 28.24 -14.7634
    endloop
  endfacet
  facet normal 0.69314 -0.425773 0.581614
    outer loop
      vertex 99.9768 29.055 -56.8233
      vertex 64.1109 28.146 -14.7455
      vertex 99.6491 28.146 -57.0982
    endloop
  endfacet
  facet normal 0.6468 -0.535811 0.542731
    outer loop
      vertex 63.2724 27.2977 -14.5837
      vertex 99.6491 28.146 -57.0982
      vertex 64.1109 28.146 -14.7455
    endloop
  endfacet
  facet normal 0.646801 -0.535808 0.542732
    outer loop
      vertex 99.6491 28.146 -57.0982
      vertex 63.2724 27.2977 -14.5837
      vertex 99.2367 27.2977 -57.4442
    endloop
  endfacet
  facet normal 0.642917 -0.000550084 -0.765936
    outer loop
      vertex 96.1725 24.3915 -60.0154
      vertex 95.4271 24.1417 -60.6409
      vertex 96.8881 24.7614 -59.415
    endloop
  endfacet
  facet normal -0.369051 0.876302 -0.30967
    outer loop
      vertex 90.995 38.7546 -64.3598
      vertex 49.2716 38.9227 -14.1601
      vertex 91.6694 39.2386 -63.7939
    endloop
  endfacet
  facet normal -0.369061 0.876295 -0.309679
    outer loop
      vertex 49.2716 38.9227 -14.1601
      vertex 90.995 38.7546 -64.3598
      vertex 48.8994 38.7546 -14.1922
    endloop
  endfacet
  facet normal -0.450254 0.809032 -0.377808
    outer loop
      vertex 90.3724 38.1641 -64.8823
      vertex 48.8994 38.7546 -14.1922
      vertex 90.995 38.7546 -64.3598
    endloop
  endfacet
  facet normal -0.450209 0.809074 -0.377772
    outer loop
      vertex 48.8994 38.7546 -14.1922
      vertex 90.3724 38.1641 -64.8823
      vertex 48.5676 38.5519 -14.2309
    endloop
  endfacet
  facet normal 0.752468 -0.187424 0.631398
    outer loop
      vertex 65.1831 30.0105 -14.8748
      vertex 100.359 30.9973 -56.5027
      vertex 65.481 30.9973 -14.9369
    endloop
  endfacet
  facet normal 0.752494 -0.187233 0.631425
    outer loop
      vertex 100.359 30.9973 -56.5027
      vertex 65.1831 30.0105 -14.8748
      vertex 100.215 30.0105 -56.6237
    endloop
  endfacet
  facet normal 0.752468 0.187424 0.631398
    outer loop
      vertex 100.359 33.0027 -56.5027
      vertex 65.1831 33.9895 -14.8748
      vertex 65.481 33.0027 -14.9369
    endloop
  endfacet
  facet normal 0.752494 0.187233 0.631425
    outer loop
      vertex 65.1831 33.9895 -14.8748
      vertex 100.359 33.0027 -56.5027
      vertex 100.215 33.9895 -56.6237
    endloop
  endfacet
  facet normal 0.642097 -0.000303418 -0.766623
    outer loop
      vertex 100.407 32 -56.4621
      vertex 100.215 33.9895 -56.6237
      vertex 100.359 33.0027 -56.5027
    endloop
  endfacet
  facet normal 0.64274 -0.000160098 -0.766084
    outer loop
      vertex 98.1851 38.1641 -58.3266
      vertex 95.4271 39.8583 -60.6409
      vertex 96.8881 39.2386 -59.415
    endloop
  endfacet
  facet normal 0.642917 0.000550084 -0.765936
    outer loop
      vertex 96.8881 39.2386 -59.415
      vertex 95.4271 39.8583 -60.6409
      vertex 96.1725 39.6085 -60.0154
    endloop
  endfacet
  facet normal 0.590222 0.637463 0.495256
    outer loop
      vertex 98.7461 37.4764 -57.8559
      vertex 63.2724 36.7023 -14.5837
      vertex 99.2367 36.7023 -57.4442
    endloop
  endfacet
  facet normal 0.590288 0.637362 0.495308
    outer loop
      vertex 63.2724 36.7023 -14.5837
      vertex 98.7461 37.4764 -57.8559
      vertex 62.8527 37.0408 -14.5191
    endloop
  endfacet
  facet normal 0.643096 0.000296085 -0.765785
    outer loop
      vertex 99.6491 35.854 -57.0982
      vertex 98.7461 37.4764 -57.8559
      vertex 99.2367 36.7023 -57.4442
    endloop
  endfacet
  facet normal 0.642737 0 -0.766087
    outer loop
      vertex 88.5808 29.055 -66.3856
      vertex 88.1504 32 -66.7467
      vertex 88.5808 34.945 -66.3856
    endloop
  endfacet
  facet normal 0.64276 -5.69187e-06 -0.766068
    outer loop
      vertex 88.5808 34.945 -66.3856
      vertex 88.1504 32 -66.7467
      vertex 88.3429 33.9895 -66.5852
    endloop
  endfacet
  facet normal -0.282066 -0.929742 -0.236681
    outer loop
      vertex 91.6694 24.7614 -63.7939
      vertex 51.1147 24.3915 -14.0095
      vertex 50.6678 24.5393 -14.0575
    endloop
  endfacet
  facet normal -0.282034 -0.929759 -0.236655
    outer loop
      vertex 91.6694 24.7614 -63.7939
      vertex 50.6678 24.5393 -14.0575
      vertex 49.9712 24.7614 -14.0999
    endloop
  endfacet
  facet normal -0.282039 -0.929756 -0.236659
    outer loop
      vertex 51.1147 24.3915 -14.0095
      vertex 91.6694 24.7614 -63.7939
      vertex 92.385 24.3915 -63.1935
    endloop
  endfacet
  facet normal 0.36905 -0.876303 0.30967
    outer loop
      vertex 96.8881 24.7614 -59.415
      vertex 60.0909 25.2454 -14.1922
      vertex 58.8642 24.7614 -14.0999
    endloop
  endfacet
  facet normal 0.369051 -0.876302 0.30967
    outer loop
      vertex 60.0909 25.2454 -14.1922
      vertex 96.8881 24.7614 -59.415
      vertex 97.5625 25.2454 -58.8491
    endloop
  endfacet
  facet normal 0.643096 -0.000296085 -0.765785
    outer loop
      vertex 99.2367 27.2977 -57.4442
      vertex 98.7461 26.5236 -57.8559
      vertex 99.6491 28.146 -57.0982
    endloop
  endfacet
  facet normal 0.190476 -0.968594 0.159828
    outer loop
      vertex 95.4271 24.1417 -60.6409
      vertex 57.569 24.3915 -14.0095
      vertex 56.2306 24.1417 -13.9283
    endloop
  endfacet
  facet normal 0.190477 -0.968593 0.159829
    outer loop
      vertex 57.569 24.3915 -14.0095
      vertex 95.4271 24.1417 -60.6409
      vertex 96.1725 24.3915 -60.0154
    endloop
  endfacet
  facet normal 0.642746 0.000717671 -0.766079
    outer loop
      vertex 94.6636 24.0158 -61.2816
      vertex 93.894 24.0158 -61.9273
      vertex 95.4271 24.1417 -60.6409
    endloop
  endfacet
  facet normal 0.0959955 -0.992117 0.0805499
    outer loop
      vertex 94.6636 24.0158 -61.2816
      vertex 56.2306 24.1417 -13.9283
      vertex 54.8951 24.0158 -13.8874
    endloop
  endfacet
  facet normal 0.0960006 -0.992116 0.080554
    outer loop
      vertex 56.2306 24.1417 -13.9283
      vertex 94.6636 24.0158 -61.2816
      vertex 95.4271 24.1417 -60.6409
    endloop
  endfacet
  facet normal -0.707107 2.16931e-15 -0.707107
    outer loop
      vertex 9.12272 55.1154 -4.12272
      vertex 5 57.9207 0
      vertex 6.0748 57.3298 -1.0748
    endloop
  endfacet
  facet normal -0.70712 -3.98234e-05 -0.707093
    outer loop
      vertex 11.8691 52.5364 -6.86906
      vertex 5 57.9207 0
      vertex 9.12272 55.1154 -4.12272
    endloop
  endfacet
  facet normal -0.707087 4.43367e-05 -0.707126
    outer loop
      vertex 14.2705 49.6336 -9.27051
      vertex 5 57.9207 0
      vertex 11.8691 52.5364 -6.86906
    endloop
  endfacet
  facet normal -0.70711 -6.25584e-06 -0.707104
    outer loop
      vertex 16.2892 46.4526 -11.2892
      vertex 5 57.9207 0
      vertex 14.2705 49.6336 -9.27051
    endloop
  endfacet
  facet normal -0.707107 8.7541e-16 -0.707107
    outer loop
      vertex 17.8933 43.0437 -12.8933
      vertex 5 57.9207 0
      vertex 16.2892 46.4526 -11.2892
    endloop
  endfacet
  facet normal -0.707107 -5.21971e-16 -0.707107
    outer loop
      vertex 19.0575 39.4607 -14.0575
      vertex 5 57.9207 0
      vertex 17.8933 43.0437 -12.8933
    endloop
  endfacet
  facet normal -0.707107 4.50995e-16 -0.707107
    outer loop
      vertex 19.7634 35.76 -14.7634
      vertex 5 57.9207 0
      vertex 19.0575 39.4607 -14.0575
    endloop
  endfacet
  facet normal -0.707107 0 -0.707107
    outer loop
      vertex 20 32 -15
      vertex 5 57.9207 0
      vertex 19.7634 35.76 -14.7634
    endloop
  endfacet
  facet normal -0.707107 0 -0.707107
    outer loop
      vertex 19.7634 28.24 -14.7634
      vertex 5 57.9207 0
      vertex 20 32 -15
    endloop
  endfacet
  facet normal -0.707107 -2.32648e-16 -0.707107
    outer loop
      vertex 19.0575 24.5393 -14.0575
      vertex 5 57.9207 0
      vertex 19.7634 28.24 -14.7634
    endloop
  endfacet
  facet normal -0.707107 1.82997e-16 -0.707107
    outer loop
      vertex 17.8933 20.9563 -12.8933
      vertex 5 57.9207 0
      vertex 19.0575 24.5393 -14.0575
    endloop
  endfacet
  facet normal -0.707107 -1.45989e-16 -0.707107
    outer loop
      vertex 16.2892 17.5474 -11.2892
      vertex 5 57.9207 0
      vertex 17.8933 20.9563 -12.8933
    endloop
  endfacet
  facet normal -0.707106 6.79883e-07 -0.707108
    outer loop
      vertex 14.2705 14.3664 -9.27051
      vertex 5 57.9207 0
      vertex 16.2892 17.5474 -11.2892
    endloop
  endfacet
  facet normal -0.707113 -2.3633e-06 -0.707101
    outer loop
      vertex 11.8691 11.4636 -6.86906
      vertex 5 57.9207 0
      vertex 14.2705 14.3664 -9.27051
    endloop
  endfacet
  facet normal -0.707102 8.02515e-07 -0.707112
    outer loop
      vertex 9.12272 8.8846 -4.12272
      vertex 5 57.9207 0
      vertex 11.8691 11.4636 -6.86906
    endloop
  endfacet
  facet normal -0.707107 0 -0.707107
    outer loop
      vertex 5 6.07929 0
      vertex 9.12272 8.8846 -4.12272
      vertex 6.0748 6.67016 -1.0748
    endloop
  endfacet
  facet normal -0.707107 0 -0.707107
    outer loop
      vertex 9.12272 8.8846 -4.12272
      vertex 5 6.07929 0
      vertex 5 57.9207 0
    endloop
  endfacet
  facet normal 0 0 1
    outer loop
      vertex 67 57.9207 0
      vertex 31 32 0
      vertex 67 6.07929 0
    endloop
  endfacet
  facet normal 0 0 1
    outer loop
      vertex 67 57.9207 0
      vertex 30.9803 32.3133 0
      vertex 31 32 0
    endloop
  endfacet
  facet normal 0 0 1
    outer loop
      vertex 67 57.9207 0
      vertex 30.9215 32.6217 0
      vertex 30.9803 32.3133 0
    endloop
  endfacet
  facet normal 0 0 1
    outer loop
      vertex 67 57.9207 0
      vertex 30.8244 32.9203 0
      vertex 30.9215 32.6217 0
    endloop
  endfacet
  facet normal 0 0 1
    outer loop
      vertex 67 57.9207 0
      vertex 30.6908 33.2044 0
      vertex 30.8244 32.9203 0
    endloop
  endfacet
  facet normal 0 0 1
    outer loop
      vertex 67 57.9207 0
      vertex 30.5225 33.4695 0
      vertex 30.6908 33.2044 0
    endloop
  endfacet
  facet normal 0 0 1
    outer loop
      vertex 67 57.9207 0
      vertex 30.3224 33.7114 0
      vertex 30.5225 33.4695 0
    endloop
  endfacet
  facet normal 0 0 1
    outer loop
      vertex 67 57.9207 0
      vertex 30.0936 33.9263 0
      vertex 30.3224 33.7114 0
    endloop
  endfacet
  facet normal 0 0 1
    outer loop
      vertex 67 57.9207 0
      vertex 29.8396 34.1108 0
      vertex 30.0936 33.9263 0
    endloop
  endfacet
  facet normal 0 0 1
    outer loop
      vertex 67 57.9207 0
      vertex 29.5644 34.2621 0
      vertex 29.8396 34.1108 0
    endloop
  endfacet
  facet normal 0 0 1
    outer loop
      vertex 67 57.9207 0
      vertex 29.2725 34.3776 0
      vertex 29.5644 34.2621 0
    endloop
  endfacet
  facet normal 0 0 1
    outer loop
      vertex 67 57.9207 0
      vertex 28.9685 34.4557 0
      vertex 29.2725 34.3776 0
    endloop
  endfacet
  facet normal -0 0 1
    outer loop
      vertex 5 57.9207 0
      vertex 28.9685 34.4557 0
      vertex 67 57.9207 0
    endloop
  endfacet
  facet normal 0 0 1
    outer loop
      vertex 28.9685 34.4557 0
      vertex 5 57.9207 0
      vertex 28.657 34.4951 0
    endloop
  endfacet
  facet normal 0 0 1
    outer loop
      vertex 28.657 34.4951 0
      vertex 5 57.9207 0
      vertex 28.343 34.4951 0
    endloop
  endfacet
  facet normal 0 0 1
    outer loop
      vertex 28.343 34.4951 0
      vertex 5 57.9207 0
      vertex 28.0315 34.4557 0
    endloop
  endfacet
  facet normal 0 0 1
    outer loop
      vertex 28.0315 34.4557 0
      vertex 5 57.9207 0
      vertex 27.7275 34.3776 0
    endloop
  endfacet
  facet normal 0 0 1
    outer loop
      vertex 27.7275 34.3776 0
      vertex 5 57.9207 0
      vertex 27.4356 34.2621 0
    endloop
  endfacet
  facet normal 0 0 1
    outer loop
      vertex 26.0197 32.3133 0
      vertex 5 57.9207 0
      vertex 26 32 0
    endloop
  endfacet
  facet normal 0 0 1
    outer loop
      vertex 26.0785 32.6217 0
      vertex 5 57.9207 0
      vertex 26.0197 32.3133 0
    endloop
  endfacet
  facet normal 0 0 1
    outer loop
      vertex 26.1756 32.9203 0
      vertex 5 57.9207 0
      vertex 26.0785 32.6217 0
    endloop
  endfacet
  facet normal 0 0 1
    outer loop
      vertex 26.3092 33.2044 0
      vertex 5 57.9207 0
      vertex 26.1756 32.9203 0
    endloop
  endfacet
  facet normal 0 0 1
    outer loop
      vertex 26.4775 33.4695 0
      vertex 5 57.9207 0
      vertex 26.3092 33.2044 0
    endloop
  endfacet
  facet normal 0 0 1
    outer loop
      vertex 26.6776 33.7114 0
      vertex 5 57.9207 0
      vertex 26.4775 33.4695 0
    endloop
  endfacet
  facet normal 0 0 1
    outer loop
      vertex 26.9064 33.9263 0
      vertex 5 57.9207 0
      vertex 26.6776 33.7114 0
    endloop
  endfacet
  facet normal 0 0 1
    outer loop
      vertex 27.1604 34.1108 0
      vertex 5 57.9207 0
      vertex 26.9064 33.9263 0
    endloop
  endfacet
  facet normal 0 0 1
    outer loop
      vertex 27.4356 34.2621 0
      vertex 5 57.9207 0
      vertex 27.1604 34.1108 0
    endloop
  endfacet
  facet normal -0 0 1
    outer loop
      vertex 30.9803 31.6867 0
      vertex 67 6.07929 0
      vertex 31 32 0
    endloop
  endfacet
  facet normal -0 0 1
    outer loop
      vertex 30.9215 31.3783 0
      vertex 67 6.07929 0
      vertex 30.9803 31.6867 0
    endloop
  endfacet
  facet normal -0 0 1
    outer loop
      vertex 30.8244 31.0797 0
      vertex 67 6.07929 0
      vertex 30.9215 31.3783 0
    endloop
  endfacet
  facet normal -0 0 1
    outer loop
      vertex 30.6908 30.7956 0
      vertex 67 6.07929 0
      vertex 30.8244 31.0797 0
    endloop
  endfacet
  facet normal -0 0 1
    outer loop
      vertex 30.5225 30.5305 0
      vertex 67 6.07929 0
      vertex 30.6908 30.7956 0
    endloop
  endfacet
  facet normal -0 0 1
    outer loop
      vertex 30.3224 30.2886 0
      vertex 67 6.07929 0
      vertex 30.5225 30.5305 0
    endloop
  endfacet
  facet normal -0 0 1
    outer loop
      vertex 30.0936 30.0737 0
      vertex 67 6.07929 0
      vertex 30.3224 30.2886 0
    endloop
  endfacet
  facet normal -0 0 1
    outer loop
      vertex 29.8396 29.8892 0
      vertex 67 6.07929 0
      vertex 30.0936 30.0737 0
    endloop
  endfacet
  facet normal -0 0 1
    outer loop
      vertex 29.5644 29.7379 0
      vertex 67 6.07929 0
      vertex 29.8396 29.8892 0
    endloop
  endfacet
  facet normal -0 0 1
    outer loop
      vertex 29.2725 29.6224 0
      vertex 67 6.07929 0
      vertex 29.5644 29.7379 0
    endloop
  endfacet
  facet normal -0 0 1
    outer loop
      vertex 28.9685 29.5443 0
      vertex 67 6.07929 0
      vertex 29.2725 29.6224 0
    endloop
  endfacet
  facet normal 0 0 1
    outer loop
      vertex 5 6.07929 0
      vertex 28.9685 29.5443 0
      vertex 28.657 29.5049 0
    endloop
  endfacet
  facet normal 0 0 1
    outer loop
      vertex 5 6.07929 0
      vertex 28.657 29.5049 0
      vertex 28.343 29.5049 0
    endloop
  endfacet
  facet normal 0 0 1
    outer loop
      vertex 5 6.07929 0
      vertex 28.343 29.5049 0
      vertex 28.0315 29.5443 0
    endloop
  endfacet
  facet normal 0 0 1
    outer loop
      vertex 5 6.07929 0
      vertex 28.0315 29.5443 0
      vertex 27.7275 29.6224 0
    endloop
  endfacet
  facet normal 0 0 1
    outer loop
      vertex 5 6.07929 0
      vertex 27.7275 29.6224 0
      vertex 27.4356 29.7379 0
    endloop
  endfacet
  facet normal 0 0 1
    outer loop
      vertex 5 6.07929 0
      vertex 27.4356 29.7379 0
      vertex 27.1604 29.8892 0
    endloop
  endfacet
  facet normal 0 0 1
    outer loop
      vertex 5 6.07929 0
      vertex 26 32 0
      vertex 5 57.9207 0
    endloop
  endfacet
  facet normal 0 0 1
    outer loop
      vertex 26 32 0
      vertex 5 6.07929 0
      vertex 26.0197 31.6867 0
    endloop
  endfacet
  facet normal 0 0 1
    outer loop
      vertex 26.0197 31.6867 0
      vertex 5 6.07929 0
      vertex 26.0785 31.3783 0
    endloop
  endfacet
  facet normal 0 0 1
    outer loop
      vertex 26.0785 31.3783 0
      vertex 5 6.07929 0
      vertex 26.1756 31.0797 0
    endloop
  endfacet
  facet normal 0 0 1
    outer loop
      vertex 26.1756 31.0797 0
      vertex 5 6.07929 0
      vertex 26.3092 30.7956 0
    endloop
  endfacet
  facet normal 0 0 1
    outer loop
      vertex 28.9685 29.5443 0
      vertex 5 6.07929 0
      vertex 67 6.07929 0
    endloop
  endfacet
  facet normal 0 0 1
    outer loop
      vertex 26.9064 30.0737 0
      vertex 5 6.07929 0
      vertex 27.1604 29.8892 0
    endloop
  endfacet
  facet normal 0 0 1
    outer loop
      vertex 26.6776 30.2886 0
      vertex 5 6.07929 0
      vertex 26.9064 30.0737 0
    endloop
  endfacet
  facet normal 0 0 1
    outer loop
      vertex 26.4775 30.5305 0
      vertex 5 6.07929 0
      vertex 26.6776 30.2886 0
    endloop
  endfacet
  facet normal 0 0 1
    outer loop
      vertex 26.3092 30.7956 0
      vertex 5 6.07929 0
      vertex 26.4775 30.5305 0
    endloop
  endfacet
  facet normal -0.587698 -0.80908 0
    outer loop
      vertex 29.8396 34.1108 -14.8672
      vertex 30.0936 33.9263 0
      vertex 29.8396 34.1108 0
    endloop
  endfacet
  facet normal -0.587698 -0.80908 -0
    outer loop
      vertex 30.0936 33.9263 0
      vertex 29.8396 34.1108 -14.8672
      vertex 30.0936 33.9263 -14.8788
    endloop
  endfacet
  facet normal 0.248828 0.968548 -0
    outer loop
      vertex 28.0315 29.5443 -14.8455
      vertex 27.7275 29.6224 0
      vertex 28.0315 29.5443 0
    endloop
  endfacet
  facet normal 0.248828 0.968548 0
    outer loop
      vertex 27.7275 29.6224 0
      vertex 28.0315 29.5443 -14.8455
      vertex 27.7275 29.6224 -14.8504
    endloop
  endfacet
  facet normal 0.367928 -0.929854 0
    outer loop
      vertex 27.4356 34.2621 0
      vertex 27.7275 34.3776 -14.8504
      vertex 27.7275 34.3776 0
    endloop
  endfacet
  facet normal 0.367928 -0.929854 0
    outer loop
      vertex 27.7275 34.3776 -14.8504
      vertex 27.4356 34.2621 0
      vertex 27.4356 34.2621 -14.8577
    endloop
  endfacet
  facet normal 0.904934 -0.425552 0
    outer loop
      vertex 26.1756 32.9203 0
      vertex 26.3092 33.2044 -14.9242
      vertex 26.3092 33.2044 0
    endloop
  endfacet
  facet normal 0.904934 -0.425552 0
    outer loop
      vertex 26.3092 33.2044 -14.9242
      vertex 26.1756 32.9203 0
      vertex 26.1756 32.9203 -14.9421
    endloop
  endfacet
  facet normal -0.904934 -0.425552 -0
    outer loop
      vertex 30.8244 32.9203 0
      vertex 30.6908 33.2044 -14.9242
      vertex 30.8244 32.9203 -14.9421
    endloop
  endfacet
  facet normal -0.904934 -0.425552 0
    outer loop
      vertex 30.6908 33.2044 -14.9242
      vertex 30.8244 32.9203 0
      vertex 30.6908 33.2044 0
    endloop
  endfacet
  facet normal -0.844238 -0.535969 -0
    outer loop
      vertex 30.6908 33.2044 0
      vertex 30.5225 33.4695 -14.9075
      vertex 30.6908 33.2044 -14.9242
    endloop
  endfacet
  facet normal -0.844238 -0.535969 0
    outer loop
      vertex 30.5225 33.4695 -14.9075
      vertex 30.6908 33.2044 0
      vertex 30.5225 33.4695 0
    endloop
  endfacet
  facet normal -0.684619 -0.728901 0
    outer loop
      vertex 30.0936 33.9263 -14.8788
      vertex 30.3224 33.7114 0
      vertex 30.0936 33.9263 0
    endloop
  endfacet
  facet normal -0.684619 -0.728901 -0
    outer loop
      vertex 30.3224 33.7114 0
      vertex 30.0936 33.9263 -14.8788
      vertex 30.3224 33.7114 -14.8923
    endloop
  endfacet
  facet normal -0.367928 -0.929854 0
    outer loop
      vertex 29.2725 34.3776 -14.8504
      vertex 29.5644 34.2621 0
      vertex 29.2725 34.3776 0
    endloop
  endfacet
  facet normal -0.367928 -0.929854 -0
    outer loop
      vertex 29.5644 34.2621 0
      vertex 29.2725 34.3776 -14.8504
      vertex 29.5644 34.2621 -14.8577
    endloop
  endfacet
  facet normal -0.248828 -0.968548 0
    outer loop
      vertex 28.9685 34.4557 -14.8455
      vertex 29.2725 34.3776 0
      vertex 28.9685 34.4557 0
    endloop
  endfacet
  facet normal -0.248828 -0.968548 -0
    outer loop
      vertex 29.2725 34.3776 0
      vertex 28.9685 34.4557 -14.8455
      vertex 29.2725 34.3776 -14.8504
    endloop
  endfacet
  facet normal 0.77054 -0.637392 0
    outer loop
      vertex 26.4775 33.4695 0
      vertex 26.6776 33.7114 -14.8923
      vertex 26.6776 33.7114 0
    endloop
  endfacet
  facet normal 0.77054 -0.637392 0
    outer loop
      vertex 26.6776 33.7114 -14.8923
      vertex 26.4775 33.4695 0
      vertex 26.4775 33.4695 -14.9075
    endloop
  endfacet
  facet normal 0.125485 -0.992096 0
    outer loop
      vertex 28.0315 34.4557 0
      vertex 28.343 34.4951 -14.843
      vertex 28.343 34.4951 0
    endloop
  endfacet
  facet normal 0.125485 -0.992096 0
    outer loop
      vertex 28.343 34.4951 -14.843
      vertex 28.0315 34.4557 0
      vertex 28.0315 34.4557 -14.8455
    endloop
  endfacet
  facet normal 0.684619 -0.728901 0
    outer loop
      vertex 26.6776 33.7114 0
      vertex 26.9064 33.9263 -14.8788
      vertex 26.9064 33.9263 0
    endloop
  endfacet
  facet normal 0.684619 -0.728901 0
    outer loop
      vertex 26.9064 33.9263 -14.8788
      vertex 26.6776 33.7114 0
      vertex 26.6776 33.7114 -14.8923
    endloop
  endfacet
  facet normal -0.998029 0.0627551 0
    outer loop
      vertex 30.9803 31.6867 -14.9803
      vertex 31 32 0
      vertex 31 32 -15
    endloop
  endfacet
  facet normal -0.998029 0.0627551 0
    outer loop
      vertex 31 32 0
      vertex 30.9803 31.6867 -14.9803
      vertex 30.9803 31.6867 0
    endloop
  endfacet
  facet normal -0.125485 0.992096 0
    outer loop
      vertex 28.9685 29.5443 0
      vertex 28.657 29.5049 -14.843
      vertex 28.657 29.5049 0
    endloop
  endfacet
  facet normal -0.125485 0.992096 0
    outer loop
      vertex 28.657 29.5049 -14.843
      vertex 28.9685 29.5443 0
      vertex 28.9685 29.5443 -14.8455
    endloop
  endfacet
  facet normal -0.77054 0.637392 0
    outer loop
      vertex 30.3224 30.2886 -14.8923
      vertex 30.5225 30.5305 0
      vertex 30.5225 30.5305 -14.9075
    endloop
  endfacet
  facet normal -0.77054 0.637392 0
    outer loop
      vertex 30.5225 30.5305 0
      vertex 30.3224 30.2886 -14.8923
      vertex 30.3224 30.2886 0
    endloop
  endfacet
  facet normal 0.125485 0.992096 -0
    outer loop
      vertex 28.343 29.5049 -14.843
      vertex 28.0315 29.5443 0
      vertex 28.343 29.5049 0
    endloop
  endfacet
  facet normal 0.125485 0.992096 0
    outer loop
      vertex 28.0315 29.5443 0
      vertex 28.343 29.5049 -14.843
      vertex 28.0315 29.5443 -14.8455
    endloop
  endfacet
  facet normal 0.587698 0.80908 -0
    outer loop
      vertex 27.1604 29.8892 -14.8672
      vertex 26.9064 30.0737 0
      vertex 27.1604 29.8892 0
    endloop
  endfacet
  facet normal 0.587698 0.80908 0
    outer loop
      vertex 26.9064 30.0737 0
      vertex 27.1604 29.8892 -14.8672
      vertex 26.9064 30.0737 -14.8788
    endloop
  endfacet
  facet normal 0.950983 0.309244 -0
    outer loop
      vertex 26.1756 31.0797 -14.9421
      vertex 26.0785 31.3783 0
      vertex 26.1756 31.0797 0
    endloop
  endfacet
  facet normal 0.950983 0.309244 0
    outer loop
      vertex 26.0785 31.3783 0
      vertex 26.1756 31.0797 -14.9421
      vertex 26.0785 31.3783 -14.9609
    endloop
  endfacet
  facet normal -0.982305 -0.187288 -0
    outer loop
      vertex 30.9803 32.3133 0
      vertex 30.9215 32.6217 -14.9609
      vertex 30.9803 32.3133 -14.9803
    endloop
  endfacet
  facet normal -0.982305 -0.187288 0
    outer loop
      vertex 30.9215 32.6217 -14.9609
      vertex 30.9803 32.3133 0
      vertex 30.9215 32.6217 0
    endloop
  endfacet
  facet normal -0.950983 -0.309244 -0
    outer loop
      vertex 30.9215 32.6217 0
      vertex 30.8244 32.9203 -14.9421
      vertex 30.9215 32.6217 -14.9609
    endloop
  endfacet
  facet normal -0.950983 -0.309244 0
    outer loop
      vertex 30.8244 32.9203 -14.9421
      vertex 30.9215 32.6217 0
      vertex 30.8244 32.9203 0
    endloop
  endfacet
  facet normal -0.77054 -0.637392 -0
    outer loop
      vertex 30.5225 33.4695 0
      vertex 30.3224 33.7114 -14.8923
      vertex 30.5225 33.4695 -14.9075
    endloop
  endfacet
  facet normal -0.77054 -0.637392 0
    outer loop
      vertex 30.3224 33.7114 -14.8923
      vertex 30.5225 33.4695 0
      vertex 30.3224 33.7114 0
    endloop
  endfacet
  facet normal -0.481772 -0.876297 0
    outer loop
      vertex 29.5644 34.2621 -14.8577
      vertex 29.8396 34.1108 0
      vertex 29.5644 34.2621 0
    endloop
  endfacet
  facet normal -0.481772 -0.876297 -0
    outer loop
      vertex 29.8396 34.1108 0
      vertex 29.5644 34.2621 -14.8577
      vertex 29.8396 34.1108 -14.8672
    endloop
  endfacet
  facet normal 0 -1 0
    outer loop
      vertex 28.343 34.4951 -14.843
      vertex 28.657 34.4951 0
      vertex 28.343 34.4951 0
    endloop
  endfacet
  facet normal 0 -1 -0
    outer loop
      vertex 28.657 34.4951 0
      vertex 28.343 34.4951 -14.843
      vertex 28.657 34.4951 -14.843
    endloop
  endfacet
  facet normal 0.998029 0.0627551 -0
    outer loop
      vertex 26.0197 31.6867 -14.9803
      vertex 26 32 0
      vertex 26.0197 31.6867 0
    endloop
  endfacet
  facet normal 0.998029 0.0627551 0
    outer loop
      vertex 26 32 0
      vertex 26.0197 31.6867 -14.9803
      vertex 26 32 -15
    endloop
  endfacet
  facet normal 0.950983 -0.309244 0
    outer loop
      vertex 26.0785 32.6217 0
      vertex 26.1756 32.9203 -14.9421
      vertex 26.1756 32.9203 0
    endloop
  endfacet
  facet normal 0.950983 -0.309244 0
    outer loop
      vertex 26.1756 32.9203 -14.9421
      vertex 26.0785 32.6217 0
      vertex 26.0785 32.6217 -14.9609
    endloop
  endfacet
  facet normal 0.982305 -0.187288 0
    outer loop
      vertex 26.0197 32.3133 0
      vertex 26.0785 32.6217 -14.9609
      vertex 26.0785 32.6217 0
    endloop
  endfacet
  facet normal 0.982305 -0.187288 0
    outer loop
      vertex 26.0785 32.6217 -14.9609
      vertex 26.0197 32.3133 0
      vertex 26.0197 32.3133 -14.9803
    endloop
  endfacet
  facet normal 0.844238 -0.535969 0
    outer loop
      vertex 26.3092 33.2044 0
      vertex 26.4775 33.4695 -14.9075
      vertex 26.4775 33.4695 0
    endloop
  endfacet
  facet normal 0.844238 -0.535969 0
    outer loop
      vertex 26.4775 33.4695 -14.9075
      vertex 26.3092 33.2044 0
      vertex 26.3092 33.2044 -14.9242
    endloop
  endfacet
  facet normal 0.248828 -0.968548 0
    outer loop
      vertex 27.7275 34.3776 0
      vertex 28.0315 34.4557 -14.8455
      vertex 28.0315 34.4557 0
    endloop
  endfacet
  facet normal 0.248828 -0.968548 0
    outer loop
      vertex 28.0315 34.4557 -14.8455
      vertex 27.7275 34.3776 0
      vertex 27.7275 34.3776 -14.8504
    endloop
  endfacet
  facet normal 0.587698 -0.80908 0
    outer loop
      vertex 26.9064 33.9263 0
      vertex 27.1604 34.1108 -14.8672
      vertex 27.1604 34.1108 0
    endloop
  endfacet
  facet normal 0.587698 -0.80908 0
    outer loop
      vertex 27.1604 34.1108 -14.8672
      vertex 26.9064 33.9263 0
      vertex 26.9064 33.9263 -14.8788
    endloop
  endfacet
  facet normal 0.481772 -0.876297 0
    outer loop
      vertex 27.1604 34.1108 0
      vertex 27.4356 34.2621 -14.8577
      vertex 27.4356 34.2621 0
    endloop
  endfacet
  facet normal 0.481772 -0.876297 0
    outer loop
      vertex 27.4356 34.2621 -14.8577
      vertex 27.1604 34.1108 0
      vertex 27.1604 34.1108 -14.8672
    endloop
  endfacet
  facet normal -0.998029 -0.0627551 -0
    outer loop
      vertex 31 32 0
      vertex 30.9803 32.3133 -14.9803
      vertex 31 32 -15
    endloop
  endfacet
  facet normal -0.998029 -0.0627551 0
    outer loop
      vertex 30.9803 32.3133 -14.9803
      vertex 31 32 0
      vertex 30.9803 32.3133 0
    endloop
  endfacet
  facet normal -0.950983 0.309244 0
    outer loop
      vertex 30.8244 31.0797 -14.9421
      vertex 30.9215 31.3783 0
      vertex 30.9215 31.3783 -14.9609
    endloop
  endfacet
  facet normal -0.950983 0.309244 0
    outer loop
      vertex 30.9215 31.3783 0
      vertex 30.8244 31.0797 -14.9421
      vertex 30.8244 31.0797 0
    endloop
  endfacet
  facet normal -0.248828 0.968548 0
    outer loop
      vertex 29.2725 29.6224 0
      vertex 28.9685 29.5443 -14.8455
      vertex 28.9685 29.5443 0
    endloop
  endfacet
  facet normal -0.248828 0.968548 0
    outer loop
      vertex 28.9685 29.5443 -14.8455
      vertex 29.2725 29.6224 0
      vertex 29.2725 29.6224 -14.8504
    endloop
  endfacet
  facet normal -0.684619 0.728901 0
    outer loop
      vertex 30.3224 30.2886 0
      vertex 30.0936 30.0737 -14.8788
      vertex 30.0936 30.0737 0
    endloop
  endfacet
  facet normal -0.684619 0.728901 0
    outer loop
      vertex 30.0936 30.0737 -14.8788
      vertex 30.3224 30.2886 0
      vertex 30.3224 30.2886 -14.8923
    endloop
  endfacet
  facet normal -0.481772 0.876297 0
    outer loop
      vertex 29.8396 29.8892 0
      vertex 29.5644 29.7379 -14.8577
      vertex 29.5644 29.7379 0
    endloop
  endfacet
  facet normal -0.481772 0.876297 0
    outer loop
      vertex 29.5644 29.7379 -14.8577
      vertex 29.8396 29.8892 0
      vertex 29.8396 29.8892 -14.8672
    endloop
  endfacet
  facet normal -0.904934 0.425552 0
    outer loop
      vertex 30.6908 30.7956 -14.9242
      vertex 30.8244 31.0797 0
      vertex 30.8244 31.0797 -14.9421
    endloop
  endfacet
  facet normal -0.904934 0.425552 0
    outer loop
      vertex 30.8244 31.0797 0
      vertex 30.6908 30.7956 -14.9242
      vertex 30.6908 30.7956 0
    endloop
  endfacet
  facet normal 0 1 -0
    outer loop
      vertex 28.657 29.5049 -14.843
      vertex 28.343 29.5049 0
      vertex 28.657 29.5049 0
    endloop
  endfacet
  facet normal 0 1 0
    outer loop
      vertex 28.343 29.5049 0
      vertex 28.657 29.5049 -14.843
      vertex 28.343 29.5049 -14.843
    endloop
  endfacet
  facet normal 0.367928 0.929854 -0
    outer loop
      vertex 27.7275 29.6224 -14.8504
      vertex 27.4356 29.7379 0
      vertex 27.7275 29.6224 0
    endloop
  endfacet
  facet normal 0.367928 0.929854 0
    outer loop
      vertex 27.4356 29.7379 0
      vertex 27.7275 29.6224 -14.8504
      vertex 27.4356 29.7379 -14.8577
    endloop
  endfacet
  facet normal 0.904934 0.425552 -0
    outer loop
      vertex 26.3092 30.7956 -14.9242
      vertex 26.1756 31.0797 0
      vertex 26.3092 30.7956 0
    endloop
  endfacet
  facet normal 0.904934 0.425552 0
    outer loop
      vertex 26.1756 31.0797 0
      vertex 26.3092 30.7956 -14.9242
      vertex 26.1756 31.0797 -14.9421
    endloop
  endfacet
  facet normal 0.982305 0.187288 -0
    outer loop
      vertex 26.0785 31.3783 -14.9609
      vertex 26.0197 31.6867 0
      vertex 26.0785 31.3783 0
    endloop
  endfacet
  facet normal 0.982305 0.187288 0
    outer loop
      vertex 26.0197 31.6867 0
      vertex 26.0785 31.3783 -14.9609
      vertex 26.0197 31.6867 -14.9803
    endloop
  endfacet
  facet normal 0.684619 0.728901 -0
    outer loop
      vertex 26.9064 30.0737 -14.8788
      vertex 26.6776 30.2886 0
      vertex 26.9064 30.0737 0
    endloop
  endfacet
  facet normal 0.684619 0.728901 0
    outer loop
      vertex 26.6776 30.2886 0
      vertex 26.9064 30.0737 -14.8788
      vertex 26.6776 30.2886 -14.8923
    endloop
  endfacet
  facet normal 0.844238 0.535969 -0
    outer loop
      vertex 26.4775 30.5305 -14.9075
      vertex 26.3092 30.7956 0
      vertex 26.4775 30.5305 0
    endloop
  endfacet
  facet normal 0.844238 0.535969 0
    outer loop
      vertex 26.3092 30.7956 0
      vertex 26.4775 30.5305 -14.9075
      vertex 26.3092 30.7956 -14.9242
    endloop
  endfacet
  facet normal -0.125485 -0.992096 0
    outer loop
      vertex 28.657 34.4951 -14.843
      vertex 28.9685 34.4557 0
      vertex 28.657 34.4951 0
    endloop
  endfacet
  facet normal -0.125485 -0.992096 -0
    outer loop
      vertex 28.9685 34.4557 0
      vertex 28.657 34.4951 -14.843
      vertex 28.9685 34.4557 -14.8455
    endloop
  endfacet
  facet normal 0.998029 -0.0627551 0
    outer loop
      vertex 26 32 0
      vertex 26.0197 32.3133 -14.9803
      vertex 26.0197 32.3133 0
    endloop
  endfacet
  facet normal 0.998029 -0.0627551 0
    outer loop
      vertex 26.0197 32.3133 -14.9803
      vertex 26 32 0
      vertex 26 32 -15
    endloop
  endfacet
  facet normal -0.982305 0.187288 0
    outer loop
      vertex 30.9215 31.3783 -14.9609
      vertex 30.9803 31.6867 0
      vertex 30.9803 31.6867 -14.9803
    endloop
  endfacet
  facet normal -0.982305 0.187288 0
    outer loop
      vertex 30.9803 31.6867 0
      vertex 30.9215 31.3783 -14.9609
      vertex 30.9215 31.3783 0
    endloop
  endfacet
  facet normal -0.367928 0.929854 0
    outer loop
      vertex 29.5644 29.7379 0
      vertex 29.2725 29.6224 -14.8504
      vertex 29.2725 29.6224 0
    endloop
  endfacet
  facet normal -0.367928 0.929854 0
    outer loop
      vertex 29.2725 29.6224 -14.8504
      vertex 29.5644 29.7379 0
      vertex 29.5644 29.7379 -14.8577
    endloop
  endfacet
  facet normal -0.587698 0.80908 0
    outer loop
      vertex 30.0936 30.0737 0
      vertex 29.8396 29.8892 -14.8672
      vertex 29.8396 29.8892 0
    endloop
  endfacet
  facet normal -0.587698 0.80908 0
    outer loop
      vertex 29.8396 29.8892 -14.8672
      vertex 30.0936 30.0737 0
      vertex 30.0936 30.0737 -14.8788
    endloop
  endfacet
  facet normal -0.844238 0.535969 0
    outer loop
      vertex 30.5225 30.5305 -14.9075
      vertex 30.6908 30.7956 0
      vertex 30.6908 30.7956 -14.9242
    endloop
  endfacet
  facet normal -0.844238 0.535969 0
    outer loop
      vertex 30.6908 30.7956 0
      vertex 30.5225 30.5305 -14.9075
      vertex 30.5225 30.5305 0
    endloop
  endfacet
  facet normal 0.481772 0.876297 -0
    outer loop
      vertex 27.4356 29.7379 -14.8577
      vertex 27.1604 29.8892 0
      vertex 27.4356 29.7379 0
    endloop
  endfacet
  facet normal 0.481772 0.876297 0
    outer loop
      vertex 27.1604 29.8892 0
      vertex 27.4356 29.7379 -14.8577
      vertex 27.1604 29.8892 -14.8672
    endloop
  endfacet
  facet normal 0.77054 0.637392 -0
    outer loop
      vertex 26.6776 30.2886 -14.8923
      vertex 26.4775 30.5305 0
      vertex 26.6776 30.2886 0
    endloop
  endfacet
  facet normal 0.77054 0.637392 0
    outer loop
      vertex 26.4775 30.5305 0
      vertex 26.6776 30.2886 -14.8923
      vertex 26.4775 30.5305 -14.9075
    endloop
  endfacet
endsolid OpenSCAD_Model
